# Blender 4.1.0
# www.blender.org
mtllib convex_75.mtl
o convex_75
v 0.104783 -0.411060 -0.225905
v 0.104460 -0.411060 -0.226339
v 0.104783 -0.411060 -0.216786
v 0.104783 -0.427352 -0.228841
v 0.102845 -0.411060 -0.227788
v 0.103716 -0.419397 -0.228576
v 0.077745 -0.411060 -0.229380
v 0.077745 -0.441239 -0.221920
v 0.077745 -0.449056 -0.220658
v 0.089147 -0.469031 -0.214767
v 0.101353 -0.471775 -0.212681
v 0.104783 -0.468348 -0.213196
v 0.104783 -0.430884 -0.228890
v 0.104484 -0.427640 -0.229160
v 0.101398 -0.411060 -0.228925
v 0.095467 -0.411060 -0.232734
v 0.100575 -0.411060 -0.229486
v 0.077745 -0.411060 -0.236038
v 0.077745 -0.450590 -0.220661
v 0.080495 -0.465536 -0.218653
v 0.080495 -0.464490 -0.218653
v 0.089147 -0.469971 -0.214767
v 0.098105 -0.474850 -0.213933
v 0.101353 -0.475051 -0.213422
v 0.104783 -0.472564 -0.213369
v 0.104783 -0.471812 -0.213201
v 0.104452 -0.430884 -0.229126
v 0.104783 -0.442779 -0.228657
v 0.104656 -0.443068 -0.228742
v 0.101353 -0.430884 -0.231112
v 0.098579 -0.430884 -0.232734
v 0.094771 -0.411060 -0.233129
v 0.077931 -0.411060 -0.236054
v 0.078635 -0.412707 -0.236200
v 0.077745 -0.411817 -0.236075
v 0.077745 -0.453597 -0.220850
v 0.077745 -0.456384 -0.222687
v 0.077745 -0.456410 -0.223357
v 0.077745 -0.456422 -0.225605
v 0.080495 -0.465536 -0.219792
v 0.085272 -0.469683 -0.218491
v 0.098105 -0.474850 -0.215335
v 0.101353 -0.475051 -0.215534
v 0.104230 -0.474581 -0.213859
v 0.104783 -0.473616 -0.213683
v 0.104783 -0.443199 -0.228647
v 0.099884 -0.447302 -0.228747
v 0.096809 -0.444508 -0.230632
v 0.092265 -0.430884 -0.235520
v 0.096306 -0.430884 -0.233859
v 0.087723 -0.417254 -0.235213
v 0.078635 -0.411060 -0.236114
v 0.087723 -0.426343 -0.236281
v 0.078635 -0.421796 -0.235807
v 0.077745 -0.421796 -0.235541
v 0.077745 -0.453603 -0.227217
v 0.080633 -0.456046 -0.228689
v 0.085272 -0.469683 -0.219473
v 0.087723 -0.470033 -0.219623
v 0.104230 -0.474581 -0.215273
v 0.091026 -0.470033 -0.219616
v 0.081625 -0.456046 -0.228689
v 0.104783 -0.473616 -0.215541
v 0.104783 -0.444552 -0.228095
v 0.104783 -0.447947 -0.226633
v 0.096809 -0.448060 -0.229387
v 0.092265 -0.444508 -0.231454
v 0.087723 -0.430884 -0.235770
v 0.080117 -0.453597 -0.229223
v 0.077745 -0.426525 -0.234421
vn 0.0005 1.0000 -0.0000
vn 0.0001 1.0000 -0.0000
vn -0.0003 1.0000 -0.0000
vn -0.0000 1.0000 -0.0000
vn -0.0001 1.0000 -0.0000
vn 1.0000 -0.0000 -0.0000
vn 1.0000 -0.0000 -0.0002
vn 0.7976 0.1070 -0.5936
vn 0.7197 0.1193 -0.6840
vn 0.6614 0.1388 -0.7371
vn -0.4120 0.2187 0.8846
vn -0.3432 0.1497 0.9273
vn -0.2937 0.1123 0.9493
vn -0.1515 0.0752 0.9856
vn 0.0870 0.0623 0.9943
vn 0.7252 0.0096 -0.6884
vn 0.6712 0.1144 -0.7324
vn 0.6120 0.1375 -0.7788
vn 0.5331 0.1091 -0.8390
vn 0.5333 0.1094 -0.8388
vn 0.5591 0.1211 -0.8202
vn -1.0000 -0.0000 -0.0000
vn -0.5953 -0.0016 0.8035
vn -0.5892 -0.0000 0.8080
vn -0.3870 0.0507 0.9207
vn -0.4097 -0.0000 0.9122
vn -0.1684 -0.0000 0.9857
vn -0.1925 -0.1888 0.9630
vn -0.1648 -0.2176 0.9620
vn 0.1434 -0.2183 0.9653
vn 0.1441 -0.2158 0.9658
vn 0.1499 -0.0014 0.9887
vn 0.5805 -0.0143 -0.8141
vn 0.5809 -0.0159 -0.8138
vn 0.5805 -0.0159 -0.8141
vn 0.5395 -0.0141 -0.8419
vn 0.5045 0.0322 -0.8628
vn 0.4855 0.0759 -0.8710
vn 0.4920 0.0807 -0.8669
vn -0.0860 0.0515 -0.9950
vn -0.0912 0.0486 -0.9946
vn -0.7305 -0.0428 0.6815
vn -0.9504 -0.1711 0.2596
vn -0.9590 -0.2833 0.0110
vn -0.9577 -0.2878 0.0015
vn -0.9574 -0.2889 -0.0000
vn -0.6556 -0.7551 -0.0000
vn -0.6555 -0.7552 -0.0000
vn -0.5632 -0.6277 0.5374
vn -0.4636 -0.7791 0.4221
vn -0.0618 -0.9981 -0.0000
vn -0.3735 -0.9276 -0.0000
vn 0.1612 -0.9869 -0.0000
vn 0.1888 -0.2804 0.9411
vn 0.1905 -0.2808 0.9407
vn 0.5395 -0.0175 -0.8418
vn 0.5862 -0.0193 -0.8100
vn 0.3073 -0.3452 -0.8868
vn 0.2760 -0.3100 -0.9098
vn 0.2692 -0.2444 -0.9315
vn 0.3771 -0.1269 -0.9174
vn 0.4424 -0.0722 -0.8939
vn 0.5045 -0.0311 -0.8628
vn 0.4425 0.0672 -0.8942
vn 0.1805 0.1229 -0.9759
vn 0.3794 0.0634 -0.9231
vn 0.2469 0.0852 -0.9653
vn 0.1877 0.1146 -0.9755
vn -0.0848 0.0520 -0.9950
vn 0.0692 0.0520 -0.9962
vn -0.0735 -0.0431 -0.9964
vn -0.1807 -0.0425 -0.9826
vn -0.2862 -0.0512 -0.9568
vn -0.6531 -0.3759 -0.6573
vn -0.5714 -0.5569 -0.6028
vn -0.4759 -0.5978 -0.6451
vn -0.1508 -0.8185 -0.5543
vn -0.0865 -0.7599 -0.6442
vn 0.0016 -0.6290 -0.7774
vn 0.1028 -0.4918 -0.8646
vn 0.1533 -0.4499 -0.8798
vn 0.8676 -0.4972 -0.0000
vn 0.3179 -0.3582 -0.8779
vn 0.3252 -0.3751 -0.8681
vn 0.2786 -0.3888 -0.8782
vn 0.2678 -0.3187 -0.9092
vn 0.3255 -0.3740 -0.8684
vn 0.1683 -0.3261 -0.9302
vn 0.1708 -0.2818 -0.9442
vn 0.0546 -0.1117 -0.9922
vn 0.0610 -0.2855 -0.9565
vn 0.0527 -0.2823 -0.9579
vn 0.1752 0.1149 -0.9778
vn -0.1072 -0.1112 -0.9880
vn -0.2037 -0.2076 -0.9568
vn -0.2804 -0.2071 -0.9373
vn -0.4458 -0.2063 -0.8710
vn -0.6326 -0.1991 -0.7484
vn -0.6178 -0.2896 -0.7311
vn -0.0000 -0.5439 -0.8391
vn -0.1326 -0.5856 -0.7997
vn -0.1240 -0.2363 -0.9637
vn -0.0000 -0.2709 -0.9626
vn 0.0018 -0.5434 -0.8395
vn 0.1811 -0.4220 -0.8883
vn 0.2626 -0.3950 -0.8803
vn 0.1437 -0.3540 -0.9242
s 0
f 1//1 2//1 5//1
f 1//2 5//2 15//2
f 1//3 15//3 17//3
f 1//4 17//4 16//4
f 1//2 16//2 32//2
f 1//4 32//4 52//4
f 1//4 52//4 33//4
f 1//5 33//5 18//5
f 1//4 18//4 7//4
f 1//4 7//4 3//4
f 1//6 3//6 12//6
f 1//6 12//6 26//6
f 1//6 26//6 25//6
f 1//6 25//6 45//6
f 1//6 45//6 63//6
f 1//6 63//6 65//6
f 1//6 65//6 64//6
f 1//6 64//6 46//6
f 1//7 46//7 28//7
f 1//6 28//6 13//6
f 1//6 13//6 4//6
f 1//8 4//8 2//8
f 2//9 4//9 6//9
f 2//10 6//10 5//10
f 3//11 7//11 8//11
f 3//12 8//12 9//12
f 3//13 9//13 10//13
f 3//14 10//14 11//14
f 3//15 11//15 12//15
f 4//16 13//16 14//16
f 4//17 14//17 6//17
f 5//18 6//18 15//18
f 6//19 14//19 16//19
f 6//20 16//20 17//20
f 6//21 17//21 15//21
f 7//22 18//22 35//22
f 7//22 35//22 55//22
f 7//22 55//22 70//22
f 7//22 70//22 56//22
f 7//22 56//22 39//22
f 7//22 39//22 38//22
f 7//22 38//22 37//22
f 7//22 37//22 36//22
f 7//22 36//22 19//22
f 7//22 19//22 9//22
f 7//22 9//22 8//22
f 9//23 19//23 20//23
f 9//24 20//24 21//24
f 9//25 21//25 10//25
f 10//26 21//26 20//26
f 10//26 20//26 22//26
f 10//27 22//27 11//27
f 11//28 22//28 23//28
f 11//29 23//29 24//29
f 11//30 24//30 25//30
f 11//31 25//31 26//31
f 11//32 26//32 12//32
f 13//33 27//33 14//33
f 13//34 28//34 29//34
f 13//35 29//35 27//35
f 14//36 27//36 30//36
f 14//37 30//37 31//37
f 14//38 31//38 32//38
f 14//39 32//39 16//39
f 18//40 33//40 34//40
f 18//41 34//41 35//41
f 19//42 36//42 20//42
f 20//43 36//43 37//43
f 20//44 37//44 38//44
f 20//45 38//45 39//45
f 20//46 39//46 40//46
f 20//47 40//47 58//47
f 20//48 58//48 41//48
f 20//49 41//49 22//49
f 22//50 41//50 23//50
f 23//51 42//51 43//51
f 23//51 43//51 24//51
f 23//52 41//52 58//52
f 23//52 58//52 42//52
f 24//53 43//53 60//53
f 24//53 60//53 44//53
f 24//54 44//54 25//54
f 25//55 44//55 45//55
f 27//56 29//56 30//56
f 28//57 46//57 29//57
f 29//58 46//58 47//58
f 29//59 47//59 48//59
f 29//60 48//60 49//60
f 29//61 49//61 50//61
f 29//62 50//62 31//62
f 29//63 31//63 30//63
f 31//64 50//64 32//64
f 32//65 51//65 52//65
f 32//66 50//66 49//66
f 32//67 49//67 53//67
f 32//68 53//68 51//68
f 33//69 52//69 34//69
f 34//70 52//70 53//70
f 34//71 53//71 54//71
f 34//72 54//72 35//72
f 35//73 54//73 55//73
f 39//74 56//74 57//74
f 39//75 57//75 40//75
f 40//76 57//76 58//76
f 42//77 58//77 59//77
f 42//78 59//78 43//78
f 43//79 59//79 61//79
f 43//80 61//80 62//80
f 43//81 62//81 60//81
f 44//82 60//82 63//82
f 44//82 63//82 45//82
f 46//83 64//83 47//83
f 47//84 65//84 63//84
f 47//85 63//85 66//85
f 47//86 66//86 48//86
f 47//87 64//87 65//87
f 48//88 66//88 67//88
f 48//89 67//89 49//89
f 49//90 68//90 53//90
f 49//91 67//91 62//91
f 49//92 62//92 68//92
f 51//93 53//93 52//93
f 53//94 68//94 54//94
f 54//95 68//95 69//95
f 54//96 69//96 55//96
f 55//97 69//97 70//97
f 56//98 70//98 69//98
f 56//99 69//99 57//99
f 57//100 62//100 59//100
f 57//101 59//101 58//101
f 57//102 69//102 68//102
f 57//103 68//103 62//103
f 59//104 62//104 61//104
f 60//105 62//105 66//105
f 60//106 66//106 63//106
f 62//107 67//107 66//107
