# Blender 4.1.0
# www.blender.org
mtllib convex_96.mtl
o convex_96
v -0.011024 -0.457866 0.101890
v -0.010430 -0.455674 0.101890
v -0.010471 -0.459109 0.097949
v -0.010471 -0.461012 0.097949
v -0.010614 -0.461213 0.100968
v -0.010516 -0.461101 0.101890
v -0.010364 -0.455448 0.101890
v -0.009789 -0.456080 0.099003
v -0.006001 -0.455067 0.088852
v -0.007210 -0.462160 0.087477
v -0.008820 -0.461213 0.100968
v -0.007396 -0.462160 0.091685
v -0.007387 -0.462160 0.092847
v -0.009012 -0.461101 0.101890
v -0.008906 -0.454530 0.101890
v -0.001350 -0.451012 0.084256
v 0.002785 -0.450487 0.070204
v -0.006353 -0.462160 0.086383
v 0.002793 -0.453603 0.069978
v 0.004392 -0.453603 0.067391
v 0.006246 -0.457842 0.067391
v -0.004350 -0.462160 0.092090
v -0.006078 -0.458322 0.101890
v 0.008862 -0.462160 0.081135
v -0.008044 -0.454549 0.101890
v -0.000447 -0.451012 0.086201
v -0.001350 -0.451012 0.086201
v 0.005005 -0.449015 0.068911
v 0.005298 -0.449015 0.067391
v 0.004392 -0.453142 0.067391
v -0.002932 -0.462160 0.082233
v 0.009398 -0.462160 0.067391
v -0.004903 -0.456818 0.101890
v 0.010642 -0.462160 0.078616
v -0.005416 -0.454636 0.101890
v 0.012389 -0.449015 0.067391
v 0.010521 -0.449015 0.069080
v 0.008106 -0.449015 0.071197
v 0.006177 -0.449015 0.072869
v 0.006151 -0.449015 0.072865
v 0.018246 -0.462160 0.067391
v -0.004903 -0.455021 0.101890
v 0.018129 -0.462160 0.067746
v 0.017730 -0.460971 0.067391
vn -0.9432 0.2552 -0.2128
vn -0.9903 -0.0000 -0.1390
vn -0.9928 -0.1066 -0.0542
vn -0.9805 -0.1537 0.1223
vn -0.0000 -0.0000 1.0000
vn -0.0000 0.0003 1.0000
vn -0.9345 0.2729 -0.2284
vn -0.9229 0.2942 -0.2485
vn -0.9007 0.3090 -0.3053
vn -0.9105 0.2227 -0.3484
vn -0.9548 -0.0000 -0.2973
vn -0.5534 -0.8289 -0.0814
vn -0.0000 -0.9927 0.1206
vn -0.3196 -0.9474 -0.0141
vn -0.2770 -0.9609 0.0021
vn -0.0000 -0.9933 0.1158
vn -0.8456 0.4608 -0.2695
vn -0.5318 0.8448 -0.0593
vn -0.6915 0.7003 -0.1773
vn -0.8172 0.5152 -0.2585
vn -0.9016 0.2253 -0.3694
vn 0.0012 -1.0000 -0.0000
vn -0.0000 -1.0000 -0.0000
vn 0.0001 -1.0000 -0.0000
vn 0.0005 -1.0000 -0.0000
vn -0.8745 0.0327 -0.4839
vn -0.8479 -0.0806 -0.5240
vn -0.7506 -0.3283 -0.5734
vn -0.7273 -0.3829 -0.5696
vn 0.0302 -0.9922 0.1210
vn 0.0496 -0.9902 0.1306
vn 0.1441 -0.9742 0.1738
vn 0.5820 -0.6145 0.5326
vn 0.0214 0.9730 0.2297
vn -0.0000 0.9758 0.2188
vn -0.4221 0.9066 -0.0000
vn -0.2998 0.9540 -0.0000
vn -0.5037 0.8584 -0.0969
vn -0.6224 0.7673 -0.1545
vn -0.7775 0.1706 -0.6053
vn -0.8529 0.0355 -0.5209
vn -0.6772 -0.4794 -0.5582
vn -0.8506 -0.0000 -0.5258
vn -0.0000 -0.0000 -1.0000
vn -0.6707 -0.4896 -0.5572
vn 0.6513 -0.5088 0.5629
vn 0.8093 -0.1356 0.5716
vn 0.0322 0.9716 0.2346
vn 0.3075 0.9012 0.3055
vn 0.2346 0.9368 0.2596
vn 0.2198 0.9427 0.2508
vn 0.2154 0.9444 0.2485
vn -0.0000 0.9890 0.1481
vn -0.0175 0.9903 0.1381
vn -0.1728 0.9837 0.0501
vn -0.0001 1.0000 -0.0000
vn -0.0000 1.0000 -0.0000
vn 0.8213 -0.0746 0.5657
vn 0.8290 -0.0000 0.5592
vn 0.5494 0.7320 0.4028
vn 0.8639 0.3859 0.3237
vn 0.8056 0.3643 0.4672
vn 0.8777 0.3808 0.2909
s 0
f 1//1 2//1 3//1
f 1//2 3//2 4//2
f 1//3 4//3 5//3
f 1//4 5//4 6//4
f 1//5 6//5 14//5
f 1//5 14//5 23//5
f 1//5 23//5 33//5
f 1//5 33//5 42//5
f 1//5 42//5 35//5
f 1//5 35//5 25//5
f 1//5 25//5 15//5
f 1//5 15//5 7//5
f 1//6 7//6 2//6
f 2//7 7//7 3//7
f 3//8 7//8 8//8
f 3//9 8//9 9//9
f 3//10 9//10 10//10
f 3//11 10//11 4//11
f 4//12 10//12 5//12
f 5//13 11//13 14//13
f 5//13 14//13 6//13
f 5//14 10//14 12//14
f 5//15 12//15 13//15
f 5//16 13//16 11//16
f 7//17 9//17 8//17
f 7//18 15//18 16//18
f 7//19 16//19 17//19
f 7//20 17//20 9//20
f 9//21 17//21 10//21
f 10//22 18//22 31//22
f 10//23 31//23 32//23
f 10//23 32//23 41//23
f 10//24 41//24 43//24
f 10//23 43//23 34//23
f 10//23 34//23 24//23
f 10//23 24//23 22//23
f 10//23 22//23 13//23
f 10//25 13//25 12//25
f 10//26 17//26 19//26
f 10//27 19//27 20//27
f 10//28 20//28 21//28
f 10//29 21//29 18//29
f 11//30 13//30 22//30
f 11//31 22//31 14//31
f 14//32 22//32 24//32
f 14//33 24//33 23//33
f 15//34 25//34 26//34
f 15//35 26//35 27//35
f 15//36 27//36 16//36
f 16//37 27//37 28//37
f 16//38 28//38 29//38
f 16//39 29//39 17//39
f 17//40 29//40 30//40
f 17//41 30//41 19//41
f 18//42 21//42 31//42
f 19//43 30//43 20//43
f 20//44 30//44 29//44
f 20//44 29//44 36//44
f 20//44 36//44 44//44
f 20//44 44//44 41//44
f 20//44 41//44 32//44
f 20//44 32//44 21//44
f 21//45 32//45 31//45
f 23//46 24//46 33//46
f 24//47 34//47 33//47
f 25//48 35//48 26//48
f 26//49 35//49 36//49
f 26//50 36//50 37//50
f 26//51 37//51 38//51
f 26//52 38//52 39//52
f 26//53 39//53 27//53
f 27//54 39//54 40//54
f 27//55 40//55 28//55
f 28//56 40//56 39//56
f 28//57 39//57 38//57
f 28//57 38//57 37//57
f 28//57 37//57 36//57
f 28//57 36//57 29//57
f 33//58 34//58 43//58
f 33//59 43//59 42//59
f 35//60 42//60 36//60
f 36//61 43//61 44//61
f 36//62 42//62 43//62
f 41//63 44//63 43//63
