# Blender 4.1.0
# www.blender.org
mtllib convex_113.mtl
o convex_113
v -0.021843 -0.363640 0.105028
v -0.021843 -0.369627 0.105028
v -0.021858 -0.362145 0.105028
v -0.021843 -0.362185 0.105517
v -0.021843 -0.396638 0.128194
v -0.052775 -0.396638 0.105028
v -0.035446 -0.365990 0.105028
v -0.028621 -0.364599 0.117314
v -0.021843 -0.362195 0.105626
v -0.021843 -0.396638 0.137288
v -0.061703 -0.396638 0.105028
v -0.038532 -0.367331 0.105028
v -0.046239 -0.374168 0.106978
v -0.051717 -0.391509 0.126635
v -0.046871 -0.387360 0.126418
v -0.033604 -0.373712 0.122875
v -0.024036 -0.392033 0.139730
v -0.023302 -0.392033 0.139730
v -0.025881 -0.364609 0.117321
v -0.021843 -0.363110 0.110110
v -0.021843 -0.394004 0.138364
v -0.023302 -0.392536 0.139730
v -0.024036 -0.392536 0.139730
v -0.027887 -0.396638 0.137203
v -0.055565 -0.386576 0.105028
v -0.053364 -0.396638 0.123802
v -0.043972 -0.372054 0.105028
v -0.045033 -0.373017 0.105028
v -0.048022 -0.375914 0.105028
v -0.048389 -0.376275 0.105028
v -0.048697 -0.376579 0.105028
v -0.051729 -0.380634 0.105028
v -0.050305 -0.379442 0.106560
v -0.051943 -0.396638 0.126730
v -0.048588 -0.396638 0.128595
v -0.048471 -0.389990 0.127349
v -0.021843 -0.393937 0.138364
v -0.021843 -0.391091 0.137631
v -0.021843 -0.366997 0.118096
v -0.023388 -0.364876 0.117029
v -0.021843 -0.364593 0.114743
v -0.033237 -0.396638 0.135535
v -0.032101 -0.396638 0.135966
v -0.021843 -0.365305 0.116523
vn -0.0000 -0.0000 -1.0000
vn -0.0000 0.0001 -1.0000
vn -0.0000 -0.0001 -1.0000
vn 0.9995 0.0104 -0.0310
vn 1.0000 -0.0000 -0.0000
vn 0.4942 -0.5660 -0.6599
vn -0.2721 0.9614 0.0423
vn -0.1978 0.9764 0.0862
vn -0.1922 0.9773 0.0895
vn -0.0000 -1.0000 -0.0000
vn -0.3958 0.9109 0.1167
vn -0.5870 0.7492 0.3069
vn -0.6111 0.6703 0.4210
vn -0.5266 0.6441 0.5548
vn -0.4922 0.6335 0.5970
vn -0.2239 0.5940 0.7727
vn -0.0000 0.6327 0.7744
vn 0.0003 0.6328 0.7743
vn 0.0031 0.9787 0.2052
vn -0.0027 0.9798 0.1999
vn 0.4372 -0.3401 0.8326
vn -0.0000 -0.5115 0.8593
vn -0.0120 -0.5162 0.8564
vn -0.9117 0.0690 0.4050
vn -0.8240 0.5027 0.2615
vn -0.6546 0.7539 0.0562
vn -0.6718 0.7404 0.0216
vn -0.6960 0.7181 -0.0065
vn -0.7014 0.7128 0.0033
vn -0.7021 0.7120 0.0047
vn -0.7733 0.5782 0.2600
vn -0.7725 0.5740 0.2716
vn -0.7692 0.5701 0.2886
vn -0.7763 0.5629 0.2837
vn -0.8104 0.5231 0.2637
vn -0.8987 0.0477 0.4360
vn -0.4854 0.0376 0.8735
vn -0.4247 0.0853 0.9013
vn -0.3801 0.4267 0.8206
vn -0.4068 0.5146 0.7548
vn -0.3586 0.4977 0.7898
vn -0.3419 0.5333 0.7738
vn -0.0000 -0.0000 1.0000
vn -0.4130 -0.0000 0.9107
vn 0.6834 -0.0000 0.7300
vn 0.6833 -0.0000 0.7301
vn 0.7764 0.1572 0.6103
vn 0.5793 0.5134 0.6332
vn 0.3318 0.6056 0.7233
vn 0.1566 0.6337 0.7575
vn 0.1340 0.9526 0.2731
vn 0.2666 0.9179 0.2938
vn -0.4119 -0.0078 0.9112
vn -0.3504 -0.1581 0.9232
vn -0.2677 -0.3105 0.9121
vn 0.3941 0.6258 0.6731
vn 0.3547 0.8681 0.3472
s 0
f 1//1 2//1 6//1
f 1//1 6//1 11//1
f 1//1 11//1 25//1
f 1//1 25//1 32//1
f 1//1 32//1 31//1
f 1//2 31//2 30//2
f 1//3 30//3 29//3
f 1//1 29//1 28//1
f 1//1 28//1 27//1
f 1//1 27//1 12//1
f 1//1 12//1 7//1
f 1//1 7//1 3//1
f 1//4 3//4 4//4
f 1//5 4//5 9//5
f 1//5 9//5 20//5
f 1//5 20//5 41//5
f 1//5 41//5 44//5
f 1//5 44//5 39//5
f 1//5 39//5 38//5
f 1//5 38//5 37//5
f 1//5 37//5 21//5
f 1//5 21//5 10//5
f 1//5 10//5 5//5
f 1//5 5//5 2//5
f 2//6 5//6 6//6
f 3//7 7//7 8//7
f 3//8 8//8 4//8
f 4//9 8//9 9//9
f 5//10 10//10 24//10
f 5//10 24//10 43//10
f 5//10 43//10 42//10
f 5//10 42//10 35//10
f 5//10 35//10 34//10
f 5//10 34//10 26//10
f 5//10 26//10 11//10
f 5//10 11//10 6//10
f 7//11 12//11 8//11
f 8//12 12//12 13//12
f 8//13 13//13 14//13
f 8//14 14//14 15//14
f 8//15 15//15 16//15
f 8//16 16//16 17//16
f 8//17 17//17 18//17
f 8//18 18//18 19//18
f 8//19 19//19 20//19
f 8//20 20//20 9//20
f 10//21 21//21 22//21
f 10//22 22//22 23//22
f 10//23 23//23 24//23
f 11//24 26//24 14//24
f 11//25 14//25 25//25
f 12//26 27//26 13//26
f 13//27 27//27 28//27
f 13//28 28//28 29//28
f 13//29 29//29 30//29
f 13//30 30//30 31//30
f 13//31 31//31 32//31
f 13//32 32//32 33//32
f 13//33 33//33 14//33
f 14//34 33//34 32//34
f 14//35 32//35 25//35
f 14//36 26//36 34//36
f 14//37 34//37 35//37
f 14//38 35//38 17//38
f 14//39 17//39 36//39
f 14//40 36//40 15//40
f 15//41 36//41 17//41
f 15//42 17//42 16//42
f 17//43 23//43 22//43
f 17//43 22//43 18//43
f 17//44 35//44 23//44
f 18//45 22//45 21//45
f 18//46 21//46 37//46
f 18//47 37//47 38//47
f 18//48 38//48 39//48
f 18//49 39//49 40//49
f 18//50 40//50 19//50
f 19//51 40//51 20//51
f 20//52 40//52 41//52
f 23//53 35//53 42//53
f 23//54 42//54 43//54
f 23//55 43//55 24//55
f 39//56 44//56 40//56
f 40//57 44//57 41//57
