# Blender 4.1.0
# www.blender.org
mtllib convex_108.mtl
o convex_108
v -0.045540 -0.333970 -0.204242
v -0.045540 -0.335456 -0.204058
v -0.045540 -0.330825 -0.203938
v -0.039956 -0.335456 -0.202042
v -0.044052 -0.335456 -0.203669
v -0.045540 -0.339037 -0.203433
v -0.045540 -0.326369 -0.203497
v -0.035540 -0.339037 -0.199964
v -0.044787 -0.326369 -0.203173
v -0.009829 -0.328073 -0.187699
v -0.040590 -0.339037 -0.201950
v -0.045540 -0.339037 -0.197058
v -0.045540 -0.323446 -0.202438
v -0.045496 -0.323448 -0.202433
v -0.013702 -0.317413 -0.187983
v -0.031807 -0.339037 -0.198002
v -0.009829 -0.329006 -0.187699
v -0.013081 -0.335456 -0.188779
v -0.011431 -0.317413 -0.186167
v -0.011356 -0.317413 -0.186100
v -0.000840 -0.328424 -0.178588
v -0.045540 -0.326397 -0.190772
v -0.033487 -0.339037 -0.186786
v -0.045540 -0.317413 -0.195722
v -0.039509 -0.317413 -0.196070
v -0.038835 -0.317413 -0.196068
v -0.036704 -0.319200 -0.196920
v -0.035094 -0.317413 -0.195075
v -0.013676 -0.339037 -0.188287
v -0.000840 -0.329042 -0.178588
v -0.003619 -0.335456 -0.180152
v -0.010809 -0.335456 -0.186763
v -0.013194 -0.339037 -0.187860
v -0.009409 -0.317413 -0.183895
v -0.004393 -0.322597 -0.179522
v -0.005444 -0.319566 -0.178478
v -0.005107 -0.319939 -0.178107
v -0.001019 -0.328050 -0.178107
v -0.000840 -0.328424 -0.178107
v -0.000835 -0.329398 -0.178107
v -0.045540 -0.321825 -0.189168
v -0.045540 -0.317413 -0.187696
v -0.011553 -0.339037 -0.178107
v -0.035207 -0.317413 -0.195106
v -0.001951 -0.335456 -0.178107
v -0.002617 -0.339037 -0.178107
v -0.004126 -0.339037 -0.179548
v -0.007903 -0.317413 -0.180768
v -0.005614 -0.319056 -0.178107
v -0.029623 -0.317413 -0.182326
v -0.015636 -0.317413 -0.178107
v -0.006739 -0.317413 -0.178107
vn -1.0000 -0.0000 0.0001
vn -1.0000 -0.0000 -0.0000
vn -1.0000 -0.0000 -0.0009
vn 0.3855 0.0888 -0.9184
vn 0.3691 0.0112 -0.9293
vn 0.2512 -0.1189 -0.9606
vn 0.2494 -0.1665 -0.9540
vn 0.3869 0.0908 -0.9176
vn 0.3678 -0.0838 -0.9261
vn 0.3936 0.0955 -0.9143
vn 0.4068 0.1033 -0.9077
vn 0.4289 0.0047 -0.9033
vn 0.3644 -0.0926 -0.9266
vn 0.2824 -0.1794 -0.9424
vn -0.0000 -1.0000 -0.0000
vn 0.1222 0.3381 -0.9331
vn 0.3419 0.3171 -0.8846
vn 0.3888 0.1826 -0.9031
vn 0.4306 -0.0000 -0.9026
vn 0.4546 -0.0807 -0.8870
vn 0.4599 -0.1514 -0.8750
vn 0.4067 0.1236 -0.9052
vn 0.6116 0.2018 -0.7650
vn 0.6552 0.2030 -0.7277
vn 0.7009 0.2030 -0.6837
vn 0.7118 -0.0000 -0.7023
vn 0.7119 -0.0000 -0.7023
vn -0.6067 -0.3540 0.7118
vn -0.0385 0.7434 -0.6678
vn 0.0020 0.7250 -0.6888
vn 0.1150 0.6584 -0.7439
vn 0.1949 0.6017 -0.7745
vn 0.2834 0.4862 -0.8266
vn 0.2582 0.5715 -0.7789
vn 0.0001 1.0000 -0.0000
vn -0.0000 1.0000 -0.0000
vn -0.0017 1.0000 -0.0000
vn 0.4631 -0.1957 -0.8644
vn 0.7050 -0.1357 -0.6961
vn 0.6624 -0.2052 -0.7205
vn 0.6497 -0.2050 -0.7320
vn 0.6493 -0.2084 -0.7315
vn 0.6490 -0.2084 -0.7317
vn 0.7247 0.2555 -0.6400
vn 0.8035 0.4228 -0.4192
vn 0.8391 0.4401 -0.3197
vn 0.8929 0.4500 -0.0168
vn 0.9016 0.4325 -0.0000
vn 1.0000 0.0045 -0.0000
vn 1.0000 -0.0000 -0.0091
vn 0.8031 0.4224 -0.4203
vn -0.5504 -0.2764 0.7878
vn -0.5387 -0.2666 0.7992
vn -0.3630 -0.1637 0.9173
vn 0.2034 0.6084 -0.7672
vn 0.2095 0.6046 -0.7685
vn 0.9735 -0.1793 -0.1416
vn 0.9703 -0.1803 -0.1612
vn 0.7424 -0.1633 -0.6497
vn 0.6743 -0.2148 -0.7065
vn 0.6610 -0.2150 -0.7189
vn 0.6593 -0.2188 -0.7193
vn 0.7835 0.4938 -0.3772
vn 0.8031 0.4229 -0.4198
vn 0.8334 0.4792 -0.2753
vn 0.7803 0.5171 -0.3519
vn -0.0000 -0.0002 1.0000
vn -0.0000 -0.0000 1.0000
vn -0.0000 0.0018 1.0000
vn -0.3186 -0.0820 0.9443
vn -0.2884 -0.0544 0.9560
vn 0.7762 0.5313 -0.3395
s 0
f 1//1 2//1 6//1
f 1//2 6//2 12//2
f 1//2 12//2 22//2
f 1//2 22//2 41//2
f 1//2 41//2 42//2
f 1//2 42//2 24//2
f 1//2 24//2 13//2
f 1//2 13//2 7//2
f 1//3 7//3 3//3
f 1//4 3//4 4//4
f 1//5 4//5 5//5
f 1//6 5//6 2//6
f 2//7 5//7 6//7
f 3//8 7//8 4//8
f 4//9 8//9 5//9
f 4//10 7//10 9//10
f 4//11 9//11 10//11
f 4//12 10//12 8//12
f 5//13 8//13 11//13
f 5//14 11//14 6//14
f 6//15 11//15 8//15
f 6//15 8//15 16//15
f 6//15 16//15 29//15
f 6//15 29//15 33//15
f 6//15 33//15 47//15
f 6//15 47//15 46//15
f 6//15 46//15 43//15
f 6//15 43//15 23//15
f 6//15 23//15 12//15
f 7//16 13//16 14//16
f 7//17 14//17 15//17
f 7//18 15//18 9//18
f 8//19 10//19 17//19
f 8//20 17//20 18//20
f 8//21 18//21 16//21
f 9//22 15//22 10//22
f 10//23 15//23 19//23
f 10//24 19//24 20//24
f 10//25 20//25 21//25
f 10//26 21//26 30//26
f 10//27 30//27 17//27
f 12//28 23//28 22//28
f 13//29 24//29 25//29
f 13//30 25//30 26//30
f 13//31 26//31 14//31
f 14//32 26//32 27//32
f 14//33 27//33 15//33
f 15//34 27//34 28//34
f 15//35 28//35 44//35
f 15//36 44//36 26//36
f 15//36 26//36 25//36
f 15//36 25//36 24//36
f 15//36 24//36 42//36
f 15//36 42//36 50//36
f 15//36 50//36 51//36
f 15//36 51//36 52//36
f 15//36 52//36 48//36
f 15//36 48//36 34//36
f 15//36 34//36 20//36
f 15//37 20//37 19//37
f 16//38 18//38 29//38
f 17//39 30//39 31//39
f 17//40 31//40 32//40
f 17//41 32//41 18//41
f 18//42 32//42 33//42
f 18//43 33//43 29//43
f 20//44 34//44 21//44
f 21//45 35//45 36//45
f 21//46 36//46 37//46
f 21//47 37//47 38//47
f 21//48 38//48 39//48
f 21//49 39//49 40//49
f 21//50 40//50 30//50
f 21//51 34//51 35//51
f 22//52 23//52 41//52
f 23//53 42//53 41//53
f 23//54 43//54 42//54
f 26//55 44//55 27//55
f 27//56 44//56 28//56
f 30//57 40//57 45//57
f 30//58 45//58 46//58
f 30//59 46//59 31//59
f 31//60 46//60 47//60
f 31//61 47//61 32//61
f 32//62 47//62 33//62
f 34//63 48//63 36//63
f 34//64 36//64 35//64
f 36//65 49//65 37//65
f 36//66 48//66 49//66
f 37//67 49//67 52//67
f 37//68 52//68 51//68
f 37//68 51//68 43//68
f 37//68 43//68 46//68
f 37//68 46//68 45//68
f 37//68 45//68 40//68
f 37//68 40//68 39//68
f 37//69 39//69 38//69
f 42//70 43//70 50//70
f 43//71 51//71 50//71
f 48//72 52//72 49//72
