# Blender 4.1.0
# www.blender.org
mtllib convex_22.mtl
o convex_22
v 0.031063 -0.494496 0.073689
v 0.031063 -0.498119 0.072585
v 0.040346 -0.497285 0.071691
v 0.040346 -0.496053 0.071691
v 0.031063 -0.489966 0.073147
v 0.031063 -0.498119 0.071200
v 0.055911 -0.498352 0.055529
v 0.037738 -0.498162 0.069159
v 0.040969 -0.497750 0.069159
v 0.058627 -0.497415 0.058231
v 0.065657 -0.497212 0.053732
v 0.065657 -0.494496 0.054413
v 0.036275 -0.491508 0.071766
v 0.065657 -0.493870 0.054389
v 0.065657 -0.490000 0.054057
v 0.065657 -0.483215 0.052660
v 0.065657 -0.480873 0.052174
v 0.065657 -0.479976 0.051853
v 0.065657 -0.475669 0.050168
v 0.035473 -0.478589 0.066888
v 0.031063 -0.486717 0.072027
v 0.031063 -0.498104 0.069578
v 0.051369 -0.498085 0.052055
v 0.055911 -0.497813 0.051924
v 0.060456 -0.497508 0.051612
v 0.065000 -0.497265 0.051956
v 0.065657 -0.497212 0.052154
v 0.060269 -0.497750 0.055303
v 0.065657 -0.473433 0.049091
v 0.065000 -0.471023 0.047481
v 0.065657 -0.470581 0.046813
v 0.033197 -0.477973 0.067323
v 0.031063 -0.477478 0.067794
v 0.031063 -0.479195 0.068795
v 0.048216 -0.497750 0.052466
v 0.031063 -0.457933 0.033273
v 0.055911 -0.493332 0.048118
v 0.055911 -0.495602 0.049653
v 0.065000 -0.494496 0.050223
v 0.059162 -0.493104 0.048245
v 0.065657 -0.495131 0.050852
v 0.065657 -0.468695 0.045064
v 0.060578 -0.453631 0.033273
v 0.031063 -0.466968 0.057954
v 0.052934 -0.492823 0.048387
v 0.034772 -0.459616 0.033273
v 0.039994 -0.464975 0.035070
v 0.031063 -0.448811 0.033273
v 0.064990 -0.466585 0.033273
v 0.065657 -0.466682 0.033273
v 0.065657 -0.456624 0.033273
v 0.063267 -0.454951 0.033273
v 0.056917 -0.452307 0.033273
v 0.045527 -0.450828 0.035608
v 0.031063 -0.463923 0.054441
v 0.038141 -0.460950 0.033273
v 0.042283 -0.449407 0.033273
v 0.031063 -0.463122 0.053400
v 0.053168 -0.451299 0.033273
v 0.046838 -0.449824 0.033273
vn 0.1175 -0.2894 0.9500
vn 0.2104 -0.0000 0.9776
vn 0.2275 0.1157 0.9669
vn -1.0000 -0.0000 -0.0000
vn -0.0094 -1.0000 -0.0000
vn 0.0023 -0.9999 0.0169
vn 0.1086 -0.9686 0.2237
vn 0.1237 -0.9701 0.2086
vn 0.1510 -0.9650 0.2144
vn 0.2433 -0.9087 0.3391
vn 0.5673 -0.2001 0.7988
vn 0.5638 -0.0000 0.8259
vn 0.3209 0.2724 0.9071
vn 0.5622 0.0314 0.8264
vn 0.5587 0.0710 0.8263
vn 0.5355 0.1703 0.8272
vn 0.5348 0.1719 0.8273
vn 0.4643 0.2980 0.8340
vn 0.4461 0.3261 0.8335
vn 0.4281 0.3488 0.8337
vn 0.4012 0.3453 0.8484
vn 0.3277 0.3078 0.8932
vn -0.0152 -0.9998 -0.0092
vn -0.0307 -0.9989 -0.0366
vn 0.0549 -0.9875 -0.1477
vn 0.0561 -0.9874 -0.1477
vn 0.0634 -0.9882 -0.1394
vn 0.0969 -0.9937 -0.0557
vn 0.1162 -0.9932 -0.0000
vn 0.1431 -0.9773 0.1559
vn 0.1440 -0.9708 0.1919
vn 0.1398 -0.9706 0.1961
vn 0.1244 -0.9759 0.1795
vn 0.1542 -0.9681 0.1973
vn 1.0000 -0.0000 -0.0000
vn 0.3639 0.3487 0.8637
vn 0.4158 0.3944 0.8195
vn 0.3355 0.5849 0.7385
vn 0.3129 0.6215 0.7182
vn 0.3070 0.6304 0.7130
vn 0.3011 0.5777 0.7587
vn 0.2912 0.4818 0.8265
vn 0.3245 0.3735 0.8690
vn -0.1231 -0.9819 -0.1437
vn -0.5876 -0.5425 -0.6003
vn -0.1649 -0.5309 -0.8312
vn -0.1307 -0.5554 -0.8213
vn 0.0102 -0.7047 -0.7094
vn 0.0537 -0.9827 -0.1772
vn 0.0923 -0.5980 -0.7961
vn 0.2856 -0.5084 -0.8124
vn 0.0979 -0.5824 -0.8070
vn 0.1587 -0.5238 -0.8369
vn 0.2867 -0.5081 -0.8122
vn 0.3511 0.5845 0.7315
vn 0.2999 0.6486 0.6995
vn 0.2959 0.6487 0.7011
vn 0.3041 0.6351 0.7101
vn 0.2888 0.6543 0.6989
vn -0.1658 -0.5299 -0.8317
vn -0.2272 -0.5005 -0.8354
vn -0.2260 -0.5003 -0.8358
vn -0.2070 -0.4987 -0.8417
vn -0.0000 -0.0000 -1.0000
vn 0.0714 -0.5588 -0.8263
vn -0.1607 -0.4856 -0.8593
vn -0.0930 -0.4588 -0.8836
vn -0.0678 -0.4665 -0.8819
vn 0.0689 -0.5046 -0.8606
vn 0.1619 -0.5163 -0.8410
vn 0.2931 -0.5026 -0.8133
vn 0.4392 0.6277 0.6427
vn 0.3183 0.6485 0.6914
vn 0.2509 0.6938 0.6750
vn 0.2285 0.7130 0.6629
vn 0.1663 0.7452 0.6458
vn -0.1863 -0.4706 -0.8624
vn -0.0926 -0.4410 -0.8927
vn 0.0468 0.8808 0.4711
vn 0.0201 0.8148 0.5794
vn 0.2172 0.8079 0.5479
vn 0.1992 0.8547 0.4794
vn 0.0822 0.8979 0.4324
vn 0.0765 0.7901 0.6082
s 0
f 1//1 2//1 3//1
f 1//2 3//2 4//2
f 1//3 4//3 5//3
f 1//4 5//4 21//4
f 1//4 21//4 34//4
f 1//4 34//4 33//4
f 1//4 33//4 44//4
f 1//4 44//4 55//4
f 1//4 55//4 58//4
f 1//4 58//4 48//4
f 1//4 48//4 36//4
f 1//4 36//4 22//4
f 1//4 22//4 6//4
f 1//4 6//4 2//4
f 2//5 6//5 7//5
f 2//6 7//6 8//6
f 2//7 8//7 3//7
f 3//8 8//8 9//8
f 3//9 9//9 10//9
f 3//10 10//10 11//10
f 3//11 11//11 12//11
f 3//12 12//12 4//12
f 4//13 13//13 5//13
f 4//14 12//14 14//14
f 4//15 14//15 15//15
f 4//16 15//16 16//16
f 4//17 16//17 17//17
f 4//18 17//18 18//18
f 4//19 18//19 19//19
f 4//20 19//20 20//20
f 4//21 20//21 13//21
f 5//22 13//22 21//22
f 6//23 22//23 7//23
f 7//24 22//24 23//24
f 7//25 23//25 24//25
f 7//26 24//26 25//26
f 7//27 25//27 26//27
f 7//28 26//28 27//28
f 7//29 27//29 11//29
f 7//30 11//30 28//30
f 7//31 28//31 10//31
f 7//32 10//32 9//32
f 7//33 9//33 8//33
f 10//34 28//34 11//34
f 11//35 27//35 41//35
f 11//35 41//35 50//35
f 11//35 50//35 51//35
f 11//35 51//35 42//35
f 11//35 42//35 31//35
f 11//35 31//35 29//35
f 11//35 29//35 19//35
f 11//35 19//35 18//35
f 11//35 18//35 17//35
f 11//35 17//35 16//35
f 11//35 16//35 15//35
f 11//35 15//35 14//35
f 11//35 14//35 12//35
f 13//36 20//36 21//36
f 19//37 29//37 20//37
f 20//38 29//38 30//38
f 20//39 30//39 31//39
f 20//40 31//40 32//40
f 20//41 32//41 33//41
f 20//42 33//42 34//42
f 20//43 34//43 21//43
f 22//44 35//44 23//44
f 22//45 36//45 35//45
f 23//46 35//46 37//46
f 23//47 37//47 38//47
f 23//48 38//48 25//48
f 23//49 25//49 24//49
f 25//50 38//50 26//50
f 26//51 39//51 27//51
f 26//52 38//52 40//52
f 26//53 40//53 39//53
f 27//54 39//54 41//54
f 29//55 31//55 30//55
f 31//56 42//56 43//56
f 31//57 43//57 33//57
f 31//58 33//58 32//58
f 33//59 43//59 44//59
f 35//60 45//60 37//60
f 35//61 36//61 46//61
f 35//62 46//62 47//62
f 35//63 47//63 45//63
f 36//64 48//64 57//64
f 36//64 57//64 60//64
f 36//64 60//64 59//64
f 36//64 59//64 53//64
f 36//64 53//64 43//64
f 36//64 43//64 52//64
f 36//64 52//64 51//64
f 36//64 51//64 50//64
f 36//64 50//64 49//64
f 36//64 49//64 56//64
f 36//64 56//64 46//64
f 37//65 40//65 38//65
f 37//66 45//66 47//66
f 37//67 47//67 49//67
f 37//68 49//68 50//68
f 37//69 50//69 40//69
f 39//70 40//70 50//70
f 39//71 50//71 41//71
f 42//72 51//72 52//72
f 42//73 52//73 43//73
f 43//74 53//74 44//74
f 44//75 53//75 54//75
f 44//76 54//76 55//76
f 46//77 56//77 47//77
f 47//78 56//78 49//78
f 48//79 54//79 57//79
f 48//80 58//80 54//80
f 53//81 59//81 54//81
f 54//82 59//82 60//82
f 54//83 60//83 57//83
f 54//84 58//84 55//84
