# Blender 4.1.0
# www.blender.org
mtllib convex_49.mtl
o convex_49
v 0.075782 -0.366763 -0.170071
v 0.072326 -0.367215 -0.170071
v 0.069544 -0.368444 -0.167475
v 0.075782 -0.367967 -0.167289
v 0.075782 -0.374211 -0.170071
v 0.069544 -0.367643 -0.170071
v 0.065000 -0.368896 -0.168266
v 0.069544 -0.369850 -0.165202
v 0.075782 -0.368847 -0.165958
v 0.075782 -0.413098 -0.165605
v 0.060938 -0.409686 -0.170071
v 0.067409 -0.367972 -0.170071
v 0.062577 -0.369393 -0.169157
v 0.066482 -0.377673 -0.155015
v 0.069544 -0.377535 -0.154795
v 0.075782 -0.373813 -0.159995
v 0.075782 -0.413299 -0.164672
v 0.073290 -0.415718 -0.165529
v 0.059722 -0.411878 -0.170071
v 0.063434 -0.369073 -0.170071
v 0.062577 -0.369393 -0.169887
v 0.054734 -0.375018 -0.170071
v 0.070941 -0.382717 -0.150956
v 0.054375 -0.375372 -0.170071
v 0.053185 -0.377914 -0.168935
v 0.051517 -0.409199 -0.148512
v 0.074088 -0.382747 -0.150935
v 0.075782 -0.382958 -0.151055
v 0.075782 -0.413098 -0.162418
v 0.073290 -0.415718 -0.163980
v 0.051517 -0.416992 -0.157562
v 0.069544 -0.415876 -0.165738
v 0.057363 -0.412159 -0.170071
v 0.062829 -0.369300 -0.170071
v 0.062610 -0.369423 -0.170071
v 0.062378 -0.369585 -0.170071
v 0.074088 -0.385441 -0.150656
v 0.052862 -0.377294 -0.170071
v 0.051541 -0.389950 -0.170071
v 0.051517 -0.409558 -0.149230
v 0.051517 -0.415704 -0.148512
v 0.056038 -0.410752 -0.148512
v 0.075782 -0.385540 -0.150718
v 0.063677 -0.415822 -0.148512
v 0.075782 -0.405256 -0.150994
v 0.051517 -0.416903 -0.153354
v 0.051517 -0.416869 -0.157758
v 0.056354 -0.411864 -0.170071
v 0.063677 -0.413457 -0.148512
v 0.075782 -0.389733 -0.150412
v 0.051779 -0.391749 -0.170071
v 0.051517 -0.414007 -0.157165
v 0.051517 -0.411657 -0.153297
v 0.051517 -0.411593 -0.153189
v 0.055921 -0.416299 -0.148512
v 0.056358 -0.416328 -0.148512
v 0.055914 -0.416387 -0.148955
v 0.075782 -0.403564 -0.150591
v 0.075782 -0.402291 -0.150441
v 0.075782 -0.397379 -0.150074
v 0.054156 -0.408161 -0.170071
v 0.054190 -0.408240 -0.170071
v 0.052099 -0.393972 -0.170071
vn -0.1231 0.9415 0.3138
vn -0.0817 0.9147 0.3959
vn 1.0000 -0.0000 -0.0000
vn -0.0000 -0.0000 -1.0000
vn -0.0000 -0.0002 -1.0000
vn -0.0000 0.0002 -1.0000
vn -0.0000 0.0007 -1.0000
vn -0.0000 -0.0003 -1.0000
vn -0.1455 0.9458 0.2902
vn -0.1449 0.9453 0.2923
vn -0.1735 0.8375 0.5181
vn -0.0805 0.8477 0.5244
vn -0.0671 0.8323 0.5503
vn 0.2631 -0.1101 -0.9585
vn -0.1457 0.9459 0.2898
vn -0.2522 0.9556 0.1527
vn -0.3558 0.7603 0.5434
vn -0.2061 0.8050 0.5563
vn -0.0787 0.8019 0.5922
vn -0.0573 0.8031 0.5931
vn 0.0748 0.7663 0.6382
vn 0.7146 -0.6839 -0.1473
vn 0.2409 -0.2562 -0.9361
vn 0.2552 -0.1416 -0.9565
vn -0.2660 0.9601 0.0866
vn -0.3496 0.9369 -0.0000
vn -0.5828 0.8126 -0.0000
vn -0.5335 0.6574 0.5322
vn -0.0844 0.5784 0.8114
vn -0.5825 0.5904 0.5587
vn -0.6117 0.5433 0.5750
vn -0.6539 0.4377 0.6171
vn -0.3768 0.3553 0.8554
vn 0.0003 0.5953 0.8035
vn 0.1348 0.6629 0.7365
vn 0.1762 0.6881 0.7039
vn 0.7041 -0.7073 0.0631
vn 0.6966 -0.7175 -0.0000
vn 0.0584 -0.9983 -0.0000
vn 0.0442 -0.9983 -0.0387
vn 0.0696 -0.6520 -0.7550
vn 0.0760 -0.6379 -0.7663
vn -0.3509 0.9364 -0.0071
vn -0.4781 0.8490 -0.2250
vn -0.5557 0.7987 -0.2308
vn -0.5655 0.7956 -0.2172
vn -0.0057 0.1030 0.9947
vn -0.0094 0.0987 0.9951
vn -0.6853 0.5395 0.4893
vn -0.8529 0.3165 0.4152
vn -1.0000 0.0008 -0.0004
vn -1.0000 -0.0000 -0.0004
vn -1.0000 -0.0000 -0.0000
vn -0.0000 -0.0000 1.0000
vn 0.0233 0.0679 0.9974
vn -0.9905 0.1034 0.0912
vn 0.0424 0.1029 0.9938
vn 0.0861 0.1289 0.9879
vn 0.5672 -0.7466 0.3475
vn 0.6412 -0.6326 0.4343
vn 0.0732 -0.9966 0.0388
vn 0.0646 -0.9977 0.0211
vn -0.4305 -0.7645 -0.4798
vn -0.2507 -0.8579 -0.4486
vn -0.1299 -0.9030 -0.4096
vn 0.0239 0.0675 0.9974
vn 0.0256 0.0668 0.9974
vn 0.0407 0.0727 0.9965
vn -0.9527 -0.1258 -0.2768
vn -1.0000 0.0003 -0.0013
vn -1.0000 0.0007 -0.0005
vn -0.1300 -0.9624 0.2383
vn 0.0688 -0.9956 0.0635
vn 0.0698 -0.9964 0.0471
vn 0.3728 -0.2150 0.9027
vn 0.2777 -0.1124 0.9541
vn 0.2354 -0.0724 0.9692
vn 0.1280 -0.0000 0.9918
vn -0.0807 -0.9774 0.1955
vn -0.8334 -0.3511 -0.4268
vn -0.7537 -0.4500 -0.4790
vn -0.9448 -0.1363 -0.2981
vn -0.9443 -0.1369 -0.2992
vn 0.0701 0.0441 0.9966
vn -0.0652 -0.9785 0.1954
s 0
f 1//1 2//1 3//1
f 1//2 3//2 4//2
f 1//3 4//3 9//3
f 1//3 9//3 16//3
f 1//3 16//3 28//3
f 1//3 28//3 43//3
f 1//3 43//3 50//3
f 1//3 50//3 60//3
f 1//3 60//3 59//3
f 1//3 59//3 58//3
f 1//3 58//3 45//3
f 1//3 45//3 29//3
f 1//3 29//3 17//3
f 1//3 17//3 10//3
f 1//3 10//3 5//3
f 1//4 5//4 11//4
f 1//4 11//4 19//4
f 1//4 19//4 33//4
f 1//4 33//4 48//4
f 1//4 48//4 62//4
f 1//4 62//4 61//4
f 1//4 61//4 63//4
f 1//4 63//4 51//4
f 1//4 51//4 39//4
f 1//4 39//4 38//4
f 1//4 38//4 24//4
f 1//4 24//4 22//4
f 1//4 22//4 36//4
f 1//5 36//5 35//5
f 1//6 35//6 34//6
f 1//5 34//5 20//5
f 1//4 20//4 12//4
f 1//7 12//7 6//7
f 1//8 6//8 2//8
f 2//9 6//9 7//9
f 2//10 7//10 3//10
f 3//11 7//11 8//11
f 3//12 8//12 4//12
f 4//13 8//13 9//13
f 5//14 10//14 11//14
f 6//15 12//15 7//15
f 7//16 12//16 13//16
f 7//17 13//17 14//17
f 7//18 14//18 8//18
f 8//19 14//19 15//19
f 8//20 15//20 9//20
f 9//21 15//21 16//21
f 10//22 17//22 18//22
f 10//23 18//23 19//23
f 10//24 19//24 11//24
f 12//25 20//25 13//25
f 13//26 20//26 21//26
f 13//27 21//27 22//27
f 13//28 22//28 14//28
f 14//29 23//29 15//29
f 14//30 22//30 24//30
f 14//31 24//31 25//31
f 14//32 25//32 26//32
f 14//33 26//33 23//33
f 15//34 23//34 27//34
f 15//35 27//35 28//35
f 15//36 28//36 16//36
f 17//37 29//37 30//37
f 17//38 30//38 18//38
f 18//39 30//39 31//39
f 18//40 31//40 32//40
f 18//41 32//41 33//41
f 18//42 33//42 19//42
f 20//43 34//43 21//43
f 21//44 34//44 35//44
f 21//45 35//45 36//45
f 21//46 36//46 22//46
f 23//47 37//47 27//47
f 23//48 26//48 37//48
f 24//49 38//49 25//49
f 25//50 38//50 26//50
f 26//51 39//51 40//51
f 26//52 40//52 54//52
f 26//53 54//53 53//53
f 26//53 53//53 52//53
f 26//53 52//53 47//53
f 26//53 47//53 31//53
f 26//53 31//53 46//53
f 26//53 46//53 41//53
f 26//54 41//54 55//54
f 26//54 55//54 56//54
f 26//54 56//54 44//54
f 26//54 44//54 49//54
f 26//54 49//54 42//54
f 26//55 42//55 37//55
f 26//56 38//56 39//56
f 27//57 37//57 43//57
f 27//58 43//58 28//58
f 29//59 44//59 30//59
f 29//60 45//60 44//60
f 30//61 44//61 46//61
f 30//62 46//62 31//62
f 31//63 47//63 48//63
f 31//64 48//64 33//64
f 31//65 33//65 32//65
f 37//66 42//66 49//66
f 37//67 49//67 50//67
f 37//68 50//68 43//68
f 39//69 51//69 47//69
f 39//70 47//70 52//70
f 39//71 52//71 53//71
f 39//51 53//51 54//51
f 39//51 54//51 40//51
f 41//72 46//72 55//72
f 44//73 56//73 57//73
f 44//74 57//74 46//74
f 44//75 45//75 58//75
f 44//76 58//76 59//76
f 44//77 59//77 60//77
f 44//78 60//78 49//78
f 46//79 57//79 55//79
f 47//80 61//80 62//80
f 47//81 62//81 48//81
f 47//82 51//82 63//82
f 47//83 63//83 61//83
f 49//84 60//84 50//84
f 55//85 57//85 56//85
