# Blender 4.1.0
# www.blender.org
mtllib convex_104.mtl
o convex_104
v -0.036542 -0.396604 -0.104589
v -0.051096 -0.399075 -0.099391
v -0.048538 -0.396604 -0.100065
v -0.036542 -0.396604 -0.097610
v -0.036542 -0.412708 -0.104100
v -0.051096 -0.436799 -0.102423
v -0.051096 -0.435481 -0.102423
v -0.051096 -0.430882 -0.102204
v -0.051096 -0.396604 -0.098736
v -0.039761 -0.396604 -0.095492
v -0.036542 -0.400224 -0.096080
v -0.036542 -0.430343 -0.097384
v -0.037418 -0.433042 -0.096596
v -0.041203 -0.436799 -0.096923
v -0.051096 -0.436799 -0.095031
v -0.051096 -0.396604 -0.092542
v -0.044255 -0.396604 -0.093261
v -0.036542 -0.424689 -0.092110
v -0.036542 -0.432751 -0.096037
v -0.040204 -0.436799 -0.095903
v -0.048597 -0.436799 -0.092110
v -0.051096 -0.419865 -0.093283
v -0.049003 -0.396604 -0.092481
v -0.051096 -0.398862 -0.092479
v -0.048598 -0.396604 -0.092517
v -0.039492 -0.425314 -0.092110
v -0.036542 -0.434391 -0.092110
v -0.046245 -0.414896 -0.092117
v -0.046478 -0.414896 -0.092117
v -0.036542 -0.434391 -0.093866
v -0.039461 -0.436799 -0.094666
v -0.039715 -0.436799 -0.092110
v -0.048274 -0.435800 -0.092110
v -0.051096 -0.403108 -0.092445
v -0.051096 -0.417217 -0.093043
v -0.043468 -0.426857 -0.092110
v -0.048033 -0.435056 -0.092110
v -0.044344 -0.428029 -0.092110
vn -0.3507 0.1092 -0.9301
vn -0.0000 1.0000 -0.0000
vn 1.0000 -0.0000 -0.0000
vn -0.0648 -0.0303 -0.9974
vn -0.1472 -0.0000 -0.9891
vn -0.2658 0.0459 -0.9629
vn -0.3476 0.0826 -0.9340
vn -0.4489 0.2289 -0.8638
vn -1.0000 -0.0000 -0.0000
vn -1.0000 -0.0000 0.0001
vn 0.5183 0.3328 0.7878
vn 0.4338 -0.3207 -0.8420
vn 0.4490 -0.3816 -0.8079
vn 0.4490 -0.3820 -0.8077
vn -0.0000 -1.0000 -0.0000
vn 0.4314 0.2423 0.8690
vn 0.3997 0.1468 0.9048
vn 0.5840 -0.3964 -0.7084
vn 0.5751 -0.5247 -0.6276
vn 0.5937 -0.5563 -0.5813
vn -0.7582 -0.0670 0.6486
vn -0.0292 0.0276 0.9992
vn 0.1682 0.0864 0.9820
vn -0.0000 -0.0000 1.0000
vn 0.0900 0.0530 0.9945
vn 0.0229 0.0233 0.9995
vn -0.0000 0.0007 1.0000
vn -0.0001 0.0005 1.0000
vn 0.6520 -0.6050 -0.4571
vn 0.6474 -0.6555 -0.3890
vn -0.0012 0.0004 1.0000
vn -0.0564 0.0057 0.9984
vn -0.5757 -0.0346 0.8169
vn -0.7340 -0.0615 0.6764
vn -0.0182 0.0174 0.9997
vn -0.0000 0.0199 0.9998
vn -0.0505 0.0080 0.9987
vn -0.0002 0.0005 1.0000
vn 0.6035 -0.7951 0.0599
vn 0.6364 -0.7714 -0.0000
vn -0.0007 0.0004 1.0000
vn -0.0005 0.0004 1.0000
s 0
f 1//1 2//1 3//1
f 1//2 3//2 9//2
f 1//2 9//2 16//2
f 1//2 16//2 23//2
f 1//2 23//2 25//2
f 1//2 25//2 17//2
f 1//2 17//2 10//2
f 1//2 10//2 4//2
f 1//3 4//3 11//3
f 1//3 11//3 18//3
f 1//3 18//3 27//3
f 1//3 27//3 30//3
f 1//3 30//3 19//3
f 1//3 19//3 12//3
f 1//3 12//3 5//3
f 1//4 5//4 6//4
f 1//5 6//5 7//5
f 1//6 7//6 8//6
f 1//7 8//7 2//7
f 2//8 9//8 3//8
f 2//9 8//9 7//9
f 2//10 7//10 6//10
f 2//9 6//9 15//9
f 2//9 15//9 22//9
f 2//9 22//9 35//9
f 2//9 35//9 34//9
f 2//9 34//9 24//9
f 2//9 24//9 16//9
f 2//9 16//9 9//9
f 4//11 10//11 11//11
f 5//12 12//12 6//12
f 6//13 12//13 13//13
f 6//14 13//14 14//14
f 6//15 14//15 20//15
f 6//15 20//15 31//15
f 6//15 31//15 32//15
f 6//15 32//15 21//15
f 6//15 21//15 15//15
f 10//16 17//16 11//16
f 11//17 17//17 18//17
f 12//18 19//18 13//18
f 13//19 19//19 14//19
f 14//20 19//20 20//20
f 15//21 21//21 22//21
f 16//22 24//22 23//22
f 17//23 25//23 18//23
f 18//24 26//24 36//24
f 18//24 36//24 38//24
f 18//24 38//24 37//24
f 18//24 37//24 33//24
f 18//24 33//24 21//24
f 18//24 21//24 32//24
f 18//24 32//24 27//24
f 18//25 25//25 23//25
f 18//26 23//26 28//26
f 18//27 28//27 29//27
f 18//28 29//28 26//28
f 19//29 30//29 20//29
f 20//30 30//30 31//30
f 21//31 33//31 29//31
f 21//32 29//32 34//32
f 21//33 34//33 35//33
f 21//34 35//34 22//34
f 23//35 24//35 29//35
f 23//36 29//36 28//36
f 24//37 34//37 29//37
f 26//38 29//38 36//38
f 27//39 32//39 31//39
f 27//40 31//40 30//40
f 29//31 33//31 37//31
f 29//41 37//41 38//41
f 29//42 38//42 36//42
