# Blender 4.1.0
# www.blender.org
mtllib convex_109.mtl
o convex_109
v -0.007704 -0.353281 0.088187
v -0.002830 -0.354746 0.091678
v -0.002782 -0.354606 0.088187
v -0.016889 -0.356189 0.088187
v -0.016889 -0.356101 0.091856
v -0.011553 -0.355030 0.096427
v -0.010750 -0.355269 0.100974
v -0.007704 -0.353646 0.091884
v -0.000833 -0.355839 0.090026
v -0.004124 -0.355162 0.095654
v -0.001094 -0.356134 0.093056
v -0.001830 -0.355188 0.088187
v -0.021400 -0.357794 0.088187
v -0.020656 -0.358438 0.096427
v -0.016791 -0.356664 0.096427
v -0.021837 -0.357963 0.088187
v -0.019476 -0.359995 0.108359
v -0.010080 -0.355836 0.103303
v -0.008795 -0.355269 0.100974
v 0.001525 -0.358755 0.090828
v 0.001525 -0.358424 0.088307
v 0.001525 -0.358409 0.088187
v 0.000786 -0.357555 0.088187
v 0.000384 -0.357124 0.088187
v -0.000833 -0.355839 0.088998
v -0.005446 -0.355920 0.098684
v 0.000077 -0.373586 0.122361
v 0.001525 -0.360043 0.093680
v 0.001525 -0.359060 0.091760
v 0.001525 -0.375817 0.123802
v -0.021837 -0.358464 0.092144
v -0.021837 -0.365996 0.088187
v -0.016791 -0.359635 0.108863
v -0.021837 -0.363110 0.110112
v -0.021837 -0.364593 0.114741
v -0.021837 -0.365307 0.116517
v -0.009902 -0.355836 0.103303
v -0.010188 -0.364987 0.116878
v 0.001525 -0.365708 0.088187
v -0.005410 -0.369526 0.121449
v -0.003413 -0.371977 0.123422
v -0.004447 -0.373391 0.126419
v 0.001525 -0.378298 0.126073
v -0.021702 -0.366025 0.088187
v -0.021837 -0.390887 0.126035
v -0.021837 -0.366997 0.118092
v -0.006311 -0.373391 0.126419
v -0.009964 -0.364987 0.116878
v -0.021587 -0.366047 0.088187
v 0.001525 -0.390887 0.121617
v -0.014206 -0.387526 0.135182
v -0.002489 -0.390887 0.134270
v 0.000525 -0.390887 0.132949
v 0.001525 -0.390493 0.131955
v -0.021837 -0.390887 0.137237
v -0.014840 -0.387526 0.135182
v 0.001525 -0.390887 0.132046
v -0.021519 -0.390887 0.137227
v -0.021306 -0.390887 0.137213
v 0.001525 -0.390817 0.132037
vn 0.2597 0.9648 0.0423
vn -0.0000 -0.0000 -1.0000
vn -0.0000 0.0001 -1.0000
vn -0.0000 -0.0001 -1.0000
vn -0.3017 0.9531 -0.0229
vn -0.2627 0.9614 0.0814
vn -0.2397 0.9664 0.0931
vn -0.2307 0.9683 0.0956
vn 0.2230 0.9701 0.0958
vn 0.5060 0.8616 0.0415
vn 0.2238 0.9591 0.1732
vn 0.4797 0.8427 0.2444
vn 0.5555 0.8216 0.1278
vn 0.5217 0.8529 0.0190
vn -0.3352 0.9419 -0.0226
vn -0.4141 0.9023 0.1200
vn -0.3101 0.9427 0.1228
vn -0.2767 0.9558 0.0991
vn -0.3608 0.9326 0.0132
vn -0.4219 0.8997 0.1123
vn -0.2488 0.9222 0.2961
vn -0.0000 0.9716 0.2365
vn -0.0000 0.9844 0.1758
vn -0.3472 0.9206 0.1788
vn 0.2007 0.9599 0.1955
vn 0.7634 0.6405 0.0841
vn 0.7624 0.6421 0.0804
vn 0.7551 0.6533 0.0554
vn 0.7309 0.6825 0.0066
vn 0.7261 0.6876 -0.0000
vn 0.5467 0.8374 -0.0000
vn 0.7538 0.6446 0.1276
vn 0.5405 0.7299 0.4185
vn 0.5736 0.7137 0.4021
vn 0.4255 0.8166 0.3899
vn 0.7734 0.5643 0.2888
vn 0.7723 0.6037 0.1976
vn 0.6534 0.6616 0.3679
vn 0.7713 0.5639 0.2953
vn 0.6448 0.7375 -0.2008
vn -0.4311 0.8952 0.1133
vn -0.6036 0.7808 0.1616
vn -0.4119 0.8975 0.1578
vn -1.0000 -0.0000 -0.0000
vn -0.1931 0.9030 0.3839
vn -0.7374 0.6539 0.1691
vn -0.7175 0.6633 0.2125
vn -0.6242 0.7249 0.2914
vn -0.2057 0.8462 0.4915
vn -0.0063 0.8292 0.5589
vn -0.0000 0.8292 0.5590
vn 0.4318 0.8075 0.4018
vn 1.0000 -0.0000 -0.0000
vn 0.4802 0.7533 0.4494
vn 0.4805 0.7531 0.4494
vn 0.4830 0.7521 0.4484
vn 0.4832 0.7156 0.5043
vn 0.5085 0.6752 0.5344
vn 0.5129 0.5796 0.6332
vn -0.1763 -0.8224 -0.5409
vn -0.0403 0.8153 0.5776
vn -0.1109 0.6776 0.7270
vn -0.0411 0.7414 0.6698
vn 0.2553 0.8012 0.5412
vn -0.0000 0.7504 0.6610
vn 0.0117 -0.7987 -0.6016
vn 0.2122 0.7909 0.5739
vn 0.4270 0.7520 0.5021
vn -0.0000 0.5269 0.8499
vn 0.1894 0.4196 0.8877
vn 0.3652 0.4148 0.8334
vn 0.3904 0.4172 0.8207
vn 0.5867 0.3518 0.7294
vn -0.1586 -0.8250 -0.5425
vn -0.0000 -1.0000 -0.0000
vn -0.0001 -1.0000 -0.0000
vn -0.1033 -0.8312 -0.5462
vn -0.1589 0.6174 0.7704
vn -0.0049 0.5290 0.8486
vn -0.0000 0.5216 0.8532
vn 0.0277 0.4751 0.8795
vn 0.0595 0.4213 0.9050
vn 0.1492 0.2612 0.9537
vn 0.6677 0.0952 0.7383
vn 0.6552 0.1853 0.7324
s 0
f 1//1 2//1 3//1
f 1//2 3//2 12//2
f 1//2 12//2 24//2
f 1//2 24//2 23//2
f 1//2 23//2 22//2
f 1//2 22//2 39//2
f 1//2 39//2 49//2
f 1//2 49//2 44//2
f 1//3 44//3 32//3
f 1//2 32//2 16//2
f 1//4 16//4 13//4
f 1//2 13//2 4//2
f 1//5 4//5 5//5
f 1//6 5//6 6//6
f 1//7 6//7 7//7
f 1//8 7//8 8//8
f 1//9 8//9 2//9
f 2//10 9//10 3//10
f 2//11 8//11 10//11
f 2//12 10//12 11//12
f 2//13 11//13 9//13
f 3//14 9//14 12//14
f 4//15 13//15 5//15
f 5//16 14//16 15//16
f 5//17 15//17 7//17
f 5//18 7//18 6//18
f 5//19 13//19 16//19
f 5//20 16//20 14//20
f 7//21 17//21 18//21
f 7//22 18//22 37//22
f 7//22 37//22 19//22
f 7//23 19//23 8//23
f 7//24 15//24 17//24
f 8//25 19//25 10//25
f 9//26 20//26 21//26
f 9//27 21//27 22//27
f 9//28 22//28 23//28
f 9//29 23//29 24//29
f 9//30 24//30 25//30
f 9//31 25//31 12//31
f 9//32 11//32 20//32
f 10//33 26//33 27//33
f 10//34 27//34 11//34
f 10//35 19//35 26//35
f 11//36 28//36 29//36
f 11//37 29//37 20//37
f 11//38 27//38 30//38
f 11//39 30//39 28//39
f 12//40 25//40 24//40
f 14//41 16//41 31//41
f 14//42 31//42 17//42
f 14//43 17//43 15//43
f 16//44 32//44 45//44
f 16//44 45//44 55//44
f 16//44 55//44 46//44
f 16//44 46//44 36//44
f 16//44 36//44 35//44
f 16//44 35//44 34//44
f 16//44 34//44 31//44
f 17//45 33//45 18//45
f 17//46 31//46 34//46
f 17//47 34//47 35//47
f 17//48 35//48 36//48
f 17//49 36//49 33//49
f 18//50 33//50 38//50
f 18//51 38//51 48//51
f 18//51 48//51 37//51
f 19//52 37//52 26//52
f 20//53 29//53 28//53
f 20//53 28//53 30//53
f 20//53 30//53 43//53
f 20//53 43//53 54//53
f 20//53 54//53 60//53
f 20//53 60//53 57//53
f 20//53 57//53 50//53
f 20//53 50//53 39//53
f 20//53 39//53 22//53
f 20//53 22//53 21//53
f 26//54 37//54 40//54
f 26//55 40//55 41//55
f 26//56 41//56 27//56
f 27//57 41//57 42//57
f 27//58 42//58 30//58
f 30//59 42//59 43//59
f 32//60 44//60 45//60
f 33//61 36//61 38//61
f 36//62 46//62 47//62
f 36//63 47//63 38//63
f 37//64 48//64 40//64
f 38//65 47//65 42//65
f 38//65 42//65 48//65
f 39//66 50//66 49//66
f 40//67 48//67 42//67
f 40//68 42//68 41//68
f 42//69 47//69 56//69
f 42//69 56//69 51//69
f 42//70 51//70 52//70
f 42//71 52//71 53//71
f 42//72 53//72 43//72
f 43//73 53//73 54//73
f 44//74 49//74 45//74
f 45//75 50//75 57//75
f 45//75 57//75 53//75
f 45//75 53//75 52//75
f 45//75 52//75 59//75
f 45//76 59//76 58//76
f 45//75 58//75 55//75
f 45//77 49//77 50//77
f 46//78 55//78 47//78
f 47//79 55//79 56//79
f 51//80 56//80 55//80
f 51//81 55//81 58//81
f 51//82 58//82 59//82
f 51//83 59//83 52//83
f 53//84 57//84 60//84
f 53//85 60//85 54//85
