# Blender 4.1.0
# www.blender.org
mtllib convex_39.mtl
o convex_39
v 0.143488 -0.497378 0.074693
v 0.142248 -0.498854 0.060071
v 0.144242 -0.501447 0.045239
v 0.145211 -0.497378 0.074693
v 0.141708 -0.496115 0.074693
v 0.139712 -0.497064 0.062954
v 0.139005 -0.497535 0.055526
v 0.144242 -0.501447 0.043642
v 0.144764 -0.501447 0.045239
v 0.138547 -0.497742 0.050989
v 0.146224 -0.498445 0.060071
v 0.149439 -0.498672 0.033273
v 0.145382 -0.496668 0.074693
v 0.141218 -0.495751 0.074693
v 0.119547 -0.485175 0.033273
v 0.147201 -0.499350 0.033273
v 0.144764 -0.501447 0.043642
v 0.149517 -0.496141 0.033273
v 0.145755 -0.494495 0.074693
v 0.139357 -0.493974 0.074693
v 0.119547 -0.482343 0.033273
v 0.137289 -0.491518 0.074693
v 0.134813 -0.488510 0.074693
v 0.113223 -0.460965 0.050243
v 0.113223 -0.461072 0.048937
v 0.113223 -0.461009 0.047708
v 0.113223 -0.460620 0.047550
v 0.113223 -0.458082 0.046768
v 0.149425 -0.495952 0.033273
v 0.135985 -0.454754 0.069969
v 0.140881 -0.468074 0.070119
v 0.140987 -0.468055 0.073703
v 0.141996 -0.471773 0.073703
v 0.141943 -0.471773 0.074693
v 0.124148 -0.482029 0.033273
v 0.113223 -0.454025 0.047656
v 0.113223 -0.449114 0.049736
v 0.116921 -0.451048 0.048519
v 0.119533 -0.450935 0.048402
v 0.113223 -0.444586 0.074693
v 0.147634 -0.493541 0.033273
v 0.126645 -0.441955 0.061888
v 0.134870 -0.452505 0.073703
v 0.135921 -0.454779 0.073703
v 0.140934 -0.468055 0.074693
v 0.127359 -0.482255 0.033273
v 0.113223 -0.445578 0.051816
v 0.122009 -0.451086 0.048491
v 0.113223 -0.437376 0.074693
v 0.145592 -0.491311 0.033273
v 0.123306 -0.446219 0.052761
v 0.126453 -0.446577 0.056337
v 0.121995 -0.442137 0.057630
v 0.123739 -0.441471 0.060254
v 0.119533 -0.438890 0.064617
v 0.124407 -0.440925 0.064755
v 0.126645 -0.441955 0.063331
v 0.134393 -0.451959 0.074693
v 0.134887 -0.452593 0.074693
v 0.135708 -0.454371 0.074693
v 0.133161 -0.483310 0.033273
v 0.119533 -0.445830 0.052436
v 0.113223 -0.442658 0.056004
v 0.119533 -0.443556 0.055218
v 0.140408 -0.486827 0.033273
v 0.137143 -0.484327 0.033273
v 0.113269 -0.437383 0.074693
v 0.113223 -0.437288 0.073703
v 0.113223 -0.439914 0.060096
v 0.119533 -0.440372 0.060071
v 0.119533 -0.439235 0.069158
v 0.123629 -0.440824 0.069158
v 0.113223 -0.437810 0.064917
v 0.113223 -0.437590 0.066608
v 0.113223 -0.437584 0.066668
v 0.113223 -0.437345 0.069158
v 0.123178 -0.441151 0.074693
v 0.125448 -0.443173 0.074693
v 0.132614 -0.449931 0.074693
vn -0.3169 -0.9406 0.1218
vn -0.0000 -0.9906 0.1368
vn -0.0000 -0.0000 1.0000
vn -0.0000 -0.0008 1.0000
vn -0.5710 -0.8048 0.1622
vn -0.4706 -0.8730 0.1280
vn -0.4939 -0.8636 0.1018
vn -0.4790 -0.8734 0.0883
vn -0.0000 -1.0000 -0.0000
vn -0.4791 -0.8733 0.0882
vn -0.5453 -0.8382 -0.0000
vn 0.6079 -0.7878 0.0996
vn 0.7824 -0.6148 0.0991
vn 0.9667 -0.2328 0.1060
vn -0.5882 -0.7919 0.1641
vn -0.6714 -0.7221 0.1669
vn -0.6183 -0.7785 0.1082
vn -0.6107 -0.7858 0.0975
vn -0.0000 -0.9802 -0.1983
vn -0.5490 -0.8358 -0.0041
vn -0.4357 -0.8500 -0.2963
vn 0.5104 -0.8599 -0.0000
vn 0.6615 -0.7450 0.0857
vn 0.2877 -0.9496 -0.1244
vn -0.0000 -0.0000 -1.0000
vn 0.9953 -0.0307 0.0916
vn 0.9802 -0.1683 0.1042
vn -0.6801 -0.7122 0.1740
vn -0.7456 -0.6279 0.2233
vn -0.7519 -0.6189 0.2273
vn -0.8606 -0.4233 0.2831
vn -0.9634 -0.2670 0.0219
vn -0.9692 -0.2461 -0.0126
vn -0.9626 -0.1020 -0.2509
vn -0.9571 -0.0854 -0.2770
vn -0.9055 -0.0000 -0.4244
vn 0.8874 0.4322 -0.1602
vn 0.9379 0.3443 -0.0424
vn 0.9438 0.3293 -0.0296
vn 0.9649 0.2618 0.0217
vn 0.9754 0.2143 0.0523
vn 0.9828 0.1649 0.0827
vn -0.7843 0.1327 -0.6060
vn -0.3284 0.3684 -0.8697
vn -0.0697 0.4322 -0.8991
vn -0.0592 0.4332 -0.8994
vn -0.0296 0.4338 -0.9005
vn -0.8607 -0.4230 0.2834
vn -1.0000 -0.0000 -0.0000
vn 0.7219 0.5363 -0.4373
vn 0.8493 0.4776 -0.2251
vn 0.8296 0.5519 -0.0847
vn 0.9076 0.4195 0.0184
vn 0.9341 0.3565 0.0184
vn 0.9383 0.3446 -0.0296
vn 0.9638 0.2616 0.0516
vn 0.9331 0.3561 0.0500
vn 0.0310 0.4410 -0.8970
vn -0.0359 0.5067 -0.8614
vn -0.0595 0.4474 -0.8923
vn 0.0650 0.5896 -0.8051
vn 0.0594 0.4462 -0.8930
vn 0.5987 0.5483 -0.5839
vn 0.6535 0.5501 -0.5200
vn 0.6887 0.5453 -0.4778
vn 0.6396 0.5797 -0.5048
vn 0.4349 0.7443 -0.5068
vn 0.3926 0.7948 -0.4628
vn 0.2976 0.9194 -0.2570
vn 0.3858 0.9221 -0.0301
vn 0.4181 0.9084 -0.0000
vn 0.7886 0.6149 -0.0000
vn 0.7758 0.6305 0.0261
vn 0.7881 0.6141 0.0411
vn 0.9075 0.4194 0.0217
vn 0.9077 0.4191 0.0225
vn 0.9328 0.3563 0.0539
vn 0.0816 0.4485 -0.8900
vn 0.1010 0.6272 -0.7723
vn 0.0454 0.8195 -0.5713
vn 0.0928 0.7709 -0.6302
vn 0.1309 0.6339 -0.7623
vn 0.4241 0.5307 -0.7338
vn 0.4029 0.5262 -0.7488
vn 0.1167 0.4568 -0.8819
vn 0.1499 0.9848 0.0876
vn 0.4621 0.5343 -0.7078
vn 0.1330 0.7673 -0.6273
vn 0.1507 0.7772 -0.6109
vn 0.0571 0.8340 -0.5488
vn 0.0586 0.8361 -0.5455
vn 0.2486 0.8865 -0.3903
vn 0.2533 0.9197 -0.2999
vn 0.3608 0.9300 0.0706
vn 0.3837 0.9223 0.0466
vn 0.1464 0.9405 -0.3066
vn 0.1614 0.9786 -0.1273
vn 0.1717 0.9804 -0.0966
vn 0.1723 0.9805 -0.0941
vn 0.2295 0.9732 -0.0122
vn 0.3406 0.9375 0.0712
vn 0.4479 0.8922 0.0587
vn 0.5000 0.8612 0.0916
vn 0.6578 0.7384 0.1485
vn 0.6785 0.7194 0.1486
vn 0.7500 0.6579 0.0678
vn 0.0487 0.8295 -0.5564
vn 0.3540 0.9310 0.0891
vn 0.3424 0.9366 0.0740
vn 0.0648 0.9146 -0.3991
vn 0.3604 0.9290 0.0843
s 0
f 1//1 2//1 3//1
f 1//2 3//2 9//2
f 1//2 9//2 4//2
f 1//3 4//3 13//3
f 1//3 13//3 19//3
f 1//3 19//3 34//3
f 1//3 34//3 45//3
f 1//3 45//3 60//3
f 1//3 60//3 59//3
f 1//3 59//3 58//3
f 1//3 58//3 79//3
f 1//3 79//3 78//3
f 1//3 78//3 77//3
f 1//3 77//3 67//3
f 1//3 67//3 49//3
f 1//3 49//3 40//3
f 1//3 40//3 23//3
f 1//3 23//3 22//3
f 1//3 22//3 20//3
f 1//3 20//3 14//3
f 1//4 14//4 5//4
f 1//5 5//5 6//5
f 1//6 6//6 2//6
f 2//7 6//7 7//7
f 2//8 7//8 3//8
f 3//9 8//9 17//9
f 3//9 17//9 9//9
f 3//10 7//10 10//10
f 3//11 10//11 8//11
f 4//12 9//12 11//12
f 4//13 11//13 12//13
f 4//14 12//14 13//14
f 5//15 14//15 6//15
f 6//16 14//16 15//16
f 6//17 15//17 7//17
f 7//18 15//18 10//18
f 8//19 16//19 17//19
f 8//20 10//20 15//20
f 8//21 15//21 16//21
f 9//22 17//22 12//22
f 9//23 12//23 11//23
f 12//24 17//24 16//24
f 12//25 16//25 15//25
f 12//25 15//25 21//25
f 12//25 21//25 35//25
f 12//25 35//25 46//25
f 12//25 46//25 61//25
f 12//25 61//25 66//25
f 12//25 66//25 65//25
f 12//25 65//25 50//25
f 12//25 50//25 41//25
f 12//25 41//25 29//25
f 12//25 29//25 18//25
f 12//26 18//26 19//26
f 12//27 19//27 13//27
f 14//28 20//28 15//28
f 15//29 20//29 22//29
f 15//30 22//30 23//30
f 15//31 23//31 24//31
f 15//32 24//32 25//32
f 15//33 25//33 26//33
f 15//34 26//34 27//34
f 15//35 27//35 28//35
f 15//36 28//36 21//36
f 18//37 29//37 30//37
f 18//38 30//38 31//38
f 18//39 31//39 32//39
f 18//40 32//40 33//40
f 18//41 33//41 34//41
f 18//42 34//42 19//42
f 21//43 28//43 36//43
f 21//44 36//44 37//44
f 21//45 37//45 38//45
f 21//46 38//46 39//46
f 21//47 39//47 35//47
f 23//48 40//48 24//48
f 24//49 40//49 49//49
f 24//49 49//49 68//49
f 24//49 68//49 76//49
f 24//49 76//49 75//49
f 24//49 75//49 74//49
f 24//49 74//49 73//49
f 24//49 73//49 69//49
f 24//49 69//49 63//49
f 24//49 63//49 47//49
f 24//49 47//49 37//49
f 24//49 37//49 36//49
f 24//49 36//49 28//49
f 24//49 28//49 27//49
f 24//49 27//49 26//49
f 24//49 26//49 25//49
f 29//50 41//50 42//50
f 29//51 42//51 30//51
f 30//52 42//52 43//52
f 30//53 43//53 44//53
f 30//54 44//54 32//54
f 30//55 32//55 31//55
f 32//56 45//56 34//56
f 32//56 34//56 33//56
f 32//57 44//57 45//57
f 35//58 39//58 46//58
f 37//59 47//59 39//59
f 37//60 39//60 38//60
f 39//61 47//61 48//61
f 39//62 48//62 46//62
f 41//63 50//63 51//63
f 41//64 51//64 52//64
f 41//65 52//65 42//65
f 42//66 52//66 51//66
f 42//67 51//67 53//67
f 42//68 53//68 54//68
f 42//69 54//69 55//69
f 42//70 55//70 56//70
f 42//71 56//71 57//71
f 42//72 57//72 43//72
f 43//73 57//73 58//73
f 43//74 58//74 59//74
f 43//75 59//75 44//75
f 44//76 59//76 60//76
f 44//77 60//77 45//77
f 46//78 48//78 61//78
f 47//79 62//79 48//79
f 47//80 63//80 64//80
f 47//81 64//81 62//81
f 48//82 62//82 51//82
f 48//83 51//83 65//83
f 48//84 65//84 66//84
f 48//85 66//85 61//85
f 49//86 67//86 68//86
f 50//87 65//87 51//87
f 51//88 62//88 64//88
f 51//89 64//89 53//89
f 53//90 64//90 69//90
f 53//91 69//91 70//91
f 53//92 70//92 54//92
f 54//93 70//93 55//93
f 55//94 71//94 72//94
f 55//95 72//95 56//95
f 55//96 70//96 73//96
f 55//97 73//97 74//97
f 55//98 74//98 75//98
f 55//99 75//99 76//99
f 55//100 76//100 68//100
f 55//101 68//101 71//101
f 56//102 72//102 57//102
f 57//103 72//103 77//103
f 57//104 77//104 78//104
f 57//105 78//105 79//105
f 57//106 79//106 58//106
f 63//107 69//107 64//107
f 67//108 77//108 71//108
f 67//109 71//109 68//109
f 69//110 73//110 70//110
f 71//111 77//111 72//111
