# Blender 4.1.0
# www.blender.org
mtllib convex_9.mtl
o convex_9
v 0.150196 -0.415842 -0.074888
v 0.150196 -0.416167 -0.071640
v 0.150196 -0.425051 -0.074888
v 0.074094 -0.399616 -0.074888
v 0.150196 -0.417793 -0.058342
v 0.076484 -0.401294 -0.064734
v 0.150196 -0.434421 -0.046238
v 0.148283 -0.426359 -0.074888
v 0.072741 -0.399470 -0.074888
v 0.037745 -0.395787 -0.067158
v 0.042293 -0.397734 -0.039897
v 0.110442 -0.418619 -0.030821
v 0.124074 -0.422516 -0.030821
v 0.142196 -0.427935 -0.030821
v 0.142231 -0.427946 -0.030821
v 0.144295 -0.428918 -0.030821
v 0.150196 -0.417953 -0.058027
v 0.042293 -0.398591 -0.035354
v 0.045348 -0.400614 -0.032348
v 0.150196 -0.434421 -0.033858
v 0.147910 -0.434421 -0.044974
v 0.137706 -0.429262 -0.074888
v 0.141811 -0.429507 -0.074888
v 0.142313 -0.429399 -0.074888
v 0.147024 -0.427128 -0.074888
v 0.147805 -0.426684 -0.074888
v 0.040730 -0.396453 -0.074888
v 0.031063 -0.395355 -0.071701
v 0.042293 -0.396373 -0.070907
v 0.031751 -0.396682 -0.045220
v 0.033197 -0.397700 -0.035354
v 0.043587 -0.401795 -0.030821
v 0.145694 -0.430746 -0.030821
v 0.149099 -0.428581 -0.037550
v 0.150196 -0.429549 -0.038491
v 0.031063 -0.398013 -0.033224
v 0.031063 -0.398900 -0.030821
v 0.033909 -0.399505 -0.030821
v 0.040416 -0.401011 -0.030821
v 0.150196 -0.434050 -0.033987
v 0.145799 -0.430887 -0.030821
v 0.146837 -0.434394 -0.030821
v 0.146837 -0.434421 -0.030821
v 0.135677 -0.434421 -0.031649
v 0.134954 -0.434421 -0.030821
v 0.078630 -0.421953 -0.030821
v 0.135281 -0.428696 -0.074888
v 0.031063 -0.395673 -0.074888
v 0.031063 -0.395581 -0.067158
v 0.031063 -0.396675 -0.045155
v 0.031063 -0.397711 -0.035354
v 0.150196 -0.431736 -0.036183
v 0.150196 -0.431205 -0.036726
v 0.031063 -0.405214 -0.030821
v 0.056030 -0.415662 -0.030821
v 0.033652 -0.401841 -0.074888
v 0.031063 -0.400981 -0.074888
v 0.051144 -0.414205 -0.030821
v 0.031308 -0.401076 -0.074888
vn 1.0000 -0.0000 -0.0000
vn -0.0000 -0.0000 -1.0000
vn -0.0000 0.0001 -1.0000
vn 0.2075 0.9734 0.0974
vn 0.2066 0.9720 0.1120
vn 0.2071 0.9711 0.1187
vn 0.5449 -0.7970 -0.2606
vn 0.1073 0.9942 0.0121
vn 0.1155 0.9920 0.0516
vn 0.1867 0.9754 0.1172
vn 0.2529 0.8846 0.3918
vn 0.2626 0.8781 0.3999
vn 0.2737 0.8739 0.4017
vn 0.3875 0.8228 0.4157
vn 0.3963 0.8185 0.4159
vn 0.2044 0.9684 0.1426
vn 0.2096 0.9608 0.1813
vn 0.2378 0.9004 0.3642
vn 0.2393 0.8966 0.3725
vn -0.0000 -1.0000 -0.0000
vn -0.0002 -1.0000 -0.0000
vn 0.0001 -1.0000 -0.0000
vn -0.0791 -0.9865 -0.1431
vn -0.0589 -0.9866 -0.1520
vn 0.2050 -0.9529 -0.2234
vn 0.4184 -0.8680 -0.2673
vn 0.4764 -0.8380 -0.2661
vn 0.5427 -0.7984 -0.2609
vn 0.0937 0.9939 -0.0583
vn 0.0940 0.9941 -0.0546
vn 0.0961 0.9946 -0.0389
vn 0.0932 0.9947 -0.0425
vn 0.0311 0.9983 0.0492
vn 0.0693 0.9958 0.0596
vn 0.0512 0.9942 0.0951
vn 0.0958 0.9781 0.1846
vn 0.1699 0.6750 0.7180
vn -0.0000 -0.0004 1.0000
vn -0.0000 0.0001 1.0000
vn -0.0000 -0.0000 1.0000
vn -0.0000 -0.0002 1.0000
vn 0.6817 0.5218 0.5128
vn 0.5272 0.7423 0.4135
vn 0.7673 0.5515 0.3274
vn 0.0947 0.9669 0.2369
vn 0.1133 0.9321 0.3441
vn 0.1532 0.8850 0.4398
vn 0.1586 0.7461 0.6466
vn 0.1609 0.6952 0.7005
vn 0.1673 0.6771 0.7166
vn 0.6758 0.2427 0.6960
vn 0.6586 0.1949 0.7268
vn 0.6715 -0.0000 0.7410
vn -0.1347 -0.9832 -0.1236
vn -0.1418 -0.9821 -0.1238
vn -0.2144 -0.9685 -0.1268
vn -0.2250 -0.9640 -0.1417
vn 0.0800 0.9919 -0.0990
vn -1.0000 -0.0000 -0.0000
vn 1.0000 -0.0000 -0.0020
vn 0.0137 0.9987 0.0497
vn 0.0149 0.9987 0.0497
vn 0.0195 0.9948 0.0998
vn -0.0051 0.9944 0.1051
vn -0.0051 0.9901 0.1403
vn 0.6884 0.5125 0.5132
vn 0.7131 0.4775 0.5133
vn 0.7323 0.4687 0.4940
vn 0.7645 0.4611 0.4505
vn 0.7759 0.4599 0.4317
vn -0.2646 -0.9504 -0.1637
vn -0.2514 -0.9514 -0.1776
vn -0.4071 -0.9092 -0.0873
vn -0.2824 -0.9469 -0.1536
vn -0.3071 -0.9410 -0.1421
vn -0.3594 -0.9262 -0.1143
s 0
f 1//1 2//1 5//1
f 1//1 5//1 17//1
f 1//1 17//1 35//1
f 1//1 35//1 53//1
f 1//1 53//1 52//1
f 1//1 52//1 40//1
f 1//1 40//1 20//1
f 1//1 20//1 7//1
f 1//1 7//1 3//1
f 1//2 3//2 8//2
f 1//2 8//2 26//2
f 1//2 26//2 25//2
f 1//2 25//2 24//2
f 1//2 24//2 23//2
f 1//2 23//2 22//2
f 1//2 22//2 47//2
f 1//2 47//2 56//2
f 1//2 56//2 59//2
f 1//3 59//3 57//3
f 1//2 57//2 48//2
f 1//2 48//2 27//2
f 1//2 27//2 9//2
f 1//2 9//2 4//2
f 1//4 4//4 2//4
f 2//5 4//5 6//5
f 2//6 6//6 5//6
f 3//7 7//7 8//7
f 4//8 9//8 10//8
f 4//9 10//9 11//9
f 4//10 11//10 6//10
f 5//11 12//11 13//11
f 5//12 13//12 14//12
f 5//13 14//13 15//13
f 5//14 15//14 16//14
f 5//15 16//15 17//15
f 5//16 6//16 11//16
f 5//17 11//17 18//17
f 5//18 18//18 19//18
f 5//19 19//19 12//19
f 7//20 20//20 43//20
f 7//20 43//20 45//20
f 7//21 45//21 44//21
f 7//22 44//22 21//22
f 7//23 21//23 22//23
f 7//24 22//24 23//24
f 7//25 23//25 24//25
f 7//26 24//26 25//26
f 7//27 25//27 26//27
f 7//28 26//28 8//28
f 9//29 27//29 28//29
f 9//30 28//30 29//30
f 9//31 29//31 10//31
f 10//32 29//32 28//32
f 10//33 28//33 30//33
f 10//34 30//34 11//34
f 11//35 30//35 31//35
f 11//36 31//36 18//36
f 12//37 19//37 32//37
f 12//38 32//38 39//38
f 12//39 39//39 38//39
f 12//40 38//40 37//40
f 12//40 37//40 54//40
f 12//40 54//40 58//40
f 12//40 58//40 55//40
f 12//40 55//40 46//40
f 12//40 46//40 45//40
f 12//40 45//40 43//40
f 12//40 43//40 42//40
f 12//40 42//40 41//40
f 12//40 41//40 33//40
f 12//40 33//40 16//40
f 12//40 16//40 15//40
f 12//41 15//41 14//41
f 12//40 14//40 13//40
f 16//42 33//42 34//42
f 16//43 34//43 17//43
f 17//44 34//44 35//44
f 18//45 31//45 36//45
f 18//46 36//46 37//46
f 18//47 37//47 19//47
f 19//48 37//48 38//48
f 19//49 38//49 39//49
f 19//50 39//50 32//50
f 20//51 40//51 41//51
f 20//52 41//52 42//52
f 20//53 42//53 43//53
f 21//54 44//54 22//54
f 22//55 44//55 45//55
f 22//56 45//56 46//56
f 22//57 46//57 47//57
f 27//58 48//58 28//58
f 28//59 48//59 57//59
f 28//59 57//59 54//59
f 28//59 54//59 37//59
f 28//59 37//59 36//59
f 28//59 36//59 51//59
f 28//59 51//59 50//59
f 28//60 50//60 49//60
f 28//61 49//61 30//61
f 30//62 49//62 50//62
f 30//63 50//63 31//63
f 31//64 50//64 51//64
f 31//65 51//65 36//65
f 33//66 41//66 34//66
f 34//67 41//67 40//67
f 34//68 40//68 52//68
f 34//69 52//69 53//69
f 34//70 53//70 35//70
f 46//71 55//71 56//71
f 46//72 56//72 47//72
f 54//73 57//73 58//73
f 55//74 58//74 56//74
f 56//75 58//75 59//75
f 57//76 59//76 58//76
