# Blender 4.1.0
# www.blender.org
mtllib convex_66.mtl
o convex_66
v 0.092790 -0.436828 0.077724
v 0.092790 -0.437145 0.082915
v 0.092790 -0.437067 0.073377
v 0.088439 -0.437325 0.078250
v 0.088972 -0.437169 0.082793
v 0.089375 -0.437325 0.086098
v 0.091371 -0.437325 0.086098
v 0.092790 -0.437540 0.085494
v 0.092790 -0.437169 0.072495
v 0.088662 -0.437528 0.074544
v 0.087376 -0.437863 0.073300
v 0.086167 -0.438102 0.078250
v 0.086615 -0.440830 0.089688
v 0.087763 -0.440202 0.089688
v 0.090186 -0.439538 0.089688
v 0.092644 -0.439239 0.089688
v 0.080305 -0.441673 0.077083
v 0.092639 -0.438126 0.087503
v 0.092790 -0.438096 0.087269
v 0.092790 -0.437510 0.070796
v 0.090062 -0.437719 0.071516
v 0.082998 -0.440824 0.069546
v 0.083176 -0.439334 0.073706
v 0.085345 -0.442110 0.089688
v 0.092790 -0.439305 0.089688
v 0.092790 -0.438198 0.087511
v 0.080050 -0.441416 0.073706
v 0.078525 -0.444515 0.073706
v 0.072374 -0.458429 0.078672
v 0.075251 -0.454607 0.082793
v 0.075887 -0.455330 0.086409
v 0.076468 -0.455977 0.089439
v 0.092790 -0.438138 0.087371
v 0.092790 -0.438054 0.069546
v 0.091573 -0.438371 0.069546
v 0.087689 -0.439472 0.069546
v 0.080498 -0.441793 0.069546
v 0.080366 -0.441709 0.069976
v 0.076309 -0.456485 0.089688
v 0.092790 -0.449139 0.089688
v 0.075930 -0.450449 0.070183
v 0.067225 -0.469436 0.075782
v 0.067225 -0.469436 0.076149
v 0.071825 -0.460457 0.080465
v 0.092790 -0.445197 0.069546
v 0.080069 -0.442541 0.069546
v 0.075410 -0.458531 0.089688
v 0.074358 -0.495679 0.089688
v 0.076046 -0.450736 0.069546
v 0.067119 -0.473552 0.071178
v 0.067684 -0.470525 0.072754
v 0.066883 -0.471931 0.074043
v 0.065976 -0.476321 0.078250
v 0.066806 -0.476411 0.082377
v 0.067101 -0.477990 0.085532
v 0.068774 -0.476363 0.089688
v 0.071950 -0.496942 0.075455
v 0.071918 -0.492635 0.071178
v 0.072136 -0.489955 0.070569
v 0.078902 -0.470417 0.069546
v 0.073318 -0.497791 0.089688
v 0.068917 -0.472008 0.069546
v 0.066894 -0.491283 0.070475
v 0.066507 -0.476615 0.073294
v 0.065706 -0.480862 0.078250
v 0.066406 -0.481059 0.083154
v 0.068683 -0.478792 0.089688
v 0.067005 -0.489955 0.085926
v 0.070890 -0.497935 0.089688
v 0.069548 -0.497037 0.075049
v 0.069548 -0.495584 0.072777
v 0.069548 -0.493310 0.070524
v 0.069458 -0.489841 0.070167
v 0.072122 -0.474389 0.069546
v 0.069837 -0.475071 0.069546
v 0.066894 -0.493263 0.070475
v 0.067125 -0.496954 0.075264
v 0.067125 -0.496954 0.076730
v 0.067116 -0.493364 0.085626
v 0.068463 -0.489955 0.089688
v 0.069789 -0.496631 0.089688
v 0.069969 -0.475101 0.069546
v 0.069126 -0.494603 0.089688
v 0.068617 -0.491791 0.089688
vn 1.0000 -0.0000 -0.0000
vn -0.1198 0.9913 -0.0545
vn -0.1159 0.9930 -0.0205
vn -0.0228 0.9985 0.0499
vn -0.0000 0.9982 0.0593
vn 0.0100 0.9981 0.0609
vn 0.2095 0.9665 0.1480
vn -0.1420 0.9833 -0.1138
vn -0.1280 0.9898 -0.0619
vn -0.1921 0.9792 -0.0652
vn -0.3233 0.9457 -0.0333
vn -0.3236 0.9462 0.0055
vn -0.4520 0.8867 0.0970
vn -0.4313 0.7886 0.4383
vn -0.2212 0.8071 0.5475
vn -0.1017 0.8364 0.5386
vn -0.0000 0.8824 0.4704
vn -0.5350 0.8338 0.1362
vn -0.6135 0.7466 0.2572
vn 0.0596 0.8895 0.4531
vn 0.2623 0.9209 0.2883
vn 0.2647 0.9202 0.2883
vn -0.1260 0.9726 -0.1952
vn -0.1465 0.9790 -0.1416
vn -0.1433 0.9828 -0.1165
vn -0.2884 0.8862 -0.3627
vn -0.3410 0.8895 -0.3040
vn -0.3335 0.9421 -0.0360
vn -0.5342 0.8361 0.1249
vn -0.6784 0.6731 0.2946
vn -0.0000 -0.0000 1.0000
vn -0.0000 0.0001 1.0000
vn 0.3744 0.8265 0.4204
vn 0.3723 0.8273 0.4206
vn -0.5513 0.8277 0.1046
vn -0.8927 0.4392 0.1007
vn -0.8948 0.4336 0.1065
vn -0.8762 0.4345 0.2087
vn -0.8633 0.4436 0.2406
vn -0.8525 0.4534 0.2601
vn -0.7960 0.5036 0.3358
vn 0.3851 0.8483 0.3635
vn 0.3751 0.8577 0.3516
vn -0.1728 0.9031 -0.3930
vn -0.2242 0.8608 -0.4570
vn -0.2412 0.8509 -0.4667
vn -0.2456 0.8520 -0.4624
vn -0.0000 -0.0000 -1.0000
vn -0.3443 0.8884 -0.3035
vn -0.3677 0.8848 -0.2863
vn -0.5509 0.8271 -0.1116
vn -0.7430 0.4671 0.4793
vn -0.8873 0.4477 -0.1102
vn -0.8943 0.4399 -0.0821
vn -0.9112 0.4114 -0.0216
vn -0.9107 0.4130 -0.0000
vn -0.9085 0.4159 0.0399
vn -0.8776 0.4281 0.2156
vn -0.9076 0.3877 0.1608
vn -0.8765 0.4185 0.2379
vn -0.8796 0.4020 0.2544
vn -0.8800 0.4005 0.2553
vn -0.8148 0.4678 -0.3425
vn -0.8676 0.4346 -0.2418
vn -0.8835 0.3881 0.2623
vn 0.9273 -0.3673 -0.0719
vn -0.8439 0.4142 -0.3411
vn -0.8925 0.3270 -0.3107
vn -0.8931 0.3273 -0.3087
vn -0.9047 0.3385 -0.2587
vn -0.9210 0.3007 -0.2476
vn -0.9234 0.2965 -0.2439
vn -0.9856 0.1639 -0.0414
vn -0.9839 0.1785 -0.0000
vn -0.9524 0.2328 0.1966
vn -0.9462 0.2453 0.2110
vn -0.9210 0.2939 0.2557
vn -0.9031 0.3315 0.2729
vn -0.8998 0.3349 0.2798
vn 0.9159 -0.3827 -0.1210
vn 0.8375 -0.3819 -0.3909
vn 0.4605 -0.2321 -0.8568
vn 0.2460 -0.1355 -0.9598
vn 0.8916 -0.4388 -0.1119
vn -0.7609 0.2550 -0.5967
vn -0.6893 0.0375 -0.7235
vn -0.9684 0.0222 -0.2483
vn -0.9852 0.1013 -0.1385
vn -0.9890 0.0973 -0.1116
vn -0.9922 0.0591 -0.1097
vn -0.9879 0.0588 0.1434
vn -0.9811 0.0889 0.1719
vn -0.9564 0.2154 0.1970
vn -0.9317 0.0346 0.3615
vn -0.9652 0.0163 0.2609
vn -0.9331 0.0193 0.3591
vn 0.0591 -0.9961 -0.0651
vn 0.0505 -0.9966 -0.0658
vn 0.1235 -0.8359 -0.5348
vn 0.3664 -0.6550 -0.6609
vn 0.3687 -0.6536 -0.6610
vn 0.3203 -0.2346 -0.9178
vn 0.1524 -0.1043 -0.9828
vn 0.1364 -0.0978 -0.9858
vn 0.0262 -0.0447 -0.9987
vn -0.1097 -0.0330 -0.9934
vn -0.4172 -0.0000 -0.9088
vn -0.9885 -0.0000 -0.1510
vn -0.9877 0.0040 -0.1562
vn -0.9963 -0.0846 -0.0172
vn -0.9961 -0.0878 -0.0000
vn -0.9952 -0.0911 0.0359
vn -0.9922 -0.0427 0.1173
vn -0.9898 -0.0229 0.1404
vn -0.9322 0.0184 0.3614
vn -0.9306 -0.0621 0.3607
vn -0.2521 -0.9677 -0.0000
vn -0.0393 -0.9976 -0.0576
vn -0.7530 -0.6354 0.1707
vn -0.0765 -0.8399 -0.5373
vn -0.1685 -0.7846 -0.5966
vn 0.0007 -0.7039 -0.7103
vn 0.0166 -0.1019 -0.9947
vn -0.0659 -0.0402 -0.9970
vn -0.0094 -0.0418 -0.9991
vn 0.0141 -0.0426 -0.9990
vn -0.8621 -0.4703 0.1890
vn -0.8898 -0.2908 0.3516
vn -0.9031 -0.1635 0.3970
vn -0.9251 -0.0775 0.3718
s 0
f 1//1 2//1 8//1
f 1//1 8//1 19//1
f 1//1 19//1 33//1
f 1//1 33//1 26//1
f 1//1 26//1 25//1
f 1//1 25//1 40//1
f 1//1 40//1 45//1
f 1//1 45//1 34//1
f 1//1 34//1 20//1
f 1//1 20//1 9//1
f 1//1 9//1 3//1
f 1//2 3//2 4//2
f 1//3 4//3 5//3
f 1//4 5//4 6//4
f 1//5 6//5 7//5
f 1//6 7//6 2//6
f 2//7 7//7 8//7
f 3//8 9//8 10//8
f 3//9 10//9 4//9
f 4//10 10//10 11//10
f 4//11 11//11 12//11
f 4//12 12//12 5//12
f 5//13 12//13 6//13
f 6//14 13//14 14//14
f 6//15 14//15 15//15
f 6//16 15//16 16//16
f 6//17 16//17 7//17
f 6//18 12//18 17//18
f 6//19 17//19 13//19
f 7//20 16//20 18//20
f 7//21 18//21 8//21
f 8//22 18//22 19//22
f 9//23 20//23 21//23
f 9//24 21//24 11//24
f 9//25 11//25 10//25
f 11//26 21//26 22//26
f 11//27 22//27 23//27
f 11//28 23//28 12//28
f 12//29 23//29 17//29
f 13//30 17//30 24//30
f 13//31 24//31 39//31
f 13//31 39//31 47//31
f 13//31 47//31 56//31
f 13//31 56//31 67//31
f 13//31 67//31 80//31
f 13//31 80//31 84//31
f 13//31 84//31 83//31
f 13//31 83//31 81//31
f 13//31 81//31 69//31
f 13//31 69//31 61//31
f 13//31 61//31 48//31
f 13//31 48//31 40//31
f 13//31 40//31 25//31
f 13//32 25//32 16//32
f 13//31 16//31 15//31
f 13//31 15//31 14//31
f 16//33 25//33 26//33
f 16//34 26//34 18//34
f 17//35 23//35 27//35
f 17//36 27//36 28//36
f 17//37 28//37 29//37
f 17//38 29//38 30//38
f 17//39 30//39 31//39
f 17//40 31//40 32//40
f 17//41 32//41 24//41
f 18//42 26//42 33//42
f 18//43 33//43 19//43
f 20//44 34//44 21//44
f 21//45 34//45 35//45
f 21//46 35//46 36//46
f 21//47 36//47 22//47
f 22//48 36//48 35//48
f 22//48 35//48 34//48
f 22//48 34//48 45//48
f 22//48 45//48 60//48
f 22//48 60//48 74//48
f 22//48 74//48 82//48
f 22//48 82//48 75//48
f 22//48 75//48 62//48
f 22//48 62//48 49//48
f 22//48 49//48 46//48
f 22//48 46//48 37//48
f 22//49 37//49 23//49
f 23//50 37//50 38//50
f 23//51 38//51 27//51
f 24//52 32//52 39//52
f 27//53 38//53 41//53
f 27//54 41//54 28//54
f 28//55 41//55 42//55
f 28//56 42//56 43//56
f 28//57 43//57 29//57
f 29//58 44//58 30//58
f 29//59 43//59 44//59
f 30//60 44//60 31//60
f 31//61 44//61 32//61
f 32//62 44//62 39//62
f 37//63 46//63 38//63
f 38//64 46//64 41//64
f 39//65 44//65 47//65
f 40//66 48//66 45//66
f 41//67 46//67 49//67
f 41//68 49//68 50//68
f 41//69 50//69 51//69
f 41//70 51//70 42//70
f 42//71 51//71 50//71
f 42//72 50//72 52//72
f 42//73 52//73 53//73
f 42//74 53//74 43//74
f 43//75 53//75 54//75
f 43//76 54//76 55//76
f 43//77 55//77 56//77
f 43//78 56//78 44//78
f 44//79 56//79 47//79
f 45//80 48//80 57//80
f 45//81 57//81 58//81
f 45//82 58//82 59//82
f 45//83 59//83 60//83
f 48//84 61//84 57//84
f 49//85 62//85 50//85
f 50//86 62//86 63//86
f 50//87 63//87 64//87
f 50//88 64//88 52//88
f 52//89 64//89 53//89
f 53//90 64//90 65//90
f 53//91 65//91 66//91
f 53//92 66//92 55//92
f 53//93 55//93 54//93
f 55//94 67//94 56//94
f 55//95 66//95 68//95
f 55//96 68//96 67//96
f 57//97 61//97 69//97
f 57//98 69//98 70//98
f 57//99 70//99 71//99
f 57//100 71//100 72//100
f 57//101 72//101 58//101
f 58//102 72//102 59//102
f 59//103 72//103 60//103
f 60//104 72//104 73//104
f 60//105 73//105 74//105
f 62//106 75//106 76//106
f 62//107 76//107 63//107
f 63//108 76//108 65//108
f 63//109 65//109 64//109
f 65//110 76//110 77//110
f 65//111 77//111 78//111
f 65//112 78//112 79//112
f 65//113 79//113 68//113
f 65//114 68//114 66//114
f 67//115 68//115 80//115
f 68//116 79//116 80//116
f 69//117 78//117 77//117
f 69//118 77//118 70//118
f 69//119 81//119 78//119
f 70//120 77//120 71//120
f 71//121 77//121 76//121
f 71//122 76//122 72//122
f 72//123 76//123 73//123
f 73//124 76//124 75//124
f 73//125 75//125 82//125
f 73//126 82//126 74//126
f 78//127 81//127 79//127
f 79//128 81//128 83//128
f 79//129 83//129 84//129
f 79//130 84//130 80//130
