# Blender 4.1.0
# www.blender.org
mtllib convex_10.mtl
o convex_10
v 0.150196 -0.444265 -0.148512
v 0.150196 -0.441066 -0.145968
v 0.150196 -0.454713 -0.148512
v 0.132040 -0.437200 -0.148512
v 0.150196 -0.438769 -0.144116
v 0.150196 -0.426225 -0.077749
v 0.148835 -0.428388 -0.079674
v 0.145802 -0.429576 -0.077324
v 0.146789 -0.456270 -0.148512
v 0.123809 -0.434097 -0.148512
v 0.150196 -0.437172 -0.142703
v 0.118715 -0.432231 -0.148512
v 0.150196 -0.425055 -0.074888
v 0.142316 -0.429396 -0.074888
v 0.142316 -0.429811 -0.075984
v 0.147816 -0.426690 -0.074888
v 0.147028 -0.427133 -0.074888
v 0.141814 -0.429503 -0.074888
v 0.137707 -0.429262 -0.074888
v 0.145038 -0.456001 -0.148512
v 0.150196 -0.426461 -0.130495
v 0.076425 -0.414954 -0.146710
v 0.086343 -0.421083 -0.148512
v 0.150196 -0.415844 -0.074888
v 0.135279 -0.428696 -0.074888
v 0.142061 -0.454814 -0.148512
v 0.107014 -0.419878 -0.074888
v 0.081870 -0.410556 -0.074888
v 0.080142 -0.409912 -0.074888
v 0.150196 -0.424830 -0.126669
v 0.075932 -0.405917 -0.128441
v 0.068880 -0.414158 -0.147424
v 0.068880 -0.413828 -0.146847
v 0.068880 -0.412444 -0.144368
v 0.080970 -0.420007 -0.148512
v 0.150196 -0.415688 -0.076272
v 0.074093 -0.399385 -0.076251
v 0.074093 -0.399615 -0.074888
v 0.068880 -0.404528 -0.074888
v 0.075343 -0.420141 -0.136138
v 0.074833 -0.420500 -0.139864
v 0.080803 -0.424175 -0.146264
v 0.080803 -0.424175 -0.147359
v 0.082467 -0.424830 -0.148512
v 0.150196 -0.417245 -0.094397
v 0.074443 -0.399996 -0.112990
v 0.077588 -0.400567 -0.111736
v 0.068880 -0.405211 -0.128571
v 0.068880 -0.404181 -0.126207
v 0.068880 -0.415923 -0.147424
v 0.080946 -0.421755 -0.148512
v 0.150196 -0.415648 -0.080798
v 0.074093 -0.399234 -0.108061
v 0.069548 -0.399038 -0.076251
v 0.072732 -0.399469 -0.074888
v 0.068880 -0.399329 -0.074888
v 0.068880 -0.417010 -0.139835
v 0.068880 -0.417094 -0.140527
v 0.068880 -0.416959 -0.144404
v 0.068880 -0.416898 -0.144952
v 0.081782 -0.423928 -0.148512
v 0.150196 -0.417200 -0.094174
v 0.068880 -0.399559 -0.112601
v 0.078383 -0.400332 -0.108061
v 0.069548 -0.399234 -0.074888
v 0.068880 -0.399144 -0.076251
v 0.068880 -0.399228 -0.075588
vn 1.0000 -0.0000 -0.0007
vn 1.0000 -0.0000 -0.0000
vn -0.0000 -0.0000 -1.0000
vn -0.0000 -0.0001 -1.0000
vn -0.0000 0.0001 -1.0000
vn 0.2354 0.6049 -0.7607
vn 0.2359 0.6100 -0.7565
vn 0.6873 -0.6738 0.2713
vn 0.5447 -0.7797 0.3089
vn 0.3927 -0.8593 0.3277
vn 0.2346 0.6223 -0.7468
vn 0.2352 0.6422 -0.7295
vn 0.2354 0.6440 -0.7279
vn 0.6833 -0.6758 0.2764
vn 0.5669 -0.7428 0.3562
vn 0.1954 -0.9171 0.3474
vn 0.1952 -0.9174 0.3467
vn 0.5048 -0.7347 0.4532
vn 0.4150 -0.7383 0.5316
vn 0.3570 -0.7433 0.5658
vn 0.1936 -0.9178 0.3467
vn -0.0551 -0.9396 0.3379
vn -0.1436 -0.9347 0.3252
vn 0.2353 0.6513 -0.7214
vn 0.2536 0.7271 -0.6379
vn 0.1871 0.5434 -0.8183
vn -0.0000 -0.0000 1.0000
vn -0.0000 -0.0001 1.0000
vn 0.1953 -0.9171 0.3475
vn -0.2155 -0.9245 0.3143
vn -0.2841 -0.9106 0.3001
vn -0.3347 -0.9028 0.2701
vn -0.3365 -0.9026 0.2684
vn -0.3589 -0.9001 0.2471
vn 0.2302 0.8747 -0.4265
vn 0.2367 0.8938 -0.3810
vn 0.1322 0.4704 -0.8725
vn 0.1372 0.8598 -0.4918
vn 0.1378 0.8648 -0.4828
vn 0.1601 0.8865 -0.4342
vn 0.0605 0.3020 -0.9514
vn 0.2082 0.9719 0.1096
vn 0.2058 0.9649 0.1629
vn -0.4239 -0.8868 0.1843
vn -0.4269 -0.8860 0.1808
vn -0.4349 -0.8887 0.1451
vn -0.4422 -0.8914 0.0994
vn -0.4473 -0.8944 -0.0000
vn -0.4451 -0.8845 -0.1396
vn 0.2405 0.9139 -0.3270
vn 0.2640 0.9352 -0.2360
vn 0.2681 0.9378 -0.2204
vn 0.0982 0.9048 -0.4143
vn 0.0987 0.9123 -0.3975
vn 0.1198 0.9309 -0.3452
vn -1.0000 -0.0000 -0.0000
vn -1.0000 -0.0000 -0.0007
vn -0.0890 0.0012 -0.9960
vn -0.0898 -0.0000 -0.9960
vn 0.2095 0.9778 0.0086
vn 0.0761 0.9971 0.0047
vn 0.0754 0.9878 0.1363
vn 0.1052 0.9806 0.1656
vn 0.2092 0.9779 0.0046
vn -0.5041 -0.8481 0.1630
vn -0.4994 -0.8532 0.1505
vn -0.5026 -0.8582 0.1042
vn -0.4990 -0.8660 0.0319
vn -0.5106 -0.8598 -0.0000
vn -0.5229 -0.8519 -0.0297
vn -0.5323 -0.8413 -0.0936
vn -0.5401 -0.7829 -0.3088
vn -0.5357 -0.7766 -0.3317
vn -0.1563 -0.1186 -0.9806
vn 0.2627 0.9459 -0.1905
vn 0.0518 0.9456 -0.3212
vn 0.0672 0.9867 -0.1478
vn 0.2282 0.9645 -0.1329
vn 0.2463 0.9624 -0.1149
vn 0.2482 0.9618 -0.1153
vn -0.1100 -0.0423 -0.9930
vn 0.2476 0.9624 -0.1117
vn 0.2465 0.9631 -0.1082
vn -0.0506 0.9986 -0.0134
vn 0.0729 0.9872 0.1421
vn -0.1566 0.9876 -0.0113
vn -0.1553 0.9800 0.1242
vn -0.1387 0.9802 0.1411
vn -0.1393 0.9801 0.1416
s 0
f 1//1 2//1 5//1
f 1//2 5//2 11//2
f 1//2 11//2 21//2
f 1//2 21//2 30//2
f 1//2 30//2 45//2
f 1//2 45//2 62//2
f 1//2 62//2 52//2
f 1//2 52//2 36//2
f 1//2 36//2 24//2
f 1//2 24//2 13//2
f 1//2 13//2 6//2
f 1//2 6//2 3//2
f 1//3 3//3 9//3
f 1//3 9//3 20//3
f 1//3 20//3 26//3
f 1//3 26//3 44//3
f 1//3 44//3 61//3
f 1//3 61//3 51//3
f 1//3 51//3 35//3
f 1//3 35//3 23//3
f 1//3 23//3 12//3
f 1//4 12//4 10//4
f 1//5 10//5 4//5
f 1//6 4//6 2//6
f 2//7 4//7 5//7
f 3//8 6//8 7//8
f 3//9 7//9 8//9
f 3//10 8//10 9//10
f 4//11 10//11 5//11
f 5//12 10//12 12//12
f 5//13 12//13 11//13
f 6//14 13//14 7//14
f 7//15 13//15 8//15
f 8//16 14//16 15//16
f 8//17 15//17 9//17
f 8//18 13//18 16//18
f 8//19 16//19 17//19
f 8//20 17//20 14//20
f 9//21 15//21 18//21
f 9//22 18//22 19//22
f 9//23 19//23 20//23
f 11//24 12//24 22//24
f 11//25 22//25 21//25
f 12//26 23//26 22//26
f 13//27 24//27 38//27
f 13//27 38//27 55//27
f 13//27 55//27 65//27
f 13//27 65//27 56//27
f 13//27 56//27 39//27
f 13//27 39//27 29//27
f 13//27 29//27 28//27
f 13//27 28//27 27//27
f 13//27 27//27 25//27
f 13//27 25//27 19//27
f 13//27 19//27 18//27
f 13//27 18//27 14//27
f 13//27 14//27 17//27
f 13//28 17//28 16//28
f 14//29 18//29 15//29
f 19//30 25//30 20//30
f 20//31 25//31 27//31
f 20//32 27//32 28//32
f 20//33 28//33 29//33
f 20//34 29//34 26//34
f 21//35 22//35 31//35
f 21//36 31//36 30//36
f 22//37 23//37 32//37
f 22//38 32//38 33//38
f 22//39 33//39 34//39
f 22//40 34//40 31//40
f 23//41 35//41 32//41
f 24//42 36//42 37//42
f 24//43 37//43 38//43
f 26//44 29//44 39//44
f 26//45 39//45 40//45
f 26//46 40//46 41//46
f 26//47 41//47 42//47
f 26//48 42//48 43//48
f 26//49 43//49 44//49
f 30//50 31//50 46//50
f 30//51 46//51 47//51
f 30//52 47//52 45//52
f 31//53 34//53 48//53
f 31//54 48//54 49//54
f 31//55 49//55 46//55
f 32//56 50//56 60//56
f 32//56 60//56 59//56
f 32//56 59//56 58//56
f 32//56 58//56 57//56
f 32//56 57//56 39//56
f 32//56 39//56 56//56
f 32//56 56//56 67//56
f 32//56 67//56 66//56
f 32//56 66//56 63//56
f 32//56 63//56 49//56
f 32//56 49//56 48//56
f 32//56 48//56 34//56
f 32//57 34//57 33//57
f 32//58 35//58 51//58
f 32//59 51//59 50//59
f 36//60 52//60 37//60
f 37//61 53//61 54//61
f 37//62 54//62 55//62
f 37//63 55//63 38//63
f 37//64 52//64 53//64
f 39//65 57//65 40//65
f 40//66 57//66 41//66
f 41//67 57//67 58//67
f 41//68 58//68 42//68
f 42//69 58//69 43//69
f 43//70 58//70 59//70
f 43//71 59//71 60//71
f 43//72 60//72 50//72
f 43//73 50//73 44//73
f 44//74 50//74 61//74
f 45//75 47//75 62//75
f 46//76 49//76 63//76
f 46//77 63//77 53//77
f 46//78 53//78 47//78
f 47//79 53//79 64//79
f 47//80 64//80 62//80
f 50//81 51//81 61//81
f 52//82 62//82 64//82
f 52//83 64//83 53//83
f 53//84 63//84 54//84
f 54//85 65//85 55//85
f 54//86 63//86 66//86
f 54//87 66//87 67//87
f 54//88 67//88 65//88
f 56//89 65//89 67//89
