# Blender 4.1.0
# www.blender.org
mtllib convex_32.mtl
o convex_32
v 0.008351 -0.449053 -0.192042
v -0.036542 -0.447153 -0.194085
v 0.008351 -0.449053 -0.199491
v 0.025598 -0.449053 -0.182616
v 0.002946 -0.409870 -0.168637
v -0.009939 -0.396609 -0.168637
v -0.033924 -0.406969 -0.182221
v -0.036542 -0.408299 -0.184338
v -0.036542 -0.447153 -0.199504
v 0.037732 -0.436500 -0.170236
v 0.038031 -0.436377 -0.170079
v 0.037732 -0.436269 -0.170079
v 0.028410 -0.430601 -0.170079
v 0.027578 -0.430082 -0.170079
v 0.025905 -0.428999 -0.170079
v -0.029118 -0.447153 -0.201722
v -0.027518 -0.447153 -0.202170
v -0.025870 -0.447153 -0.202488
v -0.023422 -0.447153 -0.202719
v -0.021395 -0.447153 -0.202809
v 0.001387 -0.447153 -0.202291
v 0.005038 -0.447153 -0.201729
v 0.005992 -0.447153 -0.201397
v 0.019556 -0.449053 -0.194912
v 0.028636 -0.449053 -0.182335
v 0.039550 -0.447215 -0.178277
v 0.004077 -0.410317 -0.168637
v -0.036542 -0.396609 -0.184526
v -0.033900 -0.403622 -0.182191
v 0.001217 -0.396609 -0.168637
v -0.036542 -0.403622 -0.183940
v -0.036542 -0.435422 -0.199692
v 0.041384 -0.447215 -0.178277
v 0.042539 -0.436192 -0.170079
v 0.006024 -0.410496 -0.168637
v -0.028399 -0.437465 -0.201297
v -0.025870 -0.437060 -0.201458
v -0.016782 -0.436084 -0.201729
v 0.001387 -0.444509 -0.202147
v 0.005458 -0.444509 -0.201722
v 0.007737 -0.444509 -0.200936
v 0.031366 -0.445592 -0.187720
v 0.031366 -0.447112 -0.187720
v 0.022326 -0.449053 -0.192871
v 0.031471 -0.449053 -0.182759
v -0.036542 -0.396609 -0.191128
v 0.002704 -0.397713 -0.168637
v 0.045181 -0.428886 -0.170079
v -0.000156 -0.396609 -0.170393
v -0.036542 -0.430878 -0.199297
v 0.041384 -0.447215 -0.179241
v 0.044567 -0.443015 -0.178461
v 0.045447 -0.434467 -0.170079
v 0.043848 -0.435791 -0.170079
v 0.031698 -0.449053 -0.185004
v 0.008351 -0.410224 -0.168637
v -0.030418 -0.426335 -0.199324
v -0.013696 -0.436577 -0.201682
v -0.025870 -0.426335 -0.199317
v 0.005143 -0.441706 -0.201498
v 0.012543 -0.438127 -0.196557
v 0.044567 -0.442117 -0.178525
v 0.044567 -0.443015 -0.178525
v -0.034853 -0.421827 -0.197721
v -0.036542 -0.422161 -0.197574
v -0.023640 -0.396609 -0.186559
v 0.008375 -0.423999 -0.192182
v 0.008351 -0.403093 -0.168637
v 0.045980 -0.429836 -0.170079
v 0.044874 -0.432845 -0.174437
v 0.013787 -0.409218 -0.174966
v -0.001683 -0.397230 -0.173313
v -0.002257 -0.396609 -0.172725
v -0.036542 -0.426335 -0.198494
v -0.034959 -0.426335 -0.198738
v 0.045690 -0.433599 -0.170079
v 0.010128 -0.426576 -0.192674
v 0.012866 -0.428250 -0.192252
v -0.036542 -0.425087 -0.198247
v -0.021225 -0.396609 -0.185633
v 0.009045 -0.418469 -0.188071
v 0.011404 -0.425221 -0.191423
v -0.001053 -0.401466 -0.178361
v -0.012524 -0.396609 -0.180167
v -0.008558 -0.396609 -0.177317
v -0.006199 -0.396609 -0.175621
v -0.018026 -0.396609 -0.183980
vn -0.0423 -0.9991 -0.0000
vn -0.0000 -1.0000 -0.0000
vn -0.0460 -0.9954 0.0841
vn -0.3043 -0.2957 0.9055
vn -0.4000 -0.2355 0.8858
vn -0.5513 -0.2030 0.8092
vn -1.0000 -0.0000 -0.0000
vn -0.1619 -0.6091 0.7764
vn -0.1662 -0.5974 0.7845
vn -0.1905 -0.5271 0.8282
vn -0.2328 -0.3829 0.8940
vn -0.2351 -0.3769 0.8959
vn -0.2384 -0.3682 0.8987
vn -0.2423 -0.3587 0.9015
vn -0.0418 -0.9893 -0.1400
vn -0.0413 -0.9882 -0.1476
vn -0.0374 -0.9803 -0.1940
vn -0.0275 -0.9561 -0.2917
vn -0.0168 -0.9252 -0.3790
vn 0.0133 -0.8118 -0.5838
vn 0.1131 -0.6686 -0.7350
vn 0.2896 -0.4745 -0.8313
vn 0.3438 -0.4171 -0.8413
vn -0.0477 -0.8554 0.5158
vn -0.1610 -0.6097 0.7761
vn -0.0000 0.0001 1.0000
vn -0.0000 -0.0000 1.0000
vn -0.2033 -0.3140 0.9274
vn -0.1752 -0.2806 0.9437
vn -0.1590 -0.2615 0.9520
vn -0.0447 -0.1130 0.9926
vn -0.5106 0.0923 0.8549
vn -0.4914 -0.0042 0.8709
vn -0.0000 1.0000 -0.0000
vn -0.5520 -0.0035 0.8338
vn -0.6065 -0.0674 0.7922
vn -0.2862 -0.0154 -0.9580
vn -0.1572 -0.6097 0.7769
vn -0.0000 -0.6033 0.7975
vn 0.0246 -0.5982 0.8009
vn 0.0022 -0.0530 0.9986
vn -0.0058 -0.0627 0.9980
vn -0.0375 -0.1042 0.9938
vn -0.2697 -0.0041 -0.9629
vn -0.1891 0.0615 -0.9800
vn -0.1747 0.0751 -0.9818
vn -0.0935 0.0974 -0.9908
vn -0.0799 0.1045 -0.9913
vn -0.0441 0.1133 -0.9926
vn -0.0419 0.1143 -0.9926
vn 0.0186 0.0894 -0.9958
vn 0.0227 0.0544 -0.9983
vn 0.1037 0.0541 -0.9931
vn 0.1521 -0.0215 -0.9881
vn 0.3258 -0.0492 -0.9442
vn 0.3284 -0.0524 -0.9431
vn 0.4151 -0.1166 -0.9023
vn 0.5201 -0.0000 -0.8541
vn 0.5028 -0.5302 -0.6826
vn 0.4886 0.1265 -0.8633
vn 0.0440 -0.9547 0.2942
vn -0.0000 -0.9109 0.4126
vn -0.5507 0.0695 0.8318
vn 0.5837 0.7858 0.2044
vn 0.5297 0.7401 -0.4143
vn -0.1720 0.0853 -0.9814
vn 0.7970 -0.6040 -0.0000
vn 0.7971 -0.6038 -0.0000
vn 0.7177 -0.5238 0.4588
vn 0.4782 -0.5778 0.6614
vn 0.1835 -0.5989 0.7795
vn 0.1746 -0.9845 0.0176
vn 0.1864 -0.9825 -0.0000
vn 0.0121 -0.0395 0.9991
vn 0.0056 -0.0481 0.9988
vn -0.1175 0.1526 -0.9813
vn -0.0880 0.1584 -0.9835
vn -0.0481 0.1752 -0.9833
vn 0.0350 0.1248 -0.9916
vn 0.0015 0.2415 -0.9704
vn 0.0469 0.2809 -0.9586
vn 0.0604 0.2870 -0.9560
vn 0.1034 0.0908 -0.9905
vn 0.0526 0.1578 -0.9861
vn 0.3241 0.1115 -0.9394
vn 0.4527 0.2470 -0.8568
vn 0.4841 0.2171 -0.8477
vn 0.4972 0.2824 -0.8204
vn 0.5716 -0.0000 -0.8206
vn 0.6063 -0.3367 -0.7204
vn 0.4656 -0.6866 -0.5584
vn 0.4576 -0.7025 -0.5451
vn 0.0917 0.3029 -0.9486
vn 0.0015 0.2661 -0.9639
vn -0.0990 0.2455 -0.9643
vn -0.1317 0.2425 -0.9612
vn 0.2883 0.5041 -0.8141
vn 0.2347 0.4187 -0.8773
vn 0.1445 0.1517 0.9778
vn 0.0947 0.0797 0.9923
vn 0.6447 0.5427 -0.5384
vn 0.4881 0.6286 -0.6055
vn 0.5274 0.7367 -0.4231
vn 0.4487 0.7971 -0.4041
vn 0.5238 0.7352 -0.4302
vn -0.1500 0.1721 -0.9736
vn -0.1263 0.1644 -0.9783
vn 0.9930 -0.1184 -0.0000
vn 0.9490 -0.2650 0.1706
vn 0.0329 -0.0092 0.9994
vn 0.0217 -0.0262 0.9994
vn 0.0368 -0.0028 0.9993
vn 0.0383 -0.0000 0.9993
vn -0.1248 0.2211 -0.9672
vn 0.3334 0.3906 -0.8581
vn 0.3622 0.3777 -0.8522
vn 0.3934 0.3565 -0.8474
vn 0.4937 0.3338 -0.8030
vn 0.9435 0.1070 -0.3135
vn 0.9863 -0.0000 -0.1651
vn 0.4944 0.3369 -0.8013
vn 0.9959 -0.0770 -0.0466
vn -0.1256 0.2211 -0.9671
vn -0.1281 0.2223 -0.9665
vn 0.3056 0.5208 -0.7971
vn 0.3981 0.5157 -0.7587
vn 0.3747 0.4133 -0.8299
vn 0.3261 0.5382 -0.7772
vn 0.4841 0.4406 -0.7560
vn 0.4779 0.5189 -0.7088
vn 0.4839 0.6229 -0.6148
vn 0.4708 0.6315 -0.6161
vn 0.4852 0.6987 -0.5257
vn 0.3961 0.7271 -0.5607
vn 0.3692 0.7744 -0.5139
vn 0.3688 0.7752 -0.5129
vn 0.3592 0.7949 -0.4890
vn -0.1495 0.1920 -0.9700
vn 0.3784 0.4098 -0.8300
vn 0.3699 0.5921 -0.7159
vn 0.4007 0.6221 -0.6726
vn 0.3949 0.7208 -0.5697
s 0
f 1//1 2//1 9//1
f 1//1 9//1 3//1
f 1//2 3//2 24//2
f 1//2 24//2 44//2
f 1//2 44//2 55//2
f 1//2 55//2 45//2
f 1//2 45//2 25//2
f 1//2 25//2 4//2
f 1//3 4//3 2//3
f 2//4 5//4 6//4
f 2//5 6//5 7//5
f 2//6 7//6 8//6
f 2//7 8//7 31//7
f 2//7 31//7 28//7
f 2//7 28//7 46//7
f 2//7 46//7 65//7
f 2//7 65//7 79//7
f 2//7 79//7 74//7
f 2//7 74//7 50//7
f 2//7 50//7 32//7
f 2//7 32//7 9//7
f 2//8 4//8 10//8
f 2//9 10//9 11//9
f 2//10 11//10 12//10
f 2//11 12//11 13//11
f 2//12 13//12 14//12
f 2//13 14//13 15//13
f 2//14 15//14 5//14
f 3//15 9//15 16//15
f 3//16 16//16 17//16
f 3//17 17//17 18//17
f 3//18 18//18 19//18
f 3//19 19//19 20//19
f 3//20 20//20 21//20
f 3//21 21//21 22//21
f 3//22 22//22 23//22
f 3//23 23//23 24//23
f 4//24 25//24 26//24
f 4//25 26//25 10//25
f 5//26 27//26 35//26
f 5//27 35//27 56//27
f 5//27 56//27 68//27
f 5//27 68//27 47//27
f 5//27 47//27 30//27
f 5//27 30//27 6//27
f 5//28 15//28 14//28
f 5//29 14//29 13//29
f 5//30 13//30 12//30
f 5//31 12//31 27//31
f 6//32 28//32 29//32
f 6//33 29//33 7//33
f 6//34 30//34 49//34
f 6//34 49//34 73//34
f 6//34 73//34 86//34
f 6//34 86//34 85//34
f 6//34 85//34 84//34
f 6//34 84//34 87//34
f 6//34 87//34 80//34
f 6//34 80//34 66//34
f 6//34 66//34 46//34
f 6//34 46//34 28//34
f 7//35 29//35 31//35
f 7//36 31//36 8//36
f 9//37 32//37 16//37
f 10//38 26//38 11//38
f 11//39 26//39 33//39
f 11//40 33//40 34//40
f 11//41 34//41 35//41
f 11//42 35//42 27//42
f 11//43 27//43 12//43
f 16//44 32//44 17//44
f 17//45 32//45 18//45
f 18//46 32//46 36//46
f 18//47 36//47 19//47
f 19//48 36//48 37//48
f 19//49 37//49 20//49
f 20//50 37//50 38//50
f 20//51 38//51 39//51
f 20//52 39//52 21//52
f 21//53 39//53 40//53
f 21//54 40//54 22//54
f 22//55 40//55 41//55
f 22//56 41//56 23//56
f 23//57 41//57 24//57
f 24//58 42//58 43//58
f 24//59 43//59 44//59
f 24//60 41//60 42//60
f 25//61 45//61 33//61
f 25//62 33//62 26//62
f 28//63 31//63 29//63
f 30//64 47//64 48//64
f 30//65 48//65 49//65
f 32//66 50//66 36//66
f 33//67 51//67 63//67
f 33//68 63//68 52//68
f 33//69 52//69 53//69
f 33//70 53//70 54//70
f 33//71 54//71 34//71
f 33//72 45//72 55//72
f 33//73 55//73 51//73
f 34//74 54//74 56//74
f 34//75 56//75 35//75
f 36//76 50//76 57//76
f 36//77 57//77 37//77
f 37//78 57//78 38//78
f 38//79 58//79 39//79
f 38//80 57//80 59//80
f 38//81 59//81 46//81
f 38//82 46//82 58//82
f 39//83 60//83 40//83
f 39//84 58//84 60//84
f 40//85 60//85 41//85
f 41//86 60//86 61//86
f 41//87 61//87 42//87
f 42//88 61//88 62//88
f 42//89 62//89 63//89
f 42//89 63//89 43//89
f 43//90 63//90 51//90
f 43//91 51//91 44//91
f 44//92 51//92 55//92
f 46//93 60//93 58//93
f 46//94 59//94 57//94
f 46//95 57//95 64//95
f 46//96 64//96 65//96
f 46//97 66//97 67//97
f 46//98 67//98 60//98
f 47//99 68//99 48//99
f 48//100 68//100 69//100
f 48//101 69//101 70//101
f 48//102 70//102 71//102
f 48//103 71//103 49//103
f 49//104 72//104 73//104
f 49//105 71//105 72//105
f 50//106 74//106 75//106
f 50//107 75//107 57//107
f 52//108 63//108 76//108
f 52//109 76//109 53//109
f 53//110 76//110 56//110
f 53//111 56//111 54//111
f 56//112 76//112 69//112
f 56//113 69//113 68//113
f 57//114 75//114 64//114
f 60//115 67//115 77//115
f 60//116 77//116 78//116
f 60//117 78//117 61//117
f 61//118 78//118 62//118
f 62//119 70//119 69//119
f 62//120 69//120 63//120
f 62//121 78//121 70//121
f 63//122 69//122 76//122
f 64//123 75//123 79//123
f 64//124 79//124 65//124
f 66//125 80//125 67//125
f 67//126 81//126 82//126
f 67//127 82//127 77//127
f 67//128 80//128 81//128
f 70//129 78//129 82//129
f 70//130 82//130 81//130
f 70//131 81//131 71//131
f 71//132 81//132 83//132
f 71//133 83//133 72//133
f 72//134 83//134 84//134
f 72//135 84//135 85//135
f 72//136 85//136 86//136
f 72//137 86//137 73//137
f 74//138 79//138 75//138
f 77//139 82//139 78//139
f 80//140 87//140 81//140
f 81//141 87//141 83//141
f 83//142 87//142 84//142
