# Blender 4.1.0
# www.blender.org
mtllib convex_107.mtl
o convex_107
v -0.053124 -0.430887 0.125758
v -0.060132 -0.433426 0.121545
v -0.053124 -0.432037 0.125453
v -0.053124 -0.423452 0.123636
v -0.064943 -0.423452 0.118885
v -0.064943 -0.426499 0.119326
v -0.064943 -0.430090 0.118377
v -0.064943 -0.451238 0.112291
v -0.064640 -0.451506 0.112418
v -0.053124 -0.435465 0.123758
v -0.053124 -0.423452 0.115600
v -0.064943 -0.423452 0.109021
v -0.064943 -0.451795 0.112032
v -0.053124 -0.458581 0.111722
v -0.053124 -0.457996 0.112032
v -0.064943 -0.456705 0.108519
v -0.055998 -0.470009 0.103549
v -0.053144 -0.470778 0.104026
v -0.057708 -0.423452 0.112712
v -0.053124 -0.491298 0.079046
v -0.057233 -0.489951 0.073899
v -0.064943 -0.473727 0.073899
v -0.059150 -0.423452 0.111854
v -0.064943 -0.427289 0.106336
v -0.053124 -0.470785 0.104026
v -0.064943 -0.473861 0.094417
v -0.064730 -0.492505 0.081128
v -0.059626 -0.492201 0.085051
v -0.054727 -0.478086 0.098306
v -0.053124 -0.478559 0.098722
v -0.053124 -0.495171 0.077757
v -0.057635 -0.494444 0.073899
v -0.064943 -0.485733 0.073899
v -0.064943 -0.478587 0.090448
v -0.064875 -0.489951 0.081757
v -0.064943 -0.489380 0.081315
v -0.064730 -0.492505 0.080006
v -0.061563 -0.494579 0.073899
v -0.062232 -0.493252 0.082097
v -0.053124 -0.495510 0.082605
v -0.053124 -0.492815 0.085681
v -0.053124 -0.495517 0.078071
v -0.057666 -0.494593 0.073899
v -0.064943 -0.486149 0.074092
v -0.064943 -0.488738 0.077615
v -0.064943 -0.486276 0.074153
v -0.061386 -0.494593 0.073899
vn -0.4387 -0.2304 0.8686
vn 1.0000 -0.0000 -0.0000
vn 1.0000 -0.0000 -0.0004
vn -0.3606 0.2560 0.8969
vn -0.4367 0.1289 0.8903
vn -0.4961 -0.0672 0.8657
vn -0.6312 -0.1982 0.7499
vn -0.6362 -0.2134 0.7414
vn -0.5600 -0.2578 0.7874
vn -0.4098 -0.3276 0.8513
vn -0.2564 -0.4284 0.8664
vn -0.0000 1.0000 -0.0000
vn -1.0000 -0.0000 -0.0000
vn -1.0000 -0.0000 -0.0001
vn -0.6028 -0.3364 0.7235
vn -0.2281 -0.4559 0.8603
vn -0.2245 -0.4499 0.8644
vn -0.4346 -0.5240 0.7325
vn -0.3858 -0.5391 0.7487
vn -0.2749 -0.5170 0.8107
vn -0.2665 -0.5140 0.8153
vn 0.7828 0.2951 -0.5478
vn 0.7145 0.3395 -0.6118
vn 0.4618 0.4994 -0.7330
vn 0.3720 0.5322 -0.7605
vn -0.1771 -0.5248 0.8326
vn -0.9910 -0.0852 0.1036
vn -0.4972 -0.5291 0.6877
vn -0.4092 -0.5451 0.7317
vn -0.3962 -0.5430 0.7404
vn -0.3578 -0.5474 0.7565
vn -0.2786 -0.5415 0.7932
vn -0.1870 -0.5536 0.8115
vn 0.4402 0.5081 -0.7403
vn 0.7908 0.1933 -0.5808
vn 0.6435 -0.0575 -0.7633
vn -0.0000 -0.0000 -1.0000
vn 0.3727 0.5314 -0.7607
vn -0.9948 -0.0656 0.0781
vn -0.9920 -0.0806 0.0971
vn -0.9957 -0.0714 0.0590
vn -0.9977 -0.0680 -0.0000
vn -0.5479 -0.8365 -0.0000
vn -0.3284 -0.9363 0.1248
vn -0.4355 -0.6553 0.6172
vn -0.2343 -0.8321 0.5027
vn -0.1336 -0.7454 0.6530
vn -0.1339 -0.6689 0.7312
vn -0.3598 -0.5693 0.7392
vn 0.4772 -0.5913 -0.6501
vn 0.6317 -0.1323 -0.7638
vn -0.7402 -0.2828 -0.6100
vn -0.9955 -0.0611 0.0722
vn -0.9979 -0.0634 -0.0110
vn -0.9921 -0.1022 -0.0727
vn -0.8757 -0.3462 -0.3366
vn -0.0790 -0.9948 -0.0644
vn -0.1112 -0.9938 0.0015
vn -0.2455 -0.9599 0.1353
vn -0.7489 -0.2865 -0.5976
vn -0.0000 -0.9763 -0.2162
s 0
f 1//1 2//1 3//1
f 1//2 3//2 10//2
f 1//2 10//2 15//2
f 1//3 15//3 14//3
f 1//2 14//2 25//2
f 1//2 25//2 30//2
f 1//2 30//2 41//2
f 1//2 41//2 40//2
f 1//2 40//2 42//2
f 1//2 42//2 31//2
f 1//2 31//2 20//2
f 1//2 20//2 11//2
f 1//2 11//2 4//2
f 1//4 4//4 5//4
f 1//5 5//5 6//5
f 1//6 6//6 2//6
f 2//7 6//7 7//7
f 2//8 7//8 8//8
f 2//9 8//9 9//9
f 2//10 9//10 3//10
f 3//11 9//11 10//11
f 4//12 11//12 19//12
f 4//12 19//12 23//12
f 4//12 23//12 12//12
f 4//12 12//12 5//12
f 5//13 12//13 24//13
f 5//13 24//13 22//13
f 5//13 22//13 33//13
f 5//13 33//13 44//13
f 5//14 44//14 46//14
f 5//13 46//13 45//13
f 5//13 45//13 36//13
f 5//13 36//13 34//13
f 5//13 34//13 26//13
f 5//13 26//13 16//13
f 5//13 16//13 13//13
f 5//13 13//13 8//13
f 5//13 8//13 7//13
f 5//13 7//13 6//13
f 8//15 13//15 9//15
f 9//16 14//16 15//16
f 9//17 15//17 10//17
f 9//18 13//18 16//18
f 9//19 16//19 17//19
f 9//20 17//20 18//20
f 9//21 18//21 14//21
f 11//22 20//22 21//22
f 11//23 21//23 22//23
f 11//24 22//24 19//24
f 12//25 23//25 24//25
f 14//26 18//26 25//26
f 16//27 26//27 27//27
f 16//28 27//28 28//28
f 16//29 28//29 29//29
f 16//30 29//30 17//30
f 17//31 29//31 30//31
f 17//32 30//32 18//32
f 18//33 30//33 25//33
f 19//34 22//34 23//34
f 20//35 31//35 21//35
f 21//36 31//36 32//36
f 21//37 32//37 43//37
f 21//37 43//37 47//37
f 21//37 47//37 38//37
f 21//37 38//37 33//37
f 21//37 33//37 22//37
f 22//38 24//38 23//38
f 26//39 34//39 35//39
f 26//40 35//40 27//40
f 27//41 35//41 36//41
f 27//42 36//42 37//42
f 27//43 37//43 38//43
f 27//44 38//44 39//44
f 27//45 39//45 28//45
f 28//46 39//46 40//46
f 28//47 40//47 41//47
f 28//48 41//48 30//48
f 28//49 30//49 29//49
f 31//50 42//50 43//50
f 31//51 43//51 32//51
f 33//52 38//52 44//52
f 34//53 36//53 35//53
f 36//54 45//54 37//54
f 37//55 45//55 46//55
f 37//56 46//56 38//56
f 38//57 47//57 42//57
f 38//58 42//58 40//58
f 38//59 40//59 39//59
f 38//60 46//60 44//60
f 42//61 47//61 43//61
