# Blender 4.1.0
# www.blender.org
mtllib convex_120.mtl
o convex_120
v 0.077745 -0.363841 -0.200491
v 0.077745 -0.376206 -0.200491
v 0.075494 -0.364365 -0.200491
v 0.075345 -0.360291 -0.187935
v 0.077745 -0.363399 -0.198937
v 0.077745 -0.373746 -0.170076
v 0.072123 -0.378890 -0.170076
v 0.062123 -0.387827 -0.170076
v 0.061519 -0.383848 -0.200491
v 0.047348 -0.380982 -0.200491
v 0.048785 -0.378535 -0.197332
v 0.073140 -0.360980 -0.185306
v 0.075411 -0.360269 -0.185306
v 0.077745 -0.360120 -0.185589
v 0.077745 -0.360291 -0.187935
v 0.077745 -0.366117 -0.170076
v 0.052099 -0.387827 -0.170076
v 0.052644 -0.387827 -0.200470
v 0.060049 -0.384505 -0.200491
v 0.045919 -0.385679 -0.200491
v 0.044027 -0.382194 -0.197519
v 0.046936 -0.380496 -0.198940
v 0.046120 -0.379910 -0.194393
v 0.048395 -0.378185 -0.194393
v 0.052565 -0.373537 -0.185306
v 0.062826 -0.369301 -0.170076
v 0.076114 -0.360367 -0.182852
v 0.052568 -0.373540 -0.180765
v 0.053288 -0.373808 -0.173321
v 0.077745 -0.360166 -0.182310
v 0.077745 -0.365002 -0.172080
v 0.067408 -0.367972 -0.170076
v 0.052862 -0.377290 -0.170076
v 0.051059 -0.387827 -0.171574
v 0.049032 -0.387827 -0.200491
v 0.052842 -0.386875 -0.200491
v 0.058184 -0.385128 -0.200491
v 0.046450 -0.387827 -0.200491
v 0.044027 -0.384521 -0.197519
v 0.044021 -0.382183 -0.194393
v 0.050293 -0.375256 -0.185306
v 0.063430 -0.369073 -0.170076
v 0.062608 -0.369423 -0.170076
v 0.050297 -0.375549 -0.180765
v 0.054602 -0.374879 -0.170293
v 0.062374 -0.369585 -0.170076
v 0.048755 -0.377822 -0.180765
v 0.050594 -0.376729 -0.176501
v 0.052386 -0.376376 -0.171755
v 0.054374 -0.375367 -0.170076
v 0.049042 -0.378495 -0.178204
v 0.049448 -0.387827 -0.174810
v 0.046160 -0.387827 -0.199717
v 0.044744 -0.387827 -0.194393
v 0.044668 -0.387561 -0.194393
v 0.044021 -0.385291 -0.194393
v 0.045879 -0.387827 -0.198966
v 0.044370 -0.382826 -0.191773
v 0.054734 -0.375015 -0.170076
v 0.048124 -0.387827 -0.178291
v 0.048517 -0.387827 -0.177121
v 0.044783 -0.387827 -0.193899
v 0.045823 -0.387827 -0.187819
v 0.044370 -0.384646 -0.191773
v 0.046817 -0.387827 -0.182924
v 0.047418 -0.387827 -0.180783
vn -0.0000 -0.0000 -1.0000
vn -0.2159 0.9280 -0.3037
vn -0.0084 0.9618 -0.2736
vn 1.0000 -0.0000 0.0009
vn 1.0000 -0.0000 -0.0000
vn 0.6738 -0.7365 0.0596
vn 0.6653 -0.7444 0.0573
vn 0.4227 -0.8975 -0.1258
vn -0.4661 0.7894 -0.3996
vn -0.4757 0.8350 -0.2766
vn -0.2987 0.9543 -0.0005
vn -0.0645 0.9979 -0.0067
vn -0.0000 0.9974 -0.0727
vn -0.0000 0.9623 -0.2719
vn -0.5045 0.8392 -0.2033
vn -0.0000 -0.0000 1.0000
vn -0.0000 -0.0001 1.0000
vn -0.0000 -1.0000 -0.0000
vn 0.0002 -1.0000 -0.0000
vn -0.0001 -1.0000 -0.0000
vn 0.4056 -0.9053 -0.1265
vn 0.3700 -0.8306 -0.4161
vn -0.6935 0.2111 -0.6889
vn -0.5978 0.7058 -0.3802
vn -0.4992 0.7800 -0.3773
vn -0.5804 0.7684 -0.2697
vn -0.5961 0.7839 -0.1736
vn -0.5952 0.7849 -0.1724
vn -0.5448 0.8211 -0.1700
vn -0.5117 0.8384 -0.1876
vn -0.3776 0.8960 0.2338
vn -0.2965 0.9471 0.1228
vn -0.5209 0.8536 0.0009
vn -0.5065 0.8585 0.0799
vn -0.4657 0.8703 0.1601
vn -0.1487 0.9855 0.0820
vn -0.0620 0.9980 0.0140
vn -0.1549 0.8633 0.4803
vn -0.8200 0.0593 0.5693
vn 0.0058 -0.0233 -0.9997
vn 0.0077 -0.0237 -0.9997
vn 0.0083 -0.0247 -0.9997
vn -0.8597 -0.2128 -0.4643
vn -0.8436 -0.0000 -0.5370
vn -1.0000 -0.0000 -0.0021
vn -0.7387 0.6741 -0.0039
vn -0.7202 0.6933 -0.0243
vn -0.5991 0.7901 -0.1295
vn -0.5983 0.7906 -0.1299
vn -0.6035 0.7974 0.0010
vn -0.3394 0.8993 0.2759
vn -0.4767 0.8514 0.2189
vn -0.2483 0.8973 0.3649
vn -0.2349 0.8972 0.3740
vn -0.6617 0.7482 0.0488
vn -0.6598 0.7460 0.0906
vn -0.5047 0.7214 0.4742
vn -0.5041 0.7295 0.4623
vn -0.8113 0.5503 0.1973
vn -0.8255 0.5184 0.2231
vn -0.8385 0.4663 0.2820
vn -0.6871 0.5386 0.4877
vn -0.6861 0.5391 0.4884
vn -0.1742 0.8903 0.4208
vn -0.6845 0.5382 0.4918
vn -0.8917 0.2405 0.3834
vn -0.9057 0.1095 0.4094
vn -0.8916 0.0894 0.4439
vn -0.8779 -0.3472 -0.3296
vn -0.9593 -0.2737 -0.0696
vn -0.9594 -0.2735 -0.0694
vn -0.8781 -0.3483 -0.3281
vn -0.8889 -0.4014 -0.2208
vn -0.9912 -0.0000 0.1324
vn -0.9167 0.3421 0.2064
vn -0.9089 0.3668 0.1984
vn -0.8228 0.5581 0.1072
vn -0.7673 0.6399 0.0418
vn -0.5265 0.5384 0.6580
vn -0.4385 0.6169 0.6536
vn -0.8296 0.5100 0.2271
vn -0.8391 0.4650 0.2824
vn -0.9502 0.0907 0.2982
vn -0.9441 0.0899 0.3171
vn -0.9233 0.0951 0.3720
vn -0.9588 -0.2735 0.0768
vn -0.9588 -0.2733 0.0770
vn -0.9531 -0.2549 0.1630
vn -0.9600 -0.2137 0.1808
vn -0.9638 -0.0000 0.2665
vn -0.9628 0.0072 0.2702
vn -0.9620 0.0132 0.2727
vn -0.9609 -0.1964 0.1951
s 0
f 1//1 2//1 9//1
f 1//1 9//1 19//1
f 1//1 19//1 37//1
f 1//1 37//1 36//1
f 1//1 36//1 35//1
f 1//1 35//1 38//1
f 1//1 38//1 20//1
f 1//1 20//1 10//1
f 1//1 10//1 3//1
f 1//2 3//2 4//2
f 1//3 4//3 5//3
f 1//4 5//4 15//4
f 1//5 15//5 14//5
f 1//5 14//5 30//5
f 1//5 30//5 31//5
f 1//5 31//5 16//5
f 1//5 16//5 6//5
f 1//5 6//5 2//5
f 2//6 6//6 7//6
f 2//7 7//7 8//7
f 2//8 8//8 9//8
f 3//9 10//9 11//9
f 3//10 11//10 4//10
f 4//11 12//11 13//11
f 4//12 13//12 14//12
f 4//13 14//13 15//13
f 4//14 15//14 5//14
f 4//15 11//15 12//15
f 6//16 16//16 32//16
f 6//16 32//16 42//16
f 6//16 42//16 26//16
f 6//17 26//17 43//17
f 6//16 43//16 46//16
f 6//16 46//16 59//16
f 6//16 59//16 50//16
f 6//16 50//16 33//16
f 6//16 33//16 17//16
f 6//16 17//16 8//16
f 6//16 8//16 7//16
f 8//18 17//18 34//18
f 8//18 34//18 52//18
f 8//18 52//18 61//18
f 8//18 61//18 60//18
f 8//18 60//18 66//18
f 8//18 66//18 65//18
f 8//18 65//18 63//18
f 8//18 63//18 62//18
f 8//19 62//19 54//19
f 8//18 54//18 57//18
f 8//18 57//18 53//18
f 8//20 53//20 38//20
f 8//18 38//18 35//18
f 8//18 35//18 18//18
f 8//21 18//21 9//21
f 9//22 18//22 19//22
f 10//23 20//23 21//23
f 10//24 21//24 22//24
f 10//25 22//25 11//25
f 11//26 22//26 21//26
f 11//27 21//27 23//27
f 11//28 23//28 24//28
f 11//29 24//29 25//29
f 11//30 25//30 12//30
f 12//31 26//31 27//31
f 12//32 27//32 13//32
f 12//33 25//33 28//33
f 12//34 28//34 29//34
f 12//35 29//35 26//35
f 13//36 27//36 30//36
f 13//37 30//37 14//37
f 16//38 31//38 32//38
f 17//39 33//39 34//39
f 18//40 35//40 36//40
f 18//41 36//41 37//41
f 18//42 37//42 19//42
f 20//43 38//43 39//43
f 20//44 39//44 21//44
f 21//45 39//45 56//45
f 21//45 56//45 40//45
f 21//46 40//46 41//46
f 21//47 41//47 23//47
f 23//48 41//48 24//48
f 24//49 41//49 25//49
f 25//50 41//50 28//50
f 26//51 42//51 27//51
f 26//52 29//52 43//52
f 27//53 42//53 32//53
f 27//54 32//54 30//54
f 28//55 41//55 44//55
f 28//56 44//56 29//56
f 29//57 45//57 46//57
f 29//58 46//58 43//58
f 29//59 44//59 47//59
f 29//60 47//60 48//60
f 29//61 48//61 49//61
f 29//62 49//62 33//62
f 29//63 33//63 45//63
f 30//64 32//64 31//64
f 33//65 50//65 45//65
f 33//66 49//66 51//66
f 33//67 51//67 52//67
f 33//68 52//68 34//68
f 38//69 53//69 39//69
f 39//70 54//70 55//70
f 39//71 55//71 56//71
f 39//72 53//72 57//72
f 39//73 57//73 54//73
f 40//74 56//74 64//74
f 40//74 64//74 58//74
f 40//75 58//75 51//75
f 40//76 51//76 47//76
f 40//77 47//77 44//77
f 40//78 44//78 41//78
f 45//79 50//79 59//79
f 45//80 59//80 46//80
f 47//81 51//81 48//81
f 48//82 51//82 49//82
f 51//83 58//83 60//83
f 51//84 60//84 61//84
f 51//85 61//85 52//85
f 54//86 62//86 55//86
f 55//87 62//87 56//87
f 56//88 62//88 63//88
f 56//89 63//89 64//89
f 58//90 64//90 65//90
f 58//91 65//91 66//91
f 58//92 66//92 60//92
f 63//93 65//93 64//93
