# Blender 4.1.0
# www.blender.org
mtllib convex_73.mtl
o convex_73
v 0.001386 -0.344548 -0.173826
v 0.000651 -0.344548 -0.175255
v -0.000213 -0.339037 -0.175690
v -0.000015 -0.339037 -0.175209
v 0.000664 -0.340001 -0.173826
v -0.003975 -0.396604 -0.173826
v -0.013676 -0.339037 -0.188289
v -0.013194 -0.339037 -0.187860
v -0.001857 -0.339037 -0.177481
v 0.000416 -0.339037 -0.173826
v -0.016754 -0.396604 -0.173826
v -0.006203 -0.396604 -0.175617
v -0.027709 -0.351795 -0.197019
v -0.027709 -0.350234 -0.197019
v -0.030074 -0.344334 -0.198071
v -0.028113 -0.342198 -0.196729
v -0.030602 -0.340412 -0.197819
v -0.031806 -0.339037 -0.198001
v -0.007888 -0.339037 -0.173826
v -0.018044 -0.396604 -0.174215
v -0.017851 -0.396339 -0.173826
v -0.008559 -0.396604 -0.177316
v -0.035889 -0.361876 -0.197532
v -0.045540 -0.340187 -0.203389
v -0.040588 -0.339037 -0.201949
v -0.012528 -0.396604 -0.180165
v -0.018035 -0.396604 -0.183979
v -0.021237 -0.396604 -0.185631
v -0.023644 -0.396604 -0.186564
v -0.039174 -0.396604 -0.192184
v -0.040409 -0.396604 -0.192625
v -0.035540 -0.339037 -0.199963
v -0.033487 -0.339037 -0.186788
v -0.045540 -0.371804 -0.185631
v -0.020111 -0.373208 -0.173826
v -0.045540 -0.396604 -0.185133
v -0.021117 -0.394277 -0.173826
v -0.039509 -0.358179 -0.199033
v -0.045540 -0.339037 -0.203433
v -0.044052 -0.396604 -0.193222
v -0.045540 -0.396604 -0.193213
v -0.045540 -0.339037 -0.197056
v -0.045540 -0.345506 -0.194564
v -0.045540 -0.376628 -0.184930
v -0.041953 -0.378296 -0.182956
v -0.020924 -0.376352 -0.173826
v -0.045540 -0.394525 -0.184767
v -0.022261 -0.390890 -0.173826
v -0.041953 -0.378775 -0.182956
v -0.022491 -0.389983 -0.173826
vn 0.8846 0.1027 -0.4549
vn 0.9161 0.1385 -0.3762
vn 0.9244 0.1466 -0.3522
vn -0.0000 -0.0000 1.0000
vn 0.8856 -0.0912 -0.4555
vn 0.6642 -0.0395 -0.7465
vn 0.6752 0.0094 -0.7375
vn 0.7352 0.0619 -0.6750
vn 0.6541 -0.0788 -0.7523
vn -0.0000 1.0000 -0.0000
vn 0.0009 1.0000 -0.0000
vn 0.9270 0.2385 -0.2894
vn -0.0000 -1.0000 -0.0000
vn 0.0001 -1.0000 -0.0000
vn -0.0001 -1.0000 -0.0000
vn 0.6240 -0.0899 -0.7762
vn 0.5283 -0.0000 -0.8491
vn 0.5006 0.0466 -0.8644
vn 0.4859 0.0994 -0.8684
vn 0.4776 0.1361 -0.8680
vn 0.4527 0.2844 -0.8451
vn 0.5895 -0.0999 -0.8016
vn -0.1851 -0.7670 0.6143
vn 0.5815 -0.1061 -0.8066
vn 0.2447 -0.1498 -0.9580
vn 0.2938 -0.0717 -0.9532
vn 0.3339 -0.0270 -0.9422
vn 0.4063 -0.0000 -0.9137
vn 0.5798 -0.1074 -0.8077
vn 0.5655 -0.1156 -0.8166
vn 0.4528 -0.1576 -0.8776
vn 0.3554 -0.1817 -0.9169
vn 0.3344 -0.1853 -0.9240
vn 0.3304 -0.1844 -0.9257
vn 0.2676 -0.1689 -0.9486
vn 0.3657 0.0454 -0.9296
vn 0.4223 0.1146 -0.8992
vn 0.4688 0.1194 -0.8752
vn 0.4467 0.2785 -0.8502
vn -0.4432 0.1939 0.8752
vn -0.4099 0.1466 0.9003
vn -0.2488 -0.7386 0.6265
vn -0.3213 -0.5088 0.7987
vn 0.2439 -0.1502 -0.9581
vn 0.2289 -0.1653 -0.9593
vn 0.2869 -0.0366 -0.9573
vn 0.2027 -0.1657 -0.9651
vn 0.1594 -0.1710 -0.9723
vn -0.0059 -0.1775 -0.9841
vn -1.0000 -0.0000 -0.0000
vn -0.6223 0.2814 0.7305
vn -0.6167 0.2532 0.7453
vn -0.4310 0.1298 0.8930
vn -0.4101 0.1445 0.9005
vn -0.4042 0.1045 0.9087
vn -0.4023 -0.1587 0.9016
vn -0.4039 -0.1364 0.9046
vn -0.4792 0.0080 0.8777
vn -0.4507 -0.0000 0.8927
vn -0.4247 -0.0000 0.9053
vn -0.4014 0.0461 0.9147
vn -0.4098 -0.1037 0.9063
vn -0.4278 -0.0065 0.9039
s 0
f 1//1 2//1 3//1
f 1//2 3//2 4//2
f 1//3 4//3 5//3
f 1//4 5//4 10//4
f 1//4 10//4 19//4
f 1//4 19//4 35//4
f 1//4 35//4 46//4
f 1//4 46//4 50//4
f 1//4 50//4 48//4
f 1//4 48//4 37//4
f 1//4 37//4 21//4
f 1//4 21//4 11//4
f 1//4 11//4 6//4
f 1//5 6//5 2//5
f 2//6 7//6 8//6
f 2//7 8//7 9//7
f 2//8 9//8 3//8
f 2//9 6//9 7//9
f 3//10 9//10 8//10
f 3//10 8//10 7//10
f 3//10 7//10 18//10
f 3//10 18//10 32//10
f 3//10 32//10 25//10
f 3//10 25//10 39//10
f 3//10 39//10 42//10
f 3//10 42//10 33//10
f 3//10 33//10 19//10
f 3//10 19//10 10//10
f 3//11 10//11 4//11
f 4//12 10//12 5//12
f 6//13 11//13 20//13
f 6//13 20//13 36//13
f 6//13 36//13 41//13
f 6//13 41//13 40//13
f 6//13 40//13 31//13
f 6//13 31//13 30//13
f 6//13 30//13 29//13
f 6//13 29//13 28//13
f 6//14 28//14 27//14
f 6//15 27//15 26//15
f 6//13 26//13 22//13
f 6//13 22//13 12//13
f 6//16 12//16 7//16
f 7//17 13//17 14//17
f 7//18 14//18 15//18
f 7//19 15//19 16//19
f 7//20 16//20 17//20
f 7//21 17//21 18//21
f 7//22 12//22 13//22
f 11//23 21//23 20//23
f 12//24 22//24 13//24
f 13//25 23//25 24//25
f 13//26 24//26 25//26
f 13//27 25//27 15//27
f 13//28 15//28 14//28
f 13//29 22//29 26//29
f 13//30 26//30 27//30
f 13//31 27//31 28//31
f 13//32 28//32 29//32
f 13//33 29//33 30//33
f 13//34 30//34 31//34
f 13//35 31//35 23//35
f 15//36 25//36 32//36
f 15//37 32//37 17//37
f 15//38 17//38 16//38
f 17//39 32//39 18//39
f 19//40 33//40 34//40
f 19//41 34//41 35//41
f 20//42 21//42 36//42
f 21//43 37//43 36//43
f 23//44 38//44 24//44
f 23//45 31//45 38//45
f 24//46 39//46 25//46
f 24//47 38//47 31//47
f 24//48 31//48 40//48
f 24//49 40//49 41//49
f 24//50 41//50 36//50
f 24//50 36//50 47//50
f 24//50 47//50 44//50
f 24//50 44//50 34//50
f 24//50 34//50 43//50
f 24//50 43//50 42//50
f 24//50 42//50 39//50
f 33//51 42//51 43//51
f 33//52 43//52 34//52
f 34//53 44//53 45//53
f 34//54 45//54 35//54
f 35//55 45//55 46//55
f 36//56 37//56 47//56
f 37//57 48//57 47//57
f 44//58 47//58 45//58
f 45//59 47//59 49//59
f 45//60 49//60 50//60
f 45//61 50//61 46//61
f 47//62 48//62 50//62
f 47//63 50//63 49//63
