# Blender 4.1.0
# www.blender.org
mtllib convex_112.mtl
o convex_112
v 0.028553 -0.390887 0.088187
v 0.030940 -0.401299 0.089632
v 0.029232 -0.393600 0.088187
v 0.024416 -0.390887 0.088187
v 0.027919 -0.390887 0.090668
v 0.026451 -0.405409 0.112422
v 0.030940 -0.401381 0.089632
v 0.030991 -0.400939 0.088187
v 0.020870 -0.392454 0.088187
v 0.020430 -0.390887 0.088208
v 0.022287 -0.390887 0.105517
v 0.022312 -0.400222 0.117776
v 0.021877 -0.410148 0.121492
v 0.026451 -0.405987 0.112422
v 0.026886 -0.415883 0.088187
v 0.030991 -0.401520 0.088187
v 0.019673 -0.421791 0.088187
v 0.020376 -0.390887 0.088306
v 0.013990 -0.390887 0.127229
v 0.021283 -0.403618 0.120469
v 0.021877 -0.410529 0.121492
v 0.014411 -0.394531 0.127485
v 0.014674 -0.399076 0.127545
v 0.017058 -0.408163 0.125831
v 0.019434 -0.421791 0.114600
v 0.018859 -0.425612 0.110777
v 0.023716 -0.425612 0.088187
v 0.007824 -0.390887 0.111757
v 0.020220 -0.425612 0.088187
v 0.003566 -0.425612 0.120452
v 0.003566 -0.421791 0.119557
v 0.003566 -0.390887 0.120026
v 0.013209 -0.390887 0.127579
v 0.010476 -0.394531 0.129258
v 0.017302 -0.424089 0.116889
v 0.017705 -0.425612 0.114609
v 0.017896 -0.425612 0.114212
v 0.019525 -0.412307 0.122886
v 0.017990 -0.415856 0.122294
v 0.010476 -0.399076 0.129625
v 0.003566 -0.403618 0.131615
v 0.014784 -0.408163 0.126658
v 0.003566 -0.421791 0.127984
v 0.015418 -0.412596 0.125303
v 0.003566 -0.425612 0.126095
v 0.003566 -0.390887 0.130797
v 0.010476 -0.390887 0.128653
v 0.003566 -0.392444 0.131142
v 0.003566 -0.398702 0.131675
v 0.012881 -0.424259 0.121565
v 0.010680 -0.425612 0.121953
v 0.003566 -0.425068 0.127016
v 0.003566 -0.399416 0.131726
v 0.003566 -0.391737 0.131006
vn 0.9596 0.2402 0.1462
vn -0.0000 -0.0000 -1.0000
vn -0.0000 1.0000 -0.0000
vn 0.0002 1.0000 -0.0000
vn 0.9348 0.2631 0.2387
vn 0.9412 0.2476 0.2300
vn 0.9994 -0.0000 0.0353
vn 0.9684 0.2320 0.0920
vn 0.9812 -0.0000 0.1932
vn 0.9811 -0.0000 0.1933
vn -0.0053 0.0121 -0.9999
vn 0.8468 0.4240 0.3212
vn 0.8730 0.3764 0.3102
vn 0.8480 0.1528 0.5075
vn 0.8929 -0.0000 0.4503
vn 0.9598 -0.2743 0.0603
vn 0.9513 -0.2790 0.1310
vn -0.0422 0.0017 -0.9991
vn -0.8771 0.0218 -0.4798
vn 0.8450 0.4263 0.3229
vn 0.8202 0.1818 0.5425
vn 0.8398 0.1577 0.5195
vn 0.8080 0.1621 0.5664
vn 0.7746 0.1330 0.6183
vn 0.6859 0.0493 0.7260
vn 0.6775 0.0392 0.7345
vn 0.6692 -0.0000 0.7431
vn 0.8932 -0.3593 0.2705
vn 0.9004 -0.3678 0.2323
vn 0.9090 -0.3680 0.1954
vn 0.9411 -0.3067 0.1421
vn -0.8814 0.0219 -0.4718
vn -0.8815 -0.1264 -0.4550
vn -0.8845 -0.1064 -0.4542
vn -0.8896 0.0069 -0.4567
vn -0.8890 0.0082 -0.4578
vn 0.4063 0.1131 0.9067
vn 0.4082 0.1109 0.9061
vn 0.8073 -0.4148 0.4197
vn 0.8230 -0.4080 0.3952
vn 0.8686 -0.3817 0.3159
vn 0.6034 -0.1910 0.7742
vn 0.6708 -0.3949 0.6278
vn 0.7050 -0.4294 0.5645
vn 0.4096 0.0734 0.9093
vn 0.4436 0.0375 0.8954
vn 0.4433 -0.0525 0.8948
vn 0.3530 -0.1311 0.9264
vn 0.3363 -0.1783 0.9247
vn 0.3358 -0.1866 0.9233
vn 0.3949 -0.2514 0.8837
vn 0.5012 -0.2828 0.8178
vn 0.8893 -0.3833 0.2495
vn -0.0001 -1.0000 -0.0000
vn -0.0000 -1.0000 -0.0000
vn -1.0000 -0.0000 -0.0000
vn 0.3615 0.1527 0.9198
vn 0.3034 0.1561 0.9400
vn 0.2850 0.0813 0.9551
vn 0.2874 0.0771 0.9547
vn 0.6565 -0.4515 0.6043
vn 0.5762 -0.6290 0.5219
vn 0.5168 -0.6990 0.4943
vn 0.4937 -0.3466 0.7976
vn 0.4870 -0.3531 0.7988
vn 0.4932 -0.3682 0.7882
vn 0.2871 0.0682 0.9555
vn 0.2920 -0.0253 0.9561
vn 0.3336 -0.1847 0.9244
vn 0.4002 -0.2596 0.8789
vn 0.2839 -0.8256 0.4877
vn 0.2885 0.2286 0.9298
vn 0.2971 0.1804 0.9377
vn 0.4584 -0.5443 0.7026
s 0
f 1//1 2//1 3//1
f 1//2 3//2 8//2
f 1//2 8//2 16//2
f 1//2 16//2 15//2
f 1//2 15//2 27//2
f 1//2 27//2 29//2
f 1//2 29//2 17//2
f 1//2 17//2 9//2
f 1//2 9//2 4//2
f 1//3 4//3 10//3
f 1//3 10//3 18//3
f 1//3 18//3 28//3
f 1//3 28//3 32//3
f 1//3 32//3 46//3
f 1//3 46//3 47//3
f 1//3 47//3 33//3
f 1//3 33//3 19//3
f 1//4 19//4 11//4
f 1//3 11//3 5//3
f 1//5 5//5 6//5
f 1//6 6//6 2//6
f 2//7 7//7 16//7
f 2//7 16//7 8//7
f 2//8 8//8 3//8
f 2//9 6//9 14//9
f 2//10 14//10 7//10
f 4//11 9//11 10//11
f 5//12 11//12 12//12
f 5//13 12//13 6//13
f 6//14 12//14 13//14
f 6//15 13//15 21//15
f 6//15 21//15 14//15
f 7//16 15//16 16//16
f 7//17 14//17 15//17
f 9//18 17//18 10//18
f 10//19 17//19 18//19
f 11//20 19//20 12//20
f 12//21 19//21 20//21
f 12//22 20//22 13//22
f 13//23 20//23 19//23
f 13//24 19//24 22//24
f 13//25 22//25 23//25
f 13//26 23//26 24//26
f 13//27 24//27 21//27
f 14//28 21//28 25//28
f 14//29 25//29 26//29
f 14//30 26//30 27//30
f 14//31 27//31 15//31
f 17//32 28//32 18//32
f 17//33 29//33 30//33
f 17//34 30//34 31//34
f 17//35 31//35 32//35
f 17//36 32//36 28//36
f 19//37 33//37 34//37
f 19//38 34//38 22//38
f 21//39 35//39 36//39
f 21//40 36//40 37//40
f 21//41 37//41 25//41
f 21//42 24//42 38//42
f 21//43 38//43 39//43
f 21//44 39//44 35//44
f 22//45 34//45 40//45
f 22//46 40//46 23//46
f 23//47 40//47 24//47
f 24//48 40//48 41//48
f 24//49 41//49 42//49
f 24//50 42//50 43//50
f 24//51 43//51 44//51
f 24//52 44//52 38//52
f 25//53 37//53 26//53
f 26//54 37//54 36//54
f 26//55 36//55 51//55
f 26//55 51//55 45//55
f 26//55 45//55 30//55
f 26//55 30//55 29//55
f 26//55 29//55 27//55
f 30//56 45//56 52//56
f 30//56 52//56 43//56
f 30//56 43//56 41//56
f 30//56 41//56 53//56
f 30//56 53//56 49//56
f 30//56 49//56 48//56
f 30//56 48//56 54//56
f 30//56 54//56 46//56
f 30//56 46//56 32//56
f 30//56 32//56 31//56
f 33//57 47//57 34//57
f 34//58 47//58 48//58
f 34//59 48//59 49//59
f 34//60 49//60 40//60
f 35//61 39//61 50//61
f 35//62 50//62 36//62
f 36//63 50//63 51//63
f 38//64 44//64 39//64
f 39//65 44//65 52//65
f 39//66 52//66 50//66
f 40//67 49//67 53//67
f 40//68 53//68 41//68
f 41//69 43//69 42//69
f 43//70 52//70 44//70
f 45//71 51//71 52//71
f 46//72 54//72 47//72
f 47//73 54//73 48//73
f 50//74 52//74 51//74
