# Blender 4.1.0
# www.blender.org
mtllib convex_139.mtl
o convex_139
v -0.053286 -0.413083 0.023918
v -0.046985 -0.413083 0.022588
v -0.053286 -0.413083 0.016062
v -0.053286 -0.485404 0.013055
v -0.046985 -0.413083 0.015683
v -0.049792 -0.489954 0.009202
v -0.046985 -0.430887 0.018929
v -0.052822 -0.413083 0.015987
v -0.053286 -0.417112 0.014758
v -0.053286 -0.489591 0.010096
v -0.051855 -0.493100 0.008755
v -0.050235 -0.493100 0.008755
v -0.048600 -0.417254 0.014564
v -0.048600 -0.413083 0.015607
v -0.046985 -0.446547 0.007583
v -0.048760 -0.490064 0.007583
v -0.047782 -0.485404 0.007583
v -0.046985 -0.433860 0.018218
v -0.053144 -0.417254 0.014689
v -0.053286 -0.417254 0.014724
v -0.053286 -0.489623 0.010071
v -0.052156 -0.493636 0.007583
v -0.049932 -0.493636 0.007583
v -0.048329 -0.446586 0.007583
v -0.046985 -0.460290 0.007583
v -0.046985 -0.457499 0.009462
v -0.046985 -0.456600 0.010037
v -0.046985 -0.437960 0.017081
v -0.046985 -0.437613 0.017206
v -0.050694 -0.447020 0.007583
v -0.051112 -0.446618 0.007759
v -0.053286 -0.448447 0.008187
v -0.053286 -0.489946 0.007583
v -0.051517 -0.448195 0.007583
v -0.052000 -0.449062 0.007583
v -0.053286 -0.449062 0.008061
v -0.053286 -0.451956 0.007583
vn -0.0000 1.0000 -0.0000
vn -1.0000 -0.0000 -0.0000
vn -1.0000 -0.0000 -0.0004
vn 0.2044 -0.1454 0.9680
vn 0.6337 -0.1551 0.7579
vn 0.6438 -0.1540 0.7496
vn 1.0000 -0.0000 -0.0000
vn -0.1521 0.3045 -0.9403
vn -0.5446 -0.4840 0.6850
vn -0.0000 -0.4877 0.8730
vn 0.6009 -0.1949 0.7752
vn 0.0461 0.2422 -0.9691
vn 0.0659 0.2348 -0.9698
vn 0.8216 -0.1920 0.5368
vn 0.8251 -0.1731 0.5378
vn 0.7898 -0.1360 0.5981
vn 0.9010 -0.1010 0.4218
vn -0.0856 0.3022 -0.9494
vn -0.1501 0.3044 -0.9406
vn -0.2333 0.2239 -0.9463
vn -0.6248 -0.4879 0.6096
vn -0.0000 -0.9094 0.4159
vn -0.7743 -0.4764 0.4167
vn 0.8858 -0.2908 0.3618
vn -0.0067 0.2315 -0.9728
vn -0.0267 0.2312 -0.9725
vn -0.0266 0.2424 -0.9698
vn -0.0000 -0.0000 -1.0000
vn 0.9984 -0.0317 0.0471
vn 0.9983 -0.0319 0.0498
vn 0.9949 -0.0355 0.0941
vn 0.9938 -0.0377 0.1050
vn 0.9695 -0.0638 0.2365
vn -0.0420 0.2287 -0.9726
vn -0.1989 0.2121 -0.9568
vn -0.2341 0.2079 -0.9497
vn -0.3432 0.1926 -0.9193
vn -0.9555 -0.2926 0.0380
vn -0.2405 0.1684 -0.9559
vn -0.3416 0.1904 -0.9204
vn -0.3416 0.1903 -0.9204
vn -0.3422 0.1891 -0.9204
vn -0.3444 0.1530 -0.9263
s 0
f 1//1 2//1 5//1
f 1//1 5//1 14//1
f 1//1 14//1 8//1
f 1//1 8//1 3//1
f 1//2 3//2 9//2
f 1//2 9//2 20//2
f 1//2 20//2 32//2
f 1//2 32//2 36//2
f 1//2 36//2 37//2
f 1//2 37//2 33//2
f 1//2 33//2 21//2
f 1//3 21//3 10//3
f 1//2 10//2 4//2
f 1//4 4//4 2//4
f 2//5 4//5 6//5
f 2//6 6//6 7//6
f 2//7 7//7 18//7
f 2//7 18//7 29//7
f 2//7 29//7 28//7
f 2//7 28//7 27//7
f 2//7 27//7 26//7
f 2//7 26//7 25//7
f 2//7 25//7 15//7
f 2//7 15//7 5//7
f 3//8 8//8 9//8
f 4//9 10//9 11//9
f 4//10 11//10 12//10
f 4//11 12//11 6//11
f 5//12 13//12 14//12
f 5//13 15//13 13//13
f 6//14 12//14 16//14
f 6//15 16//15 17//15
f 6//16 17//16 7//16
f 7//17 17//17 18//17
f 8//18 14//18 19//18
f 8//19 19//19 9//19
f 9//20 19//20 20//20
f 10//21 21//21 11//21
f 11//22 22//22 23//22
f 11//22 23//22 12//22
f 11//23 21//23 22//23
f 12//24 23//24 16//24
f 13//25 15//25 24//25
f 13//26 24//26 19//26
f 13//27 19//27 14//27
f 15//28 25//28 17//28
f 15//28 17//28 16//28
f 15//28 16//28 23//28
f 15//28 23//28 22//28
f 15//28 22//28 33//28
f 15//28 33//28 37//28
f 15//28 37//28 35//28
f 15//28 35//28 34//28
f 15//28 34//28 30//28
f 15//28 30//28 24//28
f 17//29 25//29 26//29
f 17//30 26//30 27//30
f 17//31 27//31 28//31
f 17//32 28//32 29//32
f 17//33 29//33 18//33
f 19//34 24//34 30//34
f 19//35 30//35 31//35
f 19//36 31//36 20//36
f 20//37 31//37 32//37
f 21//38 33//38 22//38
f 30//39 34//39 31//39
f 31//40 34//40 32//40
f 32//41 34//41 35//41
f 32//42 35//42 36//42
f 35//43 37//43 36//43
