# Blender 4.1.0
# www.blender.org
mtllib convex_12.mtl
o convex_12
v 0.101176 -0.434424 -0.014267
v 0.101176 -0.434424 -0.000981
v 0.101176 -0.471933 0.028178
v 0.069544 -0.465711 0.029505
v 0.049058 -0.437717 0.003258
v 0.047425 -0.434424 0.000392
v 0.101176 -0.441209 0.009108
v 0.096859 -0.434424 0.000908
v 0.095129 -0.437384 0.008345
v 0.101176 -0.471981 0.028272
v 0.038146 -0.460946 0.033269
v 0.066490 -0.465374 0.030003
v 0.031063 -0.446818 0.019248
v 0.031063 -0.442141 0.014106
v 0.031063 -0.441187 0.013147
v 0.039072 -0.434424 0.003593
v 0.101176 -0.441313 0.009224
v 0.083167 -0.434424 0.006846
v 0.092261 -0.445741 0.018089
v 0.101176 -0.443274 0.011370
v 0.082165 -0.434424 0.007260
v 0.078631 -0.436825 0.013538
v 0.101176 -0.472000 0.028416
v 0.085391 -0.470664 0.033269
v 0.070107 -0.467638 0.033269
v 0.064994 -0.466580 0.033269
v 0.034776 -0.459610 0.033269
v 0.031063 -0.447739 0.020314
v 0.031063 -0.434424 0.007940
v 0.092261 -0.448205 0.020360
v 0.101176 -0.443359 0.011449
v 0.063546 -0.450987 0.030924
v 0.074087 -0.436430 0.014017
v 0.037878 -0.434424 0.017726
v 0.065008 -0.441846 0.021850
v 0.101176 -0.472214 0.032832
v 0.087655 -0.470709 0.033269
v 0.101176 -0.472214 0.033009
v 0.031063 -0.457927 0.033269
v 0.031063 -0.457823 0.033125
v 0.031063 -0.434424 0.016917
v 0.092261 -0.450476 0.022050
v 0.101176 -0.467978 0.032036
v 0.101176 -0.445700 0.013552
v 0.101176 -0.445549 0.013417
v 0.046841 -0.449825 0.033269
v 0.053176 -0.451298 0.033269
v 0.056923 -0.452308 0.033269
v 0.060581 -0.453628 0.033269
v 0.089433 -0.465019 0.033269
v 0.087717 -0.452755 0.025065
v 0.036801 -0.437388 0.021929
v 0.033232 -0.434424 0.017643
v 0.034858 -0.437388 0.021929
v 0.092412 -0.470720 0.033269
v 0.093812 -0.467172 0.033269
v 0.031063 -0.448812 0.033269
v 0.031063 -0.446355 0.031087
v 0.042284 -0.449407 0.033269
v 0.033198 -0.446407 0.031050
v 0.031063 -0.447454 0.032153
vn 1.0000 -0.0000 -0.0000
vn 1.0000 -0.0000 -0.0001
vn 1.0000 -0.0000 0.0001
vn -0.1725 -0.7381 -0.6523
vn -0.1727 -0.7380 -0.6523
vn -0.1888 -0.6964 -0.6924
vn -0.0000 1.0000 -0.0000
vn 0.1746 0.9002 0.3989
vn 0.4138 0.7554 0.5080
vn -0.1886 -0.8729 -0.4499
vn -0.1884 -0.8697 -0.4562
vn -0.1814 -0.8007 -0.5710
vn -0.1869 -0.7412 -0.6447
vn -0.1900 -0.7417 -0.6432
vn -0.1986 -0.7388 -0.6440
vn -0.2183 -0.7219 -0.6566
vn -0.2333 -0.7017 -0.6732
vn -0.2488 -0.6865 -0.6832
vn -0.2667 -0.6670 -0.6957
vn 0.3612 0.6952 0.6215
vn 0.1729 0.9006 0.3987
vn 0.3188 0.6711 0.6694
vn 0.3564 0.6896 0.6304
vn 0.1700 0.8955 0.4114
vn 0.1662 0.8862 0.4325
vn 0.2352 0.7025 0.6717
vn -0.1233 -0.9839 -0.1296
vn -0.1830 -0.9245 -0.3345
vn -0.1876 -0.9065 -0.3783
vn -0.1887 -0.8994 -0.3944
vn -0.2954 -0.7451 -0.5980
vn -0.2099 -0.7397 -0.6393
vn -0.0000 -0.0001 1.0000
vn -0.0000 -0.0000 1.0000
vn -1.0000 -0.0000 -0.0000
vn -1.0000 -0.0000 -0.0002
vn -1.0000 -0.0000 -0.0001
vn -0.3950 -0.5605 -0.7279
vn 0.3443 0.6363 0.6904
vn 0.3412 0.6404 0.6881
vn 0.1981 0.6687 0.7166
vn 0.2007 0.6639 0.7204
vn 0.1221 0.9022 0.4138
vn 0.0900 0.9203 0.3808
vn 0.1340 0.7356 0.6640
vn 0.1848 0.6774 0.7121
vn -0.0989 -0.9939 -0.0482
vn -0.0977 -0.9952 -0.0000
vn -0.0041 -0.2062 0.9785
vn -0.3452 -0.7615 -0.5487
vn -0.3338 -0.7407 -0.5830
vn 0.2633 0.5758 0.7741
vn 0.3780 0.5912 0.7125
vn 0.3570 0.6224 0.6966
vn 0.3552 0.6249 0.6952
vn 0.2309 0.5807 0.7807
vn 0.1478 0.6848 0.7136
vn 0.1501 0.6453 0.7490
vn 0.1603 0.5948 0.7877
vn 0.1893 0.5246 0.8300
vn 0.2026 0.5132 0.8340
vn 0.2223 0.5451 0.8083
vn 0.2329 0.5676 0.7897
vn 0.2322 0.5751 0.7845
vn 0.1049 0.7998 0.5910
vn 0.1198 0.7462 0.6549
vn -0.0103 0.8206 0.5714
vn -0.0000 0.8172 0.5764
vn 0.1155 0.7186 0.6858
vn -0.0004 -0.1741 0.9847
vn 0.1845 0.2199 0.9579
vn 0.0278 -0.0110 0.9996
vn -0.2454 0.7416 0.6244
vn -0.2035 0.7674 0.6080
vn 0.2367 0.5697 0.7871
vn 0.1936 0.3937 0.8986
vn 0.0642 0.7002 0.7110
vn -0.0000 0.7145 0.6996
vn 0.0295 0.7049 0.7087
vn 0.0565 0.6987 0.7132
vn 0.0337 0.6349 0.7719
vn 0.0295 0.6958 0.7176
vn 0.0453 0.6792 0.7325
s 0
f 1//1 2//1 7//1
f 1//1 7//1 17//1
f 1//1 17//1 20//1
f 1//1 20//1 31//1
f 1//1 31//1 45//1
f 1//1 45//1 44//1
f 1//1 44//1 43//1
f 1//1 43//1 38//1
f 1//1 38//1 36//1
f 1//1 36//1 23//1
f 1//2 23//2 10//2
f 1//3 10//3 3//3
f 1//4 3//4 4//4
f 1//5 4//5 5//5
f 1//6 5//6 6//6
f 1//7 6//7 16//7
f 1//7 16//7 29//7
f 1//7 29//7 41//7
f 1//7 41//7 53//7
f 1//7 53//7 34//7
f 1//7 34//7 21//7
f 1//7 21//7 18//7
f 1//7 18//7 8//7
f 1//7 8//7 2//7
f 2//8 8//8 9//8
f 2//9 9//9 7//9
f 3//10 10//10 11//10
f 3//11 11//11 12//11
f 3//12 12//12 4//12
f 4//13 12//13 5//13
f 5//14 12//14 11//14
f 5//15 11//15 13//15
f 5//16 13//16 14//16
f 5//17 14//17 6//17
f 6//18 14//18 15//18
f 6//19 15//19 16//19
f 7//20 9//20 17//20
f 8//21 18//21 9//21
f 9//22 19//22 20//22
f 9//23 20//23 17//23
f 9//24 18//24 21//24
f 9//25 21//25 22//25
f 9//26 22//26 19//26
f 10//27 23//27 24//27
f 10//28 24//28 25//28
f 10//29 25//29 26//29
f 10//30 26//30 11//30
f 11//31 27//31 28//31
f 11//32 28//32 13//32
f 11//33 26//33 25//33
f 11//34 25//34 24//34
f 11//34 24//34 37//34
f 11//34 37//34 55//34
f 11//34 55//34 56//34
f 11//34 56//34 50//34
f 11//34 50//34 49//34
f 11//34 49//34 48//34
f 11//34 48//34 47//34
f 11//34 47//34 46//34
f 11//34 46//34 59//34
f 11//34 59//34 57//34
f 11//34 57//34 39//34
f 11//34 39//34 27//34
f 13//35 28//35 40//35
f 13//36 40//36 39//36
f 13//35 39//35 57//35
f 13//35 57//35 61//35
f 13//35 61//35 58//35
f 13//35 58//35 41//35
f 13//35 41//35 29//35
f 13//35 29//35 15//35
f 13//37 15//37 14//37
f 15//38 29//38 16//38
f 19//39 30//39 31//39
f 19//40 31//40 20//40
f 19//41 22//41 32//41
f 19//42 32//42 30//42
f 21//43 33//43 22//43
f 21//44 34//44 33//44
f 22//45 33//45 35//45
f 22//46 35//46 32//46
f 23//47 36//47 24//47
f 24//48 36//48 38//48
f 24//49 38//49 37//49
f 27//50 39//50 40//50
f 27//51 40//51 28//51
f 30//52 42//52 43//52
f 30//53 43//53 44//53
f 30//54 44//54 45//54
f 30//55 45//55 31//55
f 30//56 32//56 42//56
f 32//57 35//57 46//57
f 32//58 46//58 47//58
f 32//59 47//59 48//59
f 32//60 48//60 49//60
f 32//61 49//61 50//61
f 32//62 50//62 43//62
f 32//63 43//63 51//63
f 32//64 51//64 42//64
f 33//65 34//65 52//65
f 33//66 52//66 35//66
f 34//67 53//67 54//67
f 34//68 54//68 52//68
f 35//69 52//69 46//69
f 37//70 38//70 55//70
f 38//71 43//71 56//71
f 38//72 56//72 55//72
f 41//73 58//73 54//73
f 41//74 54//74 53//74
f 42//75 51//75 43//75
f 43//76 50//76 56//76
f 46//77 52//77 59//77
f 52//78 54//78 58//78
f 52//79 58//79 60//79
f 52//80 60//80 59//80
f 57//81 59//81 61//81
f 58//82 61//82 60//82
f 59//83 60//83 61//83
