# Blender 4.1.0
# www.blender.org
mtllib convex_41.mtl
o convex_41
v 0.178637 -0.432756 -0.012166
v 0.187691 -0.428732 -0.012166
v 0.178637 -0.424080 -0.012166
v 0.178637 -0.426882 -0.022359
v 0.192458 -0.424444 -0.015751
v 0.191810 -0.426811 -0.012166
v 0.192236 -0.408765 -0.012166
v 0.187691 -0.408160 -0.012303
v 0.184720 -0.400230 -0.014191
v 0.178637 -0.399078 -0.021373
v 0.178637 -0.424127 -0.024189
v 0.192458 -0.420561 -0.019923
v 0.192236 -0.422876 -0.018073
v 0.192458 -0.422993 -0.017815
v 0.192458 -0.426453 -0.012166
v 0.192458 -0.409141 -0.012166
v 0.192458 -0.408160 -0.012273
v 0.192236 -0.408160 -0.012233
v 0.187691 -0.403613 -0.013309
v 0.187691 -0.400459 -0.014348
v 0.192458 -0.385197 -0.022703
v 0.190894 -0.383828 -0.024590
v 0.179945 -0.387271 -0.028235
v 0.178637 -0.389527 -0.027316
v 0.178637 -0.395583 -0.023057
v 0.178637 -0.383270 -0.046294
v 0.178757 -0.383317 -0.046294
v 0.179903 -0.383529 -0.046294
v 0.181194 -0.383541 -0.046294
v 0.181995 -0.383541 -0.046294
v 0.184502 -0.382959 -0.046294
v 0.184585 -0.382935 -0.046294
v 0.187886 -0.381379 -0.046294
v 0.190748 -0.379822 -0.046294
v 0.192458 -0.378870 -0.046294
v 0.192458 -0.422793 -0.017993
v 0.192458 -0.407949 -0.012327
v 0.192458 -0.403578 -0.014228
v 0.192458 -0.399478 -0.016098
v 0.192458 -0.398820 -0.016402
v 0.192458 -0.381161 -0.026408
v 0.178637 -0.378377 -0.037321
v 0.178637 -0.385696 -0.030707
v 0.178637 -0.373912 -0.046294
v 0.192458 -0.372743 -0.046294
v 0.192458 -0.381032 -0.026564
v 0.191078 -0.379293 -0.029962
v 0.192458 -0.378124 -0.031195
v 0.178637 -0.373865 -0.046278
v 0.178644 -0.373865 -0.046294
v 0.192458 -0.373096 -0.044554
v 0.192458 -0.375986 -0.035608
v 0.192458 -0.374359 -0.039894
v 0.192458 -0.373296 -0.043628
v 0.192458 -0.375927 -0.035741
v 0.192458 -0.375675 -0.036329
vn -0.0000 -0.0000 1.0000
vn -1.0000 -0.0000 -0.0000
vn -1.0000 -0.0000 -0.0005
vn 0.3593 -0.8085 -0.4660
vn 0.3669 -0.8020 -0.4715
vn 0.3747 -0.8034 -0.4628
vn -0.0269 0.0239 0.9994
vn -0.2339 0.1413 0.9619
vn -0.7217 0.2392 0.6496
vn 0.3713 -0.5139 -0.7734
vn 0.3958 -0.5963 -0.6984
vn 0.3957 -0.6578 -0.6409
vn 0.3866 -0.7545 -0.5303
vn 1.0000 -0.0000 0.0003
vn 1.0000 -0.0000 -0.0000
vn 1.0000 -0.0000 0.0001
vn 1.0000 -0.0000 -0.0001
vn 0.4342 -0.7858 -0.4404
vn 0.1805 0.1065 0.9778
vn 0.1767 0.1080 0.9783
vn -0.0153 0.1097 0.9938
vn -0.0151 0.2159 0.9763
vn -0.0439 0.2157 0.9755
vn 0.0741 0.3120 0.9472
vn 0.0821 0.4587 0.8848
vn -0.3547 0.5922 0.7235
vn -0.4160 0.5935 0.6890
vn -0.4829 0.5556 0.6768
vn -0.6014 0.4596 0.6535
vn -0.7005 0.3097 0.6429
vn -0.1833 -0.4678 -0.8646
vn -0.0877 -0.4742 -0.8760
vn -0.0044 -0.4781 -0.8783
vn -0.0000 -0.4783 -0.8782
vn 0.1120 -0.4824 -0.8687
vn 0.1395 -0.4839 -0.8640
vn 0.2290 -0.4858 -0.8436
vn 0.2652 -0.4875 -0.8318
vn 0.2717 -0.4881 -0.8294
vn 0.3704 -0.4965 -0.7850
vn 0.4595 -0.5811 -0.6717
vn 0.4601 -0.5886 -0.6647
vn 0.1723 0.2421 0.9548
vn 0.0971 0.3164 0.9436
vn 0.0879 0.3117 0.9461
vn 0.2313 0.3880 0.8922
vn 0.2413 0.4028 0.8829
vn 0.2399 0.4072 0.8813
vn 0.2397 0.4075 0.8812
vn -0.2848 0.6482 0.7062
vn -0.3776 0.6623 0.6471
vn -0.4163 0.6191 0.6659
vn -0.5112 0.5762 0.6376
vn -0.5252 0.5640 0.6372
vn -0.0000 -0.0000 -1.0000
vn -0.0000 -0.0002 -1.0000
vn -0.0000 -0.0001 -1.0000
vn -0.3269 0.7302 0.6000
vn -0.2468 0.8183 0.5191
vn -0.2418 0.8246 0.5114
vn -0.2109 0.8730 0.4398
vn -0.9134 0.1362 -0.3836
vn -0.0809 0.9961 -0.0339
vn -0.0791 0.9770 0.1981
vn -0.2354 0.8230 0.5169
vn -0.1947 0.8827 0.4277
vn -0.0917 0.9577 0.2726
vn -0.0805 0.9743 0.2106
vn -0.1690 0.9016 0.3982
vn -0.1611 0.9071 0.3888
vn -0.1254 0.9307 0.3436
s 0
f 1//1 2//1 6//1
f 1//1 6//1 15//1
f 1//1 15//1 16//1
f 1//1 16//1 7//1
f 1//1 7//1 3//1
f 1//2 3//2 10//2
f 1//2 10//2 25//2
f 1//2 25//2 24//2
f 1//2 24//2 43//2
f 1//2 43//2 42//2
f 1//2 42//2 49//2
f 1//3 49//3 44//3
f 1//2 44//2 26//2
f 1//2 26//2 11//2
f 1//2 11//2 4//2
f 1//4 4//4 2//4
f 2//5 4//5 5//5
f 2//6 5//6 6//6
f 3//7 7//7 8//7
f 3//8 8//8 9//8
f 3//9 9//9 10//9
f 4//10 11//10 12//10
f 4//11 12//11 13//11
f 4//12 13//12 14//12
f 4//13 14//13 5//13
f 5//14 14//14 36//14
f 5//15 36//15 12//15
f 5//15 12//15 35//15
f 5//15 35//15 45//15
f 5//15 45//15 51//15
f 5//15 51//15 54//15
f 5//15 54//15 53//15
f 5//15 53//15 56//15
f 5//15 56//15 55//15
f 5//15 55//15 52//15
f 5//15 52//15 48//15
f 5//15 48//15 46//15
f 5//16 46//16 41//16
f 5//15 41//15 21//15
f 5//15 21//15 40//15
f 5//17 40//17 39//17
f 5//15 39//15 38//15
f 5//15 38//15 37//15
f 5//15 37//15 17//15
f 5//15 17//15 16//15
f 5//15 16//15 15//15
f 5//18 15//18 6//18
f 7//19 16//19 17//19
f 7//20 17//20 18//20
f 7//21 18//21 8//21
f 8//22 18//22 19//22
f 8//23 19//23 9//23
f 9//24 19//24 20//24
f 9//25 20//25 21//25
f 9//26 21//26 22//26
f 9//27 22//27 23//27
f 9//28 23//28 24//28
f 9//29 24//29 25//29
f 9//30 25//30 10//30
f 11//31 26//31 27//31
f 11//32 27//32 28//32
f 11//33 28//33 29//33
f 11//34 29//34 30//34
f 11//35 30//35 31//35
f 11//36 31//36 32//36
f 11//37 32//37 33//37
f 11//38 33//38 34//38
f 11//39 34//39 35//39
f 11//40 35//40 12//40
f 12//41 36//41 13//41
f 13//42 36//42 14//42
f 17//43 37//43 18//43
f 18//44 37//44 20//44
f 18//45 20//45 19//45
f 20//46 37//46 38//46
f 20//47 38//47 39//47
f 20//48 39//48 40//48
f 20//49 40//49 21//49
f 21//50 41//50 22//50
f 22//51 41//51 42//51
f 22//52 42//52 23//52
f 23//53 42//53 43//53
f 23//54 43//54 24//54
f 26//55 44//55 50//55
f 26//55 50//55 45//55
f 26//55 45//55 35//55
f 26//55 35//55 34//55
f 26//55 34//55 33//55
f 26//55 33//55 32//55
f 26//56 32//56 31//56
f 26//55 31//55 30//55
f 26//57 30//57 29//57
f 26//55 29//55 28//55
f 26//55 28//55 27//55
f 41//58 46//58 42//58
f 42//59 46//59 47//59
f 42//60 47//60 48//60
f 42//61 48//61 49//61
f 44//62 49//62 50//62
f 45//63 50//63 49//63
f 45//64 49//64 51//64
f 46//65 48//65 47//65
f 48//66 52//66 49//66
f 49//67 53//67 54//67
f 49//68 54//68 51//68
f 49//69 52//69 55//69
f 49//70 55//70 56//70
f 49//71 56//71 53//71
