# Blender 4.1.0
# www.blender.org
mtllib convex_135.mtl
o convex_135
v -0.003975 -0.396604 -0.173826
v -0.002256 -0.396604 -0.172720
v -0.016750 -0.396604 -0.173826
v -0.013098 -0.382183 -0.173826
v 0.004217 -0.396604 -0.165661
v -0.017848 -0.396338 -0.173826
v -0.005632 -0.396604 -0.150906
v -0.020911 -0.382183 -0.173826
v -0.010589 -0.382183 -0.170593
v 0.004127 -0.396351 -0.165521
v 0.007172 -0.396604 -0.149248
v -0.021115 -0.394278 -0.173826
v -0.005278 -0.396604 -0.150598
v -0.011701 -0.388914 -0.149248
v -0.021155 -0.383000 -0.173826
v -0.012038 -0.382183 -0.149248
v -0.009921 -0.382183 -0.169517
v -0.004364 -0.382183 -0.157007
v 0.003880 -0.392042 -0.151627
v 0.003952 -0.391987 -0.149248
v -0.002642 -0.396604 -0.149248
v -0.022262 -0.390890 -0.173826
v -0.011808 -0.388703 -0.149248
v -0.004387 -0.395545 -0.149248
v -0.022491 -0.389985 -0.173826
v -0.012804 -0.385148 -0.149248
v -0.004166 -0.382183 -0.149248
v -0.003789 -0.382183 -0.153499
v -0.004065 -0.382183 -0.150379
v -0.012836 -0.385443 -0.149248
vn 0.0001 -1.0000 -0.0000
vn -0.0000 -1.0000 -0.0000
vn -0.0000 -0.0000 -1.0000
vn 0.5119 0.3239 -0.7956
vn 0.6586 0.4489 -0.6039
vn -0.2340 -0.9656 0.1135
vn -0.0000 1.0000 -0.0000
vn 0.0002 1.0000 -0.0000
vn 0.6770 0.5154 -0.5254
vn 0.8980 0.4091 -0.1618
vn 0.6813 0.5247 -0.5104
vn -0.5144 -0.8157 0.2647
vn -0.5424 -0.5626 0.6239
vn -0.6779 -0.6201 0.3950
vn -0.9055 0.2704 0.3269
vn 0.6981 0.5700 -0.4333
vn 0.7991 0.5781 -0.1651
vn 0.8370 0.5267 -0.1485
vn 0.7165 0.6207 -0.3183
vn 0.8196 0.5716 -0.0382
vn -0.0000 -0.0000 1.0000
vn -0.8154 -0.4155 0.4030
vn -0.8697 -0.2944 0.3961
vn -0.3644 -0.6005 0.7117
vn -0.4691 -0.5174 0.7157
vn -0.9270 0.1773 0.3305
vn -0.9136 0.2362 0.3310
vn 0.7944 0.5932 -0.1302
vn 0.7923 0.6090 -0.0383
vn 0.7685 0.6362 0.0679
vn 0.7684 0.6363 0.0690
vn -0.8754 -0.2760 0.3969
vn -0.8917 -0.2260 0.3921
vn -0.9322 0.1011 0.3475
s 0
f 1//1 2//1 5//1
f 1//2 5//2 11//2
f 1//2 11//2 21//2
f 1//2 21//2 13//2
f 1//1 13//1 7//1
f 1//2 7//2 3//2
f 1//3 3//3 6//3
f 1//3 6//3 12//3
f 1//3 12//3 22//3
f 1//3 22//3 25//3
f 1//3 25//3 15//3
f 1//3 15//3 8//3
f 1//3 8//3 4//3
f 1//4 4//4 2//4
f 2//5 4//5 5//5
f 3//6 7//6 6//6
f 4//7 8//7 16//7
f 4//7 16//7 27//7
f 4//7 27//7 29//7
f 4//7 29//7 28//7
f 4//7 28//7 18//7
f 4//7 18//7 17//7
f 4//8 17//8 9//8
f 4//9 9//9 5//9
f 5//10 10//10 11//10
f 5//11 9//11 10//11
f 6//12 7//12 12//12
f 7//13 13//13 14//13
f 7//14 14//14 12//14
f 8//15 15//15 16//15
f 9//16 17//16 10//16
f 10//17 18//17 19//17
f 10//18 19//18 11//18
f 10//19 17//19 18//19
f 11//20 19//20 20//20
f 11//21 20//21 27//21
f 11//21 27//21 16//21
f 11//21 16//21 26//21
f 11//21 26//21 30//21
f 11//21 30//21 23//21
f 11//21 23//21 14//21
f 11//21 14//21 24//21
f 11//21 24//21 21//21
f 12//22 14//22 23//22
f 12//23 23//23 22//23
f 13//24 21//24 24//24
f 13//25 24//25 14//25
f 15//26 25//26 26//26
f 15//27 26//27 16//27
f 18//28 28//28 19//28
f 19//29 28//29 20//29
f 20//30 28//30 29//30
f 20//31 29//31 27//31
f 22//32 23//32 30//32
f 22//33 30//33 25//33
f 25//34 30//34 26//34
