# Blender 4.1.0
# www.blender.org
mtllib convex_79.mtl
o convex_79
v 0.140813 -0.494493 0.090025
v 0.140359 -0.497540 0.090125
v 0.140391 -0.497557 0.090025
v 0.140536 -0.472774 0.090025
v 0.140342 -0.476341 0.092224
v 0.140026 -0.477870 0.094219
v 0.140026 -0.478725 0.094219
v 0.121924 -0.496934 0.112441
v 0.119533 -0.498915 0.110056
v 0.135522 -0.488339 0.098808
v 0.135264 -0.491368 0.098541
v 0.137660 -0.497794 0.090025
v 0.139909 -0.474841 0.093967
v 0.136857 -0.463217 0.090025
v 0.135942 -0.464140 0.094802
v 0.134915 -0.471778 0.098113
v 0.121924 -0.495462 0.112441
v 0.135522 -0.487456 0.098808
v 0.119968 -0.494165 0.113314
v 0.113000 -0.494493 0.115201
v 0.119533 -0.497709 0.112897
v 0.113000 -0.498547 0.113644
v 0.113000 -0.498666 0.110102
v 0.119533 -0.498961 0.105513
v 0.133516 -0.497698 0.092007
v 0.134842 -0.497126 0.090025
v 0.135890 -0.461875 0.090025
v 0.127348 -0.450042 0.090025
v 0.126093 -0.451848 0.093854
v 0.122803 -0.454804 0.099555
v 0.117542 -0.469122 0.112550
v 0.132641 -0.471778 0.100113
v 0.121774 -0.492433 0.112215
v 0.118939 -0.489953 0.113576
v 0.114988 -0.485406 0.115035
v 0.114988 -0.489953 0.115053
v 0.113000 -0.489953 0.115702
v 0.113000 -0.492591 0.115413
v 0.113000 -0.496056 0.107729
v 0.117210 -0.496832 0.103198
v 0.119533 -0.497760 0.102612
v 0.129823 -0.497506 0.093602
v 0.113000 -0.452799 0.090025
v 0.125248 -0.447698 0.090025
v 0.124339 -0.448723 0.092178
v 0.123062 -0.450166 0.095190
v 0.120791 -0.451774 0.098219
v 0.117695 -0.455557 0.103538
v 0.116047 -0.466093 0.111604
v 0.113019 -0.464746 0.112499
v 0.114716 -0.467464 0.112887
v 0.113000 -0.469219 0.113802
v 0.113000 -0.474252 0.114550
v 0.113000 -0.485406 0.115725
v 0.113000 -0.441124 0.090025
v 0.123664 -0.446730 0.090025
v 0.113000 -0.441968 0.093187
v 0.113000 -0.442483 0.093929
v 0.114988 -0.452505 0.102061
v 0.114988 -0.454775 0.104084
v 0.113000 -0.454475 0.104708
v 0.113000 -0.464768 0.112507
v 0.113000 -0.441243 0.091411
v 0.113686 -0.441334 0.091114
v 0.114062 -0.441306 0.090025
v 0.122830 -0.446226 0.090025
v 0.113000 -0.453167 0.103543
vn 0.9385 -0.1293 0.3202
vn -0.0000 -0.0000 -1.0000
vn 0.9940 0.0127 0.1083
vn 0.9869 0.0061 0.1610
vn 0.9829 -0.0000 0.1844
vn 0.8280 -0.1052 0.5508
vn 0.3788 -0.8622 0.3364
vn 0.3017 -0.9197 0.2511
vn 0.8144 -0.1096 0.5698
vn 0.8080 -0.1196 0.5769
vn 0.7466 -0.2333 0.6231
vn 0.0864 -0.9960 0.0225
vn 0.9799 0.0632 0.1890
vn 0.9058 0.3487 0.2408
vn 0.9003 0.3099 0.3056
vn 0.9790 0.0541 0.1965
vn 0.6675 0.0872 0.7395
vn 0.6653 0.0839 0.7419
vn 0.7058 0.0075 0.7084
vn 0.7137 -0.0000 0.7005
vn 0.7137 -0.0000 0.7004
vn 0.4076 -0.0000 0.9132
vn 0.2647 -0.1149 0.9575
vn 0.2427 -0.1888 0.9516
vn 0.3494 -0.8625 0.3661
vn 0.7400 -0.1213 0.6616
vn 0.7080 -0.0000 0.7062
vn -0.0378 -0.9987 0.0336
vn -0.0380 -0.9992 0.0101
vn 0.0728 -0.9973 0.0101
vn 0.1606 -0.9085 0.3857
vn -0.1299 -0.9657 -0.2248
vn -0.2115 -0.8923 -0.3989
vn 0.6965 0.2045 0.6878
vn 0.7836 0.5647 0.2592
vn 0.7830 0.5653 0.2595
vn 0.6634 0.5691 0.4858
vn 0.5929 0.5223 0.6129
vn 0.5624 0.4328 0.7046
vn 0.6425 0.2304 0.7308
vn 0.6426 0.2304 0.7308
vn 0.6575 0.0922 0.7478
vn 0.6609 0.0883 0.7453
vn 0.4347 0.0503 0.8992
vn 0.5567 0.0892 0.8259
vn 0.4722 0.0749 0.8783
vn 0.3823 0.0360 0.9233
vn 0.3325 0.0037 0.9431
vn 0.3102 -0.0256 0.9503
vn 0.2650 -0.1050 0.9585
vn 0.2646 -0.1068 0.9584
vn 0.1510 -0.3544 0.9228
vn -1.0000 -0.0000 0.0061
vn -1.0000 -0.0000 -0.0000
vn -0.6772 -0.4950 -0.5444
vn -0.4271 -0.7747 -0.4662
vn -0.3020 -0.8787 -0.3697
vn -0.2946 -0.8842 -0.3625
vn -0.1594 -0.9539 -0.2542
vn -0.2205 -0.8879 -0.4037
vn -0.5455 -0.2688 -0.7938
vn 0.6502 0.5825 0.4878
vn 0.5799 0.6131 0.5365
vn 0.5777 0.6131 0.5388
vn 0.5724 0.5448 0.6128
vn 0.4585 0.5954 0.6598
vn 0.4403 0.5906 0.6763
vn 0.4952 0.4779 0.7255
vn 0.5009 0.4735 0.7245
vn 0.4328 0.4564 0.7774
vn 0.2900 0.3103 0.9053
vn 0.2531 0.2410 0.9369
vn 0.2602 0.1419 0.9551
vn 0.3044 0.0998 0.9473
vn 0.3265 0.0923 0.9407
vn 0.4180 0.0726 0.9055
vn 0.6432 0.1059 0.7583
vn 0.3279 0.0037 0.9447
vn 0.3103 -0.0048 0.9506
vn -0.7293 -0.2592 -0.6332
vn -0.4269 -0.7476 -0.5087
vn -0.5903 -0.2826 -0.7561
vn 0.4713 0.7712 0.4280
vn 0.4694 0.7255 0.5034
vn 0.4696 0.7037 0.5331
vn 0.4692 0.7023 0.5354
vn 0.4093 0.6424 0.6479
vn 0.3836 0.6324 0.6730
vn 0.3324 0.6331 0.6990
vn 0.3243 0.6294 0.7062
vn 0.3208 0.5975 0.7349
vn 0.3201 0.5729 0.7545
vn 0.4426 0.5004 0.7441
vn 0.0790 0.2783 0.9572
vn 0.2213 0.2719 0.9365
vn -0.3408 0.5677 0.7494
vn 0.1668 0.9824 0.0843
vn 0.1684 0.9822 0.0834
vn 0.4707 0.7789 0.4144
vn 0.2752 0.8901 0.3633
vn 0.4693 0.7890 0.3966
vn 0.3146 0.6349 0.7056
vn 0.3176 0.6309 0.7079
vn 0.3175 0.6307 0.7081
vn 0.4806 0.8565 0.1879
s 0
f 1//1 2//1 3//1
f 1//2 3//2 12//2
f 1//2 12//2 26//2
f 1//2 26//2 43//2
f 1//2 43//2 55//2
f 1//2 55//2 65//2
f 1//2 65//2 66//2
f 1//2 66//2 56//2
f 1//2 56//2 44//2
f 1//2 44//2 28//2
f 1//2 28//2 27//2
f 1//2 27//2 14//2
f 1//2 14//2 4//2
f 1//3 4//3 5//3
f 1//4 5//4 6//4
f 1//5 6//5 7//5
f 1//6 7//6 2//6
f 2//7 8//7 9//7
f 2//8 9//8 3//8
f 2//9 7//9 10//9
f 2//10 10//10 11//10
f 2//11 11//11 8//11
f 3//12 9//12 12//12
f 4//13 13//13 5//13
f 4//14 14//14 15//14
f 4//15 15//15 13//15
f 5//16 13//16 6//16
f 6//17 13//17 16//17
f 6//18 16//18 17//18
f 6//19 17//19 18//19
f 6//20 18//20 10//20
f 6//21 10//21 7//21
f 8//22 17//22 19//22
f 8//23 19//23 20//23
f 8//24 20//24 21//24
f 8//25 21//25 9//25
f 8//26 11//26 10//26
f 8//27 10//27 18//27
f 8//27 18//27 17//27
f 9//28 22//28 23//28
f 9//29 23//29 24//29
f 9//30 24//30 12//30
f 9//31 21//31 22//31
f 12//32 24//32 25//32
f 12//33 25//33 26//33
f 13//34 15//34 16//34
f 14//35 27//35 15//35
f 15//36 27//36 28//36
f 15//37 28//37 29//37
f 15//38 29//38 30//38
f 15//39 30//39 31//39
f 15//40 31//40 32//40
f 15//41 32//41 16//41
f 16//42 32//42 33//42
f 16//43 33//43 17//43
f 17//44 34//44 19//44
f 17//45 33//45 31//45
f 17//46 31//46 34//46
f 19//47 34//47 35//47
f 19//48 35//48 36//48
f 19//49 36//49 37//49
f 19//50 37//50 38//50
f 19//51 38//51 20//51
f 20//52 22//52 21//52
f 20//53 38//53 37//53
f 20//54 37//54 54//54
f 20//54 54//54 53//54
f 20//54 53//54 52//54
f 20//54 52//54 62//54
f 20//54 62//54 61//54
f 20//54 61//54 67//54
f 20//54 67//54 58//54
f 20//54 58//54 57//54
f 20//54 57//54 63//54
f 20//54 63//54 55//54
f 20//54 55//54 43//54
f 20//54 43//54 39//54
f 20//54 39//54 23//54
f 20//54 23//54 22//54
f 23//55 39//55 40//55
f 23//56 40//56 41//56
f 23//57 41//57 42//57
f 23//58 42//58 24//58
f 24//59 42//59 25//59
f 25//60 42//60 26//60
f 26//61 42//61 43//61
f 28//62 44//62 29//62
f 29//63 44//63 45//63
f 29//64 45//64 46//64
f 29//65 46//65 30//65
f 30//66 46//66 47//66
f 30//67 47//67 48//67
f 30//68 48//68 49//68
f 30//69 49//69 31//69
f 31//70 49//70 50//70
f 31//71 50//71 51//71
f 31//72 51//72 52//72
f 31//73 52//73 53//73
f 31//74 53//74 54//74
f 31//75 54//75 35//75
f 31//76 35//76 34//76
f 31//77 33//77 32//77
f 35//78 54//78 36//78
f 36//79 54//79 37//79
f 39//80 43//80 40//80
f 40//81 42//81 41//81
f 40//82 43//82 42//82
f 44//83 56//83 57//83
f 44//84 57//84 58//84
f 44//85 58//85 45//85
f 45//86 58//86 46//86
f 46//87 58//87 47//87
f 47//88 58//88 48//88
f 48//89 58//89 59//89
f 48//90 59//90 60//90
f 48//91 60//91 61//91
f 48//92 61//92 50//92
f 48//93 50//93 49//93
f 50//94 62//94 52//94
f 50//95 52//95 51//95
f 50//96 61//96 62//96
f 55//97 63//97 64//97
f 55//98 64//98 65//98
f 56//99 66//99 57//99
f 57//100 64//100 63//100
f 57//101 66//101 64//101
f 58//102 67//102 59//102
f 59//103 67//103 60//103
f 60//104 67//104 61//104
f 64//105 66//105 65//105
