# Blender 4.1.0
# www.blender.org
mtllib convex_47.mtl
o convex_47
v 0.342005 -0.457227 -0.149116
v 0.342006 -0.457230 -0.149121
v 0.339944 -0.460393 -0.155820
v 0.339877 -0.460393 -0.155820
v 0.338672 -0.457227 -0.147901
v 0.342149 -0.457227 -0.139809
v 0.342725 -0.462691 -0.144413
v 0.342610 -0.467234 -0.148954
v 0.340049 -0.464677 -0.160505
v 0.342472 -0.458147 -0.139866
v 0.342948 -0.462691 -0.139866
v 0.337646 -0.464619 -0.160584
v 0.335280 -0.464792 -0.160482
v 0.336175 -0.457227 -0.144261
v 0.341235 -0.457227 -0.135323
v 0.341554 -0.458147 -0.135323
v 0.341310 -0.471916 -0.149043
v 0.340741 -0.472211 -0.153932
v 0.340526 -0.467191 -0.158146
v 0.340049 -0.465649 -0.160505
v 0.337798 -0.467191 -0.160864
v 0.341398 -0.462834 -0.135095
v 0.340260 -0.469255 -0.134118
v 0.335083 -0.467234 -0.160856
v 0.330593 -0.464549 -0.134118
v 0.332710 -0.457227 -0.134118
v 0.336002 -0.457227 -0.143774
v 0.341014 -0.457227 -0.134359
v 0.340918 -0.457227 -0.134118
v 0.341065 -0.458147 -0.134118
v 0.341025 -0.461180 -0.134118
v 0.340198 -0.474595 -0.150617
v 0.340198 -0.474595 -0.152709
v 0.339857 -0.474015 -0.155739
v 0.336388 -0.470187 -0.160872
v 0.339415 -0.468677 -0.159730
v 0.335079 -0.470187 -0.160872
v 0.341001 -0.462305 -0.134118
v 0.339879 -0.469864 -0.134118
v 0.330604 -0.467266 -0.134118
v 0.338747 -0.474595 -0.150617
v 0.339102 -0.470263 -0.134118
v 0.337630 -0.470691 -0.134118
v 0.336827 -0.474229 -0.156171
v 0.335244 -0.474229 -0.156171
v 0.332664 -0.470341 -0.134118
v 0.335244 -0.474229 -0.154822
v 0.333116 -0.470578 -0.134118
vn 0.2124 0.8556 -0.4721
vn -0.0000 0.9042 -0.4270
vn -0.1407 0.9117 -0.3859
vn -0.0000 1.0000 -0.0000
vn -0.0005 1.0000 -0.0000
vn 0.0002 1.0000 -0.0000
vn 0.9428 0.3332 -0.0146
vn 0.9947 0.0587 -0.0839
vn 0.9773 0.0556 -0.2044
vn 0.7082 0.5288 -0.4677
vn 0.9432 0.3320 -0.0146
vn 0.9938 0.1041 -0.0397
vn 0.9948 0.0889 -0.0488
vn 0.0400 0.7378 -0.6738
vn -0.0000 0.7481 -0.6636
vn -0.0835 0.7646 -0.6391
vn -0.3965 0.8300 -0.3922
vn -0.5002 0.7950 -0.3432
vn 0.9278 0.3217 0.1890
vn 0.9303 0.3150 0.1880
vn 0.9985 0.0237 -0.0490
vn 0.9596 -0.2646 -0.0957
vn 0.9651 -0.1429 -0.2195
vn 0.9745 -0.0368 -0.2211
vn 0.9763 -0.0000 -0.2165
vn 0.9584 -0.2680 0.0983
vn 0.1575 -0.0000 -0.9875
vn 0.0353 0.1102 -0.9933
vn 0.9751 0.1021 0.1970
vn 0.9511 -0.0166 0.3085
vn 0.9451 -0.1213 0.3034
vn 0.9509 -0.2861 0.1179
vn -0.0046 0.1080 -0.9941
vn -0.0539 0.1554 -0.9864
vn -0.9789 0.1058 -0.1750
vn -0.9465 0.2737 -0.1708
vn -0.7380 0.6261 -0.2516
vn -0.7254 0.6383 -0.2577
vn 0.9234 0.3202 0.2117
vn 0.9177 0.1556 0.3655
vn 0.9166 0.1464 0.3720
vn 0.9265 -0.0122 0.3760
vn 0.9269 -0.0126 0.3752
vn 0.9236 -0.3833 -0.0000
vn 0.9589 -0.2674 -0.0955
vn 0.8819 -0.4496 0.1422
vn 0.9433 -0.1888 -0.2730
vn 0.9406 -0.2978 -0.1629
vn 0.9252 -0.2036 -0.3202
vn 0.2254 -0.1035 -0.9688
vn 0.8210 -0.2967 -0.4878
vn 0.4670 -0.3098 -0.8282
vn -0.0030 0.0054 -1.0000
vn -0.0000 0.0027 -1.0000
vn 0.9225 -0.0197 0.3855
vn 0.9029 -0.0963 0.4190
vn -0.0000 -0.0000 1.0000
vn 0.8360 -0.5230 0.1661
vn -0.9862 0.0022 -0.1658
vn -0.9864 -0.0040 -0.1645
vn -0.0000 -1.0000 -0.0000
vn 0.4417 -0.8601 0.2552
vn 0.2695 -0.9269 0.2613
vn -0.0000 -0.9731 0.2303
vn 0.0971 -0.9755 -0.1977
vn -0.0497 -0.9982 -0.0344
vn -0.0000 -0.9945 -0.1051
vn 0.1456 -0.7434 -0.6528
vn 0.5104 -0.4874 -0.7085
vn -0.0000 -0.7582 -0.6520
vn -0.0000 -0.7583 -0.6520
vn -0.9692 -0.2024 -0.1400
vn -0.8322 -0.5546 -0.0000
vn -0.8308 -0.5566 0.0010
vn -0.1039 -0.9946 -0.0000
vn -0.0244 -0.9732 0.2286
vn -0.2682 -0.9531 0.1405
vn -0.4618 -0.8804 0.1078
s 0
f 1//1 2//1 3//1
f 1//2 3//2 4//2
f 1//3 4//3 5//3
f 1//4 5//4 14//4
f 1//4 14//4 27//4
f 1//4 27//4 26//4
f 1//4 26//4 29//4
f 1//5 29//5 28//5
f 1//6 28//6 15//6
f 1//4 15//4 6//4
f 1//7 6//7 2//7
f 2//8 7//8 8//8
f 2//9 8//9 9//9
f 2//10 9//10 3//10
f 2//11 6//11 10//11
f 2//12 10//12 11//12
f 2//13 11//13 7//13
f 3//14 9//14 12//14
f 3//15 12//15 4//15
f 4//16 12//16 13//16
f 4//17 13//17 5//17
f 5//18 13//18 14//18
f 6//19 15//19 16//19
f 6//20 16//20 10//20
f 7//21 11//21 8//21
f 8//22 17//22 18//22
f 8//23 18//23 19//23
f 8//24 19//24 20//24
f 8//25 20//25 9//25
f 8//26 11//26 17//26
f 9//27 20//27 21//27
f 9//28 21//28 12//28
f 10//29 16//29 11//29
f 11//30 16//30 22//30
f 11//31 22//31 23//31
f 11//32 23//32 17//32
f 12//33 21//33 24//33
f 12//34 24//34 13//34
f 13//35 24//35 25//35
f 13//36 25//36 26//36
f 13//37 26//37 27//37
f 13//38 27//38 14//38
f 15//39 28//39 16//39
f 16//40 28//40 29//40
f 16//41 29//41 30//41
f 16//42 30//42 31//42
f 16//43 31//43 22//43
f 17//44 32//44 33//44
f 17//45 33//45 18//45
f 17//46 23//46 32//46
f 18//47 34//47 19//47
f 18//48 33//48 34//48
f 19//49 34//49 20//49
f 20//50 35//50 21//50
f 20//51 34//51 36//51
f 20//52 36//52 35//52
f 21//53 37//53 24//53
f 21//54 35//54 37//54
f 22//55 31//55 38//55
f 22//56 38//56 23//56
f 23//57 38//57 31//57
f 23//57 31//57 30//57
f 23//57 30//57 29//57
f 23//57 29//57 26//57
f 23//57 26//57 25//57
f 23//57 25//57 40//57
f 23//57 40//57 46//57
f 23//57 46//57 48//57
f 23//57 48//57 43//57
f 23//57 43//57 42//57
f 23//57 42//57 39//57
f 23//58 39//58 32//58
f 24//59 37//59 25//59
f 25//60 37//60 40//60
f 32//61 41//61 33//61
f 32//62 39//62 42//62
f 32//63 42//63 43//63
f 32//64 43//64 41//64
f 33//65 44//65 34//65
f 33//66 41//66 45//66
f 33//67 45//67 44//67
f 34//68 44//68 35//68
f 34//69 35//69 36//69
f 35//70 44//70 45//70
f 35//71 45//71 37//71
f 37//72 45//72 40//72
f 40//73 45//73 47//73
f 40//74 47//74 46//74
f 41//75 47//75 45//75
f 41//76 43//76 48//76
f 41//77 48//77 47//77
f 46//78 47//78 48//78
