# Blender 4.1.0
# www.blender.org
mtllib convex_27.mtl
o convex_27
v 0.077745 -0.411055 -0.229379
v 0.077745 -0.378279 -0.204716
v 0.077745 -0.411055 -0.236036
v 0.115578 -0.411055 -0.204716
v 0.077745 -0.367187 -0.204716
v 0.077745 -0.408158 -0.235889
v 0.078636 -0.411055 -0.236116
v 0.122797 -0.411055 -0.204716
v 0.077873 -0.367135 -0.204716
v 0.077745 -0.369678 -0.209335
v 0.077745 -0.407271 -0.235837
v 0.078636 -0.408158 -0.235969
v 0.094728 -0.410081 -0.233089
v 0.094772 -0.411055 -0.233129
v 0.121531 -0.411055 -0.209225
v 0.117413 -0.405343 -0.215052
v 0.122180 -0.409980 -0.204716
v 0.078641 -0.366825 -0.204716
v 0.077745 -0.372073 -0.212627
v 0.080211 -0.369372 -0.210519
v 0.077745 -0.403617 -0.234921
v 0.080938 -0.396787 -0.233027
v 0.085657 -0.401017 -0.233135
v 0.096470 -0.408402 -0.231995
v 0.101065 -0.408158 -0.229689
v 0.095469 -0.411055 -0.232735
v 0.120314 -0.411055 -0.212446
v 0.117968 -0.408158 -0.216030
v 0.117117 -0.410662 -0.219248
v 0.114846 -0.403984 -0.216863
v 0.113792 -0.400803 -0.215646
v 0.105444 -0.381447 -0.204716
v 0.105872 -0.382090 -0.204716
v 0.107327 -0.384533 -0.204716
v 0.078967 -0.366781 -0.204716
v 0.077745 -0.372851 -0.213657
v 0.083170 -0.366418 -0.204716
v 0.081476 -0.369372 -0.210519
v 0.077745 -0.396708 -0.233086
v 0.078636 -0.396712 -0.233083
v 0.083178 -0.386858 -0.224944
v 0.086658 -0.386984 -0.224685
v 0.090931 -0.395489 -0.229007
v 0.083968 -0.397988 -0.232477
v 0.100434 -0.404513 -0.229201
v 0.103336 -0.408158 -0.228143
v 0.117214 -0.411055 -0.219325
v 0.118511 -0.411055 -0.217029
v 0.117492 -0.411055 -0.218842
v 0.094344 -0.383462 -0.218520
v 0.095165 -0.369005 -0.206437
v 0.095469 -0.368761 -0.204716
v 0.077745 -0.375141 -0.215596
v 0.083672 -0.366475 -0.204716
v 0.092267 -0.368616 -0.206996
v 0.079853 -0.374258 -0.214708
v 0.091315 -0.382505 -0.220136
v 0.092377 -0.394195 -0.227384
v 0.092267 -0.367694 -0.204716
v 0.093476 -0.367952 -0.204716
v 0.089463 -0.367166 -0.204716
vn -1.0000 -0.0000 -0.0000
vn -0.0000 -1.0000 -0.0000
vn -0.4620 -0.5333 0.7087
vn -0.0000 -0.0000 1.0000
vn -0.0893 0.0505 -0.9947
vn -0.3370 0.8287 -0.4469
vn -0.0893 0.0583 -0.9943
vn 0.1817 0.0498 -0.9821
vn 0.1818 0.0485 -0.9821
vn 0.8882 0.3859 -0.2494
vn 0.8541 0.4902 -0.1740
vn -0.3350 0.8293 -0.4473
vn -0.3204 0.8324 -0.4521
vn -0.3576 0.7552 -0.5494
vn 0.0551 0.2428 -0.9685
vn 0.0882 0.2327 -0.9685
vn 0.1702 0.2144 -0.9618
vn 0.1949 0.1902 -0.9622
vn 0.4399 0.1233 -0.8896
vn 0.4585 0.0572 -0.8869
vn 0.2935 0.2892 -0.9112
vn 0.4919 -0.0355 -0.8699
vn 0.8925 0.2994 -0.3372
vn 0.8911 0.2954 -0.3445
vn 0.8206 0.3251 -0.4700
vn 0.6614 0.4415 -0.6063
vn 0.6615 0.4490 -0.6007
vn 0.7436 0.5419 -0.3916
vn 0.7935 0.5282 -0.3022
vn 0.8438 0.5026 -0.1884
vn 0.8511 0.4968 -0.1697
vn -0.1208 0.8965 -0.4262
vn -0.3378 0.7510 -0.5673
vn -0.0781 0.9040 -0.4204
vn -0.0000 0.8912 -0.4537
vn -0.0000 0.6698 -0.7426
vn 0.0044 0.2567 -0.9665
vn 0.0318 0.2533 -0.9669
vn 0.0393 0.6255 -0.7792
vn 0.0806 0.6183 -0.7818
vn 0.2540 0.5366 -0.8047
vn 0.3054 0.3683 -0.8781
vn 0.3031 0.3606 -0.8821
vn 0.3081 0.3628 -0.8795
vn 0.3179 0.3536 -0.8797
vn 0.3139 0.3218 -0.8933
vn 0.4319 0.1927 -0.8811
vn 0.5509 0.2037 -0.8093
vn 0.5539 0.1767 -0.8136
vn 0.5212 -0.1182 -0.8452
vn 0.8912 0.2879 -0.3506
vn 0.8278 0.3152 -0.4642
vn 0.8288 0.3097 -0.4660
vn 0.8274 0.2976 -0.4763
vn 0.5670 0.2909 -0.7707
vn 0.5741 0.4415 -0.6895
vn 0.5706 0.4515 -0.6859
vn 0.5448 0.4994 -0.6736
vn 0.5553 0.5145 -0.6533
vn 0.7301 0.5465 -0.4101
vn 0.7667 0.6028 -0.2210
vn 0.0393 0.6457 -0.7626
vn 0.1004 0.8857 -0.4532
vn 0.0931 0.8761 -0.4731
vn 0.0553 0.6392 -0.7670
vn 0.1882 0.6681 -0.7199
vn 0.1198 0.6434 -0.7561
vn 0.0801 0.6389 -0.7651
vn 0.0579 0.6386 -0.7673
vn 0.0054 0.6299 -0.7767
vn 0.0236 0.6302 -0.7761
vn 0.0560 0.6384 -0.7677
vn 0.2633 0.5389 -0.8002
vn 0.4000 0.5090 -0.7622
vn 0.4347 0.4743 -0.7656
vn 0.5551 0.2082 -0.8053
vn 0.4700 0.4956 -0.7304
vn 0.5252 0.5010 -0.6879
vn 0.5234 0.5288 -0.6682
vn 0.2267 0.6611 -0.7152
vn 0.1931 0.9096 -0.3678
vn 0.1943 0.9100 -0.3661
vn 0.3689 0.9090 -0.1941
vn 0.1066 0.8932 -0.4369
vn 0.1719 0.9133 -0.3693
s 0
f 1//1 2//1 5//1
f 1//1 5//1 10//1
f 1//1 10//1 19//1
f 1//1 19//1 36//1
f 1//1 36//1 53//1
f 1//1 53//1 39//1
f 1//1 39//1 21//1
f 1//1 21//1 11//1
f 1//1 11//1 6//1
f 1//1 6//1 3//1
f 1//2 3//2 7//2
f 1//2 7//2 14//2
f 1//2 14//2 26//2
f 1//2 26//2 47//2
f 1//2 47//2 49//2
f 1//2 49//2 48//2
f 1//2 48//2 27//2
f 1//2 27//2 15//2
f 1//2 15//2 8//2
f 1//2 8//2 4//2
f 1//3 4//3 2//3
f 2//4 4//4 8//4
f 2//4 8//4 17//4
f 2//4 17//4 34//4
f 2//4 34//4 33//4
f 2//4 33//4 32//4
f 2//4 32//4 52//4
f 2//4 52//4 60//4
f 2//4 60//4 59//4
f 2//4 59//4 61//4
f 2//4 61//4 54//4
f 2//4 54//4 37//4
f 2//4 37//4 35//4
f 2//4 35//4 18//4
f 2//4 18//4 9//4
f 2//4 9//4 5//4
f 3//5 6//5 12//5
f 3//5 12//5 7//5
f 5//6 9//6 10//6
f 6//7 11//7 12//7
f 7//8 12//8 13//8
f 7//9 13//9 14//9
f 8//10 15//10 16//10
f 8//11 16//11 17//11
f 9//12 18//12 10//12
f 10//13 18//13 20//13
f 10//14 20//14 19//14
f 11//15 21//15 22//15
f 11//16 22//16 12//16
f 12//17 22//17 23//17
f 12//18 23//18 13//18
f 13//19 24//19 25//19
f 13//20 25//20 14//20
f 13//21 23//21 24//21
f 14//22 25//22 26//22
f 15//23 27//23 16//23
f 16//24 27//24 28//24
f 16//25 28//25 29//25
f 16//26 29//26 30//26
f 16//27 30//27 31//27
f 16//28 31//28 32//28
f 16//29 32//29 33//29
f 16//30 33//30 34//30
f 16//31 34//31 17//31
f 18//32 35//32 20//32
f 19//33 20//33 36//33
f 20//34 35//34 37//34
f 20//35 37//35 38//35
f 20//36 38//36 36//36
f 21//37 39//37 40//37
f 21//38 40//38 22//38
f 22//39 40//39 41//39
f 22//40 41//40 42//40
f 22//41 42//41 43//41
f 22//42 43//42 44//42
f 22//43 44//43 23//43
f 23//44 44//44 43//44
f 23//45 43//45 45//45
f 23//46 45//46 24//46
f 24//47 45//47 25//47
f 25//48 45//48 46//48
f 25//49 46//49 47//49
f 25//50 47//50 26//50
f 27//51 48//51 28//51
f 28//52 48//52 29//52
f 29//53 48//53 49//53
f 29//54 49//54 47//54
f 29//55 47//55 45//55
f 29//56 45//56 30//56
f 30//57 45//57 31//57
f 31//58 45//58 50//58
f 31//59 50//59 51//59
f 31//60 51//60 32//60
f 32//61 51//61 52//61
f 36//62 38//62 53//62
f 37//63 54//63 55//63
f 37//64 55//64 38//64
f 38//65 56//65 53//65
f 38//66 55//66 57//66
f 38//67 57//67 42//67
f 38//68 42//68 41//68
f 38//69 41//69 56//69
f 39//70 53//70 40//70
f 40//71 53//71 41//71
f 41//72 53//72 56//72
f 42//73 57//73 43//73
f 43//74 57//74 58//74
f 43//75 58//75 45//75
f 45//76 47//76 46//76
f 45//77 58//77 57//77
f 45//78 57//78 50//78
f 50//79 57//79 51//79
f 51//80 57//80 55//80
f 51//81 55//81 59//81
f 51//82 59//82 60//82
f 51//83 60//83 52//83
f 54//84 61//84 55//84
f 55//85 61//85 59//85
