# Blender 4.1.0
# www.blender.org
mtllib convex_68.mtl
o convex_68
v 0.150196 -0.471141 -0.170073
v 0.149409 -0.470295 -0.170073
v 0.143455 -0.478684 -0.182959
v 0.144612 -0.478684 -0.182959
v 0.150196 -0.471186 -0.177014
v 0.150196 -0.455303 -0.170073
v 0.148922 -0.469660 -0.170073
v 0.140497 -0.476319 -0.183874
v 0.130855 -0.478624 -0.196625
v 0.130855 -0.478624 -0.196733
v 0.144612 -0.478684 -0.183237
v 0.149331 -0.470120 -0.183369
v 0.150196 -0.470507 -0.178503
v 0.150196 -0.455444 -0.171677
v 0.149878 -0.454186 -0.170073
v 0.138662 -0.449312 -0.170073
v 0.134552 -0.440789 -0.170073
v 0.134531 -0.440767 -0.170097
v 0.126829 -0.450507 -0.204716
v 0.130874 -0.474088 -0.201230
v 0.130974 -0.478624 -0.196733
v 0.127120 -0.452489 -0.204716
v 0.129007 -0.465124 -0.204716
v 0.136226 -0.474779 -0.197557
v 0.140483 -0.470224 -0.197164
v 0.149695 -0.467233 -0.183824
v 0.150196 -0.467763 -0.181243
v 0.150196 -0.457500 -0.176221
v 0.149434 -0.454546 -0.176221
v 0.149814 -0.454108 -0.171677
v 0.144569 -0.440767 -0.178971
v 0.144585 -0.440767 -0.177791
v 0.144509 -0.440767 -0.177276
v 0.148713 -0.451914 -0.170073
v 0.134566 -0.440767 -0.170073
v 0.127362 -0.440767 -0.204716
v 0.126829 -0.449861 -0.204716
v 0.132388 -0.467429 -0.204716
v 0.130963 -0.474088 -0.201230
v 0.129830 -0.466739 -0.204716
v 0.132482 -0.475948 -0.198659
v 0.133991 -0.473086 -0.200585
v 0.135725 -0.470057 -0.201528
v 0.137491 -0.471653 -0.198876
v 0.135657 -0.465718 -0.204716
v 0.136039 -0.463922 -0.204716
v 0.136265 -0.462689 -0.204716
v 0.149638 -0.463810 -0.183752
v 0.150196 -0.463291 -0.181521
v 0.150196 -0.467233 -0.181619
v 0.140030 -0.446907 -0.201264
v 0.140030 -0.446658 -0.201264
v 0.149219 -0.455303 -0.178968
v 0.150196 -0.458150 -0.177062
v 0.148713 -0.452274 -0.176221
v 0.142016 -0.440767 -0.194393
v 0.143976 -0.440767 -0.175655
v 0.142075 -0.440767 -0.170073
v 0.135599 -0.440767 -0.204716
v 0.133163 -0.467173 -0.204716
v 0.134790 -0.466249 -0.204716
v 0.136636 -0.448892 -0.204716
v 0.150196 -0.462671 -0.181467
v 0.143013 -0.444516 -0.194393
v 0.140936 -0.444891 -0.198958
v 0.136562 -0.446788 -0.204716
v 0.136485 -0.445158 -0.204716
v 0.136331 -0.443525 -0.204716
v 0.135730 -0.441231 -0.204716
v 0.140561 -0.440767 -0.197574
v 0.149663 -0.458150 -0.179751
v 0.150196 -0.461735 -0.180819
vn -0.5769 -0.5366 0.6159
vn -0.0000 -0.8630 0.5052
vn 0.8005 -0.5993 0.0039
vn 1.0000 -0.0000 -0.0000
vn -0.0000 -0.0000 1.0000
vn -0.0000 -0.0002 1.0000
vn -0.0000 0.0002 1.0000
vn -0.6263 -0.4803 0.6141
vn -0.6005 -0.5143 0.6123
vn -0.6149 -0.5507 0.5645
vn -0.0054 -1.0000 -0.0000
vn -0.0009 -1.0000 -0.0036
vn -0.0000 -1.0000 -0.0000
vn 0.8020 -0.5973 -0.0000
vn 0.8876 -0.4192 -0.1911
vn 0.8575 -0.4755 -0.1965
vn 0.9615 0.2737 -0.0241
vn -0.7101 -0.3581 0.6063
vn -0.7129 -0.3569 0.6036
vn -0.7225 -0.3484 0.5971
vn -0.8324 -0.2613 0.4887
vn -0.9693 -0.0710 0.2356
vn -0.9899 -0.1417 -0.0000
vn -0.0000 -0.7040 -0.7102
vn -0.0000 -1.0000 -0.0044
vn -0.9893 -0.1453 -0.0126
vn -0.9888 -0.1477 -0.0208
vn -0.8967 -0.3097 -0.3162
vn 0.4691 -0.7430 -0.4773
vn 0.6428 -0.5552 -0.5278
vn 0.7624 -0.4276 -0.4858
vn 0.8274 -0.1877 -0.5293
vn 0.9632 -0.1560 -0.2190
vn 0.9647 -0.1860 -0.1863
vn 0.9622 0.2482 -0.1123
vn 0.9560 0.2733 -0.1063
vn 0.9612 0.2748 -0.0250
vn 0.9341 0.3564 -0.0199
vn 0.9326 0.3606 -0.0126
vn 0.8939 0.4285 0.1319
vn 0.8747 0.4485 0.1836
vn -0.5330 0.3379 0.7757
vn -0.0000 1.0000 -0.0000
vn -0.9776 0.0573 0.2024
vn -0.9761 -0.0000 0.2172
vn -0.0000 -0.0000 -1.0000
vn -0.0000 -0.4637 -0.8860
vn -0.7332 -0.3737 -0.5681
vn -0.1185 -0.4392 -0.8905
vn 0.3228 -0.6660 -0.6725
vn 0.3943 -0.6728 -0.6260
vn 0.3941 -0.6470 -0.6527
vn 0.5281 -0.5130 -0.6767
vn 0.5480 -0.5036 -0.6679
vn 0.5976 -0.5047 -0.6231
vn 0.5963 -0.4618 -0.6566
vn 0.7828 -0.1665 -0.5996
vn 0.7947 -0.1457 -0.5892
vn 0.8288 -0.0896 -0.5523
vn 0.9687 0.0213 -0.2473
vn 0.9751 0.0055 -0.2216
vn 0.9633 -0.1553 -0.2189
vn 0.8309 -0.0777 -0.5510
vn 0.8747 -0.0000 -0.4847
vn 0.8864 0.0245 -0.4623
vn 0.9583 0.2472 -0.1431
vn 0.9615 0.2174 -0.1681
vn 0.9415 0.2988 -0.1560
vn 0.9476 0.3007 -0.1082
vn 0.9435 0.3156 -0.1012
vn 0.9407 0.3015 -0.1557
vn 0.8288 0.4887 0.2725
vn 0.8246 0.4911 0.2808
vn 0.1600 -0.4845 -0.8600
vn 0.3572 -0.6438 -0.6768
vn 0.2853 -0.5023 -0.8163
vn 0.3117 -0.5090 -0.8023
vn 0.3386 -0.5172 -0.7860
vn 0.5038 -0.5063 -0.6999
vn 0.5674 -0.4817 -0.6678
vn 0.7185 -0.0193 -0.6953
vn 0.9687 0.0215 -0.2473
vn 0.9049 0.0803 -0.4179
vn 0.9395 0.1538 -0.3061
vn 0.7131 -0.0000 -0.7010
vn 0.9046 0.0821 -0.4183
vn 0.7048 0.0248 -0.7090
vn 0.7044 0.0333 -0.7090
vn 0.7105 0.0670 -0.7005
vn 0.7529 0.1973 -0.6278
vn 0.7620 0.2151 -0.6108
vn 0.7901 0.2726 -0.5490
vn 0.8227 0.2467 -0.5122
vn 0.9607 0.2022 -0.1904
vn 0.9489 0.2122 -0.2334
vn 0.9460 0.2516 -0.2047
vn 0.9410 0.2996 -0.1571
vn 0.9612 0.1997 -0.1905
vn 0.8839 0.2351 -0.4043
vn 0.9460 0.1845 -0.2665
vn 0.8808 0.2207 -0.4189
vn 0.9489 0.2110 -0.2345
s 0
f 1//1 2//1 3//1
f 1//2 3//2 4//2
f 1//3 4//3 5//3
f 1//4 5//4 13//4
f 1//4 13//4 27//4
f 1//4 27//4 50//4
f 1//4 50//4 49//4
f 1//4 49//4 63//4
f 1//4 63//4 72//4
f 1//4 72//4 54//4
f 1//4 54//4 28//4
f 1//4 28//4 14//4
f 1//4 14//4 6//4
f 1//5 6//5 15//5
f 1//5 15//5 34//5
f 1//5 34//5 58//5
f 1//5 58//5 35//5
f 1//6 35//6 17//6
f 1//5 17//5 16//5
f 1//5 16//5 7//5
f 1//7 7//7 2//7
f 2//8 7//8 8//8
f 2//9 8//9 3//9
f 3//10 8//10 9//10
f 3//11 9//11 10//11
f 3//12 10//12 11//12
f 3//13 11//13 4//13
f 4//14 11//14 5//14
f 5//15 12//15 13//15
f 5//16 11//16 12//16
f 6//17 14//17 15//17
f 7//18 16//18 8//18
f 8//19 16//19 9//19
f 9//20 16//20 17//20
f 9//21 17//21 18//21
f 9//22 18//22 19//22
f 9//23 19//23 10//23
f 10//24 20//24 39//24
f 10//24 39//24 21//24
f 10//25 21//25 11//25
f 10//26 19//26 22//26
f 10//27 22//27 23//27
f 10//28 23//28 20//28
f 11//29 21//29 24//29
f 11//30 24//30 25//30
f 11//31 25//31 12//31
f 12//32 25//32 26//32
f 12//33 26//33 27//33
f 12//34 27//34 13//34
f 14//35 28//35 29//35
f 14//36 29//36 30//36
f 14//37 30//37 15//37
f 15//38 30//38 31//38
f 15//39 31//39 32//39
f 15//40 32//40 33//40
f 15//41 33//41 34//41
f 17//42 35//42 18//42
f 18//43 35//43 58//43
f 18//43 58//43 57//43
f 18//43 57//43 33//43
f 18//43 33//43 32//43
f 18//43 32//43 31//43
f 18//43 31//43 56//43
f 18//43 56//43 70//43
f 18//43 70//43 59//43
f 18//43 59//43 36//43
f 18//44 36//44 37//44
f 18//45 37//45 19//45
f 19//46 37//46 36//46
f 19//46 36//46 59//46
f 19//46 59//46 69//46
f 19//46 69//46 68//46
f 19//46 68//46 67//46
f 19//46 67//46 66//46
f 19//46 66//46 62//46
f 19//46 62//46 47//46
f 19//46 47//46 46//46
f 19//46 46//46 45//46
f 19//46 45//46 61//46
f 19//46 61//46 60//46
f 19//46 60//46 38//46
f 19//46 38//46 40//46
f 19//46 40//46 23//46
f 19//46 23//46 22//46
f 20//47 38//47 39//47
f 20//48 23//48 40//48
f 20//49 40//49 38//49
f 21//50 39//50 41//50
f 21//51 41//51 24//51
f 24//52 41//52 42//52
f 24//53 42//53 43//53
f 24//54 43//54 44//54
f 24//55 44//55 25//55
f 25//56 44//56 45//56
f 25//57 45//57 46//57
f 25//58 46//58 47//58
f 25//59 47//59 26//59
f 26//60 48//60 49//60
f 26//61 49//61 50//61
f 26//62 50//62 27//62
f 26//63 47//63 51//63
f 26//64 51//64 52//64
f 26//65 52//65 48//65
f 28//66 53//66 29//66
f 28//67 54//67 53//67
f 29//68 53//68 55//68
f 29//69 55//69 30//69
f 30//70 55//70 31//70
f 31//71 55//71 56//71
f 33//72 57//72 34//72
f 34//73 57//73 58//73
f 38//74 60//74 39//74
f 39//75 42//75 41//75
f 39//76 60//76 61//76
f 39//77 61//77 45//77
f 39//78 45//78 42//78
f 42//79 45//79 43//79
f 43//80 45//80 44//80
f 47//81 62//81 51//81
f 48//82 63//82 49//82
f 48//83 52//83 64//83
f 48//84 64//84 63//84
f 51//85 62//85 52//85
f 52//86 65//86 64//86
f 52//87 62//87 66//87
f 52//88 66//88 67//88
f 52//89 67//89 68//89
f 52//90 68//90 69//90
f 52//91 69//91 59//91
f 52//92 59//92 70//92
f 52//93 70//93 65//93
f 53//94 54//94 71//94
f 53//95 71//95 64//95
f 53//96 64//96 56//96
f 53//97 56//97 55//97
f 54//98 72//98 71//98
f 56//99 64//99 70//99
f 63//100 64//100 72//100
f 64//101 65//101 70//101
f 64//102 71//102 72//102
