# Blender 4.1.0
# www.blender.org
mtllib convex_133.mtl
o convex_133
v 0.007170 -0.396602 -0.149245
v 0.007225 -0.396602 -0.148953
v -0.002643 -0.396602 -0.149245
v -0.003507 -0.377155 -0.149245
v 0.007331 -0.396602 -0.144392
v -0.004386 -0.395545 -0.149245
v -0.019885 -0.396602 -0.120142
v -0.003528 -0.377155 -0.149005
v -0.010311 -0.377155 -0.149245
v 0.007101 -0.396602 -0.143130
v -0.003534 -0.377155 -0.148953
v -0.011702 -0.388912 -0.149245
v -0.020131 -0.396602 -0.119682
v -0.010557 -0.377492 -0.149245
v -0.023443 -0.377155 -0.119682
v 0.004673 -0.395837 -0.135322
v 0.005343 -0.396602 -0.136430
v -0.004719 -0.377155 -0.144476
v -0.011808 -0.388702 -0.149245
v -0.020564 -0.394529 -0.119682
v -0.012836 -0.385443 -0.149245
v -0.005459 -0.396602 -0.119682
v -0.011702 -0.380898 -0.149245
v -0.023631 -0.377991 -0.119682
v -0.016312 -0.377155 -0.119682
v -0.012806 -0.385148 -0.149245
v 0.004058 -0.396448 -0.132581
v 0.004103 -0.396602 -0.132486
v 0.005006 -0.396602 -0.135322
v -0.009184 -0.377155 -0.132717
v -0.023583 -0.378958 -0.119682
v -0.000707 -0.396602 -0.123687
v -0.013415 -0.381612 -0.119682
v -0.000661 -0.396602 -0.123728
v -0.013906 -0.377155 -0.123054
v -0.009408 -0.377155 -0.132127
vn -0.0000 -1.0000 -0.0000
vn -0.0001 -1.0000 -0.0000
vn 0.0002 -1.0000 -0.0000
vn -0.0000 -0.0000 -1.0000
vn -0.0000 -0.0001 -1.0000
vn 0.8650 0.4750 -0.1616
vn 0.8755 0.4828 -0.0204
vn -0.4957 -0.8173 -0.2937
vn 0.8628 0.4998 0.0763
vn -0.0000 1.0000 -0.0000
vn 0.0011 1.0000 -0.0000
vn -0.0207 0.9998 -0.0000
vn 0.8583 0.5032 0.1000
vn 0.8466 0.5093 0.1545
vn -0.6269 -0.6915 -0.3590
vn -0.6745 -0.6446 -0.3600
vn -0.7607 0.5542 -0.3379
vn 0.8722 0.4322 0.2288
vn 0.8307 0.5165 0.2077
vn 0.8248 0.5216 0.2183
vn -0.8368 -0.4224 -0.3484
vn -0.9326 -0.1950 -0.3037
vn -0.9005 -0.2839 -0.3294
vn -0.0000 -0.0000 1.0000
vn -0.8749 0.2943 -0.3847
vn -0.8936 0.2319 -0.3843
vn -0.9026 0.2029 -0.3796
vn 0.8556 0.4302 0.2880
vn 0.8800 0.3835 0.2802
vn 0.8832 0.3849 0.2681
vn 0.7867 0.5411 0.2972
vn 0.7859 0.5415 0.2984
vn -0.9363 -0.1815 -0.3006
vn -0.9421 -0.0472 -0.3321
vn -0.9271 0.0952 -0.3626
vn 0.6098 0.3236 0.7235
vn 0.7115 0.4625 0.5291
vn 0.7180 0.4712 0.5124
vn 0.7683 0.4848 0.4180
vn 0.7858 0.5415 0.2987
vn 0.7632 0.5238 0.3783
vn 0.7592 0.5027 0.4134
vn 0.6281 0.3466 0.6967
s 0
f 1//1 2//1 5//1
f 1//2 5//2 10//2
f 1//1 10//1 17//1
f 1//3 17//3 29//3
f 1//1 29//1 28//1
f 1//1 28//1 34//1
f 1//1 34//1 32//1
f 1//1 32//1 22//1
f 1//1 22//1 13//1
f 1//2 13//2 7//2
f 1//1 7//1 3//1
f 1//4 3//4 6//4
f 1//4 6//4 12//4
f 1//5 12//5 19//5
f 1//4 19//4 21//4
f 1//4 21//4 26//4
f 1//4 26//4 23//4
f 1//4 23//4 14//4
f 1//4 14//4 9//4
f 1//4 9//4 4//4
f 1//6 4//6 2//6
f 2//7 4//7 5//7
f 3//8 7//8 6//8
f 4//9 8//9 5//9
f 4//10 9//10 15//10
f 4//10 15//10 25//10
f 4//10 25//10 35//10
f 4//10 35//10 36//10
f 4//11 36//11 30//11
f 4//10 30//10 18//10
f 4//10 18//10 11//10
f 4//12 11//12 8//12
f 5//13 8//13 11//13
f 5//14 11//14 10//14
f 6//15 7//15 12//15
f 7//16 13//16 12//16
f 9//17 14//17 15//17
f 10//18 16//18 17//18
f 10//19 11//19 16//19
f 11//20 18//20 16//20
f 12//21 13//21 19//21
f 13//22 20//22 21//22
f 13//23 21//23 19//23
f 13//24 22//24 33//24
f 13//24 33//24 25//24
f 13//24 25//24 15//24
f 13//24 15//24 24//24
f 13//24 24//24 31//24
f 13//24 31//24 20//24
f 14//25 23//25 15//25
f 15//26 23//26 26//26
f 15//27 26//27 24//27
f 16//28 27//28 28//28
f 16//29 28//29 29//29
f 16//30 29//30 17//30
f 16//31 18//31 27//31
f 18//32 30//32 27//32
f 20//33 31//33 21//33
f 21//34 31//34 24//34
f 21//35 24//35 26//35
f 22//36 32//36 33//36
f 25//37 33//37 34//37
f 25//38 34//38 35//38
f 27//39 34//39 28//39
f 27//40 30//40 36//40
f 27//41 36//41 35//41
f 27//42 35//42 34//42
f 32//43 34//43 33//43
