# Blender 4.1.0
# www.blender.org
mtllib convex_56.mtl
o convex_56
v 0.250817 -0.400510 -0.151683
v 0.250817 -0.400561 -0.151793
v 0.250673 -0.400484 -0.151683
v 0.250817 -0.406468 -0.151683
v 0.240669 -0.401087 -0.156083
v 0.237674 -0.398379 -0.151683
v 0.250817 -0.411627 -0.171262
v 0.246764 -0.411344 -0.172426
v 0.203612 -0.410461 -0.151683
v 0.233169 -0.450769 -0.186212
v 0.237697 -0.450769 -0.186624
v 0.250415 -0.438418 -0.177880
v 0.250817 -0.437572 -0.177706
v 0.236551 -0.405710 -0.165098
v 0.237674 -0.400922 -0.156427
v 0.234962 -0.398168 -0.151683
v 0.250817 -0.413650 -0.174773
v 0.250817 -0.413892 -0.175038
v 0.228584 -0.415589 -0.177857
v 0.228584 -0.413572 -0.175588
v 0.203612 -0.404260 -0.151683
v 0.203612 -0.450769 -0.188132
v 0.250817 -0.450769 -0.188797
v 0.233987 -0.405710 -0.165098
v 0.224047 -0.401836 -0.159342
v 0.233132 -0.398106 -0.151683
v 0.250817 -0.422812 -0.184067
v 0.228584 -0.417865 -0.179938
v 0.219504 -0.418566 -0.179635
v 0.222466 -0.405952 -0.164805
v 0.224005 -0.404431 -0.163008
v 0.203612 -0.410338 -0.162793
v 0.205969 -0.403435 -0.151683
v 0.204499 -0.410673 -0.164433
v 0.203612 -0.450769 -0.195158
v 0.250817 -0.450769 -0.195249
v 0.220798 -0.400964 -0.156752
v 0.224047 -0.398420 -0.151683
v 0.228584 -0.398064 -0.151683
v 0.230317 -0.398069 -0.151683
v 0.219504 -0.404560 -0.161826
v 0.250817 -0.444707 -0.193109
v 0.244338 -0.447054 -0.196583
v 0.244869 -0.437505 -0.192280
v 0.237674 -0.445914 -0.197312
v 0.232365 -0.428183 -0.188059
v 0.229837 -0.428183 -0.188059
v 0.216556 -0.418927 -0.179369
v 0.219504 -0.428977 -0.187335
v 0.203612 -0.411127 -0.163998
v 0.212383 -0.401242 -0.151683
v 0.203612 -0.414898 -0.169534
v 0.219370 -0.402290 -0.158178
v 0.203612 -0.446605 -0.193444
v 0.207378 -0.450769 -0.196936
v 0.250817 -0.450619 -0.195208
v 0.245271 -0.450769 -0.196908
v 0.242582 -0.448762 -0.197513
v 0.217526 -0.399710 -0.151683
v 0.219273 -0.399359 -0.151683
v 0.222166 -0.398787 -0.151683
v 0.250817 -0.449025 -0.194741
v 0.241311 -0.446157 -0.197105
v 0.237674 -0.449056 -0.197972
v 0.224047 -0.450769 -0.198499
v 0.219504 -0.450769 -0.198347
v 0.219504 -0.431252 -0.188590
v 0.203612 -0.418876 -0.174470
v 0.203612 -0.414970 -0.169626
v 0.215793 -0.431768 -0.188265
v 0.205063 -0.428745 -0.182825
v 0.210414 -0.438980 -0.191432
v 0.203612 -0.445341 -0.192834
v 0.204319 -0.442674 -0.191890
v 0.207350 -0.441766 -0.192325
v 0.244010 -0.450769 -0.197284
v 0.242429 -0.450769 -0.197733
v 0.239384 -0.450769 -0.197999
v 0.203612 -0.431232 -0.184136
v 0.205849 -0.440136 -0.190909
v 0.205872 -0.436576 -0.188503
v 0.203612 -0.433084 -0.185437
v 0.203612 -0.443061 -0.191647
v 0.203612 -0.442086 -0.191111
v 0.203612 -0.437861 -0.188645
v 0.203612 -0.436050 -0.187431
vn 0.1620 0.8953 -0.4150
vn -0.0000 -0.0133 0.9999
vn -0.0000 -0.0000 1.0000
vn -0.0000 0.0001 1.0000
vn -0.0000 -0.0001 1.0000
vn 1.0000 -0.0000 -0.0000
vn 1.0000 -0.0000 -0.0002
vn 0.1429 0.8834 -0.4464
vn 0.1440 0.8893 -0.4341
vn 0.1986 0.8521 -0.4843
vn 0.1589 0.8618 -0.4816
vn 0.0530 -0.6269 0.7773
vn 0.0703 -0.6305 0.7730
vn 0.0848 -0.6324 0.7700
vn 0.7135 -0.4496 0.5374
vn 0.1040 0.8649 -0.4911
vn 0.1023 0.8767 -0.4700
vn 0.1190 0.8604 -0.4956
vn 0.0684 0.8793 -0.4713
vn 0.1998 0.8490 -0.4892
vn 0.0296 0.7381 -0.6740
vn 0.0292 0.7378 -0.6744
vn 0.0240 0.7472 -0.6642
vn 0.0072 0.7976 -0.6032
vn -1.0000 -0.0000 -0.0000
vn -1.0000 -0.0000 -0.0001
vn -0.0481 -0.6699 0.7409
vn -0.0000 -1.0000 -0.0000
vn 0.1235 -0.6549 0.7455
vn 0.7150 -0.4498 0.5352
vn -0.0000 0.8296 -0.5584
vn 0.0458 0.8720 -0.4874
vn -0.0000 0.8002 -0.5997
vn 0.0445 0.8748 -0.4824
vn 0.0299 0.8842 -0.4661
vn 0.0348 0.7110 -0.7024
vn 0.0131 0.6747 -0.7379
vn -0.0765 0.6728 -0.7359
vn -0.1142 0.7425 -0.6600
vn -0.1440 0.7678 -0.6243
vn -0.0778 0.7928 -0.6044
vn -0.0209 0.8052 -0.5927
vn -0.2957 0.8450 -0.4456
vn -0.4860 0.7667 -0.4195
vn -0.0164 0.8162 -0.5776
vn -0.0793 0.9104 -0.4061
vn -0.0715 0.9109 -0.4063
vn 0.0026 0.8965 -0.4430
vn 0.0118 0.8934 -0.4490
vn -0.1327 0.8097 -0.5716
vn -0.1806 0.8100 -0.5580
vn -0.2027 0.8226 -0.5313
vn 0.3365 0.3594 -0.8704
vn 0.2738 0.3824 -0.8825
vn 0.0773 0.4624 -0.8833
vn 0.0521 0.4742 -0.8789
vn -0.0000 0.5965 -0.8026
vn -0.0086 0.6178 -0.7863
vn -0.0735 0.6113 -0.7880
vn -0.1502 0.7677 -0.6230
vn -0.1015 0.5916 -0.7998
vn -0.1438 0.5885 -0.7956
vn -0.2150 0.7709 -0.5996
vn -0.2178 0.7831 -0.5825
vn -0.5718 0.6864 -0.4494
vn -0.2911 0.8513 -0.4365
vn -0.2934 0.8455 -0.4462
vn -0.2163 0.7700 -0.6002
vn -0.5730 0.6774 -0.4614
vn -0.2445 0.8199 -0.5176
vn -0.2437 0.8194 -0.5188
vn -0.4001 0.3488 -0.8475
vn 0.2853 0.0948 -0.9537
vn 0.3039 0.1952 -0.9325
vn 0.3302 0.2489 -0.9105
vn -0.2631 0.8832 -0.3883
vn -0.1847 0.9196 -0.3468
vn -0.1820 0.9204 -0.3462
vn -0.1796 0.9206 -0.3469
vn -0.2429 0.8196 -0.5189
vn 0.3499 0.3312 -0.8763
vn 0.3374 0.2647 -0.9034
vn 0.2391 0.2631 -0.9347
vn 0.2662 0.3837 -0.8843
vn 0.0810 0.4598 -0.8843
vn 0.0693 0.2051 -0.9763
vn 0.0120 0.2056 -0.9786
vn -0.0317 0.3204 -0.9468
vn -0.0661 0.4385 -0.8963
vn -0.0000 0.4626 -0.8865
vn -0.0865 0.4455 -0.8911
vn -0.0980 0.4807 -0.8714
vn -0.2283 0.7579 -0.6111
vn -0.2180 0.7685 -0.6015
vn -0.2249 0.5639 -0.7946
vn -0.2425 0.5622 -0.7907
vn -0.2824 0.5953 -0.7522
vn -0.1356 0.4786 -0.8675
vn -0.1554 0.4921 -0.8566
vn -0.4004 0.3983 -0.8252
vn -0.3472 0.3981 -0.8491
vn -0.2554 0.4401 -0.8609
vn -0.1529 0.4501 -0.8798
vn -0.1036 0.4426 -0.8907
vn 0.2845 0.0936 -0.9541
vn 0.2722 0.0843 -0.9585
vn 0.0866 0.1020 -0.9910
vn 0.0800 0.1922 -0.9781
vn 0.0325 0.0482 -0.9983
vn -0.1000 0.4449 -0.8900
vn -0.3257 0.5825 -0.7447
vn -0.2276 0.5288 -0.8177
vn -0.2444 0.5441 -0.8027
vn -0.2450 0.5453 -0.8016
vn -0.2444 0.5574 -0.7935
vn -0.2438 0.5597 -0.7920
vn -0.2248 0.5128 -0.8286
vn -0.4870 0.4033 -0.7747
vn -0.2643 0.4822 -0.8352
vn -0.4918 0.4195 -0.7630
vn -0.4700 0.4449 -0.7623
vn -0.3103 0.4997 -0.8087
vn -0.2646 0.5370 -0.8010
vn -0.2618 0.5385 -0.8009
vn -0.2480 0.5436 -0.8019
s 0
f 1//1 2//1 3//1
f 1//2 3//2 6//2
f 1//3 6//3 16//3
f 1//4 16//4 26//4
f 1//3 26//3 40//3
f 1//5 40//5 39//5
f 1//3 39//3 38//3
f 1//3 38//3 61//3
f 1//3 61//3 60//3
f 1//3 60//3 59//3
f 1//3 59//3 51//3
f 1//3 51//3 33//3
f 1//3 33//3 21//3
f 1//3 21//3 9//3
f 1//3 9//3 4//3
f 1//6 4//6 13//6
f 1//6 13//6 23//6
f 1//6 23//6 36//6
f 1//7 36//7 56//7
f 1//6 56//6 62//6
f 1//6 62//6 42//6
f 1//6 42//6 27//6
f 1//6 27//6 18//6
f 1//6 18//6 17//6
f 1//7 17//7 7//7
f 1//6 7//6 2//6
f 2//8 5//8 6//8
f 2//9 6//9 3//9
f 2//10 7//10 8//10
f 2//11 8//11 5//11
f 4//12 9//12 10//12
f 4//13 10//13 11//13
f 4//14 11//14 12//14
f 4//15 12//15 13//15
f 5//16 14//16 15//16
f 5//17 15//17 6//17
f 5//18 8//18 14//18
f 6//19 15//19 16//19
f 7//20 17//20 8//20
f 8//21 17//21 18//21
f 8//22 18//22 19//22
f 8//23 19//23 20//23
f 8//24 20//24 14//24
f 9//25 21//25 32//25
f 9//25 32//25 50//25
f 9//25 50//25 52//25
f 9//26 52//26 69//26
f 9//25 69//25 68//25
f 9//25 68//25 79//25
f 9//25 79//25 82//25
f 9//25 82//25 86//25
f 9//25 86//25 85//25
f 9//25 85//25 84//25
f 9//25 84//25 83//25
f 9//25 83//25 73//25
f 9//25 73//25 54//25
f 9//25 54//25 35//25
f 9//25 35//25 22//25
f 9//27 22//27 10//27
f 10//28 22//28 35//28
f 10//28 35//28 55//28
f 10//28 55//28 66//28
f 10//28 66//28 65//28
f 10//28 65//28 78//28
f 10//28 78//28 77//28
f 10//28 77//28 76//28
f 10//28 76//28 57//28
f 10//28 57//28 36//28
f 10//28 36//28 23//28
f 10//28 23//28 11//28
f 11//29 23//29 12//29
f 12//30 23//30 13//30
f 14//31 24//31 25//31
f 14//32 25//32 15//32
f 14//33 20//33 24//33
f 15//34 25//34 16//34
f 16//35 25//35 26//35
f 18//36 27//36 19//36
f 19//37 27//37 28//37
f 19//38 28//38 29//38
f 19//39 29//39 20//39
f 20//40 29//40 30//40
f 20//41 30//41 31//41
f 20//42 31//42 24//42
f 21//43 33//43 34//43
f 21//44 34//44 32//44
f 24//45 31//45 25//45
f 25//46 37//46 38//46
f 25//47 38//47 39//47
f 25//48 39//48 40//48
f 25//49 40//49 26//49
f 25//50 31//50 30//50
f 25//51 30//51 41//51
f 25//52 41//52 37//52
f 27//53 42//53 43//53
f 27//54 43//54 44//54
f 27//55 44//55 45//55
f 27//56 45//56 46//56
f 27//57 46//57 47//57
f 27//58 47//58 28//58
f 28//59 47//59 29//59
f 29//60 48//60 30//60
f 29//61 47//61 49//61
f 29//62 49//62 48//62
f 30//63 48//63 34//63
f 30//64 34//64 41//64
f 32//65 34//65 50//65
f 33//66 51//66 37//66
f 33//67 37//67 34//67
f 34//68 48//68 52//68
f 34//69 52//69 50//69
f 34//70 37//70 53//70
f 34//71 53//71 41//71
f 35//72 54//72 55//72
f 36//73 57//73 58//73
f 36//74 58//74 43//74
f 36//75 43//75 56//75
f 37//76 51//76 59//76
f 37//77 59//77 60//77
f 37//78 60//78 61//78
f 37//79 61//79 38//79
f 37//80 41//80 53//80
f 42//81 62//81 43//81
f 43//82 62//82 56//82
f 43//83 58//83 63//83
f 43//84 63//84 44//84
f 44//85 63//85 45//85
f 45//86 63//86 64//86
f 45//87 64//87 65//87
f 45//88 65//88 66//88
f 45//89 66//89 47//89
f 45//90 47//90 46//90
f 47//91 66//91 67//91
f 47//92 67//92 49//92
f 48//93 68//93 69//93
f 48//94 69//94 52//94
f 48//95 49//95 70//95
f 48//96 70//96 71//96
f 48//97 71//97 68//97
f 49//98 67//98 72//98
f 49//99 72//99 70//99
f 54//100 73//100 74//100
f 54//101 74//101 55//101
f 55//102 74//102 75//102
f 55//103 75//103 72//103
f 55//104 72//104 66//104
f 57//105 76//105 58//105
f 58//106 76//106 77//106
f 58//107 77//107 78//107
f 58//107 78//107 64//107
f 58//108 64//108 63//108
f 64//109 78//109 65//109
f 66//110 72//110 67//110
f 68//111 71//111 79//111
f 70//112 72//112 80//112
f 70//113 80//113 81//113
f 70//114 81//114 82//114
f 70//115 82//115 79//115
f 70//116 79//116 71//116
f 72//117 75//117 80//117
f 73//118 83//118 74//118
f 74//119 80//119 75//119
f 74//120 83//120 84//120
f 74//121 84//121 85//121
f 74//122 85//122 80//122
f 80//123 85//123 86//123
f 80//124 86//124 82//124
f 80//125 82//125 81//125
