# Blender 4.1.0
# www.blender.org
mtllib convex_29.mtl
o convex_29
v -0.026683 -0.419412 -0.027678
v -0.026683 -0.419781 -0.026263
v -0.026683 -0.419444 -0.027694
v -0.026696 -0.419420 -0.027694
v -0.030613 -0.422086 -0.027694
v -0.028821 -0.423829 -0.019069
v -0.026683 -0.422118 -0.020935
v -0.032458 -0.424255 -0.024684
v -0.026683 -0.426817 -0.027694
v -0.032817 -0.423837 -0.027694
v -0.037730 -0.441795 -0.009863
v -0.036394 -0.447996 -0.002203
v -0.033365 -0.446381 -0.000937
v -0.026683 -0.434631 -0.007986
v -0.026683 -0.423475 -0.018788
v -0.031882 -0.425178 -0.021718
v -0.037494 -0.432929 -0.019141
v -0.046580 -0.446437 -0.014538
v -0.032860 -0.423877 -0.027694
v -0.046893 -0.438647 -0.027694
v -0.045696 -0.438390 -0.025431
v -0.026683 -0.456284 -0.001398
v -0.050397 -0.497606 -0.024734
v -0.051358 -0.495582 -0.027694
v -0.051122 -0.455529 -0.010094
v -0.038532 -0.452806 0.000466
v -0.037115 -0.451642 0.000466
v -0.034931 -0.450164 0.000466
v -0.026683 -0.447409 0.000466
v -0.026683 -0.445634 -0.000629
v -0.026683 -0.440406 -0.004033
v -0.026683 -0.435201 -0.007481
v -0.050756 -0.447000 -0.019882
v -0.050350 -0.443048 -0.027694
v -0.047594 -0.439932 -0.026671
v -0.026683 -0.458364 0.000466
v -0.049782 -0.498529 -0.021718
v -0.053249 -0.498200 -0.027694
v -0.051703 -0.454629 -0.012633
v -0.053213 -0.458147 -0.012633
v -0.051627 -0.458147 -0.009433
v -0.043715 -0.458726 0.000466
v -0.051118 -0.444333 -0.027694
v -0.051521 -0.445642 -0.026263
v -0.057544 -0.458147 -0.026263
v -0.050157 -0.443369 -0.026263
v -0.046374 -0.494498 0.000466
v -0.046112 -0.497164 -0.000921
v -0.046112 -0.497164 -0.002456
v -0.050859 -0.501316 -0.015998
v -0.054140 -0.498200 -0.027694
v -0.059320 -0.462516 -0.026150
v -0.060271 -0.463922 -0.027592
v -0.060211 -0.468652 -0.023524
v -0.052631 -0.489414 0.000466
v -0.051710 -0.484707 0.000466
v -0.044878 -0.461898 0.000466
v -0.051610 -0.445233 -0.027694
v -0.057116 -0.456774 -0.027694
v -0.048302 -0.497630 0.000466
v -0.050673 -0.501453 -0.009132
v -0.050713 -0.501429 -0.012633
v -0.050896 -0.501316 -0.015998
v -0.056238 -0.497983 -0.027694
v -0.060244 -0.463842 -0.027694
v -0.060274 -0.463914 -0.027694
v -0.060646 -0.467191 -0.027694
v -0.060211 -0.470893 -0.023524
v -0.053293 -0.494457 0.000466
v -0.053263 -0.494024 0.000466
v -0.048728 -0.497774 0.000466
v -0.048981 -0.497783 0.000466
v -0.051128 -0.501453 -0.009132
v -0.051085 -0.501429 -0.012633
v -0.056657 -0.496682 -0.027694
v -0.052438 -0.497766 0.000466
v -0.060547 -0.469833 -0.027694
v -0.058851 -0.485510 -0.027694
v -0.058658 -0.485406 -0.026263
v -0.057106 -0.494498 -0.027694
vn 1.0000 -0.0000 -0.0000
vn 1.0000 -0.0000 -0.0002
vn 0.6369 0.3532 -0.6852
vn -0.5619 0.8256 0.0517
vn -0.5505 0.8078 0.2108
vn -0.3571 0.8554 0.3752
vn -0.5541 0.7984 0.2357
vn -0.5363 0.7936 0.2872
vn -0.0000 -0.0000 -1.0000
vn -0.0000 0.0002 -1.0000
vn -0.0000 0.0001 -1.0000
vn -0.6119 0.7702 0.1799
vn -0.5803 0.5805 0.5712
vn -0.5579 0.5854 0.5883
vn -0.3793 0.6250 0.6823
vn -0.2052 0.6808 0.7031
vn -0.2058 0.8273 0.5228
vn -0.6101 0.7153 0.3409
vn -0.6521 0.6181 0.4390
vn -0.6270 0.5936 0.5044
vn -0.5970 0.5801 0.5542
vn -0.6683 0.7218 0.1800
vn -0.7131 0.6775 0.1804
vn -0.7043 0.6437 0.2994
vn -0.6970 0.6352 0.3328
vn 0.8844 -0.3108 -0.3483
vn 0.8295 -0.2976 -0.4727
vn -0.5971 0.5727 0.5617
vn -0.5963 0.5719 0.5634
vn -0.5867 0.5763 0.5689
vn -0.5573 0.5782 0.5959
vn -0.4065 0.4946 0.7682
vn -0.2960 0.4374 0.8491
vn -0.1309 0.3919 0.9106
vn -0.0975 0.5223 0.8472
vn -0.0992 0.5430 0.8339
vn -0.1070 0.5491 0.8289
vn -0.3514 0.6204 0.7011
vn -0.6956 0.6306 0.3441
vn -0.6813 0.6217 0.3864
vn -0.6606 0.5987 0.4530
vn -0.6769 0.5673 0.4691
vn -0.7652 0.6011 0.2306
vn -0.7126 0.6318 0.3051
vn -0.7141 0.6240 0.3171
vn 0.8845 -0.3113 -0.3475
vn 0.8901 -0.3521 -0.2893
vn 0.5209 -0.7807 -0.3452
vn 0.6754 -0.4880 -0.5529
vn -0.8346 0.4304 0.3439
vn -0.8673 0.3721 0.3307
vn -0.8617 0.2742 0.4270
vn -0.7377 0.2957 0.6070
vn -0.6085 0.5327 0.5881
vn -0.0000 -0.0000 1.0000
vn -0.8499 0.4854 0.2051
vn -0.8834 0.4255 0.1964
vn -0.8827 0.3770 0.2805
vn -0.8815 0.3782 0.2828
vn -0.7567 0.5962 0.2683
vn -0.8111 0.5379 0.2300
vn -0.8392 0.5015 0.2102
vn -0.7650 0.5987 0.2374
vn 0.5947 -0.3241 0.7358
vn 0.8942 -0.4477 -0.0000
vn 0.8897 -0.4350 -0.1387
vn 0.8217 -0.5578 -0.1170
vn 0.4651 -0.8271 -0.3154
vn -0.0000 -0.9663 -0.2574
vn -0.8864 0.3674 0.2817
vn -0.9042 0.2882 0.3154
vn -0.9071 0.2677 0.3246
vn -0.8933 0.1594 0.4202
vn -0.8834 0.1670 0.4378
vn -0.8753 0.1713 0.4522
vn -0.7620 0.2282 0.6060
vn -0.7436 0.2728 0.6104
vn -0.8617 0.4711 0.1888
vn -0.8866 0.4271 0.1778
vn -0.8935 0.4262 0.1412
vn -0.9083 0.4025 0.1141
vn -0.8993 0.3714 0.2310
vn 0.5534 -0.3407 0.7600
vn 0.3594 -0.8941 0.2674
vn 0.6850 -0.7285 -0.0000
vn 0.6949 -0.7190 -0.0128
vn 0.7411 -0.6691 -0.0547
vn -0.0000 -0.9994 -0.0336
vn -0.1001 -0.9680 -0.2301
vn -0.9218 0.3830 0.0598
vn -0.9928 0.1128 0.0410
vn -0.9841 0.1087 0.1408
vn -0.9116 0.4035 0.0787
vn -0.9946 -0.0000 0.1039
vn -0.9608 -0.0000 0.2771
vn -0.9381 0.0648 0.3403
vn -0.9100 0.1247 0.3954
vn 0.3072 -0.9077 0.2857
vn -0.0000 -0.9340 0.3572
vn -0.0000 -1.0000 -0.0068
vn 0.0330 -0.9355 0.3518
vn -0.4393 -0.8967 -0.0548
vn -0.5306 -0.8475 -0.0124
vn -0.8059 -0.5811 0.1132
vn -0.9438 -0.3039 0.1297
vn -0.9968 -0.0376 0.0707
vn -0.9928 -0.1074 0.0526
vn -0.9811 -0.1317 0.1418
vn -0.9794 -0.1334 0.1515
vn -0.9772 -0.1568 0.1431
vn -0.9731 -0.1890 0.1320
vn -0.9710 -0.1995 0.1318
vn -0.9595 -0.2477 0.1342
vn -0.0046 -0.9337 0.3580
s 0
f 1//1 2//1 7//1
f 1//1 7//1 15//1
f 1//1 15//1 14//1
f 1//1 14//1 32//1
f 1//1 32//1 31//1
f 1//1 31//1 30//1
f 1//1 30//1 29//1
f 1//1 29//1 36//1
f 1//1 36//1 22//1
f 1//1 22//1 9//1
f 1//2 9//2 3//2
f 1//3 3//3 4//3
f 1//4 4//4 5//4
f 1//5 5//5 2//5
f 2//6 6//6 7//6
f 2//7 5//7 8//7
f 2//8 8//8 6//8
f 3//9 9//9 24//9
f 3//9 24//9 38//9
f 3//9 38//9 51//9
f 3//9 51//9 64//9
f 3//9 64//9 75//9
f 3//9 75//9 80//9
f 3//9 80//9 78//9
f 3//9 78//9 77//9
f 3//9 77//9 67//9
f 3//9 67//9 66//9
f 3//10 66//10 65//10
f 3//9 65//9 59//9
f 3//9 59//9 58//9
f 3//9 58//9 43//9
f 3//9 43//9 34//9
f 3//9 34//9 20//9
f 3//9 20//9 19//9
f 3//11 19//11 10//11
f 3//9 10//9 5//9
f 3//9 5//9 4//9
f 5//12 10//12 8//12
f 6//13 11//13 12//13
f 6//14 12//14 13//14
f 6//15 13//15 14//15
f 6//16 14//16 15//16
f 6//17 15//17 7//17
f 6//18 8//18 16//18
f 6//19 16//19 17//19
f 6//20 17//20 18//20
f 6//21 18//21 11//21
f 8//22 10//22 19//22
f 8//23 19//23 20//23
f 8//24 20//24 21//24
f 8//25 21//25 16//25
f 9//26 22//26 23//26
f 9//27 23//27 24//27
f 11//28 18//28 25//28
f 11//29 25//29 26//29
f 11//30 26//30 12//30
f 12//31 26//31 13//31
f 13//32 26//32 27//32
f 13//33 27//33 28//33
f 13//34 28//34 29//34
f 13//35 29//35 30//35
f 13//36 30//36 31//36
f 13//37 31//37 32//37
f 13//38 32//38 14//38
f 16//39 21//39 33//39
f 16//40 33//40 17//40
f 17//41 33//41 18//41
f 18//42 33//42 25//42
f 20//43 34//43 35//43
f 20//44 35//44 21//44
f 21//45 35//45 33//45
f 22//46 36//46 23//46
f 23//47 36//47 37//47
f 23//48 37//48 38//48
f 23//49 38//49 24//49
f 25//50 33//50 39//50
f 25//51 39//51 40//51
f 25//52 40//52 41//52
f 25//53 41//53 42//53
f 25//54 42//54 26//54
f 26//55 42//55 57//55
f 26//55 57//55 56//55
f 26//55 56//55 55//55
f 26//55 55//55 70//55
f 26//55 70//55 69//55
f 26//55 69//55 76//55
f 26//55 76//55 72//55
f 26//55 72//55 71//55
f 26//55 71//55 60//55
f 26//55 60//55 47//55
f 26//55 47//55 36//55
f 26//55 36//55 29//55
f 26//55 29//55 28//55
f 26//55 28//55 27//55
f 33//56 43//56 44//56
f 33//57 44//57 45//57
f 33//58 45//58 40//58
f 33//59 40//59 39//59
f 33//60 35//60 46//60
f 33//61 46//61 34//61
f 33//62 34//62 43//62
f 34//63 46//63 35//63
f 36//64 47//64 48//64
f 36//65 48//65 49//65
f 36//66 49//66 37//66
f 37//67 49//67 50//67
f 37//68 50//68 38//68
f 38//69 50//69 63//69
f 38//69 63//69 51//69
f 40//70 45//70 52//70
f 40//71 52//71 53//71
f 40//72 53//72 54//72
f 40//73 54//73 55//73
f 40//74 55//74 41//74
f 41//75 55//75 56//75
f 41//76 56//76 57//76
f 41//77 57//77 42//77
f 43//78 58//78 44//78
f 44//79 58//79 45//79
f 45//80 58//80 59//80
f 45//81 59//81 53//81
f 45//82 53//82 52//82
f 47//83 60//83 48//83
f 48//84 60//84 61//84
f 48//85 61//85 49//85
f 49//86 61//86 62//86
f 49//87 62//87 50//87
f 50//88 62//88 74//88
f 50//88 74//88 63//88
f 51//89 63//89 64//89
f 53//90 65//90 66//90
f 53//91 66//91 67//91
f 53//92 67//92 54//92
f 53//93 59//93 65//93
f 54//94 67//94 68//94
f 54//95 68//95 69//95
f 54//96 69//96 70//96
f 54//97 70//97 55//97
f 60//98 71//98 61//98
f 61//99 72//99 73//99
f 61//100 73//100 74//100
f 61//100 74//100 62//100
f 61//101 71//101 72//101
f 63//102 74//102 64//102
f 64//103 74//103 73//103
f 64//104 73//104 76//104
f 64//105 76//105 75//105
f 67//106 77//106 68//106
f 68//107 77//107 78//107
f 68//108 78//108 79//108
f 68//109 79//109 69//109
f 69//110 79//110 78//110
f 69//111 78//111 80//111
f 69//112 80//112 75//112
f 69//113 75//113 76//113
f 72//114 76//114 73//114
