# Blender 4.1.0
# www.blender.org
mtllib convex_28.mtl
o convex_28
v 0.314440 -0.441593 -0.160918
v 0.315973 -0.442557 -0.160918
v 0.314440 -0.433997 -0.160918
v 0.314440 -0.447781 -0.192465
v 0.317706 -0.443230 -0.160918
v 0.314961 -0.433683 -0.160918
v 0.314440 -0.432624 -0.163615
v 0.314440 -0.447781 -0.203571
v 0.336284 -0.447781 -0.165686
v 0.341233 -0.447781 -0.160939
v 0.319580 -0.443582 -0.160918
v 0.319266 -0.432850 -0.160918
v 0.314927 -0.432579 -0.163473
v 0.314440 -0.432364 -0.166617
v 0.319471 -0.430802 -0.176220
v 0.335688 -0.447781 -0.188023
v 0.314440 -0.447257 -0.203483
v 0.343468 -0.447781 -0.160918
v 0.321167 -0.443863 -0.160918
v 0.322410 -0.432936 -0.160918
v 0.314440 -0.431814 -0.176220
v 0.324246 -0.431866 -0.176291
v 0.319471 -0.431193 -0.180766
v 0.331239 -0.433114 -0.164738
v 0.331239 -0.433114 -0.165536
v 0.344905 -0.447781 -0.174349
v 0.314440 -0.444423 -0.202543
v 0.314440 -0.440205 -0.200990
v 0.335473 -0.446677 -0.187755
v 0.344847 -0.446496 -0.174299
v 0.349238 -0.447781 -0.160918
v 0.332977 -0.434288 -0.160918
v 0.314440 -0.432135 -0.179860
v 0.328559 -0.434588 -0.180766
v 0.323041 -0.432331 -0.180766
v 0.330568 -0.433240 -0.168563
v 0.323913 -0.433880 -0.184900
v 0.314440 -0.434672 -0.194866
v 0.332891 -0.433864 -0.162968
v 0.337905 -0.435928 -0.160918
v 0.338096 -0.435986 -0.163039
v 0.346261 -0.447781 -0.171677
v 0.314440 -0.437095 -0.198661
v 0.327057 -0.436365 -0.188018
v 0.330085 -0.438863 -0.186887
v 0.331505 -0.437115 -0.183856
v 0.345634 -0.446110 -0.171677
v 0.349238 -0.447781 -0.161106
v 0.349201 -0.446689 -0.160918
v 0.332132 -0.436568 -0.180766
v 0.328566 -0.435694 -0.185346
v 0.314440 -0.435436 -0.196519
v 0.340433 -0.437240 -0.160918
v 0.340419 -0.437240 -0.161824
v 0.349132 -0.446411 -0.160918
v 0.339912 -0.437707 -0.164851
v 0.344922 -0.441814 -0.160918
vn -0.0000 -0.0000 1.0000
vn -1.0000 -0.0000 -0.0000
vn -0.5251 -0.8351 0.1638
vn -0.3568 -0.9187 0.1695
vn -0.4733 0.7850 0.3997
vn -0.0000 -1.0000 -0.0000
vn 0.0002 -1.0000 -0.0000
vn -0.1960 -0.9675 0.1599
vn -0.1861 -0.9632 0.1941
vn -0.0295 -0.1563 0.9873
vn -0.1747 0.9030 0.3925
vn -0.1970 0.8990 0.3911
vn -0.1190 0.9883 0.0953
vn -0.1431 0.9860 0.0854
vn 0.5852 0.1343 -0.7997
vn -0.0094 -0.0534 0.9985
vn -0.0102 -0.0573 0.9983
vn 0.0271 0.9907 0.1330
vn -0.0161 0.9911 0.1324
vn -0.1969 0.9788 0.0561
vn 0.2155 0.9729 -0.0837
vn -0.1965 0.9769 -0.0840
vn 0.0735 0.9896 0.1239
vn 0.1928 0.9812 -0.0000
vn 0.2170 0.9758 -0.0279
vn 0.5726 0.2581 -0.7782
vn 0.5712 0.2836 -0.7703
vn 0.5723 0.2970 -0.7643
vn 0.7844 0.2863 -0.5503
vn 0.8278 0.0591 -0.5580
vn 0.1232 0.9629 0.2399
vn -0.1983 0.9763 -0.0861
vn 0.3714 0.9079 -0.1943
vn 0.2989 0.9376 -0.1779
vn 0.3430 0.9323 -0.1148
vn 0.3981 0.9024 -0.1652
vn 0.2915 0.9143 -0.2811
vn 0.2572 0.9129 -0.3170
vn -0.2099 0.9641 -0.1630
vn 0.2323 0.9544 0.1876
vn 0.3591 0.9314 0.0596
vn 0.3843 0.9231 0.0093
vn 0.3863 0.9224 -0.0000
vn 0.4232 0.8965 -0.1311
vn 0.8903 0.0578 -0.4518
vn 0.5394 0.5048 -0.6740
vn 0.5708 0.4483 -0.6879
vn 0.6341 0.5025 -0.5877
vn 0.6345 0.5027 -0.5872
vn 0.7084 0.4979 -0.5002
vn 0.8884 0.3333 -0.3157
vn 0.6838 0.6638 -0.3030
vn 0.9994 0.0339 -0.0000
vn 0.3106 0.9333 0.1800
vn 0.4743 0.8559 -0.2060
vn 0.3695 0.9034 -0.2176
vn 0.4456 0.8788 -0.1704
vn 0.4760 0.8590 -0.1884
vn 0.3271 0.9055 -0.2703
vn 0.3081 0.8795 -0.3628
vn 0.3290 0.8572 -0.3962
vn 0.4606 0.8875 0.0172
vn 0.4780 0.8783 -0.0074
vn 0.5474 0.8099 -0.2108
vn 0.8981 0.3370 -0.2826
vn 0.9323 0.2313 -0.2782
vn 0.9595 0.0791 -0.2702
vn 0.4259 0.7153 -0.5540
vn 0.3341 0.8522 -0.4027
vn 0.5678 0.6634 -0.4873
vn 0.6342 0.5029 -0.5872
vn 0.5213 0.8159 -0.2502
vn 0.6340 0.7291 -0.2577
vn 0.6745 0.6843 -0.2770
vn 0.7126 0.6656 -0.2220
vn 0.7168 0.6626 -0.2172
vn 0.7201 0.6595 -0.2157
vn 0.5612 0.7986 -0.2172
vn 0.7137 0.7004 -0.0110
s 0
f 1//1 2//1 5//1
f 1//1 5//1 11//1
f 1//1 11//1 19//1
f 1//1 19//1 18//1
f 1//1 18//1 31//1
f 1//1 31//1 49//1
f 1//1 49//1 55//1
f 1//1 55//1 57//1
f 1//1 57//1 53//1
f 1//1 53//1 40//1
f 1//1 40//1 32//1
f 1//1 32//1 20//1
f 1//1 20//1 12//1
f 1//1 12//1 6//1
f 1//1 6//1 3//1
f 1//2 3//2 7//2
f 1//2 7//2 14//2
f 1//2 14//2 21//2
f 1//2 21//2 33//2
f 1//2 33//2 38//2
f 1//2 38//2 52//2
f 1//2 52//2 43//2
f 1//2 43//2 28//2
f 1//2 28//2 27//2
f 1//2 27//2 17//2
f 1//2 17//2 8//2
f 1//2 8//2 4//2
f 1//3 4//3 2//3
f 2//4 4//4 5//4
f 3//5 6//5 7//5
f 4//6 8//6 16//6
f 4//6 16//6 26//6
f 4//6 26//6 42//6
f 4//6 42//6 48//6
f 4//7 48//7 31//7
f 4//6 31//6 18//6
f 4//6 18//6 10//6
f 4//6 10//6 9//6
f 4//8 9//8 5//8
f 5//9 9//9 10//9
f 5//10 10//10 11//10
f 6//11 12//11 13//11
f 6//12 13//12 7//12
f 7//13 13//13 15//13
f 7//14 15//14 14//14
f 8//15 17//15 16//15
f 10//16 18//16 19//16
f 10//17 19//17 11//17
f 12//18 20//18 15//18
f 12//19 15//19 13//19
f 14//20 15//20 21//20
f 15//21 22//21 23//21
f 15//22 23//22 21//22
f 15//23 20//23 24//23
f 15//24 24//24 25//24
f 15//25 25//25 22//25
f 16//26 17//26 27//26
f 16//27 27//27 28//27
f 16//28 28//28 29//28
f 16//29 29//29 30//29
f 16//30 30//30 26//30
f 20//31 32//31 24//31
f 21//32 23//32 33//32
f 22//33 34//33 35//33
f 22//34 35//34 23//34
f 22//35 25//35 36//35
f 22//36 36//36 34//36
f 23//37 35//37 37//37
f 23//38 37//38 38//38
f 23//39 38//39 33//39
f 24//40 32//40 39//40
f 24//41 39//41 40//41
f 24//42 40//42 41//42
f 24//43 41//43 25//43
f 25//44 41//44 36//44
f 26//45 30//45 42//45
f 28//46 43//46 44//46
f 28//47 44//47 29//47
f 29//48 44//48 45//48
f 29//49 45//49 46//49
f 29//50 46//50 30//50
f 30//51 47//51 42//51
f 30//52 46//52 47//52
f 31//53 48//53 49//53
f 32//54 40//54 39//54
f 34//55 50//55 51//55
f 34//56 51//56 35//56
f 34//57 36//57 41//57
f 34//58 41//58 50//58
f 35//59 51//59 37//59
f 37//60 51//60 38//60
f 38//61 51//61 52//61
f 40//62 53//62 41//62
f 41//63 53//63 54//63
f 41//64 54//64 50//64
f 42//65 47//65 55//65
f 42//66 55//66 49//66
f 42//67 49//67 48//67
f 43//68 52//68 44//68
f 44//69 52//69 51//69
f 44//70 51//70 46//70
f 44//71 46//71 45//71
f 46//72 51//72 50//72
f 46//73 50//73 56//73
f 46//74 56//74 47//74
f 47//75 56//75 54//75
f 47//76 54//76 57//76
f 47//77 57//77 55//77
f 50//78 54//78 56//78
f 53//79 57//79 54//79
