# Blender 4.1.0
# www.blender.org
mtllib convex_138.mtl
o convex_138
v -0.045540 -0.305112 -0.185011
v -0.056486 -0.300584 -0.174687
v -0.054706 -0.300584 -0.174687
v -0.045540 -0.304017 -0.180867
v -0.045540 -0.314488 -0.185011
v -0.065148 -0.310561 -0.185011
v -0.056486 -0.300584 -0.172786
v -0.045540 -0.299241 -0.158044
v -0.069172 -0.310337 -0.183136
v -0.069733 -0.309828 -0.180761
v -0.069836 -0.309743 -0.177091
v -0.045540 -0.299987 -0.162469
v -0.045540 -0.308062 -0.149942
v -0.047804 -0.309668 -0.149942
v -0.050557 -0.311243 -0.149942
v -0.065037 -0.325614 -0.185004
v -0.066217 -0.325614 -0.185011
v -0.067500 -0.311475 -0.185011
v -0.051064 -0.301242 -0.155531
v -0.048602 -0.299819 -0.158044
v -0.075162 -0.313442 -0.153498
v -0.065809 -0.308713 -0.149942
v -0.065163 -0.308367 -0.149942
v -0.045540 -0.301283 -0.149942
v -0.070218 -0.313181 -0.185011
v -0.070837 -0.313695 -0.185011
v -0.075540 -0.317614 -0.185011
v -0.074723 -0.314260 -0.179477
v -0.075418 -0.313708 -0.158044
v -0.075781 -0.325614 -0.149942
v -0.082141 -0.325614 -0.185011
v -0.048602 -0.300813 -0.154556
v -0.062235 -0.307174 -0.149942
v -0.077434 -0.315941 -0.153498
v -0.079053 -0.317831 -0.149942
v -0.074796 -0.313754 -0.149942
v -0.077793 -0.319935 -0.185011
v -0.082420 -0.325614 -0.185004
v -0.082634 -0.325614 -0.183974
v -0.083340 -0.323205 -0.153498
v -0.081523 -0.320931 -0.153498
v -0.084531 -0.325614 -0.149942
v -0.081889 -0.325211 -0.185011
v -0.081717 -0.321125 -0.149942
v -0.084405 -0.325614 -0.153498
v -0.084542 -0.325614 -0.150041
v -0.083160 -0.323396 -0.149942
vn -0.0000 0.9158 -0.4017
vn 0.1865 0.9498 -0.2510
vn 1.0000 -0.0000 -0.0000
vn -0.0000 -0.0000 -1.0000
vn -0.2187 0.7869 -0.5770
vn -0.1218 0.9926 -0.0000
vn -0.0000 0.9968 -0.0804
vn -0.2235 0.7879 -0.5738
vn -0.4556 0.8423 -0.2882
vn -0.5611 0.8270 -0.0349
vn -0.5657 0.8246 -0.0000
vn 0.1554 0.9741 -0.1642
vn 0.2163 0.9537 -0.2089
vn 0.5722 -0.8067 0.1478
vn 0.4910 -0.8582 0.1497
vn 0.4901 -0.8587 0.1496
vn 0.0059 -0.0110 -0.9999
vn -0.2707 0.6967 -0.6643
vn -0.3734 0.9151 0.1522
vn -0.1853 0.9815 0.0481
vn -0.5660 0.8244 0.0015
vn -0.4821 0.8689 0.1125
vn -0.4692 0.8749 0.1199
vn -0.3946 0.9051 0.1585
vn -0.1801 0.9538 0.2404
vn -0.3781 0.6025 -0.7029
vn -0.4967 0.5976 -0.6294
vn -0.4980 0.5977 -0.6283
vn -0.6758 0.6704 -0.3065
vn -0.6752 0.6722 -0.3036
vn -0.6694 0.7418 -0.0408
vn -0.6573 0.7528 -0.0359
vn -0.6068 0.7948 -0.0124
vn -0.0000 -0.0000 1.0000
vn -0.0000 0.0001 1.0000
vn 0.4894 -0.8591 0.1500
vn -0.0000 -1.0000 -0.0000
vn 0.0001 -1.0000 -0.0000
vn -0.2688 0.9238 0.2725
vn -0.2661 0.9270 0.2642
vn -0.3678 0.9028 0.2230
vn -0.3154 0.8940 0.3183
vn -0.2565 0.9295 0.2649
vn -0.7400 0.6726 0.0023
vn -0.7398 0.6725 0.0206
vn -0.6855 0.7157 0.1335
vn -0.4853 0.8652 0.1259
vn -0.6842 0.6640 -0.3014
vn -0.7577 0.6171 -0.2125
vn -0.7786 0.6064 -0.1616
vn -0.8065 0.5877 -0.0651
vn -0.7804 0.6237 -0.0441
vn -0.7758 0.6296 -0.0414
vn -0.7731 0.6335 -0.0316
vn -0.0251 0.0158 -0.9996
vn -0.7734 0.6337 -0.0152
vn -0.7774 0.6289 -0.0083
vn -0.0321 0.0249 -0.9992
vn -0.9133 0.4038 -0.0531
vn -0.9140 0.4041 -0.0363
vn -0.8480 0.5252 0.0710
vn -0.8419 0.5350 0.0712
vn -0.7812 0.6242 -0.0087
vn -0.8466 0.5232 0.0973
s 0
f 1//1 2//1 3//1
f 1//2 3//2 4//2
f 1//3 4//3 12//3
f 1//3 12//3 8//3
f 1//3 8//3 24//3
f 1//3 24//3 13//3
f 1//3 13//3 5//3
f 1//4 5//4 17//4
f 1//4 17//4 31//4
f 1//4 31//4 43//4
f 1//4 43//4 37//4
f 1//4 37//4 27//4
f 1//4 27//4 26//4
f 1//4 26//4 25//4
f 1//4 25//4 18//4
f 1//4 18//4 6//4
f 1//5 6//5 2//5
f 2//6 7//6 8//6
f 2//7 8//7 3//7
f 2//8 6//8 9//8
f 2//9 9//9 10//9
f 2//10 10//10 11//10
f 2//11 11//11 7//11
f 3//12 8//12 12//12
f 3//13 12//13 4//13
f 5//14 13//14 14//14
f 5//15 14//15 15//15
f 5//16 15//16 16//16
f 5//17 16//17 17//17
f 6//18 18//18 9//18
f 7//19 19//19 20//19
f 7//20 20//20 8//20
f 7//21 11//21 21//21
f 7//22 21//22 22//22
f 7//23 22//23 23//23
f 7//24 23//24 19//24
f 8//25 20//25 24//25
f 9//26 18//26 25//26
f 9//27 25//27 26//27
f 9//28 26//28 27//28
f 9//29 27//29 28//29
f 9//30 28//30 10//30
f 10//31 28//31 29//31
f 10//32 29//32 11//32
f 11//33 29//33 21//33
f 13//34 24//34 33//34
f 13//34 33//34 23//34
f 13//34 23//34 22//34
f 13//34 22//34 36//34
f 13//34 36//34 35//34
f 13//34 35//34 44//34
f 13//34 44//34 47//34
f 13//34 47//34 42//34
f 13//34 42//34 30//34
f 13//34 30//34 15//34
f 13//35 15//35 14//35
f 15//36 30//36 16//36
f 16//37 30//37 42//37
f 16//38 42//38 46//38
f 16//37 46//37 45//37
f 16//37 45//37 39//37
f 16//37 39//37 38//37
f 16//37 38//37 31//37
f 16//37 31//37 17//37
f 19//39 24//39 32//39
f 19//40 32//40 20//40
f 19//41 23//41 33//41
f 19//42 33//42 24//42
f 20//43 32//43 24//43
f 21//44 29//44 34//44
f 21//45 34//45 35//45
f 21//46 35//46 36//46
f 21//47 36//47 22//47
f 27//48 37//48 28//48
f 28//49 37//49 38//49
f 28//50 38//50 39//50
f 28//51 39//51 40//51
f 28//52 40//52 41//52
f 28//53 41//53 29//53
f 29//54 41//54 34//54
f 31//55 38//55 43//55
f 34//56 41//56 35//56
f 35//57 41//57 44//57
f 37//58 43//58 38//58
f 39//59 45//59 40//59
f 40//60 45//60 46//60
f 40//61 46//61 47//61
f 40//62 47//62 44//62
f 40//63 44//63 41//63
f 42//64 47//64 46//64
