# Blender 4.1.0
# www.blender.org
mtllib convex_92.mtl
o convex_92
v -0.001566 -0.501458 0.089749
v -0.001566 -0.501458 0.089202
v -0.000685 -0.501458 0.089749
v -0.021839 -0.474109 0.099273
v -0.021839 -0.475601 0.098714
v -0.016790 -0.497742 0.090092
v -0.021839 -0.497734 0.087589
v -0.021839 -0.497746 0.087186
v -0.021839 -0.497773 0.084223
v -0.000685 -0.501458 0.089202
v 0.021701 -0.501350 0.075893
v -0.000043 -0.499042 0.090095
v -0.020990 -0.472170 0.099727
v -0.021839 -0.472793 0.099670
v 0.021949 -0.501350 0.076067
v 0.012753 -0.496811 0.085074
v -0.021839 -0.494688 0.090377
v -0.019695 -0.497069 0.089764
v -0.021839 -0.496546 0.089418
v -0.021839 -0.495280 0.084223
v 0.009397 -0.462161 0.067394
v 0.013058 -0.468928 0.067394
v 0.024388 -0.483937 0.067394
v 0.028976 -0.489687 0.067394
v 0.031063 -0.494496 0.068011
v 0.025383 -0.497834 0.070710
v 0.028645 -0.498431 0.070151
v 0.021949 -0.501350 0.075893
v 0.004250 -0.489953 0.089790
v -0.018090 -0.470916 0.099324
v 0.010469 -0.494496 0.086585
v 0.006518 -0.489953 0.089015
v -0.018090 -0.468693 0.099324
v -0.021839 -0.472105 0.099835
v 0.031063 -0.498119 0.072590
v 0.023032 -0.499042 0.077033
v 0.031063 -0.494496 0.073692
v 0.012929 -0.494496 0.085249
v -0.021839 -0.479886 0.090142
v 0.018247 -0.462161 0.067394
v -0.021839 -0.471385 0.094719
v -0.021839 -0.471312 0.094766
v -0.021839 -0.468393 0.097081
v -0.002933 -0.462161 0.082235
v 0.031006 -0.491245 0.067394
v 0.031063 -0.491284 0.067394
v 0.031063 -0.498104 0.069579
v 0.031063 -0.498119 0.071202
v 0.010878 -0.489699 0.086551
v -0.004352 -0.462161 0.092089
v 0.004405 -0.487164 0.089841
v -0.021331 -0.468354 0.099730
v -0.007386 -0.462161 0.092848
v -0.021839 -0.468735 0.099797
v 0.031063 -0.489964 0.073152
v 0.012975 -0.491049 0.085303
v 0.018128 -0.462161 0.067744
v 0.031063 -0.477105 0.067394
v -0.021839 -0.468393 0.099721
v -0.007396 -0.462161 0.091686
v -0.007210 -0.462161 0.087478
v -0.006350 -0.462161 0.086382
v 0.031063 -0.486718 0.072031
v 0.008864 -0.462161 0.081136
v 0.010640 -0.462161 0.078617
v 0.031063 -0.477478 0.067798
v 0.031063 -0.479202 0.068798
vn -0.0000 -1.0000 -0.0000
vn -0.0000 -0.3289 0.9444
vn -0.0333 -0.3506 0.9359
vn -0.0710 -0.3760 0.9239
vn -0.2069 -0.8861 0.4147
vn -0.1836 -0.9826 0.0292
vn -0.1812 -0.9834 0.0090
vn -0.1788 -0.9839 -0.0000
vn -0.1217 -0.9677 -0.2206
vn -0.0000 -1.0000 -0.0081
vn 0.1979 -0.1904 0.9616
vn 0.1165 -0.2470 0.9620
vn 0.0575 -0.2883 0.9558
vn 0.0047 -1.0000 -0.0000
vn 0.0048 -1.0000 -0.0000
vn 0.4370 -0.5407 0.7188
vn 0.3900 -0.2313 0.8913
vn -1.0000 -0.0000 -0.0000
vn -0.1869 -0.3932 0.9003
vn -0.1944 -0.4050 0.8934
vn -0.2485 -0.8304 0.4987
vn -0.2808 -0.8049 0.5228
vn -0.4743 -0.0000 -0.8804
vn -0.3116 -0.1686 -0.9351
vn -0.2783 -0.2101 -0.9372
vn -0.2751 -0.2195 -0.9360
vn -0.2712 -0.2372 -0.9328
vn -0.2632 -0.2949 -0.9186
vn -0.2358 -0.5191 -0.8216
vn -0.1801 -0.7716 -0.6101
vn -0.0000 -0.8914 -0.4532
vn 0.3068 -0.1132 0.9450
vn 0.2113 -0.1797 0.9608
vn 0.3882 -0.2039 0.8987
vn 0.3748 -0.1621 0.9128
vn 0.3210 -0.1201 0.9394
vn 0.1377 -0.0000 0.9905
vn 0.1269 0.0092 0.9919
vn 0.1052 -0.2320 0.9670
vn 0.3341 -0.9425 -0.0000
vn 0.4590 -0.5174 0.7223
vn 0.4551 -0.5167 0.7252
vn 0.4617 -0.5038 0.7300
vn 0.5339 -0.2460 0.8089
vn 0.5345 -0.1039 0.8388
vn 0.4751 -0.1020 0.8740
vn -0.2475 -0.4444 0.8610
vn -0.6621 0.2690 -0.6995
vn -0.0000 -0.0000 -1.0000
vn -0.0000 -0.0001 -1.0000
vn -0.6731 0.3505 -0.6512
vn -0.6665 0.4071 -0.6245
vn -0.6558 0.4691 -0.5915
vn -0.5974 0.6299 -0.4963
vn 0.0022 1.0000 -0.0000
vn -0.0010 1.0000 -0.0000
vn -0.0000 1.0000 -0.0000
vn -0.1433 -0.1867 -0.9719
vn -0.1278 -0.1868 -0.9740
vn 1.0000 -0.0000 -0.0000
vn -0.1607 -0.3936 -0.9051
vn -0.2209 -0.3577 -0.9073
vn 0.0187 -0.8999 -0.4357
vn 0.3302 -0.9439 -0.0087
vn 0.3219 -0.0941 0.9421
vn 0.3864 -0.0000 0.9223
vn 0.4769 -0.0544 0.8773
vn 0.4930 -0.0253 0.8697
vn 0.4857 0.0938 0.8691
vn 0.4502 0.0777 0.8895
vn 0.4263 0.0556 0.9029
vn 0.1255 0.0107 0.9920
vn 0.4375 0.0726 0.8963
vn 0.2114 0.4913 0.8450
vn 0.1603 0.5499 0.8197
vn 0.1220 0.0112 0.9925
vn 0.5512 0.0987 0.8285
vn 0.5497 0.0858 0.8309
vn 0.5373 -0.0205 0.8431
vn 0.5016 -0.0203 0.8649
vn 0.7349 0.6302 0.2506
vn -0.3962 0.9182 -0.0000
vn -0.4017 0.9156 -0.0178
vn -0.5861 0.6671 -0.4598
vn -0.5949 0.6369 -0.4902
vn 0.5490 0.1378 0.8244
vn 0.6059 0.2597 0.7519
vn 0.6127 0.2798 0.7392
vn -0.0350 0.2173 0.9755
vn -0.0733 0.8106 0.5811
vn -0.3945 0.9189 0.0035
vn 0.6748 0.5733 0.4647
vn 0.6745 0.5646 0.4757
vn 0.6749 0.5417 0.5011
vn 0.6312 0.3065 0.7125
vn 0.6546 0.3794 0.6538
s 0
f 1//1 2//1 10//1
f 1//1 10//1 3//1
f 1//2 3//2 4//2
f 1//3 4//3 5//3
f 1//4 5//4 6//4
f 1//5 6//5 7//5
f 1//6 7//6 8//6
f 1//7 8//7 9//7
f 1//8 9//8 2//8
f 2//9 9//9 11//9
f 2//10 11//10 28//10
f 2//10 28//10 10//10
f 3//11 12//11 13//11
f 3//12 13//12 14//12
f 3//13 14//13 4//13
f 3//14 10//14 28//14
f 3//15 28//15 15//15
f 3//16 15//16 16//16
f 3//17 16//17 12//17
f 4//18 14//18 34//18
f 4//18 34//18 54//18
f 4//18 54//18 59//18
f 4//18 59//18 43//18
f 4//18 43//18 42//18
f 4//18 42//18 41//18
f 4//18 41//18 39//18
f 4//18 39//18 20//18
f 4//18 20//18 9//18
f 4//18 9//18 8//18
f 4//18 8//18 7//18
f 4//18 7//18 19//18
f 4//18 19//18 17//18
f 4//18 17//18 5//18
f 5//19 17//19 6//19
f 6//20 17//20 18//20
f 6//21 18//21 7//21
f 7//22 18//22 19//22
f 9//23 20//23 21//23
f 9//24 21//24 22//24
f 9//25 22//25 23//25
f 9//26 23//26 24//26
f 9//27 24//27 25//27
f 9//28 25//28 26//28
f 9//29 26//29 27//29
f 9//30 27//30 11//30
f 11//31 27//31 28//31
f 12//32 29//32 30//32
f 12//33 30//33 13//33
f 12//34 16//34 31//34
f 12//35 31//35 32//35
f 12//36 32//36 29//36
f 13//37 30//37 33//37
f 13//38 33//38 34//38
f 13//39 34//39 14//39
f 15//40 28//40 48//40
f 15//40 48//40 35//40
f 15//41 35//41 36//41
f 15//42 36//42 16//42
f 16//43 36//43 35//43
f 16//44 35//44 37//44
f 16//45 37//45 38//45
f 16//46 38//46 31//46
f 17//47 19//47 18//47
f 20//48 39//48 21//48
f 21//49 40//49 58//49
f 21//49 58//49 46//49
f 21//50 46//50 45//50
f 21//49 45//49 24//49
f 21//49 24//49 23//49
f 21//49 23//49 22//49
f 21//51 39//51 41//51
f 21//52 41//52 42//52
f 21//53 42//53 43//53
f 21//54 43//54 44//54
f 21//55 44//55 62//55
f 21//56 62//56 61//56
f 21//57 61//57 60//57
f 21//57 60//57 53//57
f 21//57 53//57 50//57
f 21//57 50//57 64//57
f 21//57 64//57 65//57
f 21//57 65//57 57//57
f 21//57 57//57 40//57
f 24//58 45//58 25//58
f 25//59 45//59 46//59
f 25//60 46//60 58//60
f 25//60 58//60 66//60
f 25//60 66//60 67//60
f 25//60 67//60 63//60
f 25//60 63//60 55//60
f 25//60 55//60 37//60
f 25//60 37//60 35//60
f 25//60 35//60 48//60
f 25//60 48//60 47//60
f 25//61 47//61 27//61
f 25//62 27//62 26//62
f 27//63 47//63 28//63
f 28//64 47//64 48//64
f 29//65 32//65 30//65
f 30//66 32//66 33//66
f 31//67 38//67 32//67
f 32//68 38//68 49//68
f 32//69 49//69 50//69
f 32//70 50//70 51//70
f 32//71 51//71 33//71
f 33//72 52//72 34//72
f 33//73 51//73 50//73
f 33//74 50//74 53//74
f 33//75 53//75 52//75
f 34//76 52//76 54//76
f 37//77 55//77 49//77
f 37//78 49//78 56//78
f 37//79 56//79 38//79
f 38//80 56//80 49//80
f 40//81 57//81 58//81
f 43//82 59//82 60//82
f 43//83 60//83 61//83
f 43//84 61//84 62//84
f 43//85 62//85 44//85
f 49//86 55//86 50//86
f 50//87 55//87 63//87
f 50//88 63//88 64//88
f 52//89 59//89 54//89
f 52//90 53//90 59//90
f 53//91 60//91 59//91
f 57//92 65//92 58//92
f 58//93 65//93 64//93
f 58//94 64//94 66//94
f 63//95 67//95 64//95
f 64//96 67//96 66//96
