# Blender 4.1.0
# www.blender.org
mtllib convex_84.mtl
o convex_84
v 0.031063 -0.432886 0.015205
v 0.028497 -0.432737 0.015205
v 0.004198 -0.439865 0.038400
v 0.031063 -0.433754 0.016429
v 0.031063 -0.443076 0.015205
v 0.021588 -0.432673 0.015205
v 0.007814 -0.441551 0.038400
v 0.019440 -0.432707 0.015205
v 0.015824 -0.434134 0.015205
v 0.014793 -0.434633 0.015205
v 0.004198 -0.440154 0.035096
v 0.004198 -0.446486 0.038400
v 0.031063 -0.446355 0.031086
v 0.031063 -0.444401 0.016601
v 0.029214 -0.443687 0.015205
v 0.031063 -0.453373 0.038400
v 0.004198 -0.442158 0.015205
v 0.004198 -0.451484 0.021985
v 0.006551 -0.448936 0.038400
v 0.031063 -0.446817 0.019251
v 0.004198 -0.450260 0.015205
v 0.031063 -0.461271 0.038400
v 0.004198 -0.451537 0.020945
v 0.017134 -0.455955 0.038400
v 0.015385 -0.454983 0.038400
v 0.011672 -0.452883 0.038400
v 0.008142 -0.451400 0.035269
v 0.008871 -0.450851 0.038400
v 0.031063 -0.447738 0.020316
v 0.031063 -0.457822 0.033125
v 0.031063 -0.459426 0.035296
v 0.031063 -0.460882 0.037397
v 0.004198 -0.451366 0.016874
v 0.004198 -0.451537 0.019167
v 0.004198 -0.451523 0.018245
v 0.004198 -0.451419 0.017149
v 0.010746 -0.452237 0.038400
v 0.008934 -0.450898 0.038400
vn 0.0544 0.9370 0.3449
vn 0.2763 0.7839 0.5559
vn 1.0000 -0.0000 -0.0000
vn -0.0000 -0.0000 -1.0000
vn 0.0088 0.9532 0.3022
vn 0.3350 0.7185 0.6095
vn -0.0151 0.9582 0.2857
vn -0.3667 0.9292 0.0458
vn -0.4357 0.9001 0.0040
vn -0.5638 0.8228 -0.0720
vn -1.0000 -0.0000 -0.0000
vn -0.0000 -0.0000 1.0000
vn 0.3402 0.7131 0.6130
vn 0.2331 -0.7054 -0.6693
vn 0.3444 0.6774 0.6500
vn -0.5771 0.8126 -0.0819
vn -0.7056 -0.6779 0.2064
vn 0.2182 -0.7212 -0.6575
vn 0.1923 -0.7318 -0.6539
vn -0.3791 -0.9241 0.0471
vn -0.4808 -0.8650 0.1433
vn -0.4868 -0.8608 0.1483
vn -0.4947 -0.8556 0.1523
vn -0.6811 -0.7024 0.2067
vn -0.6126 -0.7419 0.2726
vn 0.1918 -0.7423 -0.6420
vn 0.1880 -0.7717 -0.6075
vn 0.1676 -0.7929 -0.5859
vn 0.1442 -0.8133 -0.5638
vn 0.1257 -0.8270 -0.5480
vn -0.3316 -0.9433 -0.0143
vn -0.2788 -0.9560 -0.0907
vn -0.2059 -0.9609 -0.1853
vn -0.0542 -0.9311 -0.3608
vn -0.3564 -0.9339 0.0278
vn -0.3406 -0.9402 -0.0000
vn -0.5544 -0.7943 0.2486
vn -0.5752 -0.7724 0.2693
vn -0.5725 -0.7746 0.2689
s 0
f 1//1 2//1 3//1
f 1//2 3//2 4//2
f 1//3 4//3 13//3
f 1//3 13//3 16//3
f 1//3 16//3 22//3
f 1//3 22//3 32//3
f 1//3 32//3 31//3
f 1//3 31//3 30//3
f 1//3 30//3 29//3
f 1//3 29//3 20//3
f 1//3 20//3 14//3
f 1//3 14//3 5//3
f 1//4 5//4 15//4
f 1//4 15//4 21//4
f 1//4 21//4 17//4
f 1//4 17//4 10//4
f 1//4 10//4 9//4
f 1//4 9//4 8//4
f 1//4 8//4 6//4
f 1//4 6//4 2//4
f 2//5 6//5 3//5
f 3//6 7//6 4//6
f 3//7 6//7 8//7
f 3//8 8//8 9//8
f 3//9 9//9 10//9
f 3//10 10//10 11//10
f 3//11 11//11 17//11
f 3//11 17//11 21//11
f 3//11 21//11 33//11
f 3//11 33//11 36//11
f 3//11 36//11 35//11
f 3//11 35//11 34//11
f 3//11 34//11 23//11
f 3//11 23//11 18//11
f 3//11 18//11 12//11
f 3//12 12//12 19//12
f 3//12 19//12 28//12
f 3//12 28//12 38//12
f 3//12 38//12 37//12
f 3//12 37//12 26//12
f 3//12 26//12 25//12
f 3//12 25//12 24//12
f 3//12 24//12 22//12
f 3//12 22//12 16//12
f 3//12 16//12 7//12
f 4//13 7//13 13//13
f 5//14 14//14 15//14
f 7//15 16//15 13//15
f 10//16 17//16 11//16
f 12//17 18//17 19//17
f 14//18 20//18 15//18
f 15//19 20//19 21//19
f 18//20 23//20 24//20
f 18//21 24//21 25//21
f 18//22 25//22 26//22
f 18//23 26//23 27//23
f 18//24 27//24 19//24
f 19//25 27//25 28//25
f 20//26 29//26 21//26
f 21//27 29//27 30//27
f 21//28 30//28 31//28
f 21//29 31//29 32//29
f 21//30 32//30 33//30
f 22//31 34//31 35//31
f 22//32 35//32 36//32
f 22//33 36//33 33//33
f 22//34 33//34 32//34
f 22//35 24//35 23//35
f 22//36 23//36 34//36
f 26//37 37//37 27//37
f 27//38 38//38 28//38
f 27//39 37//39 38//39
