# Blender 4.1.0
# www.blender.org
mtllib convex_33.mtl
o convex_33
v 0.314440 -0.447781 -0.192468
v 0.314440 -0.447781 -0.203568
v 0.314440 -0.449058 -0.192950
v 0.336283 -0.447781 -0.165687
v 0.314440 -0.453603 -0.205738
v 0.335686 -0.447781 -0.188021
v 0.335935 -0.449058 -0.188334
v 0.314440 -0.449322 -0.193053
v 0.339737 -0.465045 -0.169299
v 0.342255 -0.450403 -0.160918
v 0.341235 -0.447781 -0.160940
v 0.314440 -0.465286 -0.199853
v 0.314440 -0.456703 -0.206341
v 0.331236 -0.450928 -0.192343
v 0.344907 -0.447781 -0.174349
v 0.346739 -0.449058 -0.171679
v 0.336092 -0.453603 -0.188463
v 0.333639 -0.453603 -0.190731
v 0.339170 -0.465327 -0.171679
v 0.339989 -0.465045 -0.169299
v 0.344613 -0.452685 -0.160918
v 0.343634 -0.452332 -0.160918
v 0.341825 -0.449218 -0.160918
v 0.343467 -0.447781 -0.160918
v 0.314440 -0.465286 -0.200800
v 0.339102 -0.465365 -0.174778
v 0.314440 -0.458145 -0.206533
v 0.346258 -0.447781 -0.171679
v 0.349237 -0.447781 -0.161105
v 0.347968 -0.449058 -0.167133
v 0.349183 -0.451613 -0.161101
v 0.344606 -0.456352 -0.174277
v 0.344784 -0.453603 -0.174389
v 0.340900 -0.458145 -0.179805
v 0.335679 -0.456159 -0.187927
v 0.331147 -0.456393 -0.192343
v 0.340273 -0.465327 -0.171679
v 0.349200 -0.451652 -0.160918
v 0.347910 -0.452288 -0.160918
v 0.346917 -0.452670 -0.160918
v 0.349237 -0.447781 -0.160918
v 0.314440 -0.465226 -0.203001
v 0.340317 -0.465365 -0.174778
v 0.314440 -0.460395 -0.205694
v 0.349302 -0.449027 -0.160918
v 0.349278 -0.449058 -0.161329
v 0.341061 -0.462757 -0.176264
v 0.340385 -0.461287 -0.179046
v 0.327134 -0.461886 -0.192763
v 0.314440 -0.463647 -0.204229
v 0.314440 -0.462588 -0.204854
vn -1.0000 -0.0000 -0.0000
vn -0.7538 -0.2320 0.6148
vn -0.0000 1.0000 -0.0000
vn -0.0002 1.0000 -0.0000
vn 0.5636 0.2987 -0.7702
vn 0.5650 0.2882 -0.7731
vn -0.7522 -0.2395 0.6139
vn -0.6710 -0.2781 0.6874
vn -0.6692 -0.2545 0.6981
vn -0.7474 -0.2604 0.6112
vn -0.7392 -0.2764 0.6142
vn 0.5951 0.1825 -0.7826
vn 0.6012 0.1526 -0.7844
vn 0.7944 0.2862 -0.5358
vn 0.8371 0.0656 -0.5431
vn 0.8381 0.0444 -0.5437
vn 0.6782 0.0442 -0.7335
vn 0.6244 0.0936 -0.7755
vn -0.0000 -0.9931 0.1177
vn -0.0000 -0.9931 0.1176
vn -0.0000 -0.5612 0.8277
vn -0.1810 -0.5020 0.8457
vn -0.5056 -0.3615 0.7834
vn -0.1820 -0.9705 0.1583
vn -0.0000 -0.0000 1.0000
vn -0.3037 -0.1102 0.9464
vn -0.0099 0.0113 0.9999
vn -0.0032 -1.0000 -0.0000
vn -0.0160 -0.9998 0.0126
vn 0.6154 0.1040 -0.7813
vn 0.6206 0.0879 -0.7792
vn 0.8458 0.3186 -0.4280
vn 0.9049 0.3408 -0.2549
vn 0.9313 0.2631 -0.2518
vn 0.9537 -0.1552 -0.2578
vn 0.9472 -0.1833 -0.2631
vn 0.8649 -0.0762 -0.4961
vn 0.8496 -0.0526 -0.5247
vn 0.8483 -0.0763 -0.5239
vn 0.8419 -0.1141 -0.5274
vn 0.7869 -0.2458 -0.5660
vn 0.6817 -0.2540 -0.6861
vn 0.6679 -0.1792 -0.7224
vn 0.6492 -0.1489 -0.7459
vn -0.0000 -0.9999 0.0123
vn 0.7613 -0.6270 0.1652
vn 0.3210 -0.6511 0.6877
vn 0.2438 -0.6337 0.7342
vn 0.0036 -0.5622 0.8270
vn 0.0243 -0.9993 -0.0272
vn -0.0000 -1.0000 -0.0030
vn 0.6398 -0.2685 -0.7201
vn 0.9986 0.0521 -0.0000
vn 0.9972 0.0428 -0.0615
vn 0.9731 0.0698 -0.2196
vn 0.9739 -0.0558 -0.2198
vn 0.9937 -0.0461 -0.1021
vn 0.9008 -0.3999 -0.1690
vn 0.8759 -0.4020 -0.2670
vn 0.8511 -0.3496 -0.3916
vn 0.8395 -0.2537 -0.4805
vn 0.8946 -0.4168 -0.1610
vn 0.7804 -0.2648 -0.5664
vn 0.6439 -0.4216 -0.6385
vn 0.6498 -0.4563 -0.6078
vn 0.6401 -0.4184 -0.6444
vn 0.6402 -0.3905 -0.6616
vn 0.6396 -0.2750 -0.7179
vn 0.8305 -0.5568 0.0186
vn 0.9977 -0.0388 -0.0553
vn 0.6238 -0.4798 -0.6169
vn 0.5984 -0.5800 -0.5528
vn 0.5963 -0.5851 -0.5496
vn 0.7704 -0.4671 -0.4340
s 0
f 1//1 2//1 5//1
f 1//1 5//1 13//1
f 1//1 13//1 27//1
f 1//1 27//1 44//1
f 1//1 44//1 51//1
f 1//1 51//1 50//1
f 1//1 50//1 42//1
f 1//1 42//1 25//1
f 1//1 25//1 12//1
f 1//1 12//1 8//1
f 1//1 8//1 3//1
f 1//2 3//2 4//2
f 1//3 4//3 11//3
f 1//3 11//3 24//3
f 1//3 24//3 41//3
f 1//4 41//4 29//4
f 1//3 29//3 28//3
f 1//3 28//3 15//3
f 1//3 15//3 6//3
f 1//3 6//3 2//3
f 2//5 6//5 7//5
f 2//6 7//6 5//6
f 3//7 8//7 4//7
f 4//8 9//8 10//8
f 4//9 10//9 11//9
f 4//10 8//10 12//10
f 4//11 12//11 9//11
f 5//12 7//12 14//12
f 5//13 14//13 13//13
f 6//14 15//14 7//14
f 7//15 15//15 16//15
f 7//16 16//16 17//16
f 7//17 17//17 18//17
f 7//18 18//18 14//18
f 9//19 19//19 37//19
f 9//20 37//20 20//20
f 9//21 20//21 21//21
f 9//22 21//22 22//22
f 9//23 22//23 10//23
f 9//24 12//24 19//24
f 10//25 22//25 21//25
f 10//25 21//25 40//25
f 10//25 40//25 39//25
f 10//25 39//25 38//25
f 10//25 38//25 45//25
f 10//25 45//25 41//25
f 10//25 41//25 24//25
f 10//25 24//25 23//25
f 10//26 23//26 11//26
f 11//27 23//27 24//27
f 12//28 25//28 26//28
f 12//29 26//29 19//29
f 13//30 14//30 27//30
f 14//31 18//31 27//31
f 15//32 28//32 16//32
f 16//33 28//33 29//33
f 16//34 29//34 30//34
f 16//35 30//35 31//35
f 16//36 31//36 32//36
f 16//37 32//37 33//37
f 16//38 33//38 17//38
f 17//39 33//39 32//39
f 17//40 32//40 34//40
f 17//41 34//41 35//41
f 17//42 35//42 36//42
f 17//43 36//43 18//43
f 18//44 36//44 27//44
f 19//45 26//45 43//45
f 19//45 43//45 37//45
f 20//46 37//46 38//46
f 20//47 38//47 39//47
f 20//48 39//48 40//48
f 20//49 40//49 21//49
f 25//50 42//50 43//50
f 25//51 43//51 26//51
f 27//52 36//52 44//52
f 29//53 41//53 45//53
f 29//54 45//54 46//54
f 29//55 46//55 30//55
f 30//56 46//56 31//56
f 31//57 46//57 38//57
f 31//58 38//58 32//58
f 32//59 43//59 47//59
f 32//60 47//60 48//60
f 32//61 48//61 34//61
f 32//62 38//62 43//62
f 34//63 48//63 35//63
f 35//64 49//64 36//64
f 35//65 48//65 49//65
f 36//66 49//66 50//66
f 36//67 50//67 51//67
f 36//68 51//68 44//68
f 37//69 43//69 38//69
f 38//70 46//70 45//70
f 42//71 50//71 49//71
f 42//72 49//72 48//72
f 42//73 48//73 43//73
f 43//74 48//74 47//74
