# Blender 4.1.0
# www.blender.org
mtllib convex_101.mtl
o convex_101
v -0.079320 -0.360373 -0.107392
v -0.079320 -0.360015 -0.108104
v -0.070858 -0.354304 -0.107392
v -0.079320 -0.347961 -0.107392
v -0.079320 -0.357809 -0.111273
v -0.047805 -0.309670 -0.149938
v -0.046433 -0.308698 -0.149938
v -0.045543 -0.308066 -0.149938
v -0.050979 -0.338309 -0.107392
v -0.079320 -0.347752 -0.107521
v -0.066771 -0.334607 -0.107392
v -0.079320 -0.330684 -0.149938
v -0.045543 -0.301282 -0.149938
v -0.045543 -0.329987 -0.112015
v -0.049253 -0.336324 -0.107392
v -0.079320 -0.343925 -0.109920
v -0.062572 -0.331716 -0.107392
v -0.066775 -0.331859 -0.109158
v -0.069278 -0.332896 -0.110136
v -0.079320 -0.318171 -0.149938
v -0.062235 -0.307178 -0.149938
v -0.045543 -0.299476 -0.139864
v -0.045543 -0.331531 -0.108058
v -0.045543 -0.331787 -0.107392
v -0.079320 -0.336610 -0.117999
v -0.068405 -0.325140 -0.115538
v -0.074056 -0.332842 -0.114513
v -0.078262 -0.333033 -0.119178
v -0.045543 -0.324610 -0.107392
v -0.065376 -0.323405 -0.114388
v -0.079320 -0.318147 -0.149351
v -0.079052 -0.317837 -0.149938
v -0.065161 -0.308370 -0.149938
v -0.065975 -0.308543 -0.148951
v -0.062235 -0.307023 -0.148951
v -0.047607 -0.300245 -0.139864
v -0.045543 -0.299667 -0.138260
v -0.078675 -0.327626 -0.126237
v -0.079320 -0.329587 -0.126237
v -0.069566 -0.323292 -0.118566
v -0.078149 -0.328610 -0.123942
v -0.045543 -0.323471 -0.108400
v -0.045543 -0.318708 -0.112956
v -0.045543 -0.300364 -0.135716
v -0.047286 -0.300543 -0.136378
v -0.066844 -0.322356 -0.117091
v -0.079320 -0.318195 -0.148951
v -0.074797 -0.313760 -0.149938
v -0.065809 -0.308716 -0.149938
v -0.074694 -0.313843 -0.148951
v -0.076979 -0.325355 -0.126237
v -0.077935 -0.324306 -0.130776
v -0.079320 -0.326315 -0.130776
v -0.079320 -0.326803 -0.129789
v -0.065747 -0.318547 -0.122630
v -0.071176 -0.322750 -0.122081
v -0.074707 -0.323358 -0.126237
v -0.071526 -0.313366 -0.144378
v -0.070151 -0.313873 -0.140943
v -0.079320 -0.318565 -0.147777
v -0.074056 -0.314553 -0.145878
v -0.078986 -0.318934 -0.145611
v -0.079320 -0.319656 -0.145382
v -0.068775 -0.319727 -0.124879
vn 0.5395 -0.7522 -0.3782
vn -0.0000 -0.0000 1.0000
vn -1.0000 -0.0000 -0.0000
vn -1.0000 -0.0000 -0.0001
vn 0.4837 -0.7183 -0.5000
vn 0.5072 -0.7160 -0.4796
vn 0.5086 -0.7159 -0.4783
vn 0.5215 -0.7146 -0.4663
vn 0.5665 -0.7041 -0.4281
vn -0.4879 0.4585 0.7428
vn 0.4791 -0.7186 -0.5041
vn -0.0000 -0.0000 -1.0000
vn -0.0000 0.0107 -0.9999
vn 1.0000 -0.0000 -0.0000
vn 0.6689 -0.6436 -0.3720
vn 0.7240 -0.6295 -0.2819
vn -0.4920 0.4624 0.7377
vn -0.3486 0.5064 0.7887
vn -0.4837 0.4728 0.7366
vn -0.3284 0.9297 -0.1667
vn 0.7513 -0.6148 -0.2399
vn 0.7522 -0.6151 -0.2364
vn -0.5537 0.5170 0.6528
vn -0.6227 0.5331 0.5727
vn -0.6390 0.5332 0.5543
vn -0.8692 0.3665 0.3318
vn -0.2405 0.5763 0.7810
vn -0.3428 0.5346 0.7725
vn -0.4887 0.5161 0.7035
vn -0.5468 0.5191 0.6569
vn -0.7799 0.6254 -0.0256
vn -0.3731 0.9161 -0.1469
vn -0.3726 0.9167 -0.1440
vn -0.3405 0.9288 -0.1459
vn -0.3460 0.9284 -0.1354
vn -0.3471 0.9313 0.1109
vn -0.8693 0.3665 0.3316
vn -0.9180 0.3018 0.2573
vn -0.5597 0.5945 0.5773
vn -0.6265 0.5351 0.5667
vn -0.6382 0.5350 0.5535
vn -0.8291 0.4193 0.3698
vn -0.6604 0.5580 0.5025
vn -0.2185 0.6467 0.7308
vn -0.2110 0.6757 0.7064
vn -0.2239 0.7588 0.6116
vn -0.2931 0.7731 0.5626
vn -0.3718 0.7793 0.5044
vn -0.5201 0.6621 0.5395
vn -0.6878 0.7207 0.0864
vn -0.6903 0.7205 0.0656
vn -0.4587 0.8590 -0.2274
vn -0.4565 0.8819 0.1174
vn -0.3752 0.9231 -0.0845
vn -0.4765 0.8490 -0.2286
vn -0.5154 0.8478 0.1248
vn -0.5064 0.8331 0.2226
vn -0.3475 0.9310 0.1116
vn -0.1956 0.9458 0.2591
vn -0.7333 0.5477 0.4028
vn -0.7659 0.5721 0.2935
vn -0.7926 0.5465 0.2704
vn -0.7921 0.5472 0.2706
vn -0.9227 0.3034 0.2378
vn -0.4918 0.7599 0.4251
vn -0.5461 0.7533 0.3664
vn -0.5650 0.7363 0.3724
vn -0.6052 0.6884 0.3997
vn -0.6594 0.5770 0.4820
vn -0.5189 0.8094 0.2750
vn -0.5239 0.7870 0.3259
vn -0.5238 0.7866 0.3268
vn -0.4254 0.7829 0.4541
vn -0.6678 0.7099 0.2237
vn -0.6793 0.7220 0.1313
vn -0.5435 0.7861 0.2945
vn -0.6678 0.7099 0.2239
vn -0.6253 0.7218 0.2966
vn -0.6293 0.7159 0.3025
vn -0.6530 0.6961 0.2984
vn -0.7960 0.5489 0.2552
vn -0.8597 0.4648 0.2119
vn -0.5466 0.7684 0.3329
vn -0.5492 0.7560 0.3561
vn -0.5276 0.7841 0.3270
vn -0.5446 0.7717 0.3286
vn -0.5467 0.7703 0.3284
vn -0.5529 0.7670 0.3255
vn -0.6240 0.7206 0.3023
vn -0.8598 0.4647 0.2117
s 0
f 1//1 2//1 3//1
f 1//2 3//2 9//2
f 1//2 9//2 15//2
f 1//2 15//2 24//2
f 1//2 24//2 29//2
f 1//2 29//2 17//2
f 1//2 17//2 11//2
f 1//2 11//2 4//2
f 1//3 4//3 10//3
f 1//3 10//3 16//3
f 1//3 16//3 25//3
f 1//3 25//3 39//3
f 1//3 39//3 54//3
f 1//3 54//3 53//3
f 1//3 53//3 63//3
f 1//3 63//3 60//3
f 1//3 60//3 47//3
f 1//3 47//3 31//3
f 1//3 31//3 20//3
f 1//3 20//3 12//3
f 1//4 12//4 5//4
f 1//3 5//3 2//3
f 2//5 5//5 6//5
f 2//6 6//6 7//6
f 2//7 7//7 8//7
f 2//8 8//8 3//8
f 3//9 8//9 9//9
f 4//10 11//10 10//10
f 5//11 12//11 6//11
f 6//12 12//12 20//12
f 6//12 20//12 32//12
f 6//12 32//12 48//12
f 6//12 48//12 49//12
f 6//12 49//12 33//12
f 6//12 33//12 21//12
f 6//12 21//12 13//12
f 6//12 13//12 8//12
f 6//13 8//13 7//13
f 8//14 13//14 22//14
f 8//14 22//14 37//14
f 8//14 37//14 44//14
f 8//14 44//14 43//14
f 8//14 43//14 42//14
f 8//14 42//14 29//14
f 8//14 29//14 24//14
f 8//14 24//14 23//14
f 8//14 23//14 14//14
f 8//15 14//15 9//15
f 9//16 14//16 15//16
f 10//17 11//17 16//17
f 11//18 17//18 18//18
f 11//19 18//19 19//19
f 11//17 19//17 16//17
f 13//20 21//20 22//20
f 14//21 23//21 15//21
f 15//22 23//22 24//22
f 16//23 19//23 26//23
f 16//24 26//24 27//24
f 16//25 27//25 28//25
f 16//26 28//26 25//26
f 17//27 29//27 30//27
f 17//28 30//28 18//28
f 18//29 30//29 19//29
f 19//30 30//30 26//30
f 20//31 31//31 32//31
f 21//32 33//32 34//32
f 21//33 34//33 35//33
f 21//34 35//34 22//34
f 22//35 35//35 36//35
f 22//36 36//36 37//36
f 25//37 28//37 38//37
f 25//38 38//38 39//38
f 26//39 30//39 40//39
f 26//40 40//40 27//40
f 27//41 40//41 28//41
f 28//42 41//42 38//42
f 28//43 40//43 41//43
f 29//44 42//44 30//44
f 30//45 42//45 43//45
f 30//46 43//46 44//46
f 30//47 44//47 45//47
f 30//48 45//48 46//48
f 30//49 46//49 40//49
f 31//50 47//50 48//50
f 31//51 48//51 32//51
f 33//52 49//52 34//52
f 34//53 45//53 36//53
f 34//54 36//54 35//54
f 34//55 49//55 48//55
f 34//56 48//56 50//56
f 34//57 50//57 45//57
f 36//58 45//58 37//58
f 37//59 45//59 44//59
f 38//60 41//60 51//60
f 38//61 51//61 52//61
f 38//62 52//62 53//62
f 38//63 53//63 54//63
f 38//64 54//64 39//64
f 40//65 46//65 55//65
f 40//66 55//66 56//66
f 40//67 56//67 57//67
f 40//68 57//68 51//68
f 40//69 51//69 41//69
f 45//70 50//70 58//70
f 45//71 58//71 59//71
f 45//72 59//72 55//72
f 45//73 55//73 46//73
f 47//74 60//74 50//74
f 47//75 50//75 48//75
f 50//76 61//76 58//76
f 50//77 60//77 62//77
f 50//78 62//78 61//78
f 51//79 57//79 62//79
f 51//80 62//80 52//80
f 52//81 62//81 53//81
f 53//82 62//82 63//82
f 55//83 64//83 57//83
f 55//84 57//84 56//84
f 55//85 59//85 58//85
f 55//86 58//86 64//86
f 57//87 64//87 58//87
f 57//88 58//88 61//88
f 57//89 61//89 62//89
f 60//90 63//90 62//90
