# Blender 4.1.0
# www.blender.org
mtllib convex_53.mtl
o convex_53
v 0.178855 -0.424596 -0.151679
v 0.189075 -0.419082 -0.151679
v 0.178855 -0.417368 -0.151679
v 0.178855 -0.451919 -0.176685
v 0.203612 -0.453031 -0.188556
v 0.203612 -0.410460 -0.151679
v 0.180268 -0.414652 -0.151679
v 0.178855 -0.415635 -0.151696
v 0.178855 -0.453031 -0.179725
v 0.203612 -0.453031 -0.196048
v 0.203612 -0.404263 -0.151679
v 0.180338 -0.414595 -0.151679
v 0.178855 -0.429108 -0.171342
v 0.178855 -0.453031 -0.190006
v 0.203612 -0.452864 -0.196009
v 0.203612 -0.410336 -0.162790
v 0.195975 -0.406665 -0.151679
v 0.203513 -0.414910 -0.169522
v 0.178855 -0.429590 -0.172033
v 0.178855 -0.450697 -0.188386
v 0.201324 -0.431848 -0.184038
v 0.203612 -0.437864 -0.188643
v 0.203612 -0.442084 -0.191114
v 0.203612 -0.443063 -0.191644
v 0.203612 -0.445340 -0.192834
v 0.203612 -0.446605 -0.193447
v 0.203612 -0.451652 -0.195549
v 0.203612 -0.411124 -0.163997
v 0.203612 -0.414900 -0.169535
v 0.203612 -0.414967 -0.169626
v 0.203086 -0.418944 -0.174409
v 0.178855 -0.432044 -0.174582
v 0.178855 -0.450520 -0.188260
v 0.203612 -0.431233 -0.184134
v 0.203612 -0.433085 -0.185437
v 0.203612 -0.436054 -0.187431
v 0.203612 -0.418877 -0.174465
vn -0.0000 -0.0000 1.0000
vn -1.0000 -0.0000 -0.0000
vn 0.3077 -0.6424 0.7019
vn 0.3362 -0.6231 0.7062
vn 0.3620 -0.6103 0.7046
vn -0.0189 0.0098 0.9998
vn 0.1216 -0.9322 0.3410
vn -0.0000 -1.0000 -0.0000
vn 1.0000 -0.0000 -0.0000
vn -0.0821 0.1011 0.9915
vn -0.4964 0.7159 -0.4910
vn -0.2312 0.2213 -0.9474
vn -0.2660 0.8459 -0.4623
vn -0.3873 0.7637 -0.5165
vn -0.3948 0.7532 -0.5261
vn -0.4042 0.7503 -0.5232
vn -0.3042 0.5432 -0.7826
vn -0.2723 0.5174 -0.8113
vn -0.2535 0.4888 -0.8348
vn -0.2424 0.4619 -0.8532
vn -0.2381 0.4499 -0.8608
vn -0.2318 0.4242 -0.8754
vn -0.2224 0.3748 -0.9000
vn -0.2233 0.3459 -0.9113
vn -0.3657 0.7794 -0.5088
vn -0.3871 0.7638 -0.5165
vn -0.1580 0.7953 -0.5853
vn -0.2040 0.7636 -0.6126
vn -0.3767 0.7303 -0.5699
vn -0.1546 0.8163 -0.5565
vn -0.3589 0.6724 -0.6473
vn -0.3123 0.5509 -0.7739
vn -0.3162 0.5947 -0.7391
vn -0.1947 0.6035 -0.7732
vn -0.1857 0.5654 -0.8036
vn -0.2019 0.5461 -0.8130
vn -0.2050 0.5446 -0.8133
vn -0.3248 0.5627 -0.7601
vn -0.1637 0.7673 -0.6200
vn -0.1602 0.6083 -0.7774
s 0
f 1//1 2//1 6//1
f 1//1 6//1 11//1
f 1//1 11//1 17//1
f 1//1 17//1 12//1
f 1//1 12//1 7//1
f 1//1 7//1 3//1
f 1//2 3//2 8//2
f 1//2 8//2 13//2
f 1//2 13//2 19//2
f 1//2 19//2 32//2
f 1//2 32//2 33//2
f 1//2 33//2 20//2
f 1//2 20//2 14//2
f 1//2 14//2 9//2
f 1//2 9//2 4//2
f 1//3 4//3 5//3
f 1//4 5//4 2//4
f 2//5 5//5 6//5
f 3//6 7//6 8//6
f 4//7 9//7 5//7
f 5//8 9//8 14//8
f 5//8 14//8 10//8
f 5//9 10//9 15//9
f 5//9 15//9 27//9
f 5//9 27//9 26//9
f 5//9 26//9 25//9
f 5//9 25//9 24//9
f 5//9 24//9 23//9
f 5//9 23//9 22//9
f 5//9 22//9 36//9
f 5//9 36//9 35//9
f 5//9 35//9 34//9
f 5//9 34//9 37//9
f 5//9 37//9 30//9
f 5//9 30//9 29//9
f 5//9 29//9 28//9
f 5//9 28//9 16//9
f 5//9 16//9 11//9
f 5//9 11//9 6//9
f 7//10 12//10 8//10
f 8//11 12//11 13//11
f 10//12 14//12 15//12
f 11//13 16//13 17//13
f 12//14 17//14 18//14
f 12//15 18//15 19//15
f 12//16 19//16 13//16
f 14//17 20//17 21//17
f 14//18 21//18 22//18
f 14//19 22//19 23//19
f 14//20 23//20 24//20
f 14//21 24//21 25//21
f 14//22 25//22 26//22
f 14//23 26//23 27//23
f 14//24 27//24 15//24
f 16//25 28//25 17//25
f 17//26 28//26 18//26
f 18//27 29//27 30//27
f 18//28 30//28 31//28
f 18//29 31//29 19//29
f 18//30 28//30 29//30
f 19//31 31//31 32//31
f 20//32 33//32 21//32
f 21//33 32//33 31//33
f 21//34 31//34 34//34
f 21//35 34//35 35//35
f 21//36 35//36 36//36
f 21//37 36//37 22//37
f 21//38 33//38 32//38
f 30//39 37//39 31//39
f 31//40 37//40 34//40
