# Blender 4.1.0
# www.blender.org
mtllib convex_80.mtl
o convex_80
v 0.075782 -0.395584 -0.150345
v 0.075782 -0.395584 -0.157477
v 0.077582 -0.395584 -0.150048
v 0.075782 -0.389731 -0.150412
v 0.075782 -0.374210 -0.170073
v 0.103338 -0.395584 -0.170073
v 0.078637 -0.394529 -0.150032
v 0.078637 -0.389985 -0.149949
v 0.082123 -0.395584 -0.150152
v 0.083179 -0.394529 -0.150083
v 0.075782 -0.385538 -0.150717
v 0.075782 -0.366763 -0.170073
v 0.111649 -0.395584 -0.170073
v 0.075782 -0.382956 -0.151056
v 0.099753 -0.382485 -0.150597
v 0.097769 -0.382485 -0.150597
v 0.083179 -0.395584 -0.150251
v 0.099753 -0.384225 -0.150597
v 0.075782 -0.367965 -0.167289
v 0.080713 -0.364792 -0.164204
v 0.079693 -0.364625 -0.170073
v 0.111844 -0.392925 -0.170073
v 0.111841 -0.389985 -0.167130
v 0.111444 -0.395584 -0.168229
v 0.083179 -0.364384 -0.163619
v 0.075782 -0.373815 -0.159998
v 0.092267 -0.376354 -0.152883
v 0.092267 -0.373094 -0.154681
v 0.098669 -0.374697 -0.156188
v 0.095639 -0.373381 -0.154920
v 0.104000 -0.382605 -0.155323
v 0.086899 -0.395584 -0.150842
v 0.096731 -0.395584 -0.153066
v 0.099494 -0.395584 -0.154392
v 0.100429 -0.395584 -0.154912
v 0.102700 -0.395584 -0.156754
v 0.109474 -0.395584 -0.163731
v 0.109591 -0.394529 -0.163627
v 0.104000 -0.384135 -0.155323
v 0.075782 -0.368847 -0.165958
v 0.087725 -0.362423 -0.167130
v 0.087948 -0.361608 -0.170073
v 0.086127 -0.362042 -0.170073
v 0.083179 -0.363008 -0.170073
v 0.075782 -0.373762 -0.160055
v 0.111975 -0.389985 -0.170073
v 0.108649 -0.378005 -0.170073
v 0.110558 -0.385438 -0.167130
v 0.109159 -0.385438 -0.163950
v 0.109832 -0.389985 -0.163452
v 0.111338 -0.394529 -0.167130
v 0.111327 -0.395584 -0.167815
v 0.087725 -0.364190 -0.163791
v 0.100110 -0.368092 -0.163651
v 0.098856 -0.365062 -0.165241
v 0.095827 -0.364752 -0.164608
v 0.108493 -0.382598 -0.164421
v 0.108532 -0.378175 -0.168798
v 0.111132 -0.395584 -0.167130
v 0.092267 -0.362506 -0.167130
v 0.092079 -0.361488 -0.170073
v 0.090258 -0.361454 -0.170073
v 0.100199 -0.366215 -0.170073
v 0.099196 -0.364852 -0.168270
v 0.097127 -0.363950 -0.166905
v 0.097011 -0.363489 -0.170073
v 0.099575 -0.365370 -0.170073
v 0.099196 -0.364852 -0.169671
v 0.098672 -0.364488 -0.170073
vn -0.0000 -1.0000 -0.0000
vn -0.1628 0.0113 0.9866
vn -1.0000 -0.0000 -0.0000
vn -1.0000 -0.0000 -0.0002
vn -0.3664 -0.4724 -0.8016
vn 0.0031 -0.0183 0.9998
vn -0.1589 0.0125 0.9872
vn 0.0228 -0.0879 0.9959
vn 0.0112 -0.0264 0.9996
vn -0.1534 0.0717 0.9856
vn -0.0000 -0.0000 -1.0000
vn 0.0112 -0.0183 0.9998
vn -0.0638 0.1299 0.9895
vn 0.0304 0.0009 0.9995
vn -0.0000 0.0861 0.9963
vn -0.0238 0.1461 0.9890
vn 0.0922 -0.1566 0.9834
vn 0.1274 -0.1560 0.9795
vn 0.0310 -0.0000 0.9995
vn -0.6426 0.7035 0.3037
vn -0.4769 0.8724 0.1077
vn 0.9946 -0.0729 0.0739
vn 0.9897 -0.0918 0.1100
vn -0.2770 0.6116 0.7411
vn -0.5565 0.5810 0.5939
vn -0.0267 0.3281 0.9443
vn -0.0959 0.4807 0.8716
vn -0.1885 0.6007 0.7770
vn 0.5141 0.5463 0.6612
vn 0.1161 0.4684 0.8759
vn -0.0000 0.3494 0.9370
vn 0.7438 -0.0000 0.6685
vn 0.7438 -0.0000 0.6684
vn 0.6501 0.5008 0.5715
vn 0.1539 -0.1950 0.9687
vn 0.4131 -0.2970 0.8609
vn 0.4652 -0.2900 0.8364
vn 0.6100 -0.2494 0.7521
vn 0.7047 -0.1880 0.6842
vn 0.7302 -0.1468 0.6673
vn 0.7386 -0.1310 0.6613
vn 0.2130 -0.2613 0.9415
vn -0.6614 0.6252 0.4143
vn -0.2153 0.9443 0.2487
vn -0.2169 0.9449 0.2452
vn -0.2253 0.9455 0.2352
vn -0.3076 0.9386 0.1561
vn -0.4187 0.9028 0.0985
vn -0.6518 0.5828 0.4853
vn -0.6048 0.5831 0.5424
vn 0.9980 -0.0445 0.0454
vn 0.9626 0.2673 0.0438
vn 0.9606 0.2710 0.0615
vn 0.8863 0.2501 0.3899
vn 0.8687 0.1935 0.4559
vn 0.8658 0.1633 0.4729
vn 0.8758 -0.0649 0.4784
vn 0.8905 -0.0986 0.4441
vn 0.9744 -0.1079 0.1975
vn 0.9460 -0.1835 0.2674
vn -0.0200 0.8837 0.4677
vn -0.0040 0.7141 0.7000
vn 0.1026 0.4804 0.8710
vn 0.1100 0.7377 0.6662
vn 0.6513 0.5014 0.5696
vn 0.5759 0.5538 0.6014
vn 0.5159 0.5812 0.6293
vn 0.1181 0.7404 0.6617
vn 0.2109 0.7279 0.6524
vn 0.8125 -0.0000 0.5829
vn 0.8625 0.2729 0.4262
vn 0.8234 0.3954 0.4069
vn 0.7914 0.4497 0.4140
vn 0.8852 -0.1728 0.4318
vn 0.8858 -0.1418 0.4418
vn 0.7879 -0.0654 0.6123
vn 0.0161 0.8837 0.4677
vn 0.0173 0.9453 0.3259
vn 0.0177 0.9451 0.3264
vn -0.0642 0.9630 0.2618
vn 0.8127 0.5825 0.0116
vn 0.8135 0.5667 0.1306
vn 0.8146 0.5605 0.1495
vn 0.9477 0.2933 0.1261
vn 0.8848 0.3238 0.3351
vn 0.8811 0.2709 0.3876
vn 0.9453 -0.1846 0.2691
vn 0.1137 0.8163 0.5664
vn 0.8008 0.5024 0.3261
vn 0.4586 0.8815 0.1126
vn 0.2530 0.9050 0.3419
vn 0.1895 0.8508 0.4902
vn 0.2587 0.9179 0.3010
vn 0.3733 0.9199 0.1201
vn 0.8046 0.5937 -0.0062
vn 0.8055 0.5925 -0.0000
vn 0.5702 0.8215 -0.0000
vn 0.5152 0.8568 0.0231
vn 0.4580 0.8819 0.1114
vn 0.6755 0.6920 -0.2546
s 0
f 1//1 2//1 6//1
f 1//1 6//1 13//1
f 1//1 13//1 24//1
f 1//1 24//1 52//1
f 1//1 52//1 59//1
f 1//1 59//1 37//1
f 1//1 37//1 36//1
f 1//1 36//1 35//1
f 1//1 35//1 34//1
f 1//1 34//1 33//1
f 1//1 33//1 32//1
f 1//1 32//1 17//1
f 1//1 17//1 9//1
f 1//1 9//1 3//1
f 1//2 3//2 4//2
f 1//3 4//3 11//3
f 1//3 11//3 14//3
f 1//3 14//3 26//3
f 1//4 26//4 45//4
f 1//3 45//3 40//3
f 1//3 40//3 19//3
f 1//3 19//3 12//3
f 1//3 12//3 5//3
f 1//3 5//3 2//3
f 2//5 5//5 6//5
f 3//6 7//6 8//6
f 3//7 8//7 4//7
f 3//8 9//8 10//8
f 3//9 10//9 7//9
f 4//10 8//10 11//10
f 5//11 12//11 21//11
f 5//11 21//11 44//11
f 5//11 44//11 43//11
f 5//11 43//11 42//11
f 5//11 42//11 62//11
f 5//11 62//11 61//11
f 5//11 61//11 66//11
f 5//11 66//11 69//11
f 5//11 69//11 67//11
f 5//11 67//11 63//11
f 5//11 63//11 47//11
f 5//11 47//11 46//11
f 5//11 46//11 22//11
f 5//11 22//11 13//11
f 5//11 13//11 6//11
f 7//12 10//12 8//12
f 8//13 14//13 11//13
f 8//14 10//14 15//14
f 8//15 15//15 16//15
f 8//16 16//16 14//16
f 9//17 17//17 10//17
f 10//18 17//18 18//18
f 10//19 18//19 15//19
f 12//20 19//20 20//20
f 12//21 20//21 21//21
f 13//22 22//22 23//22
f 13//23 23//23 24//23
f 14//24 25//24 20//24
f 14//25 20//25 26//25
f 14//26 16//26 27//26
f 14//27 27//27 28//27
f 14//28 28//28 25//28
f 15//29 29//29 30//29
f 15//30 30//30 27//30
f 15//31 27//31 16//31
f 15//32 18//32 39//32
f 15//33 39//33 31//33
f 15//34 31//34 29//34
f 17//35 32//35 18//35
f 18//36 33//36 34//36
f 18//37 34//37 35//37
f 18//38 35//38 36//38
f 18//39 36//39 37//39
f 18//40 37//40 38//40
f 18//41 38//41 39//41
f 18//42 32//42 33//42
f 19//43 40//43 20//43
f 20//44 25//44 41//44
f 20//45 41//45 42//45
f 20//46 42//46 43//46
f 20//47 43//47 44//47
f 20//48 44//48 21//48
f 20//49 40//49 45//49
f 20//50 45//50 26//50
f 22//51 46//51 23//51
f 23//52 46//52 47//52
f 23//53 47//53 48//53
f 23//54 48//54 49//54
f 23//55 49//55 31//55
f 23//56 31//56 50//56
f 23//57 50//57 38//57
f 23//58 38//58 51//58
f 23//59 51//59 24//59
f 24//60 51//60 52//60
f 25//61 53//61 41//61
f 25//62 28//62 53//62
f 27//63 30//63 28//63
f 28//64 30//64 53//64
f 29//65 31//65 54//65
f 29//66 54//66 55//66
f 29//67 55//67 30//67
f 30//68 56//68 53//68
f 30//69 55//69 56//69
f 31//70 39//70 50//70
f 31//71 49//71 57//71
f 31//72 57//72 58//72
f 31//73 58//73 54//73
f 37//74 59//74 51//74
f 37//75 51//75 38//75
f 38//76 50//76 39//76
f 41//77 53//77 60//77
f 41//78 60//78 61//78
f 41//79 61//79 62//79
f 41//80 62//80 42//80
f 47//81 63//81 64//81
f 47//82 64//82 55//82
f 47//83 55//83 58//83
f 47//84 58//84 48//84
f 48//85 58//85 57//85
f 48//86 57//86 49//86
f 51//87 59//87 52//87
f 53//88 56//88 60//88
f 54//89 58//89 55//89
f 55//90 64//90 65//90
f 55//91 65//91 60//91
f 55//92 60//92 56//92
f 60//93 65//93 61//93
f 61//94 65//94 66//94
f 63//95 67//95 68//95
f 63//96 68//96 64//96
f 64//97 68//97 69//97
f 64//98 69//98 66//98
f 64//99 66//99 65//99
f 67//100 69//100 68//100
