# Blender 4.1.0
# www.blender.org
mtllib convex_90.mtl
o convex_90
v -0.049323 -0.436799 -0.083731
v -0.048810 -0.435423 -0.085336
v -0.048594 -0.436799 -0.092107
v -0.049150 -0.436799 -0.080794
v -0.047217 -0.431604 -0.085336
v -0.048031 -0.435054 -0.092107
v -0.036542 -0.421881 -0.093582
v -0.036542 -0.434393 -0.093582
v -0.039712 -0.436799 -0.092107
v -0.048378 -0.436799 -0.074901
v -0.047823 -0.435423 -0.074890
v -0.048548 -0.435423 -0.080794
v -0.046539 -0.432810 -0.074890
v -0.041853 -0.423919 -0.074890
v -0.041606 -0.423536 -0.074890
v -0.045702 -0.429331 -0.085336
v -0.044340 -0.428027 -0.092107
v -0.046920 -0.432041 -0.089007
v -0.033560 -0.414290 -0.079970
v -0.010127 -0.404817 -0.093582
v -0.043465 -0.426856 -0.092107
v -0.035963 -0.434064 -0.093582
v -0.035921 -0.434042 -0.093564
v -0.039712 -0.436799 -0.090065
v -0.046126 -0.436799 -0.074890
v -0.036542 -0.426459 -0.074888
v -0.036542 -0.417112 -0.074888
v -0.038694 -0.419374 -0.074890
v -0.036542 -0.417087 -0.076252
v -0.035786 -0.416310 -0.076252
v -0.033514 -0.414345 -0.076252
v -0.014504 -0.402165 -0.074888
v -0.011315 -0.400522 -0.076252
v -0.010713 -0.400912 -0.079427
v -0.037984 -0.418579 -0.076252
v -0.009922 -0.404713 -0.093582
v -0.010420 -0.413662 -0.093582
v -0.035921 -0.434042 -0.090777
v -0.036974 -0.433475 -0.074890
v -0.042562 -0.436799 -0.074890
v -0.009922 -0.406194 -0.074888
v -0.036476 -0.417047 -0.074888
v -0.036542 -0.417109 -0.074890
v -0.038015 -0.418633 -0.074890
v -0.036542 -0.417094 -0.075791
v -0.033383 -0.414457 -0.074888
v -0.034062 -0.414988 -0.074888
v -0.011642 -0.400536 -0.074888
v -0.009922 -0.399998 -0.076252
v -0.009922 -0.400749 -0.079811
v -0.009922 -0.413127 -0.093582
v -0.009922 -0.411194 -0.087117
v -0.009922 -0.410042 -0.083881
v -0.009922 -0.399889 -0.074888
vn -0.9617 0.2609 -0.0837
vn -0.0000 -1.0000 -0.0000
vn -0.9194 0.3895 0.0543
vn -0.9224 0.3847 0.0351
vn -0.9476 0.3058 -0.0924
vn -0.9196 0.3836 -0.0849
vn -0.1992 0.0643 -0.9778
vn -0.1215 -0.0000 -0.9926
vn -0.0000 -0.5226 -0.8526
vn -0.9209 0.3707 0.1206
vn -0.9105 0.3982 0.1118
vn -0.9141 0.3997 0.0683
vn -0.8914 0.4399 0.1087
vn -0.8792 0.4634 0.1106
vn -0.8401 0.5413 0.0332
vn -0.8318 0.5547 0.0184
vn -0.8305 0.5538 -0.0603
vn -0.8760 0.4655 -0.1263
vn -0.8820 0.4542 -0.1254
vn -0.8774 0.4609 -0.1335
vn -0.3032 0.1593 -0.9395
vn -0.5122 0.7929 -0.3300
vn -0.0000 -0.0000 -1.0000
vn -0.3991 0.2984 -0.8670
vn -0.5986 0.7482 -0.2861
vn 0.4658 -0.8191 -0.3349
vn 0.5199 -0.8273 -0.2129
vn 0.5881 -0.8088 -0.0000
vn -0.0049 -0.0060 1.0000
vn -0.0001 -0.0001 1.0000
vn -0.0002 -0.0000 1.0000
vn -0.0008 0.0004 1.0000
vn -0.8921 0.4384 0.1096
vn -0.0010 0.0006 1.0000
vn -0.0020 0.0013 1.0000
vn -0.8194 0.5733 0.0033
vn -0.0032 0.0022 1.0000
vn -0.8001 0.5981 -0.0457
vn -0.7957 0.6042 -0.0420
vn -0.7159 0.6964 -0.0501
vn -0.6541 0.7562 0.0193
vn -0.5404 0.8412 0.0192
vn -0.5023 0.8518 -0.1487
vn -0.4918 0.8480 -0.1974
vn -0.4846 0.8379 -0.2512
vn -0.7338 0.6724 -0.0974
vn -0.7179 0.6940 -0.0535
vn -0.4382 0.8617 -0.2559
vn -0.7860 0.6162 -0.0500
vn 0.5558 -0.6960 -0.4545
vn 0.6243 -0.7812 -0.0000
vn 0.5089 -0.8555 0.0956
vn 0.5951 -0.8008 0.0680
vn -0.0000 -0.0002 1.0000
vn 0.0002 -0.0003 1.0000
vn -0.0000 -0.0000 1.0000
vn -0.4564 0.4604 0.7614
vn -0.4720 0.4574 0.7536
vn -0.0226 0.0208 0.9995
vn -0.7373 0.6754 0.0101
vn -0.7189 0.6950 0.0106
vn -0.7167 0.6973 0.0106
vn -0.7164 0.6976 0.0116
vn -0.6873 0.7250 0.0443
vn -0.6522 0.7541 0.0774
vn -0.5417 0.8319 0.1204
vn -0.6458 0.7572 0.0977
vn -0.6115 0.7816 0.1230
vn -0.4917 0.8639 -0.1094
vn -0.3513 0.9333 -0.0749
vn -0.3465 0.9208 -0.1788
vn -0.2892 0.9366 -0.1976
vn -0.3156 0.9119 -0.2625
vn -0.7189 0.6950 0.0112
vn -0.7190 0.6949 0.0116
vn 1.0000 -0.0000 -0.0000
vn 0.7175 -0.6673 0.1995
vn 0.6771 -0.7034 0.2164
vn 0.6274 -0.7756 0.0693
vn 0.6800 -0.6907 0.2459
vn 0.6799 -0.6742 0.2885
vn -0.3510 0.9334 -0.0746
s 0
f 1//1 2//1 3//1
f 1//2 3//2 9//2
f 1//2 9//2 24//2
f 1//2 24//2 40//2
f 1//2 40//2 25//2
f 1//2 25//2 10//2
f 1//2 10//2 4//2
f 1//3 4//3 5//3
f 1//4 5//4 2//4
f 2//5 6//5 3//5
f 2//6 5//6 6//6
f 3//7 6//7 7//7
f 3//8 7//8 8//8
f 3//9 8//9 9//9
f 4//10 10//10 11//10
f 4//11 11//11 12//11
f 4//12 12//12 5//12
f 5//13 12//13 13//13
f 5//14 13//14 14//14
f 5//15 14//15 15//15
f 5//16 15//16 16//16
f 5//17 16//17 17//17
f 5//18 17//18 18//18
f 5//19 18//19 6//19
f 6//20 18//20 17//20
f 6//21 17//21 7//21
f 7//22 19//22 20//22
f 7//23 20//23 36//23
f 7//23 36//23 51//23
f 7//23 51//23 37//23
f 7//23 37//23 22//23
f 7//23 22//23 8//23
f 7//24 17//24 21//24
f 7//25 21//25 19//25
f 8//26 22//26 9//26
f 9//27 22//27 23//27
f 9//28 23//28 38//28
f 9//28 38//28 24//28
f 10//29 25//29 11//29
f 11//30 25//30 26//30
f 11//31 26//31 27//31
f 11//32 27//32 13//32
f 11//33 13//33 12//33
f 13//34 27//34 14//34
f 14//35 27//35 15//35
f 15//36 28//36 16//36
f 15//37 27//37 28//37
f 16//38 21//38 17//38
f 16//39 28//39 21//39
f 19//40 29//40 30//40
f 19//41 30//41 31//41
f 19//42 31//42 32//42
f 19//43 32//43 33//43
f 19//44 33//44 34//44
f 19//45 34//45 20//45
f 19//46 21//46 35//46
f 19//47 35//47 29//47
f 20//48 34//48 36//48
f 21//49 28//49 35//49
f 22//50 37//50 23//50
f 23//51 37//51 38//51
f 24//52 39//52 40//52
f 24//53 38//53 39//53
f 25//54 40//54 26//54
f 26//55 40//55 39//55
f 26//55 39//55 41//55
f 26//56 41//56 54//56
f 26//56 54//56 48//56
f 26//56 48//56 32//56
f 26//56 32//56 46//56
f 26//56 46//56 47//56
f 26//56 47//56 42//56
f 26//56 42//56 27//56
f 27//57 42//57 43//57
f 27//58 43//58 44//58
f 27//59 44//59 28//59
f 28//60 44//60 35//60
f 29//61 35//61 45//61
f 29//62 45//62 30//62
f 30//63 45//63 43//63
f 30//64 43//64 42//64
f 30//65 42//65 31//65
f 31//66 46//66 32//66
f 31//67 42//67 47//67
f 31//68 47//68 46//68
f 32//69 48//69 33//69
f 33//70 48//70 49//70
f 33//71 49//71 34//71
f 34//72 49//72 50//72
f 34//73 50//73 36//73
f 35//74 44//74 43//74
f 35//75 43//75 45//75
f 36//76 50//76 49//76
f 36//76 49//76 54//76
f 36//76 54//76 41//76
f 36//76 41//76 53//76
f 36//76 53//76 52//76
f 36//76 52//76 51//76
f 37//77 51//77 52//77
f 37//78 52//78 39//78
f 37//79 39//79 38//79
f 39//80 52//80 53//80
f 39//81 53//81 41//81
f 48//82 54//82 49//82
