# Blender 4.1.0
# www.blender.org
mtllib convex_76.mtl
o convex_76
v 0.064109 -0.410673 -0.229803
v 0.064109 -0.412684 -0.230078
v 0.060414 -0.412595 -0.229635
v 0.061073 -0.410673 -0.229333
v 0.064109 -0.410673 -0.220344
v 0.064109 -0.417422 -0.229374
v 0.060212 -0.417596 -0.229501
v 0.057424 -0.416315 -0.229171
v 0.057424 -0.414035 -0.229171
v 0.054636 -0.410673 -0.225887
v 0.064109 -0.426336 -0.221079
v 0.051089 -0.410673 -0.200491
v 0.064109 -0.419399 -0.228963
v 0.063548 -0.420626 -0.228731
v 0.061564 -0.420626 -0.228731
v 0.060212 -0.422002 -0.227874
v 0.060458 -0.426336 -0.226226
v 0.057280 -0.426336 -0.224685
v 0.055692 -0.421729 -0.225482
v 0.053336 -0.420170 -0.224204
v 0.052836 -0.417250 -0.224685
v 0.052759 -0.412707 -0.224702
v 0.052854 -0.410673 -0.224566
v 0.064109 -0.430792 -0.221717
v 0.046893 -0.410673 -0.200491
v 0.049883 -0.416457 -0.200491
v 0.064109 -0.429989 -0.225901
v 0.064109 -0.433666 -0.224390
v 0.060910 -0.430471 -0.224465
v 0.058105 -0.428682 -0.223996
v 0.054030 -0.423197 -0.223501
v 0.050566 -0.417250 -0.222336
v 0.051492 -0.421543 -0.221546
v 0.048960 -0.419890 -0.219588
v 0.050487 -0.412707 -0.222278
v 0.051598 -0.410673 -0.223228
v 0.064109 -0.434101 -0.222887
v 0.046728 -0.412613 -0.200491
v 0.045930 -0.410673 -0.203619
v 0.044469 -0.414801 -0.205432
v 0.047991 -0.416454 -0.200491
v 0.047714 -0.420335 -0.204320
v 0.049722 -0.420335 -0.204320
v 0.064109 -0.434090 -0.224152
v 0.062725 -0.433156 -0.223932
v 0.048826 -0.425174 -0.215470
v 0.052677 -0.425398 -0.220471
v 0.049649 -0.422917 -0.218499
v 0.048535 -0.417250 -0.220063
v 0.048476 -0.421559 -0.217036
v 0.047435 -0.417250 -0.217115
v 0.048583 -0.412707 -0.220005
v 0.048953 -0.410673 -0.219591
v 0.048826 -0.425174 -0.213723
v 0.046353 -0.417679 -0.203361
v 0.044469 -0.415895 -0.205432
v 0.046061 -0.410673 -0.207890
v 0.044469 -0.414801 -0.206063
v 0.044469 -0.415895 -0.206063
v 0.047366 -0.412707 -0.217115
v 0.048758 -0.410673 -0.219130
v 0.046257 -0.410673 -0.210100
v 0.046661 -0.410673 -0.212573
v 0.047878 -0.410673 -0.217025
vn -0.1147 0.1346 -0.9842
vn -0.1498 0.2034 -0.9676
vn -0.0000 1.0000 -0.0000
vn -0.0002 1.0000 -0.0000
vn 1.0000 -0.0000 -0.0000
vn 0.0388 -0.1469 -0.9884
vn -0.1195 -0.0218 -0.9926
vn -0.1272 -0.0214 -0.9916
vn -0.1534 -0.0000 -0.9882
vn -0.2590 0.2360 -0.9366
vn -0.4272 0.4252 -0.7980
vn 0.8359 -0.0257 0.5482
vn 0.0410 -0.2034 -0.9782
vn 0.0408 -0.2036 -0.9782
vn -0.0000 -0.2463 -0.9692
vn -0.2353 -0.3367 -0.9117
vn -0.2608 -0.3344 -0.9056
vn -0.3099 -0.3532 -0.8827
vn -0.4056 -0.3686 -0.8364
vn -0.5740 -0.3277 -0.7505
vn -0.6032 -0.3082 -0.7356
vn -0.6558 -0.2307 -0.7188
vn -0.6976 -0.0145 -0.7164
vn -0.6918 -0.0000 -0.7221
vn -0.6776 0.0802 -0.7311
vn -0.5717 0.2794 -0.7714
vn 0.8127 -0.0826 0.5768
vn -0.0000 -0.0000 1.0000
vn 0.7667 -0.1598 0.6218
vn 0.2056 -0.2718 -0.9401
vn -0.0000 -0.2893 -0.9572
vn -0.2330 -0.3389 -0.9115
vn -0.2759 -0.3553 -0.8931
vn -0.2855 -0.3643 -0.8864
vn -0.3773 -0.3975 -0.8365
vn -0.3916 -0.3964 -0.8303
vn -0.4026 -0.3854 -0.8303
vn -0.6373 -0.4148 -0.6494
vn -0.5882 -0.3305 -0.7381
vn -0.6034 -0.3091 -0.7351
vn -0.6995 -0.2312 -0.6762
vn -0.6987 -0.3100 -0.6448
vn -0.6997 -0.3082 -0.6446
vn -0.7098 -0.2528 -0.6575
vn -0.7189 -0.0148 -0.6949
vn -0.7295 -0.0039 -0.6840
vn -0.7273 0.0789 -0.6818
vn -0.7269 0.0793 -0.6821
vn 0.7309 -0.2275 0.6435
vn -0.9355 0.2046 0.2881
vn -0.9193 0.0783 0.3857
vn -0.0011 -0.7023 0.7119
vn -0.0000 -0.7026 0.7116
vn 0.2288 -0.6888 0.6879
vn -0.4205 -0.4441 -0.7912
vn -0.4071 -0.4266 -0.8077
vn -0.4320 -0.4573 -0.7773
vn -0.6298 -0.6564 -0.4154
vn -0.6611 -0.5738 -0.4834
vn -0.6606 -0.4355 -0.6115
vn -0.7044 -0.3865 -0.5954
vn -0.7069 -0.3777 -0.5981
vn -0.7252 -0.2333 -0.6478
vn -0.7458 -0.0044 -0.6662
vn -0.7078 -0.3761 -0.5979
vn -0.8005 -0.3556 -0.4825
vn -0.9178 -0.2293 -0.3242
vn -0.9185 -0.2277 -0.3233
vn -0.9162 -0.2090 -0.3418
vn -0.7666 0.0163 -0.6420
vn -0.7613 0.1182 -0.6376
vn -0.7814 0.2575 -0.5684
vn -0.0000 -0.8033 0.5956
vn -0.2583 -0.8711 0.4177
vn -0.5044 -0.8635 -0.0000
vn -0.5071 -0.8619 -0.0075
vn -0.7872 -0.2589 0.5598
vn -0.9094 -0.0000 0.4158
vn -0.8122 -0.2409 0.5314
vn -0.9368 0.3486 -0.0287
vn -0.9427 0.3337 -0.0000
vn -1.0000 -0.0000 -0.0000
vn -0.6210 -0.5276 0.5797
vn -0.8061 -0.5171 0.2879
vn -0.8148 -0.5490 0.1862
vn -0.5696 -0.8022 -0.1790
vn -0.9052 -0.4250 -0.0000
vn -0.9497 -0.2141 -0.2287
vn -0.9194 -0.2278 -0.3205
vn -0.7164 -0.4520 -0.5315
vn -0.9368 -0.0143 -0.3495
vn -0.9215 0.0147 -0.3881
vn -0.9662 -0.0147 -0.2575
vn -0.8949 0.2391 -0.3769
vn -0.8948 0.2391 -0.3770
vn -0.9416 0.3262 -0.0836
vn -0.9528 0.2606 -0.1556
vn -0.9617 0.1612 -0.2216
vn -0.9673 -0.0000 -0.2536
vn -0.9349 0.2464 -0.2556
vn -0.8952 0.2416 -0.3745
s 0
f 1//1 2//1 3//1
f 1//2 3//2 4//2
f 1//3 4//3 10//3
f 1//3 10//3 23//3
f 1//3 23//3 36//3
f 1//3 36//3 53//3
f 1//4 53//4 61//4
f 1//3 61//3 64//3
f 1//3 64//3 63//3
f 1//3 63//3 62//3
f 1//3 62//3 57//3
f 1//3 57//3 39//3
f 1//3 39//3 25//3
f 1//3 25//3 12//3
f 1//3 12//3 5//3
f 1//5 5//5 11//5
f 1//5 11//5 24//5
f 1//5 24//5 37//5
f 1//5 37//5 44//5
f 1//5 44//5 28//5
f 1//5 28//5 27//5
f 1//5 27//5 13//5
f 1//5 13//5 6//5
f 1//5 6//5 2//5
f 2//6 6//6 7//6
f 2//7 7//7 3//7
f 3//8 7//8 8//8
f 3//9 8//9 9//9
f 3//10 9//10 4//10
f 4//11 9//11 10//11
f 5//12 12//12 11//12
f 6//13 13//13 7//13
f 7//14 13//14 14//14
f 7//15 14//15 15//15
f 7//16 15//16 16//16
f 7//17 16//17 8//17
f 8//18 16//18 17//18
f 8//19 17//19 18//19
f 8//20 18//20 19//20
f 8//21 19//21 20//21
f 8//22 20//22 21//22
f 8//23 21//23 22//23
f 8//24 22//24 9//24
f 9//25 22//25 23//25
f 9//26 23//26 10//26
f 11//27 12//27 24//27
f 12//28 25//28 38//28
f 12//28 38//28 41//28
f 12//28 41//28 26//28
f 12//29 26//29 24//29
f 13//30 27//30 14//30
f 14//31 27//31 15//31
f 15//32 27//32 16//32
f 16//33 27//33 17//33
f 17//34 27//34 28//34
f 17//35 28//35 29//35
f 17//36 29//36 30//36
f 17//37 30//37 18//37
f 18//38 30//38 31//38
f 18//39 31//39 19//39
f 19//40 31//40 20//40
f 20//41 32//41 21//41
f 20//42 31//42 33//42
f 20//43 33//43 34//43
f 20//44 34//44 32//44
f 21//45 32//45 22//45
f 22//46 32//46 35//46
f 22//47 35//47 36//47
f 22//48 36//48 23//48
f 24//49 26//49 37//49
f 25//50 39//50 40//50
f 25//51 40//51 38//51
f 26//52 41//52 42//52
f 26//53 42//53 43//53
f 26//54 43//54 37//54
f 28//55 44//55 30//55
f 28//56 30//56 29//56
f 30//57 44//57 45//57
f 30//58 45//58 46//58
f 30//59 46//59 47//59
f 30//60 47//60 31//60
f 31//61 47//61 48//61
f 31//62 48//62 33//62
f 32//63 34//63 49//63
f 32//64 49//64 35//64
f 33//65 48//65 34//65
f 34//66 48//66 46//66
f 34//67 46//67 50//67
f 34//68 50//68 51//68
f 34//69 51//69 49//69
f 35//70 49//70 52//70
f 35//71 52//71 36//71
f 36//72 52//72 53//72
f 37//73 43//73 42//73
f 37//74 42//74 54//74
f 37//75 54//75 46//75
f 37//76 46//76 44//76
f 38//77 55//77 41//77
f 38//78 40//78 56//78
f 38//79 56//79 55//79
f 39//80 57//80 58//80
f 39//81 58//81 40//81
f 40//82 58//82 59//82
f 40//82 59//82 56//82
f 41//83 55//83 42//83
f 42//84 55//84 56//84
f 42//85 56//85 54//85
f 44//86 46//86 45//86
f 46//87 54//87 56//87
f 46//87 56//87 59//87
f 46//88 59//88 51//88
f 46//89 51//89 50//89
f 46//90 48//90 47//90
f 49//91 51//91 60//91
f 49//92 60//92 52//92
f 51//93 59//93 60//93
f 52//94 60//94 61//94
f 52//95 61//95 53//95
f 57//96 62//96 58//96
f 58//97 62//97 63//97
f 58//98 63//98 60//98
f 58//99 60//99 59//99
f 60//100 63//100 64//100
f 60//101 64//101 61//101
