# Blender 4.1.0
# www.blender.org
mtllib convex_119.mtl
o convex_119
v -0.022764 -0.321823 -0.104514
v -0.022764 -0.323077 -0.104685
v -0.022545 -0.323077 -0.104725
v -0.021334 -0.321823 -0.104777
v -0.021334 -0.319040 -0.105197
v -0.022764 -0.319917 -0.104808
v -0.022764 -0.323077 -0.114883
v -0.021832 -0.323077 -0.104891
v -0.021334 -0.323077 -0.105014
v -0.018953 -0.323077 -0.105705
v -0.018945 -0.321823 -0.105683
v -0.019010 -0.319482 -0.105701
v -0.022764 -0.318557 -0.105167
v -0.013725 -0.305217 -0.123260
v -0.022764 -0.304577 -0.149248
v -0.018034 -0.309594 -0.149248
v -0.004926 -0.323077 -0.149248
v -0.018426 -0.323077 -0.105977
v -0.012668 -0.323077 -0.109384
v -0.009448 -0.323077 -0.111424
v -0.005329 -0.314819 -0.119196
v -0.007705 -0.314140 -0.118259
v -0.017982 -0.300457 -0.127153
v -0.021334 -0.299919 -0.126710
v -0.022764 -0.299953 -0.126881
v -0.009094 -0.309521 -0.123067
v -0.013176 -0.304587 -0.126238
v -0.022764 -0.296842 -0.149248
v 0.003619 -0.323077 -0.149248
v 0.000227 -0.323077 -0.126872
v 0.000056 -0.321823 -0.127249
v 0.001511 -0.321823 -0.130774
v -0.000133 -0.317519 -0.131085
v -0.000768 -0.314824 -0.132810
v -0.000184 -0.309623 -0.145408
v -0.010892 -0.301955 -0.144410
v -0.012549 -0.300145 -0.148950
v -0.017301 -0.297357 -0.149248
v -0.019312 -0.296694 -0.149248
v -0.021334 -0.296507 -0.149248
v -0.022764 -0.299375 -0.130774
v 0.004738 -0.321467 -0.149248
v 0.003614 -0.323077 -0.149187
v 0.001721 -0.323077 -0.130774
v 0.004538 -0.318421 -0.145338
v 0.004852 -0.317893 -0.148950
v -0.000184 -0.309623 -0.148048
v -0.010275 -0.301711 -0.148950
v -0.012584 -0.300140 -0.149248
v 0.004827 -0.321306 -0.149248
v 0.004852 -0.321254 -0.148950
v 0.004538 -0.320562 -0.145338
v 0.004838 -0.317901 -0.149248
v 0.000924 -0.312187 -0.149248
v -0.002614 -0.308351 -0.149248
v -0.010321 -0.301818 -0.149248
vn 0.1782 -0.1330 0.9750
vn 0.1793 -0.1327 0.9748
vn 0.1789 0.1468 0.9728
vn 0.1727 0.1502 0.9735
vn -1.0000 -0.0000 -0.0000
vn -0.0000 -1.0000 -0.0000
vn 0.0002 -1.0000 -0.0000
vn -0.0001 -1.0000 -0.0000
vn 0.0001 -1.0000 -0.0000
vn -0.0006 -1.0000 -0.0000
vn 0.2230 -0.1756 0.9589
vn 0.2362 -0.1804 0.9548
vn 0.2742 -0.1786 0.9449
vn 0.3544 -0.0187 0.9349
vn 0.3545 0.0170 0.9349
vn 0.2359 0.1450 0.9609
vn 0.1059 0.2538 0.9614
vn 0.2758 0.7038 0.6547
vn 0.2546 0.7132 0.6531
vn -0.6825 -0.6435 -0.3464
vn -0.6720 -0.6533 -0.3488
vn 0.4585 -0.0186 0.8885
vn 0.5092 0.0090 0.8606
vn 0.5109 0.0208 0.8594
vn 0.5336 0.0786 0.8421
vn 0.5764 0.3889 0.7187
vn 0.4349 0.6185 0.6545
vn 0.4142 0.6414 0.6458
vn 0.2220 0.7285 0.6480
vn 0.2034 0.7337 0.6483
vn -0.0954 0.7559 0.6477
vn 0.6494 0.7108 0.2701
vn 0.5975 0.7551 0.2698
vn 0.4327 0.6450 0.6299
vn 0.6334 0.6965 0.3372
vn -0.0000 -0.0000 -1.0000
vn -0.0000 0.0001 -1.0000
vn -0.0000 -0.0002 -1.0000
vn 0.8450 0.0765 0.5292
vn 0.8902 0.2377 0.3885
vn 0.8920 0.2626 0.3680
vn 0.8824 0.3589 0.3041
vn 0.8722 0.3925 0.2920
vn 0.7906 0.5522 0.2646
vn 0.6815 0.6807 0.2687
vn 0.6125 0.7606 0.2153
vn 0.5841 0.7934 0.1711
vn 0.5250 0.8390 0.1429
vn 0.4950 0.8582 0.1357
vn 0.3099 0.9402 0.1415
vn 0.1765 0.9720 0.1549
vn 0.0911 0.9846 0.1491
vn -0.0414 0.9879 0.1496
vn -0.0862 0.9855 0.1463
vn 0.6562 0.7090 0.2585
vn -0.2261 0.9651 0.1323
vn 0.8189 -0.5693 0.0725
vn 0.9225 0.1551 0.3534
vn 0.8988 0.2336 0.3708
vn 0.9581 0.1611 0.2368
vn 0.8929 0.3605 0.2698
vn 0.8861 0.3794 0.2664
vn 0.8566 0.4617 0.2303
vn 0.8714 0.4689 0.1442
vn 0.8541 0.5201 -0.0000
vn 0.6170 0.7869 -0.0000
vn 0.5854 0.8015 0.1225
vn 0.5632 0.8175 0.1204
vn 0.5665 0.8223 -0.0529
vn 0.5076 0.8604 -0.0453
vn 0.8746 -0.4847 0.0132
vn 0.8244 -0.5595 0.0859
vn 0.8184 -0.5685 0.0841
vn 0.9509 -0.2782 0.1359
vn 0.9818 -0.0000 0.1899
vn 0.9963 -0.0000 0.0865
vn 0.9990 -0.0000 -0.0453
vn 0.8504 0.5236 -0.0526
vn 0.7536 0.5162 -0.4070
vn 0.5824 0.5373 -0.6100
vn 0.5781 0.6820 -0.4479
vn 0.5970 0.7213 -0.3512
vn 0.5568 0.7507 -0.3555
vn 0.9967 -0.0032 -0.0808
s 0
f 1//1 2//1 3//1
f 1//2 3//2 4//2
f 1//3 4//3 5//3
f 1//4 5//4 6//4
f 1//5 6//5 13//5
f 1//5 13//5 25//5
f 1//5 25//5 41//5
f 1//5 41//5 28//5
f 1//5 28//5 15//5
f 1//5 15//5 7//5
f 1//5 7//5 2//5
f 2//6 7//6 17//6
f 2//6 17//6 29//6
f 2//7 29//7 43//7
f 2//6 43//6 44//6
f 2//6 44//6 30//6
f 2//6 30//6 20//6
f 2//6 20//6 19//6
f 2//6 19//6 18//6
f 2//8 18//8 10//8
f 2//9 10//9 9//9
f 2//10 9//10 8//10
f 2//6 8//6 3//6
f 3//11 8//11 4//11
f 4//12 8//12 9//12
f 4//13 9//13 10//13
f 4//14 10//14 11//14
f 4//15 11//15 12//15
f 4//16 12//16 5//16
f 5//17 13//17 6//17
f 5//18 12//18 14//18
f 5//19 14//19 13//19
f 7//20 15//20 16//20
f 7//21 16//21 17//21
f 10//22 18//22 11//22
f 11//23 18//23 19//23
f 11//24 19//24 12//24
f 12//25 19//25 20//25
f 12//26 20//26 21//26
f 12//27 21//27 22//27
f 12//28 22//28 14//28
f 13//29 14//29 23//29
f 13//30 23//30 24//30
f 13//31 24//31 25//31
f 14//32 26//32 27//32
f 14//33 27//33 23//33
f 14//34 22//34 21//34
f 14//35 21//35 26//35
f 15//36 28//36 40//36
f 15//36 40//36 39//36
f 15//36 39//36 38//36
f 15//36 38//36 49//36
f 15//36 49//36 56//36
f 15//36 56//36 55//36
f 15//36 55//36 54//36
f 15//36 54//36 53//36
f 15//36 53//36 50//36
f 15//37 50//37 42//37
f 15//36 42//36 29//36
f 15//36 29//36 17//36
f 15//38 17//38 16//38
f 20//39 30//39 21//39
f 21//40 30//40 31//40
f 21//41 31//41 32//41
f 21//42 32//42 33//42
f 21//43 33//43 34//43
f 21//44 34//44 35//44
f 21//45 35//45 26//45
f 23//46 27//46 35//46
f 23//47 35//47 36//47
f 23//48 36//48 37//48
f 23//49 37//49 38//49
f 23//50 38//50 39//50
f 23//51 39//51 24//51
f 24//52 39//52 40//52
f 24//53 40//53 25//53
f 25//54 40//54 41//54
f 26//55 35//55 27//55
f 28//56 41//56 40//56
f 29//57 42//57 43//57
f 30//58 44//58 32//58
f 30//59 32//59 31//59
f 32//60 44//60 45//60
f 32//61 45//61 33//61
f 33//62 45//62 34//62
f 34//63 45//63 35//63
f 35//64 45//64 46//64
f 35//65 46//65 47//65
f 35//66 47//66 48//66
f 35//67 48//67 36//67
f 36//68 48//68 37//68
f 37//69 48//69 49//69
f 37//70 49//70 38//70
f 42//71 50//71 51//71
f 42//72 51//72 44//72
f 42//73 44//73 43//73
f 44//74 51//74 52//74
f 44//75 52//75 45//75
f 45//76 52//76 51//76
f 45//76 51//76 46//76
f 46//77 51//77 53//77
f 46//78 53//78 47//78
f 47//79 53//79 54//79
f 47//80 54//80 55//80
f 47//81 55//81 56//81
f 47//82 56//82 48//82
f 48//83 56//83 49//83
f 50//84 53//84 51//84
