# Blender 4.1.0
# www.blender.org
mtllib convex_131.mtl
o convex_131
v -0.045543 -0.324607 -0.107392
v -0.045543 -0.325954 -0.103529
v -0.045543 -0.331796 -0.107392
v -0.062572 -0.331721 -0.107392
v -0.045543 -0.327549 -0.100538
v -0.045543 -0.343189 -0.107351
v -0.049253 -0.336329 -0.107392
v -0.066771 -0.334616 -0.107392
v -0.063868 -0.333415 -0.105932
v -0.045543 -0.328188 -0.099946
v -0.055661 -0.333063 -0.101100
v -0.055695 -0.337502 -0.096459
v -0.050979 -0.338314 -0.107392
v -0.045543 -0.344546 -0.107207
v -0.079320 -0.360369 -0.107392
v -0.070858 -0.354306 -0.107392
v -0.079320 -0.347962 -0.107392
v -0.078321 -0.351209 -0.100985
v -0.078450 -0.355521 -0.096455
v -0.061018 -0.336911 -0.100575
v -0.045543 -0.330726 -0.098105
v -0.053145 -0.340003 -0.095151
v -0.045543 -0.332003 -0.097496
v -0.074942 -0.364188 -0.090747
v -0.071318 -0.367262 -0.088017
v -0.045543 -0.372546 -0.097928
v -0.079320 -0.367281 -0.104726
v -0.079320 -0.350505 -0.103764
v -0.079320 -0.353827 -0.099502
v -0.079181 -0.353855 -0.099271
v -0.079320 -0.368149 -0.091389
v -0.079320 -0.354170 -0.099259
v -0.060142 -0.364751 -0.087563
v -0.057960 -0.363029 -0.088077
v -0.053145 -0.362719 -0.088680
v -0.045543 -0.359463 -0.091056
v -0.076218 -0.366990 -0.090249
v -0.071196 -0.372546 -0.087849
v -0.070283 -0.372546 -0.087693
v -0.045543 -0.372546 -0.091741
v -0.079320 -0.372546 -0.102213
v -0.079320 -0.369275 -0.091389
v -0.059656 -0.364751 -0.087563
v -0.066775 -0.372546 -0.087513
v -0.059656 -0.365413 -0.087563
v -0.048602 -0.367262 -0.089747
v -0.048602 -0.362719 -0.089679
v -0.045543 -0.362719 -0.090607
v -0.071576 -0.372546 -0.088034
v -0.079320 -0.370481 -0.091453
v -0.048589 -0.372546 -0.090780
v -0.045543 -0.371490 -0.091233
v -0.079320 -0.372546 -0.092998
v -0.065436 -0.372546 -0.087581
v -0.059338 -0.372546 -0.088024
v -0.058548 -0.372546 -0.088124
v -0.045543 -0.367262 -0.090556
v -0.075941 -0.372546 -0.090356
v -0.079320 -0.372198 -0.092633
v -0.053717 -0.372546 -0.089383
vn 1.0000 -0.0000 -0.0000
vn 1.0000 -0.0000 0.0004
vn -0.0000 -0.0000 -1.0000
vn -0.3670 0.8784 0.3063
vn -0.3758 0.8177 0.4361
vn 0.0044 -0.0036 -1.0000
vn -0.5173 0.7504 0.4114
vn -0.3957 0.7543 0.5239
vn -0.3988 0.6677 0.6287
vn -0.3973 0.6646 0.6328
vn -0.3483 0.6371 0.6876
vn 0.0042 -0.0037 -1.0000
vn 0.0548 -0.1054 -0.9929
vn 0.0042 -0.0058 -1.0000
vn 0.0036 -0.0044 -1.0000
vn -0.6617 0.6222 0.4184
vn -0.5609 0.6076 0.5623
vn -0.5429 0.6070 0.5804
vn -0.4260 0.6371 0.6424
vn -0.4005 0.6636 0.6318
vn -0.4819 0.5940 0.6441
vn -0.2522 0.5682 0.7833
vn -0.1075 0.3724 0.9218
vn -0.1396 0.4263 0.8937
vn -0.4579 0.5784 0.6752
vn -0.3331 0.4208 0.8438
vn -0.3057 0.4049 0.8617
vn -0.1440 0.3393 0.9296
vn 0.1508 -0.3110 -0.9384
vn 0.1306 -0.3568 -0.9250
vn -1.0000 -0.0000 -0.0000
vn -0.7141 0.5732 0.4018
vn -0.7560 0.5163 0.4024
vn -0.6936 0.5367 0.4805
vn -0.6779 0.5420 0.4966
vn -0.4456 0.3596 0.8199
vn -0.7082 0.5116 0.4866
vn -0.8661 0.2891 0.4077
vn -0.8986 0.2153 0.3823
vn -0.1100 0.3197 0.9411
vn -0.0193 0.2981 0.9544
vn -0.0057 0.2926 0.9562
vn 0.1045 0.2504 0.9625
vn 0.2023 0.2236 0.9535
vn -0.4350 0.3459 0.8313
vn -0.3769 0.3258 0.8671
vn -0.3990 0.1838 0.8983
vn -0.3902 0.0201 0.9205
vn -0.1681 0.0273 0.9854
vn -0.0519 0.0508 0.9974
vn -0.0000 -1.0000 -0.0000
vn 0.1137 -0.4280 -0.8966
vn -0.3994 -0.0000 0.9168
vn -0.0000 0.2859 0.9583
vn -0.0515 0.0503 0.9974
vn -0.0000 0.0065 1.0000
vn 0.1107 0.1825 0.9770
vn 0.1691 -0.0000 0.9856
vn 0.1865 -0.0438 0.9815
vn 0.2146 -0.0146 0.9766
vn 0.2100 0.2071 0.9555
vn 0.2879 0.1310 0.9487
vn -0.4153 -0.0484 0.9084
vn -0.4324 -0.1488 0.8893
vn 0.2736 -0.4170 0.8668
vn 0.0071 -0.0000 1.0000
vn 0.0508 -0.0436 0.9978
vn 0.0724 -0.0612 0.9955
vn 0.1243 -0.0585 0.9905
vn 0.1858 -0.0483 0.9814
vn 0.2419 -0.1615 0.9568
vn 0.2529 -0.1530 0.9553
vn 0.2559 -0.0145 0.9666
vn 0.2904 0.0107 0.9568
vn -0.4499 -0.2867 0.8458
vn -0.5230 -0.4825 0.7025
vn 0.2486 -0.3251 0.9124
vn 0.2443 -0.2483 0.9374
vn -0.4744 -0.6378 0.6067
s 0
f 1//1 2//1 5//1
f 1//1 5//1 10//1
f 1//1 10//1 21//1
f 1//1 21//1 23//1
f 1//1 23//1 36//1
f 1//1 36//1 48//1
f 1//1 48//1 57//1
f 1//1 57//1 52//1
f 1//1 52//1 40//1
f 1//1 40//1 26//1
f 1//1 26//1 14//1
f 1//1 14//1 6//1
f 1//2 6//2 3//2
f 1//3 3//3 7//3
f 1//3 7//3 13//3
f 1//3 13//3 16//3
f 1//3 16//3 15//3
f 1//3 15//3 17//3
f 1//3 17//3 8//3
f 1//3 8//3 4//3
f 1//4 4//4 2//4
f 2//5 4//5 5//5
f 3//6 6//6 7//6
f 4//7 8//7 9//7
f 4//8 9//8 5//8
f 5//9 9//9 11//9
f 5//10 11//10 12//10
f 5//11 12//11 10//11
f 6//12 13//12 7//12
f 6//13 14//13 15//13
f 6//14 15//14 16//14
f 6//15 16//15 13//15
f 8//16 17//16 18//16
f 8//17 18//17 19//17
f 8//18 19//18 9//18
f 9//19 20//19 12//19
f 9//20 12//20 11//20
f 9//21 19//21 20//21
f 10//22 12//22 21//22
f 12//23 22//23 23//23
f 12//24 23//24 21//24
f 12//25 20//25 19//25
f 12//26 19//26 24//26
f 12//27 24//27 25//27
f 12//28 25//28 22//28
f 14//29 26//29 15//29
f 15//30 26//30 27//30
f 15//31 27//31 41//31
f 15//31 41//31 53//31
f 15//31 53//31 59//31
f 15//31 59//31 50//31
f 15//31 50//31 42//31
f 15//31 42//31 31//31
f 15//31 31//31 32//31
f 15//31 32//31 29//31
f 15//31 29//31 28//31
f 15//31 28//31 17//31
f 17//32 28//32 18//32
f 18//33 28//33 29//33
f 18//34 29//34 30//34
f 18//35 30//35 19//35
f 19//36 31//36 24//36
f 19//37 30//37 29//37
f 19//38 29//38 32//38
f 19//39 32//39 31//39
f 22//40 25//40 33//40
f 22//41 33//41 23//41
f 23//42 33//42 34//42
f 23//43 34//43 35//43
f 23//44 35//44 36//44
f 24//45 31//45 37//45
f 24//46 37//46 25//46
f 25//47 37//47 31//47
f 25//48 31//48 38//48
f 25//49 38//49 39//49
f 25//50 39//50 33//50
f 26//51 40//51 51//51
f 26//51 51//51 60//51
f 26//51 60//51 56//51
f 26//51 56//51 55//51
f 26//51 55//51 54//51
f 26//51 54//51 44//51
f 26//51 44//51 39//51
f 26//51 39//51 38//51
f 26//51 38//51 49//51
f 26//51 49//51 58//51
f 26//51 58//51 53//51
f 26//51 53//51 41//51
f 26//52 41//52 27//52
f 31//53 42//53 38//53
f 33//54 43//54 34//54
f 33//55 39//55 44//55
f 33//56 44//56 43//56
f 34//57 43//57 35//57
f 35//58 43//58 45//58
f 35//59 45//59 46//59
f 35//60 46//60 47//60
f 35//61 47//61 36//61
f 36//62 47//62 48//62
f 38//63 42//63 50//63
f 38//64 50//64 49//64
f 40//65 52//65 51//65
f 43//66 44//66 45//66
f 44//67 54//67 45//67
f 45//68 54//68 55//68
f 45//69 55//69 56//69
f 45//70 56//70 46//70
f 46//71 56//71 52//71
f 46//72 52//72 57//72
f 46//73 57//73 47//73
f 47//74 57//74 48//74
f 49//75 50//75 58//75
f 50//76 59//76 58//76
f 51//77 52//77 60//77
f 52//78 56//78 60//78
f 53//79 58//79 59//79
