# Blender 4.1.0
# www.blender.org
mtllib convex_102.mtl
o convex_102
v 0.115038 -0.427541 -0.170073
v 0.115754 -0.427511 -0.170073
v 0.110442 -0.426278 -0.170073
v 0.115754 -0.411341 -0.204716
v 0.115754 -0.419344 -0.170073
v 0.108881 -0.425328 -0.170073
v 0.106293 -0.422622 -0.170073
v 0.103071 -0.396920 -0.204716
v 0.115754 -0.401292 -0.204716
v 0.115754 -0.404954 -0.182359
v 0.111974 -0.389987 -0.170073
v 0.105677 -0.421798 -0.170073
v 0.102347 -0.396048 -0.204716
v 0.115754 -0.400516 -0.201047
v 0.107828 -0.385447 -0.204716
v 0.108424 -0.382542 -0.201752
v 0.108808 -0.381827 -0.198937
v 0.109106 -0.381496 -0.194393
v 0.115754 -0.402627 -0.184437
v 0.108792 -0.377792 -0.171677
v 0.108649 -0.378008 -0.170073
v 0.115754 -0.401929 -0.185173
v 0.115754 -0.399644 -0.189849
v 0.105328 -0.421311 -0.170073
v 0.101243 -0.394322 -0.204716
v 0.115754 -0.400156 -0.198937
v 0.107328 -0.384533 -0.204716
v 0.105876 -0.382091 -0.204716
v 0.103681 -0.374039 -0.201304
v 0.107619 -0.379553 -0.198937
v 0.105427 -0.371983 -0.180765
v 0.115754 -0.399620 -0.195309
v 0.103825 -0.369319 -0.173637
v 0.115754 -0.399524 -0.190633
v 0.115754 -0.399572 -0.194393
v 0.100200 -0.366216 -0.170073
v 0.103756 -0.417180 -0.170073
v 0.100122 -0.391352 -0.204716
v 0.105447 -0.381448 -0.204716
v 0.100711 -0.375717 -0.204716
v 0.100122 -0.375055 -0.204716
v 0.100122 -0.372770 -0.202820
v 0.100122 -0.371880 -0.200765
v 0.100122 -0.371189 -0.198937
v 0.100865 -0.367653 -0.185309
v 0.103442 -0.369709 -0.180765
v 0.103825 -0.369319 -0.175302
v 0.100122 -0.366107 -0.170073
v 0.103017 -0.414239 -0.170073
v 0.102740 -0.413090 -0.170073
v 0.102356 -0.408875 -0.170073
v 0.100122 -0.382109 -0.170073
v 0.100122 -0.367220 -0.185343
v 0.100122 -0.366865 -0.183790
v 0.100122 -0.366625 -0.180765
v 0.100122 -0.366107 -0.170649
vn -0.0000 -0.0000 1.0000
vn -0.0000 -0.0001 1.0000
vn -0.2410 -0.8772 -0.4152
vn 0.0378 -0.9055 -0.4227
vn 1.0000 -0.0000 -0.0000
vn -0.4745 -0.7796 -0.4089
vn -0.6657 -0.6367 -0.3891
vn -0.6923 -0.6089 -0.3873
vn -0.0000 0.0006 -1.0000
vn -0.0000 -0.0000 -1.0000
vn 0.9809 0.1263 0.1479
vn -0.7516 -0.5619 -0.3454
vn -0.7138 -0.5926 -0.3733
vn 0.7607 0.3805 -0.5259
vn 0.8962 0.3852 -0.2201
vn 0.9298 0.3576 -0.0870
vn 0.9330 0.3522 -0.0745
vn 0.9810 0.1291 0.1446
vn 0.9565 0.2655 0.1210
vn 0.9809 0.1412 0.1339
vn 0.9771 0.1912 0.0934
vn 0.9641 0.2592 0.0577
vn -0.7661 -0.5489 -0.3344
vn -0.8022 -0.5131 -0.3052
vn 0.9357 0.3478 -0.0593
vn 0.7367 0.4030 -0.5431
vn 0.7170 0.4263 -0.5515
vn 0.7164 0.4286 -0.5506
vn 0.8346 0.4798 -0.2708
vn 0.8620 0.4507 -0.2321
vn 0.8825 0.4614 -0.0915
vn 0.8799 0.4668 -0.0883
vn 0.9004 0.4311 -0.0578
vn 0.9372 0.3460 -0.0435
vn 0.9368 0.3462 -0.0511
vn 0.8622 0.5065 0.0045
vn 0.8385 0.5252 0.1455
vn 0.9615 0.2717 0.0416
vn 0.9513 0.3082 -0.0039
vn 0.9472 0.3203 -0.0168
vn 0.7743 0.5548 0.3045
vn -0.9219 -0.3508 -0.1646
vn -0.9231 -0.3484 -0.1629
vn 0.6576 0.4388 -0.6124
vn 0.5343 0.4754 -0.6989
vn 0.4856 0.5582 -0.6727
vn 0.4447 0.8219 -0.3560
vn 0.4571 0.8320 -0.3145
vn 0.5029 0.8296 -0.2427
vn 0.7472 0.6520 -0.1288
vn 0.8320 0.5406 -0.1248
vn 0.5494 0.4540 -0.7015
vn 0.7471 0.6522 -0.1286
vn 0.7496 0.6543 -0.0993
vn 0.8570 0.5153 -0.0000
vn 0.6552 0.7554 -0.0000
vn 0.7747 0.5538 0.3052
vn -0.9668 -0.2429 -0.0797
vn -0.9695 -0.2337 -0.0734
vn -0.9957 -0.0907 0.0183
vn -0.9963 -0.0832 0.0222
vn -1.0000 -0.0000 -0.0000
vn 0.4967 0.8331 -0.2433
vn 0.5006 0.8439 -0.1929
vn 0.6561 0.7515 -0.0689
vn 0.7218 0.6849 -0.0995
vn 0.6440 0.7626 -0.0605
vn 0.6256 0.7791 -0.0399
s 0
f 1//1 2//1 5//1
f 1//1 5//1 11//1
f 1//1 11//1 21//1
f 1//1 21//1 36//1
f 1//1 36//1 48//1
f 1//1 48//1 52//1
f 1//1 52//1 51//1
f 1//1 51//1 50//1
f 1//1 50//1 49//1
f 1//1 49//1 37//1
f 1//1 37//1 24//1
f 1//1 24//1 12//1
f 1//1 12//1 7//1
f 1//1 7//1 6//1
f 1//2 6//2 3//2
f 1//3 3//3 4//3
f 1//4 4//4 2//4
f 2//5 4//5 9//5
f 2//5 9//5 14//5
f 2//5 14//5 26//5
f 2//5 26//5 32//5
f 2//5 32//5 35//5
f 2//5 35//5 34//5
f 2//5 34//5 23//5
f 2//5 23//5 22//5
f 2//5 22//5 19//5
f 2//5 19//5 10//5
f 2//5 10//5 5//5
f 3//6 6//6 4//6
f 4//7 6//7 7//7
f 4//8 7//8 8//8
f 4//9 8//9 13//9
f 4//10 13//10 25//10
f 4//10 25//10 38//10
f 4//10 38//10 41//10
f 4//10 41//10 40//10
f 4//10 40//10 39//10
f 4//10 39//10 28//10
f 4//10 28//10 27//10
f 4//10 27//10 15//10
f 4//10 15//10 9//10
f 5//11 10//11 11//11
f 7//12 12//12 13//12
f 7//13 13//13 8//13
f 9//14 15//14 16//14
f 9//15 16//15 17//15
f 9//16 17//16 18//16
f 9//17 18//17 14//17
f 10//18 19//18 11//18
f 11//19 20//19 21//19
f 11//20 19//20 22//20
f 11//21 22//21 23//21
f 11//22 23//22 20//22
f 12//23 24//23 13//23
f 13//24 24//24 25//24
f 14//25 18//25 26//25
f 15//26 27//26 16//26
f 16//27 27//27 28//27
f 16//28 28//28 29//28
f 16//29 29//29 30//29
f 16//30 30//30 17//30
f 17//31 30//31 18//31
f 18//32 30//32 31//32
f 18//33 31//33 20//33
f 18//34 20//34 32//34
f 18//35 32//35 26//35
f 20//36 31//36 33//36
f 20//37 33//37 21//37
f 20//38 23//38 34//38
f 20//39 34//39 35//39
f 20//40 35//40 32//40
f 21//41 33//41 36//41
f 24//42 37//42 25//42
f 25//43 37//43 38//43
f 28//44 39//44 29//44
f 29//45 40//45 41//45
f 29//46 41//46 42//46
f 29//47 42//47 43//47
f 29//48 43//48 44//48
f 29//49 44//49 45//49
f 29//50 45//50 31//50
f 29//51 31//51 30//51
f 29//52 39//52 40//52
f 31//53 45//53 46//53
f 31//54 46//54 47//54
f 31//55 47//55 33//55
f 33//56 47//56 56//56
f 33//56 56//56 48//56
f 33//57 48//57 36//57
f 37//58 49//58 38//58
f 38//59 49//59 50//59
f 38//60 50//60 51//60
f 38//61 51//61 52//61
f 38//62 52//62 48//62
f 38//62 48//62 56//62
f 38//62 56//62 55//62
f 38//62 55//62 54//62
f 38//62 54//62 53//62
f 38//62 53//62 44//62
f 38//62 44//62 43//62
f 38//62 43//62 42//62
f 38//62 42//62 41//62
f 44//63 53//63 45//63
f 45//64 53//64 54//64
f 45//65 54//65 47//65
f 45//66 47//66 46//66
f 47//67 54//67 55//67
f 47//68 55//68 56//68
