# Blender 4.1.0
# www.blender.org
mtllib convex_86.mtl
o convex_86
v 0.105897 -0.494496 0.120106
v 0.105897 -0.489952 0.119814
v 0.101356 -0.480863 0.119221
v 0.096811 -0.485407 0.119458
v 0.101356 -0.494496 0.119666
v 0.098081 -0.501811 0.117533
v 0.101702 -0.499425 0.118420
v 0.100417 -0.501811 0.117533
v 0.105897 -0.498582 0.118281
v 0.108838 -0.497784 0.117769
v 0.109291 -0.494496 0.118380
v 0.109578 -0.489952 0.118191
v 0.109196 -0.476327 0.117783
v 0.105897 -0.480863 0.119141
v 0.096811 -0.480863 0.118618
v 0.105897 -0.476327 0.118559
v 0.092795 -0.484882 0.118817
v 0.092795 -0.485407 0.118914
v 0.096665 -0.499062 0.118044
v 0.094005 -0.501605 0.113136
v 0.094005 -0.501605 0.111636
v 0.100417 -0.501811 0.115946
v 0.094207 -0.497561 0.117226
v 0.095053 -0.500592 0.116167
v 0.108203 -0.501323 0.112390
v 0.112997 -0.498545 0.113643
v 0.112997 -0.494496 0.115202
v 0.112997 -0.492594 0.115413
v 0.112997 -0.489952 0.115703
v 0.112997 -0.485407 0.115724
v 0.112997 -0.474259 0.114551
v 0.112997 -0.469214 0.113803
v 0.108704 -0.473606 0.117256
v 0.101319 -0.476058 0.117830
v 0.096811 -0.477513 0.117432
v 0.094144 -0.478353 0.117058
v 0.092795 -0.480528 0.117468
v 0.092795 -0.481012 0.117636
v 0.105897 -0.473457 0.117304
v 0.102810 -0.473705 0.117065
v 0.092795 -0.490068 0.118317
v 0.092795 -0.491879 0.117943
v 0.093303 -0.499062 0.114631
v 0.092795 -0.498611 0.114135
v 0.092795 -0.499339 0.110890
v 0.095267 -0.501605 0.111636
v 0.092795 -0.499339 0.110444
v 0.112997 -0.496059 0.107731
v 0.108203 -0.501323 0.112308
v 0.092795 -0.493694 0.117216
v 0.092795 -0.496192 0.116024
v 0.112997 -0.498665 0.110102
v 0.112997 -0.464765 0.112508
v 0.110442 -0.464517 0.112626
v 0.105794 -0.459571 0.110429
v 0.096811 -0.459571 0.109885
v 0.092795 -0.459571 0.108998
v 0.101356 -0.459571 0.110362
v 0.092795 -0.497966 0.114660
v 0.092795 -0.498938 0.110230
v 0.092795 -0.494678 0.108645
v 0.092795 -0.467225 0.099883
v 0.092795 -0.463169 0.098941
v 0.112997 -0.459571 0.099414
v 0.112997 -0.459571 0.108216
v 0.111880 -0.459571 0.108723
v 0.110343 -0.459571 0.109416
v 0.092795 -0.459571 0.098637
v 0.092795 -0.463057 0.098920
vn -0.0020 0.0641 0.9979
vn -0.0096 0.0616 0.9981
vn -0.0964 -0.0254 0.9950
vn -0.0936 -0.2398 0.9663
vn -0.0426 -0.2907 0.9559
vn 0.0871 -0.3880 0.9175
vn 0.1149 -0.4051 0.9070
vn 0.2603 -0.3938 0.8816
vn 0.4419 -0.2224 0.8690
vn 0.4533 0.0084 0.8913
vn 0.4229 0.0390 0.9053
vn 0.3299 0.0605 0.9421
vn 0.0176 0.0738 0.9971
vn 0.2952 0.0706 0.9528
vn -0.1294 0.1802 0.9751
vn 0.0175 0.1272 0.9917
vn -0.1268 0.2664 0.9555
vn -0.1320 0.1802 0.9747
vn -0.1320 0.1801 0.9747
vn -0.1341 -0.0444 0.9900
vn -0.1061 -0.2343 0.9664
vn -0.2155 -0.1228 0.9688
vn -0.0505 -0.9987 -0.0000
vn -0.0161 -0.9996 -0.0238
vn -0.0000 -1.0000 -0.0000
vn -0.0000 -0.3484 0.9373
vn -0.4999 -0.4003 0.7680
vn -0.5067 -0.4070 0.7600
vn -0.4964 -0.7571 0.4247
vn 0.0626 -0.9980 -0.0000
vn 0.0619 -0.9981 -0.0000
vn 0.3533 -0.8160 0.4574
vn 0.3601 -0.7828 0.5074
vn 0.2997 -0.6667 0.6824
vn 0.6521 -0.2724 0.7075
vn 0.6343 -0.2248 0.7397
vn 0.6487 -0.0839 0.7564
vn 0.6485 -0.0831 0.7567
vn 0.5886 -0.0037 0.8085
vn 0.5882 -0.0035 0.8087
vn 0.5488 0.0404 0.8350
vn 0.6057 0.1167 0.7871
vn 0.4413 0.2469 0.8627
vn 0.2231 0.2241 0.9487
vn 0.2272 0.1239 0.9659
vn 0.6193 0.0822 0.7809
vn -0.1347 0.2821 0.9499
vn -0.1876 0.3278 0.9259
vn -0.2308 0.3247 0.9172
vn -0.2361 0.3194 0.9177
vn -0.2362 0.3187 0.9180
vn -0.2377 0.2835 0.9291
vn 0.0369 0.4004 0.9156
vn -0.1026 0.3985 0.9114
vn -0.1240 0.3770 0.9179
vn -1.0000 -0.0000 -0.0001
vn -1.0000 -0.0000 -0.0000
vn -1.0000 -0.0000 0.0002
vn -1.0000 -0.0000 0.0001
vn -0.2198 -0.1239 0.9677
vn -0.4247 -0.2165 0.8791
vn -0.3721 -0.1877 0.9090
vn -0.7777 -0.4640 0.4240
vn -0.7950 -0.4552 0.4009
vn -0.9127 -0.3988 0.0895
vn -0.8821 -0.4711 -0.0000
vn -0.8820 -0.4712 -0.0000
vn -0.0000 -0.9989 -0.0478
vn -0.0394 -0.4816 -0.8755
vn -0.0000 -0.5757 -0.8177
vn 0.0258 -0.9966 -0.0785
vn -0.7760 -0.3899 0.4958
vn -0.7157 -0.2597 0.6483
vn -0.7644 -0.2777 0.5818
vn -0.7846 -0.3776 0.4917
vn 0.4848 -0.8746 -0.0000
vn 0.4954 -0.8682 0.0294
vn 1.0000 -0.0000 -0.0000
vn 0.4374 0.2513 0.8634
vn 0.0840 0.4395 0.8943
vn 0.0515 0.4455 0.8938
vn 0.0389 0.4436 0.8954
vn -0.1566 0.3937 0.9058
vn -0.1994 0.3806 0.9030
vn -0.2021 0.3792 0.9030
vn -0.2417 0.3679 0.8979
vn -0.3068 0.3566 0.8824
vn -0.0135 0.4436 0.8961
vn -0.0947 0.4202 0.9025
vn -0.1033 0.4153 0.9038
vn -0.7854 -0.3773 0.4907
vn -0.7964 -0.3818 0.4690
vn 0.0525 -0.6921 -0.7199
vn 0.0475 -0.6722 -0.7388
vn -0.0420 -0.4704 -0.8815
vn -0.0661 -0.3479 -0.9352
vn -0.0638 -0.3034 -0.9507
vn 0.0556 -0.2258 -0.9726
vn 0.0623 -0.2218 -0.9731
vn 0.3303 0.6012 0.7276
vn 0.3284 0.6014 0.7283
vn 0.1787 0.5691 0.8026
vn 0.0863 0.4710 0.8779
vn -0.0000 1.0000 -0.0000
vn 0.0559 -0.1848 -0.9812
vn 0.0383 -0.0811 -0.9960
s 0
f 1//1 2//1 3//1
f 1//2 3//2 4//2
f 1//3 4//3 5//3
f 1//4 5//4 6//4
f 1//5 6//5 7//5
f 1//6 7//6 8//6
f 1//7 8//7 9//7
f 1//8 9//8 10//8
f 1//9 10//9 11//9
f 1//10 11//10 12//10
f 1//11 12//11 13//11
f 1//12 13//12 2//12
f 2//13 14//13 3//13
f 2//14 13//14 14//14
f 3//15 15//15 4//15
f 3//16 14//16 16//16
f 3//17 16//17 15//17
f 4//18 15//18 17//18
f 4//19 17//19 18//19
f 4//20 18//20 5//20
f 5//21 19//21 6//21
f 5//22 18//22 19//22
f 6//23 20//23 21//23
f 6//24 21//24 22//24
f 6//25 22//25 8//25
f 6//26 8//26 7//26
f 6//27 19//27 23//27
f 6//28 23//28 24//28
f 6//29 24//29 20//29
f 8//30 22//30 49//30
f 8//31 49//31 25//31
f 8//32 25//32 26//32
f 8//33 26//33 10//33
f 8//34 10//34 9//34
f 10//35 26//35 27//35
f 10//36 27//36 11//36
f 11//37 27//37 28//37
f 11//38 28//38 29//38
f 11//39 29//39 30//39
f 11//40 30//40 12//40
f 12//41 30//41 13//41
f 13//42 31//42 32//42
f 13//43 32//43 33//43
f 13//44 33//44 16//44
f 13//45 16//45 14//45
f 13//46 30//46 31//46
f 15//47 16//47 34//47
f 15//48 34//48 35//48
f 15//49 35//49 36//49
f 15//50 36//50 37//50
f 15//51 37//51 38//51
f 15//52 38//52 17//52
f 16//53 33//53 39//53
f 16//54 39//54 40//54
f 16//55 40//55 34//55
f 17//56 38//56 37//56
f 17//57 37//57 57//57
f 17//57 57//57 68//57
f 17//57 68//57 69//57
f 17//58 69//58 63//58
f 17//57 63//57 62//57
f 17//57 62//57 61//57
f 17//57 61//57 60//57
f 17//57 60//57 47//57
f 17//57 47//57 45//57
f 17//57 45//57 44//57
f 17//57 44//57 59//57
f 17//57 59//57 51//57
f 17//57 51//57 50//57
f 17//57 50//57 42//57
f 17//56 42//56 41//56
f 17//59 41//59 18//59
f 18//60 41//60 19//60
f 19//61 42//61 23//61
f 19//62 41//62 42//62
f 20//63 24//63 43//63
f 20//64 43//64 44//64
f 20//65 44//65 45//65
f 20//66 45//66 47//66
f 20//67 47//67 21//67
f 21//68 46//68 22//68
f 21//69 47//69 48//69
f 21//70 48//70 46//70
f 22//71 46//71 49//71
f 23//72 43//72 24//72
f 23//73 42//73 50//73
f 23//74 50//74 51//74
f 23//75 51//75 43//75
f 25//76 49//76 52//76
f 25//77 52//77 26//77
f 26//78 52//78 48//78
f 26//78 48//78 64//78
f 26//78 64//78 65//78
f 26//78 65//78 53//78
f 26//78 53//78 32//78
f 26//78 32//78 31//78
f 26//78 31//78 30//78
f 26//78 30//78 29//78
f 26//78 29//78 28//78
f 26//78 28//78 27//78
f 32//79 53//79 33//79
f 33//80 53//80 54//80
f 33//81 54//81 55//81
f 33//82 55//82 39//82
f 34//83 40//83 56//83
f 34//84 56//84 57//84
f 34//85 57//85 35//85
f 35//86 57//86 36//86
f 36//87 57//87 37//87
f 39//88 55//88 58//88
f 39//89 58//89 56//89
f 39//90 56//90 40//90
f 43//91 51//91 59//91
f 43//92 59//92 44//92
f 46//93 52//93 49//93
f 46//94 48//94 52//94
f 47//95 60//95 48//95
f 48//96 60//96 61//96
f 48//97 61//97 62//97
f 48//98 62//98 63//98
f 48//99 63//99 64//99
f 53//100 65//100 66//100
f 53//101 66//101 67//101
f 53//102 67//102 55//102
f 53//103 55//103 54//103
f 55//104 67//104 66//104
f 55//104 66//104 65//104
f 55//104 65//104 64//104
f 55//104 64//104 68//104
f 55//104 68//104 57//104
f 55//104 57//104 56//104
f 55//104 56//104 58//104
f 63//105 69//105 64//105
f 64//106 69//106 68//106
