# Blender 4.1.0
# www.blender.org
mtllib convex_132.mtl
o convex_132
v 0.007766 -0.339037 -0.154399
v 0.007583 -0.339037 -0.157187
v 0.006145 -0.339037 -0.149248
v 0.006387 -0.339983 -0.149248
v 0.006061 -0.344549 -0.149248
v 0.006027 -0.344840 -0.149248
v 0.006100 -0.349089 -0.153499
v 0.005342 -0.353633 -0.153499
v 0.002486 -0.344549 -0.171673
v 0.005937 -0.339037 -0.162586
v 0.005808 -0.349089 -0.158044
v 0.000675 -0.339037 -0.149248
v 0.004646 -0.353633 -0.149248
v 0.003907 -0.356421 -0.156365
v 0.004036 -0.356839 -0.149248
v -0.003787 -0.382179 -0.153499
v -0.004363 -0.382179 -0.157007
v 0.001385 -0.344549 -0.173826
v 0.000667 -0.340004 -0.173826
v 0.004547 -0.339037 -0.165687
v 0.001745 -0.349089 -0.171673
v 0.000815 -0.349089 -0.173826
v 0.001079 -0.347471 -0.173826
v -0.006253 -0.339037 -0.169108
v -0.010841 -0.364263 -0.154791
v -0.008651 -0.367262 -0.149248
v -0.004166 -0.382179 -0.149248
v -0.004046 -0.382179 -0.150581
v -0.009923 -0.382179 -0.169517
v -0.005747 -0.368943 -0.173340
v 0.000417 -0.339037 -0.173826
v -0.005124 -0.366329 -0.173826
v -0.007882 -0.339037 -0.173826
v -0.020105 -0.373209 -0.173826
v -0.020923 -0.376351 -0.173826
v -0.012038 -0.382179 -0.149248
v -0.010589 -0.382179 -0.170593
v -0.006006 -0.368715 -0.173826
v -0.013096 -0.382179 -0.173826
v -0.020911 -0.382179 -0.173826
vn 0.0001 1.0000 -0.0000
vn -0.0000 1.0000 -0.0000
vn 0.9268 0.2366 0.2916
vn 0.9668 -0.0690 0.2461
vn 0.9730 -0.1126 0.2014
vn 0.9755 -0.1470 0.1636
vn 0.9863 -0.1646 -0.0131
vn 0.9838 -0.1673 -0.0644
vn 0.9499 -0.1175 -0.2895
vn 0.9835 -0.1679 -0.0670
vn 0.9494 -0.1438 -0.2793
vn -0.0000 -0.0000 1.0000
vn 0.9736 -0.1530 0.1696
vn 0.9737 -0.1625 0.1595
vn 0.9387 -0.2871 -0.1907
vn 0.9699 -0.1844 0.1589
vn 0.9506 -0.3040 0.0627
vn 0.9411 -0.3010 -0.1544
vn 0.9377 -0.2966 -0.1810
vn 0.8817 0.1395 -0.4508
vn 0.8860 0.1464 -0.4399
vn 0.9077 0.1024 -0.4069
vn 0.9468 -0.1546 -0.2823
vn 0.9079 -0.1483 -0.3920
vn 0.9079 -0.1481 -0.3922
vn 0.8865 -0.0929 -0.4533
vn 0.9291 -0.2927 -0.2260
vn 0.9170 -0.2904 -0.2734
vn -0.8888 0.3376 0.3100
vn -0.8337 0.2755 0.4785
vn 0.9479 -0.3068 0.0859
vn 0.9481 -0.3068 0.0839
vn -0.0000 -1.0000 -0.0000
vn -0.0001 -1.0000 -0.0000
vn 0.8468 -0.3759 -0.3764
vn 0.8930 -0.3096 -0.3266
vn -0.0000 -0.0000 -1.0000
vn 0.8690 0.2246 -0.4410
vn 0.8761 -0.2989 -0.3783
vn 0.8322 -0.2867 -0.4745
vn -0.8902 0.3363 0.3073
vn -0.9127 0.2374 0.3326
vn -0.9117 0.1757 0.3713
vn -0.8704 0.1976 0.4509
vn -0.9019 0.3226 0.2873
vn 0.7840 -0.3874 -0.4849
vn 0.7824 -0.2891 -0.5516
vn 0.7295 -0.3843 -0.5658
vn 0.7286 -0.3837 -0.5674
vn -0.9406 -0.0018 0.3396
s 0
f 1//1 2//1 10//1
f 1//2 10//2 20//2
f 1//2 20//2 31//2
f 1//2 31//2 33//2
f 1//2 33//2 24//2
f 1//2 24//2 12//2
f 1//2 12//2 3//2
f 1//3 3//3 4//3
f 1//4 4//4 5//4
f 1//5 5//5 6//5
f 1//6 6//6 7//6
f 1//7 7//7 8//7
f 1//8 8//8 2//8
f 2//9 9//9 10//9
f 2//10 8//10 11//10
f 2//11 11//11 9//11
f 3//12 12//12 26//12
f 3//12 26//12 36//12
f 3//12 36//12 27//12
f 3//12 27//12 15//12
f 3//12 15//12 13//12
f 3//12 13//12 6//12
f 3//12 6//12 5//12
f 3//12 5//12 4//12
f 6//13 13//13 7//13
f 7//14 13//14 8//14
f 8//15 14//15 11//15
f 8//16 13//16 15//16
f 8//17 15//17 16//17
f 8//18 16//18 17//18
f 8//19 17//19 14//19
f 9//20 18//20 19//20
f 9//21 19//21 20//21
f 9//22 20//22 10//22
f 9//23 11//23 21//23
f 9//24 21//24 22//24
f 9//25 22//25 23//25
f 9//26 23//26 18//26
f 11//27 14//27 17//27
f 11//28 17//28 21//28
f 12//29 24//29 25//29
f 12//30 25//30 26//30
f 15//31 27//31 28//31
f 15//32 28//32 16//32
f 16//33 28//33 27//33
f 16//33 27//33 36//33
f 16//33 36//33 40//33
f 16//33 40//33 39//33
f 16//33 39//33 37//33
f 16//34 37//34 29//34
f 16//33 29//33 17//33
f 17//35 29//35 30//35
f 17//36 30//36 21//36
f 18//37 23//37 22//37
f 18//37 22//37 32//37
f 18//37 32//37 38//37
f 18//37 38//37 39//37
f 18//37 39//37 40//37
f 18//37 40//37 35//37
f 18//37 35//37 34//37
f 18//37 34//37 33//37
f 18//37 33//37 31//37
f 18//37 31//37 19//37
f 19//38 31//38 20//38
f 21//39 30//39 22//39
f 22//40 30//40 32//40
f 24//41 33//41 25//41
f 25//42 34//42 35//42
f 25//43 35//43 36//43
f 25//44 36//44 26//44
f 25//45 33//45 34//45
f 29//46 37//46 30//46
f 30//47 38//47 32//47
f 30//48 37//48 39//48
f 30//49 39//49 38//49
f 35//50 40//50 36//50
