# Blender 4.1.0
# www.blender.org
mtllib convex_13.mtl
o convex_13
v 0.150196 -0.464092 -0.008328
v 0.151150 -0.464092 -0.007935
v 0.160082 -0.489712 0.004204
v 0.157364 -0.491064 0.003589
v 0.150196 -0.466592 -0.007457
v 0.150196 -0.464092 0.000591
v 0.151435 -0.464092 -0.007815
v 0.164066 -0.492954 0.006981
v 0.154335 -0.492524 0.003059
v 0.150196 -0.470007 -0.006210
v 0.150196 -0.478117 0.008065
v 0.175804 -0.468772 0.021813
v 0.179772 -0.464092 0.022154
v 0.167095 -0.491682 0.007914
v 0.194928 -0.464092 0.016608
v 0.194928 -0.465394 0.016608
v 0.199825 -0.492608 0.025829
v 0.168184 -0.497391 0.011505
v 0.151342 -0.493318 0.002838
v 0.150196 -0.493274 0.002869
v 0.150196 -0.495711 0.014517
v 0.179948 -0.494498 0.031144
v 0.178480 -0.467250 0.022742
v 0.162323 -0.496450 0.021681
v 0.201640 -0.464092 0.031666
v 0.203077 -0.464092 0.022596
v 0.203181 -0.464228 0.022702
v 0.203181 -0.494116 0.028730
v 0.201537 -0.494630 0.028159
v 0.171934 -0.501358 0.021287
v 0.153687 -0.496796 0.007768
v 0.203181 -0.496575 0.030552
v 0.203181 -0.498884 0.032396
v 0.203181 -0.499792 0.033138
v 0.203181 -0.501560 0.034753
v 0.150196 -0.495487 0.005951
v 0.151674 -0.495527 0.005969
v 0.150196 -0.497928 0.014508
v 0.162323 -0.497193 0.021681
v 0.179684 -0.498060 0.031330
v 0.193933 -0.499042 0.035381
v 0.194192 -0.496259 0.035248
v 0.198502 -0.487083 0.035478
v 0.203181 -0.464092 0.032228
v 0.203181 -0.464092 0.022680
v 0.171649 -0.501358 0.021287
v 0.201324 -0.501630 0.034651
v 0.176681 -0.501549 0.025422
v 0.153412 -0.496796 0.007768
v 0.203181 -0.501560 0.035562
v 0.150196 -0.497229 0.009643
v 0.171649 -0.501358 0.021552
v 0.175887 -0.501549 0.026355
v 0.194057 -0.501520 0.035314
v 0.196775 -0.499042 0.036066
v 0.203181 -0.485469 0.036075
v 0.173911 -0.501453 0.023485
v 0.201324 -0.501630 0.035628
v 0.196775 -0.501644 0.034337
v 0.203181 -0.500567 0.036119
v 0.196775 -0.501644 0.035500
v 0.201324 -0.499042 0.036698
v 0.203181 -0.497178 0.036849
v 0.203181 -0.499042 0.036752
vn 0.3648 -0.2918 -0.8842
vn 0.3497 -0.2993 -0.8878
vn 0.3150 -0.3123 -0.8963
vn -1.0000 -0.0000 -0.0008
vn -1.0000 -0.0000 0.0001
vn -1.0000 -0.0000 -0.0000
vn -0.0000 1.0000 -0.0000
vn -0.0001 1.0000 -0.0000
vn -0.0024 1.0000 -0.0000
vn 0.0002 1.0000 -0.0000
vn 0.0084 1.0000 -0.0000
vn 0.3698 -0.2894 -0.8829
vn 0.3823 -0.2836 -0.8795
vn 0.3560 -0.3159 -0.8795
vn 0.3089 -0.3147 -0.8975
vn 0.3323 -0.3748 -0.8655
vn 0.2311 -0.3337 -0.9139
vn -0.5423 0.3951 0.7415
vn -0.5391 0.4033 0.7394
vn 0.3881 -0.2802 -0.8780
vn 0.4896 -0.0000 -0.8719
vn 0.4746 -0.2046 -0.8561
vn 0.4628 -0.2260 -0.8572
vn 0.4242 -0.4228 -0.8008
vn 0.2959 -0.5334 -0.7924
vn 0.1611 -0.3502 -0.9227
vn 0.2239 -0.6393 -0.7356
vn -0.0391 -0.3632 -0.9309
vn -0.5329 0.2913 0.7945
vn -0.4386 0.2432 0.8652
vn -0.4770 0.3457 0.8080
vn -0.4843 0.2318 0.8437
vn -0.4800 0.2297 0.8466
vn -0.3783 0.3168 0.8698
vn 0.4261 -0.4221 -0.8002
vn 0.5921 -0.0000 -0.8058
vn 0.6008 -0.1531 -0.7846
vn 0.6009 -0.1574 -0.7837
vn 0.6043 -0.1575 -0.7810
vn 0.4199 -0.5098 -0.7508
vn 0.4173 -0.5120 -0.7508
vn 0.0645 -0.9159 -0.3962
vn 0.1254 -0.7816 -0.6110
vn 0.4091 -0.5499 -0.7282
vn 0.4026 -0.5713 -0.7153
vn 0.3989 -0.5807 -0.7097
vn 0.3796 -0.6238 -0.6832
vn 0.1786 -0.8860 -0.4278
vn -0.0469 -0.8114 -0.5826
vn 0.0004 -0.8171 -0.5765
vn -0.0152 -0.8178 -0.5754
vn -0.5089 -0.0034 0.8608
vn -0.5086 -0.0000 0.8610
vn -0.2683 0.0700 0.9608
vn -0.2681 0.0708 0.9608
vn -0.2640 0.1000 0.9593
vn -0.2955 0.1924 0.9358
vn -0.3339 0.2225 0.9160
vn -0.3777 0.2542 0.8903
vn -0.4785 0.0811 0.8744
vn -0.4858 -0.0000 0.8741
vn 0.6240 -0.1254 -0.7713
vn 1.0000 -0.0000 -0.0000
vn 0.4216 -0.5398 -0.7286
vn -0.0000 -0.9475 -0.3197
vn -0.0000 -0.9475 -0.3198
vn 0.0437 -0.9922 -0.1165
vn 0.0245 -0.9969 -0.0742
vn -0.0000 -0.9989 -0.0462
vn -0.0000 -0.8173 -0.5762
vn 0.0377 -0.9993 -0.0000
vn -0.0155 -0.8242 -0.5661
vn -0.1260 -0.8972 -0.4233
vn -0.1126 -0.9835 -0.1413
vn -0.1579 -0.9875 -0.0000
vn -0.2005 -0.9699 0.1384
vn -0.4089 -0.5706 0.7122
vn -0.4781 -0.2697 0.8359
vn -0.3446 -0.6244 0.7009
vn -0.2757 -0.0395 0.9604
vn -0.2343 -0.0378 0.9714
vn -0.2339 0.0680 0.9699
vn -0.2218 0.0798 0.9718
vn -0.1500 0.0702 0.9862
vn -0.1835 0.1741 0.9675
vn -0.0160 -0.9995 -0.0269
vn -0.0285 -0.9995 -0.0137
vn -0.0451 -0.9990 -0.0000
vn -0.0334 -0.9598 -0.2789
vn 0.0031 -1.0000 -0.0000
vn 0.0045 -0.9998 -0.0208
vn -0.0034 -1.0000 -0.0029
vn -0.0218 -0.9996 -0.0185
vn 0.0496 -0.4888 0.8710
vn -0.0045 -1.0000 -0.0000
vn -0.0529 -0.9925 0.1104
vn -0.0787 -0.3003 0.9506
vn -0.1362 -0.1478 0.9796
vn -0.1375 0.0572 0.9889
vn -0.1397 0.0653 0.9880
vn -0.0248 -0.3830 0.9234
vn -0.0249 -0.3829 0.9234
vn -0.0264 -0.3797 0.9247
vn -0.0285 -0.0521 0.9982
s 0
f 1//1 2//1 3//1
f 1//2 3//2 4//2
f 1//3 4//3 5//3
f 1//4 5//4 10//4
f 1//5 10//5 20//5
f 1//6 20//6 36//6
f 1//6 36//6 51//6
f 1//6 51//6 38//6
f 1//6 38//6 21//6
f 1//6 21//6 11//6
f 1//6 11//6 6//6
f 1//7 6//7 13//7
f 1//7 13//7 25//7
f 1//8 25//8 44//8
f 1//7 44//7 45//7
f 1//9 45//9 26//9
f 1//7 26//7 15//7
f 1//10 15//10 7//10
f 1//11 7//11 2//11
f 2//12 7//12 3//12
f 3//13 7//13 8//13
f 3//14 8//14 4//14
f 4//15 9//15 5//15
f 4//16 8//16 9//16
f 5//17 9//17 10//17
f 6//18 11//18 12//18
f 6//19 12//19 13//19
f 7//20 14//20 8//20
f 7//21 15//21 16//21
f 7//22 16//22 17//22
f 7//23 17//23 14//23
f 8//24 14//24 18//24
f 8//25 18//25 9//25
f 9//26 19//26 10//26
f 9//27 18//27 19//27
f 10//28 19//28 20//28
f 11//29 21//29 12//29
f 12//30 22//30 23//30
f 12//31 23//31 13//31
f 12//32 21//32 24//32
f 12//33 24//33 22//33
f 13//34 23//34 25//34
f 14//35 17//35 18//35
f 15//36 26//36 16//36
f 16//37 26//37 27//37
f 16//38 27//38 17//38
f 17//39 27//39 28//39
f 17//40 28//40 29//40
f 17//41 29//41 18//41
f 18//42 30//42 31//42
f 18//43 31//43 19//43
f 18//44 29//44 32//44
f 18//45 32//45 33//45
f 18//46 33//46 34//46
f 18//47 34//47 35//47
f 18//48 35//48 30//48
f 19//49 36//49 20//49
f 19//50 31//50 37//50
f 19//51 37//51 36//51
f 21//52 38//52 39//52
f 21//53 39//53 24//53
f 22//54 40//54 41//54
f 22//55 41//55 42//55
f 22//56 42//56 43//56
f 22//57 43//57 44//57
f 22//58 44//58 25//58
f 22//59 25//59 23//59
f 22//60 24//60 40//60
f 24//61 39//61 40//61
f 26//62 45//62 27//62
f 27//63 45//63 44//63
f 27//63 44//63 56//63
f 27//63 56//63 63//63
f 27//63 63//63 64//63
f 27//63 64//63 60//63
f 27//63 60//63 50//63
f 27//63 50//63 35//63
f 27//63 35//63 34//63
f 27//63 34//63 33//63
f 27//63 33//63 32//63
f 27//63 32//63 28//63
f 28//64 32//64 29//64
f 30//65 46//65 49//65
f 30//66 49//66 31//66
f 30//67 35//67 47//67
f 30//68 47//68 48//68
f 30//69 48//69 46//69
f 31//70 49//70 37//70
f 35//71 50//71 58//71
f 35//71 58//71 47//71
f 36//72 37//72 49//72
f 36//73 49//73 51//73
f 38//74 51//74 46//74
f 38//75 46//75 52//75
f 38//76 52//76 53//76
f 38//77 53//77 40//77
f 38//78 40//78 39//78
f 40//79 53//79 54//79
f 40//80 54//80 41//80
f 41//81 54//81 55//81
f 41//82 55//82 42//82
f 42//83 55//83 43//83
f 43//84 55//84 56//84
f 43//85 56//85 44//85
f 46//86 48//86 57//86
f 46//87 57//87 53//87
f 46//88 53//88 52//88
f 46//89 51//89 49//89
f 47//90 58//90 61//90
f 47//90 61//90 59//90
f 47//91 59//91 48//91
f 48//92 59//92 53//92
f 48//93 53//93 57//93
f 50//94 60//94 58//94
f 53//95 59//95 61//95
f 53//96 61//96 54//96
f 54//97 61//97 62//97
f 54//98 62//98 55//98
f 55//99 62//99 63//99
f 55//100 63//100 56//100
f 58//101 60//101 61//101
f 60//102 64//102 61//102
f 61//103 64//103 62//103
f 62//104 64//104 63//104
