# Blender 4.1.0
# www.blender.org
mtllib convex_4.mtl
o convex_4
v 0.339768 -0.497703 -0.024736
v 0.339240 -0.495879 -0.024736
v 0.340516 -0.496059 -0.024298
v 0.340516 -0.497323 -0.024298
v 0.349236 -0.501502 -0.010682
v 0.336132 -0.500920 -0.024736
v 0.330903 -0.486935 -0.024736
v 0.341360 -0.495249 -0.021716
v 0.349131 -0.496591 -0.010571
v 0.349274 -0.499042 -0.010764
v 0.349514 -0.499042 -0.008086
v 0.349380 -0.501611 -0.008086
v 0.335499 -0.501360 -0.024736
v 0.330500 -0.486935 -0.022866
v 0.333100 -0.487216 0.001004
v 0.336007 -0.487532 0.001004
v 0.336007 -0.487555 -0.001742
v 0.342185 -0.490353 -0.008086
v 0.344468 -0.492220 -0.010371
v 0.322145 -0.486935 -0.024736
v 0.344689 -0.492007 -0.008086
v 0.344756 -0.491940 -0.005318
v 0.349140 -0.496563 -0.008086
v 0.349399 -0.500024 0.004038
v 0.349399 -0.501630 0.004038
v 0.349399 -0.501630 0.001968
v 0.334741 -0.501360 -0.024736
v 0.292118 -0.501743 0.046406
v 0.257429 -0.501565 0.034579
v 0.329925 -0.486935 -0.020722
v 0.333100 -0.487452 0.004588
v 0.335585 -0.487610 0.003779
v 0.328563 -0.486935 -0.017175
v 0.326778 -0.486935 -0.013784
v 0.325445 -0.486935 -0.011573
v 0.324610 -0.486935 -0.010371
v 0.323430 -0.486935 -0.008857
v 0.300272 -0.486935 0.018047
v 0.338281 -0.488361 0.001004
v 0.342358 -0.490552 -0.003693
v 0.322269 -0.488471 -0.024736
v 0.251519 -0.490015 0.029682
v 0.251519 -0.486935 0.029622
v 0.346080 -0.495627 0.005545
v 0.349054 -0.496675 -0.005526
v 0.340938 -0.490988 0.005545
v 0.344746 -0.496489 0.013773
v 0.340161 -0.500640 0.026202
v 0.340161 -0.501475 0.026202
v 0.340410 -0.501598 0.023716
v 0.323910 -0.501631 0.037087
v 0.333868 -0.501278 -0.024736
v 0.292214 -0.501731 0.049478
v 0.257429 -0.501565 0.035358
v 0.251519 -0.498319 0.036293
v 0.251519 -0.498067 0.032991
v 0.330232 -0.499980 -0.024736
v 0.332726 -0.500882 -0.024736
v 0.333100 -0.489040 0.014627
v 0.277929 -0.486935 0.032071
v 0.337638 -0.489701 0.010093
v 0.337321 -0.488676 0.005396
v 0.325953 -0.497290 -0.024736
v 0.251519 -0.490540 0.029785
v 0.251519 -0.490211 0.029719
v 0.251519 -0.486935 0.036404
v 0.340410 -0.491559 0.010093
v 0.342243 -0.494645 0.014693
v 0.341370 -0.495821 0.019175
v 0.340362 -0.496446 0.022351
v 0.339595 -0.497610 0.025378
v 0.335479 -0.496669 0.030787
v 0.333801 -0.499042 0.033191
v 0.331527 -0.499042 0.035543
v 0.331278 -0.501462 0.035387
v 0.322327 -0.501601 0.040188
v 0.301289 -0.501543 0.049908
v 0.301289 -0.499042 0.051066
v 0.289000 -0.501605 0.049032
v 0.313751 -0.501463 0.049025
v 0.251519 -0.494498 0.037843
v 0.251519 -0.494498 0.031084
v 0.253553 -0.496842 0.030513
v 0.328572 -0.499155 -0.024736
v 0.330932 -0.492153 0.030668
v 0.276874 -0.486935 0.032531
v 0.337619 -0.491008 0.014307
v 0.251519 -0.487638 0.036597
v 0.289000 -0.500575 0.049032
v 0.292569 -0.499052 0.049374
v 0.294315 -0.496732 0.048788
v 0.301289 -0.496173 0.049863
v 0.305836 -0.495837 0.050479
v 0.264902 -0.486935 0.035699
v 0.340046 -0.492103 0.012586
v 0.336352 -0.496020 0.028264
v 0.332640 -0.495062 0.032241
v 0.331316 -0.496482 0.035387
v 0.315957 -0.499042 0.047600
v 0.304436 -0.501481 0.049804
v 0.305903 -0.499348 0.050784
v 0.313693 -0.499042 0.049062
v 0.251519 -0.489948 0.037190
v 0.312935 -0.496685 0.048869
v 0.274159 -0.486935 0.033659
v 0.310374 -0.494864 0.046436
v 0.310374 -0.496156 0.049804
v 0.268020 -0.486935 0.035217
vn 0.3352 0.0970 -0.9372
vn 0.5051 -0.0000 -0.8631
vn 0.6118 -0.5562 -0.5624
vn 0.5559 -0.6283 -0.5443
vn -0.0000 -0.0000 -1.0000
vn 0.3475 0.3239 -0.8799
vn 0.6931 0.5914 -0.4121
vn 0.8451 0.0908 -0.5269
vn 0.8396 -0.0000 -0.5433
vn 0.6369 0.6513 -0.4125
vn 0.8373 -0.0310 -0.5458
vn 0.9958 -0.0183 -0.0892
vn 0.9970 -0.0520 -0.0575
vn 0.0345 -0.9984 -0.0438
vn 0.4967 -0.7145 -0.4927
vn 0.0362 0.9993 0.0078
vn 0.1080 0.9941 0.0016
vn 0.1573 0.9875 -0.0083
vn 0.3639 0.9298 -0.0557
vn 0.5126 0.8407 -0.1747
vn 0.6342 0.6923 -0.3442
vn 0.6416 0.6740 -0.3662
vn -0.0000 1.0000 -0.0000
vn -0.0001 1.0000 -0.0000
vn 0.0001 1.0000 -0.0000
vn -0.0011 1.0000 -0.0000
vn 0.6748 0.7259 -0.1329
vn 0.7084 0.7050 -0.0342
vn 0.7225 0.6913 -0.0104
vn 0.9888 0.1492 -0.0053
vn 0.9939 0.0650 -0.0890
vn 1.0000 -0.0000 0.0095
vn 0.9990 -0.0444 -0.0000
vn 0.9986 -0.0521 -0.0020
vn 0.9886 0.1492 0.0215
vn -0.0000 -0.9999 -0.0151
vn 0.0005 -1.0000 -0.0019
vn -0.0032 -1.0000 -0.0058
vn -0.0053 -0.9999 -0.0104
vn 0.0312 0.9995 0.0084
vn 0.0845 0.9943 0.0655
vn 0.1080 0.9932 0.0443
vn 0.0244 0.9997 0.0094
vn 0.0199 0.9997 0.0105
vn 0.0184 0.9998 0.0111
vn 0.0172 0.9998 0.0119
vn 0.0162 0.9998 0.0126
vn 0.0155 0.9998 0.0133
vn 0.0426 0.9969 0.0657
vn 0.3414 0.9366 0.0783
vn 0.3425 0.9395 -0.0079
vn 0.3772 0.9252 -0.0408
vn 0.4912 0.8708 0.0201
vn 0.5104 0.8597 0.0189
vn 0.5509 0.8339 -0.0335
vn 0.5465 0.8273 -0.1300
vn -0.6083 -0.0491 -0.7922
vn -0.6099 -0.0153 -0.7924
vn 0.7366 0.6627 0.1351
vn 0.7405 0.6698 0.0542
vn 0.5364 0.8408 0.0734
vn 0.5746 0.8079 0.1312
vn 0.6603 0.7319 0.1679
vn 0.9742 0.2215 0.0424
vn 0.8136 0.5573 0.1658
vn 0.8138 0.5494 0.1895
vn 0.9122 0.1427 0.3842
vn 0.9230 -0.0000 0.3848
vn 0.9230 -0.0000 0.3847
vn 0.1328 -0.9892 0.0623
vn 0.0053 -1.0000 0.0040
vn 0.0045 -1.0000 0.0035
vn 0.0019 -1.0000 -0.0000
vn -0.0928 -0.9879 -0.1244
vn -0.0065 -1.0000 0.0041
vn -0.0051 -1.0000 -0.0000
vn 0.0046 -1.0000 0.0038
vn -0.4814 -0.8765 -0.0000
vn -0.4950 -0.8664 -0.0661
vn -0.3573 -0.8127 -0.4603
vn -0.3110 -0.8599 -0.4047
vn -0.3013 -0.8690 -0.3925
vn 0.1129 0.9814 0.1552
vn 0.0452 0.9964 0.0721
vn 0.0868 0.9840 0.1556
vn 0.3955 0.9025 0.1703
vn 0.4090 0.8995 0.1539
vn 0.3318 0.9224 0.1976
vn 0.4500 0.8784 0.1613
vn 0.5422 0.8249 0.1600
vn -0.5872 -0.2453 -0.7713
vn -0.5997 -0.1590 -0.7842
vn -0.6009 -0.1487 -0.7854
vn -0.9999 -0.0000 0.0165
vn -1.0000 -0.0000 0.0009
vn -1.0000 -0.0000 -0.0001
vn -1.0000 -0.0000 -0.0000
vn 0.6603 0.7319 0.1685
vn 0.6660 0.7229 0.1837
vn 0.5490 0.8191 0.1665
vn 0.6316 0.7364 0.2424
vn 0.6351 0.7077 0.3094
vn 0.6777 0.6504 0.3431
vn 0.7679 0.5082 0.3899
vn 0.8688 0.2743 0.4121
vn 0.7844 0.2949 0.5456
vn 0.7480 0.1304 0.6508
vn 0.7396 -0.0000 0.6730
vn 0.7140 -0.1167 0.6903
vn 0.7137 -0.1179 0.6904
vn 0.0553 -0.9970 0.0549
vn 0.0375 -0.9985 0.0410
vn 0.0168 -0.9997 0.0183
vn 0.0087 -0.9999 0.0141
vn -0.0343 -0.4198 0.9070
vn -0.1405 -0.1070 0.9843
vn -0.0564 -0.9902 0.1275
vn 0.0130 -0.9995 0.0283
vn 0.0149 -0.9927 0.1200
vn -0.2832 -0.7035 0.6519
vn -0.3286 -0.3552 0.8751
vn -0.6203 -0.3696 -0.6918
vn -0.5237 -0.5104 -0.6821
vn -0.4621 -0.6489 -0.6045
vn -0.3855 -0.7756 -0.4999
vn 0.3561 0.9072 0.2242
vn 0.1013 0.9740 0.2027
vn 0.1014 0.9673 0.2325
vn 0.4933 0.8302 0.2597
vn 0.5388 0.8039 0.2518
vn -0.5766 -0.3168 -0.7531
vn -0.5866 -0.2525 -0.7695
vn -0.2228 0.2581 0.9401
vn -0.2112 0.2853 0.9349
vn -0.1803 0.3663 0.9129
vn -0.1709 0.3946 0.9028
vn -0.1525 0.4561 0.8768
vn 0.0245 0.8849 0.4651
vn 0.6186 0.7440 0.2527
vn 0.5417 0.8013 0.2540
vn 0.5863 0.7535 0.2976
vn 0.6007 0.7368 0.3104
vn 0.6195 0.7093 0.3362
vn 0.6431 0.6599 0.3886
vn 0.6478 0.6531 0.3922
vn 0.6758 0.6142 0.4074
vn 0.6432 0.6579 0.3918
vn 0.6060 0.6231 0.4944
vn 0.6068 0.5970 0.5248
vn 0.7363 0.1483 0.6602
vn 0.7152 0.1010 0.6915
vn 0.6093 0.0981 0.7868
vn 0.6097 -0.0923 0.7873
vn 0.6102 -0.1133 0.7841
vn 0.0497 -0.9967 0.0638
vn 0.0383 -0.4386 0.8979
vn 0.0276 -0.4199 0.9072
vn 0.0295 -0.9432 0.3310
vn 0.0665 0.0874 0.9939
vn -0.1517 0.3819 0.9117
vn -0.1707 0.3807 0.9088
vn -0.1777 0.3647 0.9140
vn -0.1860 0.2213 0.9573
vn -0.1632 -0.0000 0.9866
vn -0.2860 -0.0000 0.9582
vn 0.5424 0.0001 0.8401
vn 0.2161 -0.0098 0.9763
vn 0.0750 -0.4582 0.8857
vn -0.2629 0.1370 0.9550
vn 0.4268 0.6834 0.5922
vn 0.5788 0.6238 0.5252
vn 0.5532 0.7843 0.2810
vn 0.1015 0.9644 0.2444
vn 0.1029 0.9492 0.2974
vn 0.1498 0.9231 0.3541
vn 0.3549 0.7626 0.5408
vn -0.2292 0.2423 0.9428
vn 0.1527 0.0882 0.9843
vn 0.1181 0.9271 0.3556
vn 0.0903 0.9405 0.3276
vn 0.0853 0.9380 0.3359
vn 0.0600 0.9198 0.3878
vn 0.5610 0.3051 0.7695
vn 0.5270 0.2363 0.8163
vn 0.2159 -0.0028 0.9764
vn 0.3715 0.1938 0.9080
s 0
f 1//1 2//1 3//1
f 1//2 3//2 4//2
f 1//3 4//3 5//3
f 1//4 5//4 6//4
f 1//5 6//5 13//5
f 1//5 13//5 27//5
f 1//5 27//5 52//5
f 1//5 52//5 58//5
f 1//5 58//5 57//5
f 1//5 57//5 84//5
f 1//5 84//5 63//5
f 1//5 63//5 41//5
f 1//5 41//5 20//5
f 1//5 20//5 7//5
f 1//5 7//5 2//5
f 2//6 7//6 3//6
f 3//7 8//7 9//7
f 3//8 9//8 10//8
f 3//9 10//9 4//9
f 3//10 7//10 8//10
f 4//11 10//11 5//11
f 5//12 10//12 11//12
f 5//13 11//13 12//13
f 5//14 12//14 13//14
f 5//15 13//15 6//15
f 7//16 14//16 15//16
f 7//17 15//17 16//17
f 7//18 16//18 17//18
f 7//19 17//19 18//19
f 7//20 18//20 19//20
f 7//21 19//21 9//21
f 7//22 9//22 8//22
f 7//23 20//23 43//23
f 7//23 43//23 66//23
f 7//23 66//23 94//23
f 7//23 94//23 108//23
f 7//23 108//23 105//23
f 7//23 105//23 86//23
f 7//24 86//24 60//24
f 7//23 60//23 38//23
f 7//23 38//23 37//23
f 7//23 37//23 36//23
f 7//25 36//25 35//25
f 7//24 35//24 34//24
f 7//25 34//25 33//25
f 7//23 33//23 30//23
f 7//26 30//26 14//26
f 9//27 19//27 21//27
f 9//28 21//28 22//28
f 9//29 22//29 23//29
f 9//30 23//30 11//30
f 9//31 11//31 10//31
f 11//32 24//32 25//32
f 11//33 25//33 26//33
f 11//34 26//34 12//34
f 11//35 23//35 24//35
f 12//36 27//36 13//36
f 12//37 26//37 28//37
f 12//38 28//38 29//38
f 12//39 29//39 27//39
f 14//40 30//40 15//40
f 15//41 31//41 32//41
f 15//42 32//42 16//42
f 15//43 30//43 33//43
f 15//44 33//44 34//44
f 15//45 34//45 35//45
f 15//46 35//46 36//46
f 15//47 36//47 37//47
f 15//48 37//48 38//48
f 15//49 38//49 31//49
f 16//50 32//50 39//50
f 16//51 39//51 17//51
f 17//52 39//52 18//52
f 18//53 39//53 40//53
f 18//54 40//54 22//54
f 18//55 22//55 21//55
f 18//56 21//56 19//56
f 20//57 41//57 42//57
f 20//58 42//58 43//58
f 22//59 44//59 45//59
f 22//60 45//60 23//60
f 22//61 40//61 39//61
f 22//62 39//62 46//62
f 22//63 46//63 44//63
f 23//64 45//64 24//64
f 24//65 45//65 44//65
f 24//66 44//66 47//66
f 24//67 47//67 48//67
f 24//68 48//68 49//68
f 24//69 49//69 25//69
f 25//70 49//70 50//70
f 25//71 50//71 51//71
f 25//72 51//72 28//72
f 25//73 28//73 26//73
f 27//74 29//74 52//74
f 28//75 53//75 54//75
f 28//76 54//76 29//76
f 28//77 51//77 53//77
f 29//78 54//78 55//78
f 29//79 55//79 56//79
f 29//80 56//80 57//80
f 29//81 57//81 58//81
f 29//82 58//82 52//82
f 31//83 59//83 32//83
f 31//84 38//84 60//84
f 31//85 60//85 59//85
f 32//86 61//86 62//86
f 32//87 62//87 39//87
f 32//88 59//88 61//88
f 39//89 62//89 61//89
f 39//90 61//90 46//90
f 41//91 63//91 64//91
f 41//92 64//92 65//92
f 41//93 65//93 42//93
f 42//94 65//94 64//94
f 42//95 64//95 82//95
f 42//96 82//96 56//96
f 42//97 56//97 55//97
f 42//97 55//97 81//97
f 42//97 81//97 103//97
f 42//97 103//97 88//97
f 42//97 88//97 66//97
f 42//97 66//97 43//97
f 44//98 46//98 67//98
f 44//99 67//99 47//99
f 46//100 61//100 67//100
f 47//101 67//101 68//101
f 47//102 68//102 69//102
f 47//103 69//103 70//103
f 47//104 70//104 71//104
f 47//105 71//105 48//105
f 48//106 71//106 72//106
f 48//107 72//107 73//107
f 48//108 73//108 49//108
f 49//109 73//109 74//109
f 49//110 74//110 75//110
f 49//111 75//111 50//111
f 50//112 75//112 76//112
f 50//113 76//113 51//113
f 51//114 76//114 53//114
f 53//115 77//115 78//115
f 53//116 78//116 79//116
f 53//117 79//117 54//117
f 53//118 76//118 80//118
f 53//119 80//119 77//119
f 54//120 79//120 55//120
f 55//121 79//121 81//121
f 56//122 82//122 83//122
f 56//123 83//123 63//123
f 56//124 63//124 84//124
f 56//125 84//125 57//125
f 59//126 85//126 61//126
f 59//127 60//127 85//127
f 60//128 86//128 85//128
f 61//129 85//129 87//129
f 61//130 87//130 67//130
f 63//131 83//131 82//131
f 63//132 82//132 64//132
f 66//133 88//133 89//133
f 66//134 89//134 90//134
f 66//135 90//135 91//135
f 66//136 91//136 92//136
f 66//137 92//137 93//137
f 66//138 93//138 94//138
f 67//139 95//139 68//139
f 67//140 87//140 95//140
f 68//141 95//141 85//141
f 68//142 85//142 69//142
f 69//143 85//143 70//143
f 70//144 85//144 96//144
f 70//145 96//145 72//145
f 70//146 72//146 71//146
f 72//147 96//147 85//147
f 72//148 85//148 97//148
f 72//149 97//149 98//149
f 72//150 98//150 73//150
f 73//151 98//151 74//151
f 74//152 98//152 99//152
f 74//153 99//153 80//153
f 74//154 80//154 75//154
f 75//155 80//155 76//155
f 77//156 100//156 101//156
f 77//157 101//157 78//157
f 77//158 80//158 100//158
f 78//159 101//159 93//159
f 78//160 93//160 92//160
f 78//161 92//161 91//161
f 78//162 91//162 90//162
f 78//163 90//163 89//163
f 78//164 89//164 79//164
f 79//165 89//165 81//165
f 80//166 99//166 102//166
f 80//167 102//167 101//167
f 80//168 101//168 100//168
f 81//169 89//169 103//169
f 85//170 104//170 98//170
f 85//171 98//171 97//171
f 85//172 95//172 87//172
f 85//173 86//173 105//173
f 85//174 105//174 106//174
f 85//175 106//175 107//175
f 85//176 107//176 104//176
f 88//177 103//177 89//177
f 93//178 101//178 107//178
f 93//179 107//179 106//179
f 93//180 106//180 105//180
f 93//181 105//181 108//181
f 93//182 108//182 94//182
f 98//183 104//183 99//183
f 99//184 104//184 102//184
f 101//185 102//185 107//185
f 102//186 104//186 107//186
