# Blender 4.1.0
# www.blender.org
mtllib convex_36.mtl
o convex_36
v 0.231828 -0.397097 -0.096136
v 0.229673 -0.392623 -0.083959
v 0.228813 -0.392727 -0.083959
v 0.225162 -0.393101 -0.083959
v 0.224045 -0.395262 -0.089883
v 0.228588 -0.397041 -0.096187
v 0.228828 -0.397032 -0.098599
v 0.231893 -0.397071 -0.098967
v 0.234165 -0.396454 -0.098967
v 0.234358 -0.396401 -0.098967
v 0.234358 -0.391777 -0.083959
v 0.224263 -0.393062 -0.083959
v 0.224390 -0.396359 -0.094809
v 0.221114 -0.393131 -0.086460
v 0.197171 -0.392288 -0.106772
v 0.226138 -0.396823 -0.096578
v 0.221292 -0.396831 -0.105691
v 0.221292 -0.396831 -0.105872
v 0.231267 -0.396865 -0.101537
v 0.222417 -0.396831 -0.105872
v 0.234358 -0.395742 -0.101948
v 0.234358 -0.386190 -0.083959
v 0.222122 -0.392207 -0.083959
v 0.197171 -0.388996 -0.099179
v 0.197171 -0.390934 -0.103105
v 0.197171 -0.391149 -0.103592
v 0.197171 -0.384542 -0.106772
v 0.214958 -0.395622 -0.106772
v 0.220473 -0.396544 -0.106772
v 0.216418 -0.395885 -0.106772
v 0.233076 -0.394542 -0.106772
v 0.232923 -0.395851 -0.103237
v 0.234358 -0.395427 -0.103319
v 0.221030 -0.396544 -0.106772
v 0.223204 -0.396262 -0.106772
v 0.234358 -0.385927 -0.086563
v 0.209279 -0.371479 -0.083959
v 0.197171 -0.375785 -0.083959
v 0.197171 -0.383554 -0.091674
v 0.197171 -0.373152 -0.094401
v 0.199417 -0.384073 -0.106772
v 0.234358 -0.394190 -0.106772
v 0.234358 -0.385681 -0.089883
v 0.205053 -0.369003 -0.083959
v 0.197171 -0.369153 -0.083959
v 0.197171 -0.370656 -0.089312
v 0.198587 -0.369408 -0.087798
v 0.199414 -0.369408 -0.087798
v 0.204601 -0.373437 -0.092719
v 0.234358 -0.388320 -0.106772
v 0.205624 -0.384458 -0.106772
v 0.203677 -0.384291 -0.106772
v 0.201569 -0.384168 -0.106772
v 0.199614 -0.384081 -0.106772
v 0.234358 -0.386332 -0.094416
v 0.201088 -0.368821 -0.085417
v 0.201161 -0.368575 -0.083959
v 0.197550 -0.368936 -0.083959
v 0.197171 -0.369427 -0.085339
v 0.197171 -0.369765 -0.086594
v 0.197961 -0.369047 -0.085339
vn 0.1120 -0.9262 0.3601
vn 0.0952 -0.9292 0.3571
vn 0.0468 -0.9412 0.3345
vn -0.0208 -0.9660 0.2576
vn -0.0172 -0.9998 -0.0054
vn -0.0138 -0.9999 -0.0095
vn 0.2621 -0.9650 -0.0028
vn 0.2646 -0.9644 -0.0003
vn 0.5097 -0.8222 0.2533
vn 0.1654 -0.9159 0.3658
vn -0.0000 -0.0000 1.0000
vn -0.0406 -0.9362 0.3491
vn -0.0890 -0.9735 0.2106
vn -0.2541 -0.9036 0.3449
vn -0.2949 -0.9038 0.3101
vn -0.2289 -0.9535 0.1963
vn -0.1111 -0.9827 0.1481
vn -0.0968 -0.9939 0.0523
vn -0.0289 -0.9996 -0.0000
vn -0.0210 -0.9998 -0.0058
vn -0.0143 -0.9998 -0.0128
vn 0.2595 -0.9556 -0.1398
vn -0.0000 -0.9994 -0.0347
vn 0.0400 -0.9952 -0.0895
vn 0.2621 -0.9544 -0.1430
vn 0.3100 -0.9283 -0.2052
vn 1.0000 -0.0000 -0.0000
vn -0.3327 -0.8331 0.4419
vn -0.1688 -0.9815 0.0906
vn -0.1884 -0.9774 0.0960
vn -0.3792 -0.8078 0.4513
vn -0.3634 -0.8354 0.4124
vn -0.3426 -0.8594 0.3795
vn -0.3041 -0.8969 0.3212
vn -1.0000 -0.0000 -0.0001
vn -1.0000 -0.0000 -0.0000
vn -0.0000 -0.0000 -1.0000
vn -0.0000 -0.0001 -1.0000
vn -0.0000 0.0012 -1.0000
vn -0.1842 -0.9826 -0.0238
vn -0.1851 -0.9827 -0.0000
vn -0.0000 -0.9527 -0.3038
vn -0.1768 -0.9815 -0.0741
vn -0.1582 -0.9733 -0.1664
vn 0.2229 -0.9173 -0.3300
vn 0.2545 -0.9192 -0.3005
vn 0.3085 -0.9271 -0.2130
vn 0.1682 -0.9213 -0.3507
vn 0.1144 -0.8818 -0.4575
vn 0.1552 -0.8906 -0.4274
vn 0.5041 0.8593 0.0868
vn -0.4207 -0.6392 0.6437
vn -0.4196 -0.7349 0.5328
vn -0.1518 0.7271 -0.6695
vn 0.2502 -0.9114 -0.3267
vn 0.2506 -0.9114 -0.3265
vn 0.5033 0.8617 0.0638
vn 0.5039 0.8600 0.0811
vn -0.3052 0.8550 -0.4193
vn -0.0000 0.8699 -0.4932
vn 0.1511 0.8370 -0.5259
vn 0.1549 0.8241 -0.5448
vn 0.1033 0.7684 -0.6316
vn 0.0651 0.7583 -0.6486
vn 0.0440 0.7538 -0.6556
vn 0.0335 0.7523 -0.6580
vn 0.0307 0.7520 -0.6584
vn 0.4715 0.8729 -0.1254
vn 0.1699 0.9224 -0.3470
vn 0.1077 0.9794 -0.1706
vn 0.4663 0.8734 -0.1405
vn 0.2340 0.8693 -0.4355
vn -0.4896 0.8552 -0.1698
vn -0.4504 0.8484 -0.2782
vn -0.0752 0.9837 -0.1636
vn -0.0000 0.9709 -0.2394
vn -0.4213 0.8757 -0.2359
vn -0.4212 0.8757 -0.2359
vn 0.1919 0.8488 -0.4926
vn -0.0752 0.9839 -0.1622
vn -0.0989 0.9891 -0.1090
vn -0.4250 0.8834 -0.1976
s 0
f 1//1 2//1 3//1
f 1//2 3//2 4//2
f 1//3 4//3 5//3
f 1//4 5//4 6//4
f 1//5 6//5 7//5
f 1//6 7//6 8//6
f 1//7 8//7 9//7
f 1//8 9//8 10//8
f 1//9 10//9 11//9
f 1//10 11//10 2//10
f 2//11 11//11 22//11
f 2//11 22//11 37//11
f 2//11 37//11 44//11
f 2//11 44//11 57//11
f 2//11 57//11 58//11
f 2//11 58//11 45//11
f 2//11 45//11 38//11
f 2//11 38//11 23//11
f 2//11 23//11 12//11
f 2//11 12//11 4//11
f 2//11 4//11 3//11
f 4//12 12//12 5//12
f 5//13 13//13 6//13
f 5//14 12//14 14//14
f 5//15 14//15 15//15
f 5//16 15//16 13//16
f 6//17 13//17 16//17
f 6//18 16//18 17//18
f 6//19 17//19 18//19
f 6//20 18//20 7//20
f 7//21 18//21 8//21
f 8//22 19//22 9//22
f 8//23 18//23 20//23
f 8//24 20//24 19//24
f 9//25 19//25 10//25
f 10//26 19//26 21//26
f 10//27 21//27 33//27
f 10//27 33//27 42//27
f 10//27 42//27 50//27
f 10//27 50//27 55//27
f 10//27 55//27 43//27
f 10//27 43//27 36//27
f 10//27 36//27 22//27
f 10//27 22//27 11//27
f 12//28 23//28 14//28
f 13//29 17//29 16//29
f 13//30 15//30 17//30
f 14//31 23//31 24//31
f 14//32 24//32 25//32
f 14//33 25//33 26//33
f 14//34 26//34 15//34
f 15//35 26//35 25//35
f 15//36 25//36 24//36
f 15//36 24//36 39//36
f 15//36 39//36 38//36
f 15//36 38//36 45//36
f 15//36 45//36 59//36
f 15//36 59//36 60//36
f 15//36 60//36 46//36
f 15//36 46//36 40//36
f 15//36 40//36 27//36
f 15//37 27//37 41//37
f 15//37 41//37 54//37
f 15//37 54//37 53//37
f 15//37 53//37 52//37
f 15//37 52//37 51//37
f 15//37 51//37 50//37
f 15//37 50//37 42//37
f 15//37 42//37 31//37
f 15//37 31//37 35//37
f 15//37 35//37 34//37
f 15//37 34//37 29//37
f 15//38 29//38 30//38
f 15//39 30//39 28//39
f 15//40 28//40 18//40
f 15//41 18//41 17//41
f 18//42 29//42 34//42
f 18//42 34//42 20//42
f 18//43 28//43 30//43
f 18//44 30//44 29//44
f 19//45 31//45 32//45
f 19//46 32//46 33//46
f 19//47 33//47 21//47
f 19//48 20//48 31//48
f 20//49 34//49 35//49
f 20//50 35//50 31//50
f 22//51 36//51 37//51
f 23//52 38//52 39//52
f 23//53 39//53 24//53
f 27//54 40//54 41//54
f 31//55 42//55 32//55
f 32//56 42//56 33//56
f 36//57 43//57 44//57
f 36//58 44//58 37//58
f 40//59 46//59 47//59
f 40//60 47//60 48//60
f 40//61 48//61 49//61
f 40//62 49//62 50//62
f 40//63 50//63 51//63
f 40//64 51//64 52//64
f 40//65 52//65 53//65
f 40//66 53//66 54//66
f 40//67 54//67 41//67
f 43//68 55//68 44//68
f 44//69 48//69 56//69
f 44//70 56//70 57//70
f 44//71 55//71 50//71
f 44//72 50//72 48//72
f 45//73 58//73 59//73
f 46//74 60//74 47//74
f 47//75 61//75 56//75
f 47//76 56//76 48//76
f 47//77 60//77 59//77
f 47//78 59//78 61//78
f 48//79 50//79 49//79
f 56//80 61//80 57//80
f 57//81 61//81 58//81
f 58//82 61//82 59//82
