# Blender 4.1.0
# www.blender.org
mtllib convex_137.mtl
o convex_137
v -0.039563 -0.335409 -0.096063
v -0.036810 -0.333862 -0.096471
v -0.036810 -0.332282 -0.096471
v -0.039510 -0.331688 -0.096090
v -0.043431 -0.335456 -0.096076
v -0.042546 -0.338092 -0.096453
v -0.041115 -0.338092 -0.096453
v -0.034966 -0.341321 -0.098371
v -0.022764 -0.341321 -0.100994
v -0.022764 -0.319918 -0.104806
v -0.022764 -0.318560 -0.105164
v -0.030424 -0.314137 -0.104894
v -0.043217 -0.332092 -0.096115
v -0.039510 -0.329416 -0.097095
v -0.045540 -0.335456 -0.096892
v -0.045540 -0.341321 -0.097816
v -0.039483 -0.341321 -0.097936
v -0.022764 -0.341321 -0.109859
v -0.022764 -0.316755 -0.108056
v -0.028048 -0.314920 -0.105640
v -0.031751 -0.304948 -0.118550
v -0.036794 -0.305684 -0.114581
v -0.034966 -0.313689 -0.104722
v -0.044461 -0.330712 -0.097575
v -0.045540 -0.330723 -0.098107
v -0.045540 -0.332001 -0.097496
v -0.037762 -0.314323 -0.105412
v -0.045540 -0.341321 -0.107003
v -0.022764 -0.335198 -0.112636
v -0.034966 -0.341321 -0.108671
v -0.045540 -0.324072 -0.119089
v -0.022764 -0.314479 -0.112251
v -0.031573 -0.304781 -0.119089
v -0.034961 -0.304133 -0.119089
v -0.037610 -0.305684 -0.114581
v -0.045540 -0.328182 -0.099949
v -0.042067 -0.314574 -0.109906
v -0.045540 -0.327545 -0.100539
v -0.022764 -0.330909 -0.114338
v -0.045540 -0.315735 -0.119089
v -0.022764 -0.318393 -0.119089
v -0.022764 -0.314046 -0.113175
v -0.022764 -0.313249 -0.114924
v -0.022764 -0.311487 -0.119089
v -0.036674 -0.304439 -0.119089
v -0.038051 -0.305465 -0.117144
v -0.040323 -0.307450 -0.117144
v -0.041908 -0.310271 -0.114646
v -0.045540 -0.318706 -0.112951
v -0.045540 -0.316507 -0.117137
v -0.042211 -0.309725 -0.117144
v -0.044082 -0.312845 -0.119089
v -0.038112 -0.305364 -0.119089
v -0.040383 -0.307329 -0.119089
v -0.042327 -0.309601 -0.119089
vn 0.1466 -0.0000 0.9892
vn 0.1408 0.0052 0.9900
vn -0.0036 0.0073 1.0000
vn -0.0018 -0.1419 0.9899
vn -0.0000 -0.1438 0.9896
vn 0.1727 -0.2388 0.9556
vn 0.2053 -0.2132 0.9552
vn 0.2284 -0.1530 0.9615
vn 0.3065 -0.0000 0.9519
vn 0.3949 0.1611 0.9045
vn 0.3299 0.2406 0.9128
vn 0.2297 0.3422 0.9111
vn 0.2062 0.3514 0.9132
vn -0.0080 0.0119 0.9999
vn 0.1040 0.4024 0.9095
vn -0.0502 0.4041 0.9133
vn -0.3570 -0.1454 0.9227
vn -0.2114 -0.2074 0.9552
vn -0.3606 0.0336 0.9321
vn -0.0000 -0.3890 0.9212
vn 0.0180 -0.4098 0.9120
vn 0.0888 -0.3783 0.9214
vn -0.0000 -1.0000 -0.0000
vn 1.0000 -0.0000 -0.0000
vn 0.4729 0.7475 0.4665
vn 0.4140 0.6801 0.6051
vn 0.4070 0.7757 0.4824
vn 0.2877 0.8073 0.5153
vn 0.1004 0.7814 0.6159
vn 0.0755 0.4174 0.9056
vn -0.3923 0.4781 0.7858
vn -0.4612 0.3826 0.8006
vn -0.5011 0.1490 0.8524
vn -0.0956 0.4566 0.8845
vn -0.3136 0.5140 0.7984
vn -0.3468 0.5162 0.7831
vn -1.0000 -0.0000 -0.0000
vn -0.0809 -0.5512 -0.8305
vn 0.0562 -0.4124 -0.9093
vn 0.5132 0.7544 0.4093
vn 0.4698 0.7587 0.4513
vn 0.1763 0.9222 0.3441
vn 0.1670 0.9095 0.3808
vn 0.5165 0.7546 0.4048
vn -0.0000 0.9456 0.3253
vn -0.0000 0.7763 0.6303
vn -0.3170 0.6929 0.6476
vn -0.3816 0.5211 0.7634
vn -0.4304 0.5297 0.7309
vn -0.6009 0.5867 0.5429
vn -0.6117 0.5642 0.5545
vn -0.5712 0.5579 0.6020
vn -0.1281 -0.5691 -0.8122
vn 0.0829 -0.3676 -0.9263
vn -0.0000 -0.0000 -1.0000
vn 0.0881 -0.3535 -0.9313
vn 0.5552 0.7531 0.3529
vn 0.5616 0.7529 0.3431
vn 0.5741 0.7541 0.3190
vn -0.1713 0.9582 0.2291
vn -0.4434 0.8833 0.1518
vn -0.6478 0.7414 0.1749
vn -0.7000 0.6518 0.2919
vn -0.6315 0.5845 0.5095
vn -0.7310 0.5172 0.4451
vn -0.8511 0.4276 0.3045
vn -0.8843 0.4342 0.1717
vn -0.8847 0.4463 0.1349
vn -0.5400 0.8395 0.0603
vn -0.6530 0.7550 0.0594
vn -0.6565 0.7513 0.0671
vn -0.7583 0.6488 0.0638
vn -0.7666 0.6363 0.0862
vn -0.7494 0.6220 0.2269
vn -0.8793 0.4317 0.2011
vn -0.8785 0.4229 0.2222
vn -0.8766 0.4741 0.0825
s 0
f 1//1 2//1 3//1
f 1//2 3//2 4//2
f 1//3 4//3 5//3
f 1//4 5//4 6//4
f 1//5 6//5 7//5
f 1//6 7//6 8//6
f 1//7 8//7 9//7
f 1//8 9//8 2//8
f 2//9 9//9 3//9
f 3//10 9//10 10//10
f 3//11 10//11 11//11
f 3//12 11//12 12//12
f 3//13 12//13 4//13
f 4//14 13//14 5//14
f 4//15 12//15 14//15
f 4//16 14//16 13//16
f 5//17 15//17 16//17
f 5//18 16//18 6//18
f 5//19 13//19 15//19
f 6//20 16//20 7//20
f 7//21 16//21 17//21
f 7//22 17//22 8//22
f 8//23 17//23 16//23
f 8//23 16//23 28//23
f 8//23 28//23 30//23
f 8//23 30//23 18//23
f 8//23 18//23 9//23
f 9//24 18//24 29//24
f 9//24 29//24 39//24
f 9//24 39//24 41//24
f 9//24 41//24 44//24
f 9//24 44//24 43//24
f 9//24 43//24 42//24
f 9//24 42//24 32//24
f 9//24 32//24 19//24
f 9//24 19//24 11//24
f 9//24 11//24 10//24
f 11//25 19//25 20//25
f 11//26 20//26 12//26
f 12//27 20//27 21//27
f 12//28 21//28 22//28
f 12//29 22//29 23//29
f 12//30 23//30 14//30
f 13//31 24//31 25//31
f 13//32 25//32 26//32
f 13//33 26//33 15//33
f 13//34 14//34 23//34
f 13//35 23//35 27//35
f 13//36 27//36 24//36
f 15//37 26//37 25//37
f 15//37 25//37 36//37
f 15//37 36//37 38//37
f 15//37 38//37 49//37
f 15//37 49//37 50//37
f 15//37 50//37 40//37
f 15//37 40//37 31//37
f 15//37 31//37 28//37
f 15//37 28//37 16//37
f 18//38 30//38 31//38
f 18//39 31//39 29//39
f 19//40 32//40 21//40
f 19//41 21//41 20//41
f 21//42 33//42 34//42
f 21//43 34//43 22//43
f 21//44 32//44 33//44
f 22//45 34//45 35//45
f 22//46 35//46 23//46
f 23//47 35//47 27//47
f 24//48 27//48 25//48
f 25//49 27//49 36//49
f 27//50 35//50 37//50
f 27//51 37//51 38//51
f 27//52 38//52 36//52
f 28//53 31//53 30//53
f 29//54 31//54 39//54
f 31//55 40//55 52//55
f 31//55 52//55 55//55
f 31//55 55//55 54//55
f 31//55 54//55 53//55
f 31//55 53//55 45//55
f 31//55 45//55 34//55
f 31//55 34//55 33//55
f 31//55 33//55 44//55
f 31//55 44//55 41//55
f 31//56 41//56 39//56
f 32//57 42//57 33//57
f 33//58 42//58 43//58
f 33//59 43//59 44//59
f 34//60 45//60 35//60
f 35//61 45//61 46//61
f 35//62 46//62 47//62
f 35//63 47//63 48//63
f 35//64 48//64 37//64
f 37//65 48//65 38//65
f 38//66 48//66 49//66
f 40//67 50//67 51//67
f 40//68 51//68 52//68
f 45//69 53//69 46//69
f 46//70 53//70 54//70
f 46//71 54//71 47//71
f 47//72 54//72 55//72
f 47//73 55//73 51//73
f 47//74 51//74 48//74
f 48//75 51//75 50//75
f 48//76 50//76 49//76
f 51//77 55//77 52//77
