# Blender 4.1.0
# www.blender.org
mtllib convex_129.mtl
o convex_129
v -0.052775 -0.396638 0.105031
v -0.053706 -0.399058 0.105031
v -0.061701 -0.396638 0.105031
v -0.021839 -0.396638 0.128193
v -0.022456 -0.404481 0.125320
v -0.022659 -0.408163 0.125428
v -0.021839 -0.423452 0.127172
v -0.068339 -0.423452 0.105031
v -0.063564 -0.398381 0.105031
v -0.053366 -0.396638 0.123802
v -0.021839 -0.396638 0.137290
v -0.021839 -0.403911 0.126124
v -0.021839 -0.408163 0.126068
v -0.021839 -0.423452 0.134830
v -0.075801 -0.423452 0.105031
v -0.064639 -0.399693 0.105031
v -0.051944 -0.396638 0.126732
v -0.060450 -0.405145 0.122302
v -0.021839 -0.412439 0.138557
v -0.027886 -0.396638 0.137201
v -0.021839 -0.421625 0.136423
v -0.025267 -0.423452 0.135030
v -0.075732 -0.423452 0.105652
v -0.076158 -0.421793 0.105514
v -0.076211 -0.421793 0.105031
v -0.074635 -0.417053 0.105031
v -0.074156 -0.418740 0.110059
v -0.073688 -0.419410 0.112443
v -0.056346 -0.404599 0.126699
v -0.051279 -0.405446 0.130741
v -0.048591 -0.396638 0.128594
v -0.061355 -0.408163 0.123054
v -0.021839 -0.413260 0.138574
v -0.042108 -0.405352 0.135323
v -0.032101 -0.396638 0.135966
v -0.021839 -0.421373 0.136600
v -0.025884 -0.423452 0.135014
v -0.025331 -0.423452 0.135030
v -0.075407 -0.423452 0.107586
v -0.075083 -0.421793 0.110059
v -0.076136 -0.421307 0.105031
v -0.074689 -0.417147 0.105031
v -0.073938 -0.421793 0.112621
v -0.059332 -0.408163 0.125326
v -0.057065 -0.408163 0.127300
v -0.054148 -0.408163 0.129569
v -0.051875 -0.408163 0.131162
v -0.047053 -0.400612 0.131027
v -0.033235 -0.396638 0.135533
v -0.025884 -0.417250 0.137864
v -0.021839 -0.417250 0.138308
v -0.042108 -0.406420 0.135323
v -0.021839 -0.417719 0.138144
v -0.025884 -0.421504 0.136383
v -0.036775 -0.423452 0.133388
v -0.074822 -0.423452 0.110059
v -0.074369 -0.423452 0.111678
v -0.073949 -0.423452 0.112611
v -0.070659 -0.423452 0.115717
v -0.069217 -0.423452 0.117064
v -0.069190 -0.421793 0.117011
v -0.051795 -0.411651 0.131145
v -0.034816 -0.421386 0.134538
v -0.046356 -0.423452 0.130518
v -0.041309 -0.423452 0.132114
v -0.066774 -0.423452 0.118522
vn -0.0000 -0.0000 -1.0000
vn -0.0000 -0.0002 -1.0000
vn -0.0000 1.0000 -0.0000
vn 0.0001 1.0000 -0.0000
vn 0.5820 0.2389 -0.7773
vn 0.5456 -0.0545 -0.8363
vn 0.5420 -0.0665 -0.8378
vn 0.4652 -0.1791 -0.8669
vn 0.4163 -0.2497 -0.8743
vn -0.6538 0.6988 0.2903
vn 1.0000 -0.0000 -0.0000
vn 0.7071 0.1935 -0.6801
vn 0.7903 0.0081 -0.6126
vn 0.6145 -0.0568 -0.7869
vn 0.6144 -0.0568 -0.7869
vn -0.0000 -1.0000 -0.0000
vn -0.7274 0.5961 0.3399
vn -0.7476 0.5595 0.3579
vn -0.7467 0.5580 0.3622
vn -0.0147 0.0799 0.9967
vn 0.0439 -0.6566 0.7530
vn -0.9651 -0.2388 0.1076
vn -0.9653 -0.2385 0.1063
vn -0.8407 0.4841 0.2425
vn -0.8200 0.4885 0.2984
vn -0.7948 0.4961 0.3494
vn -0.6984 0.3837 0.6042
vn -0.5615 0.3073 0.7683
vn -0.4566 0.3398 0.8223
vn -0.7753 0.3615 0.5179
vn -0.7032 0.3631 0.6112
vn -0.1479 0.0283 0.9886
vn -0.1505 0.0205 0.9884
vn -0.2726 0.2444 0.9306
vn -0.0254 -0.5746 0.8180
vn -0.0235 -0.5772 0.8163
vn -0.0000 -0.6063 0.7952
vn -0.9591 -0.2328 0.1610
vn -0.9392 0.2619 0.2222
vn -0.9826 0.1506 0.1082
vn -0.9620 -0.1510 0.2276
vn -0.8447 0.4780 0.2409
vn -0.9254 0.3221 0.2000
vn -0.9329 0.2830 0.2229
vn -0.9239 0.2803 0.2603
vn -0.9059 0.1253 0.4046
vn -0.7156 0.1264 0.6870
vn -0.7335 0.1882 0.6531
vn -0.6356 0.2512 0.7300
vn -0.5947 0.2488 0.7645
vn -0.5723 0.2704 0.7742
vn -0.7006 0.3467 0.6237
vn -0.5564 0.2451 0.7939
vn -0.4368 0.2306 0.8695
vn -0.4257 0.3222 0.8455
vn -0.4423 0.3375 0.8309
vn -0.3825 0.3702 0.8465
vn -0.1089 -0.0661 0.9919
vn -0.1584 -0.0000 0.9874
vn -0.1621 -0.0113 0.9867
vn -0.3377 0.3225 0.8843
vn -0.3824 0.3689 0.8472
vn -0.3919 -0.0000 0.9200
vn -0.0368 -0.3890 0.9205
vn -0.0253 -0.5748 0.8179
vn -0.1213 -0.5707 0.8121
vn -0.9619 -0.1512 0.2277
vn -0.9523 -0.1497 0.2661
vn -0.9130 0.0055 0.4078
vn -0.9117 0.0033 0.4109
vn -0.6866 -0.0000 0.7271
vn -0.6824 0.0151 0.7308
vn -0.6785 0.0343 0.7338
vn -0.6783 0.0430 0.7336
vn -0.6717 0.0344 0.7400
vn -0.6565 0.0169 0.7541
vn -0.6135 -0.0404 0.7887
vn -0.5739 -0.0171 0.8188
vn -0.6068 -0.0508 0.7933
vn -0.3899 -0.0134 0.9208
vn -0.1031 -0.3270 0.9394
vn -0.2687 -0.1806 0.9461
vn -0.1956 -0.3224 0.9262
vn -0.1016 -0.3283 0.9391
vn -0.2961 -0.1902 0.9360
vn -0.2896 -0.1903 0.9380
vn -0.3013 -0.1886 0.9347
vn -0.1952 -0.3292 0.9239
vn -0.2605 -0.2692 0.9272
vn -0.4950 -0.2589 0.8294
vn -0.4879 -0.2690 0.8304
s 0
f 1//1 2//1 8//1
f 1//1 8//1 15//1
f 1//1 15//1 25//1
f 1//1 25//1 41//1
f 1//1 41//1 42//1
f 1//2 42//2 26//2
f 1//1 26//1 16//1
f 1//1 16//1 9//1
f 1//1 9//1 3//1
f 1//3 3//3 10//3
f 1//3 10//3 17//3
f 1//3 17//3 31//3
f 1//3 31//3 49//3
f 1//4 49//4 35//4
f 1//3 35//3 20//3
f 1//3 20//3 11//3
f 1//3 11//3 4//3
f 1//5 4//5 5//5
f 1//6 5//6 6//6
f 1//7 6//7 7//7
f 1//8 7//8 2//8
f 2//9 7//9 8//9
f 3//10 9//10 10//10
f 4//11 11//11 19//11
f 4//11 19//11 33//11
f 4//11 33//11 51//11
f 4//11 51//11 53//11
f 4//11 53//11 36//11
f 4//11 36//11 21//11
f 4//11 21//11 14//11
f 4//11 14//11 7//11
f 4//11 7//11 13//11
f 4//11 13//11 12//11
f 4//12 12//12 5//12
f 5//13 12//13 13//13
f 5//14 13//14 7//14
f 5//15 7//15 6//15
f 7//16 14//16 22//16
f 7//16 22//16 38//16
f 7//16 38//16 37//16
f 7//16 37//16 55//16
f 7//16 55//16 65//16
f 7//16 65//16 64//16
f 7//16 64//16 66//16
f 7//16 66//16 60//16
f 7//16 60//16 59//16
f 7//16 59//16 58//16
f 7//16 58//16 57//16
f 7//16 57//16 56//16
f 7//16 56//16 39//16
f 7//16 39//16 23//16
f 7//16 23//16 15//16
f 7//16 15//16 8//16
f 9//17 16//17 10//17
f 10//18 16//18 18//18
f 10//19 18//19 17//19
f 11//20 20//20 19//20
f 14//21 21//21 22//21
f 15//22 23//22 24//22
f 15//23 24//23 25//23
f 16//24 26//24 27//24
f 16//25 27//25 28//25
f 16//26 28//26 18//26
f 17//27 18//27 29//27
f 17//28 29//28 30//28
f 17//29 30//29 31//29
f 18//30 28//30 32//30
f 18//31 32//31 29//31
f 19//32 20//32 34//32
f 19//33 34//33 33//33
f 20//34 35//34 34//34
f 21//35 36//35 37//35
f 21//36 37//36 38//36
f 21//37 38//37 22//37
f 23//38 39//38 24//38
f 24//39 40//39 41//39
f 24//40 41//40 25//40
f 24//41 39//41 40//41
f 26//42 42//42 27//42
f 27//43 42//43 41//43
f 27//44 41//44 40//44
f 27//45 40//45 28//45
f 28//46 40//46 43//46
f 28//47 43//47 44//47
f 28//48 44//48 32//48
f 29//49 44//49 45//49
f 29//50 45//50 46//50
f 29//51 46//51 30//51
f 29//52 32//52 44//52
f 30//53 46//53 47//53
f 30//54 47//54 34//54
f 30//55 34//55 48//55
f 30//56 48//56 31//56
f 31//57 48//57 49//57
f 33//58 50//58 51//58
f 33//59 34//59 52//59
f 33//60 52//60 50//60
f 34//61 35//61 49//61
f 34//62 49//62 48//62
f 34//63 47//63 52//63
f 36//64 53//64 54//64
f 36//65 54//65 37//65
f 37//66 54//66 55//66
f 39//67 56//67 40//67
f 40//68 56//68 57//68
f 40//69 57//69 43//69
f 43//70 57//70 58//70
f 43//71 58//71 59//71
f 43//72 59//72 60//72
f 43//73 60//73 61//73
f 43//74 61//74 44//74
f 44//75 61//75 60//75
f 44//76 60//76 45//76
f 45//77 60//77 46//77
f 46//78 62//78 47//78
f 46//79 60//79 62//79
f 47//80 62//80 52//80
f 50//81 54//81 51//81
f 50//82 52//82 63//82
f 50//83 63//83 54//83
f 51//84 54//84 53//84
f 52//85 64//85 65//85
f 52//86 65//86 63//86
f 52//87 62//87 64//87
f 54//88 63//88 55//88
f 55//89 63//89 65//89
f 60//90 66//90 62//90
f 62//91 66//91 64//91
