# Blender 4.1.0
# www.blender.org
mtllib convex_65.mtl
o convex_65
v 0.065577 -0.449058 -0.213513
v 0.066252 -0.452011 -0.213831
v 0.068390 -0.449058 -0.213513
v 0.066033 -0.445763 -0.214085
v 0.064112 -0.410678 -0.220347
v 0.064112 -0.426339 -0.221082
v 0.064112 -0.430797 -0.221720
v 0.065131 -0.449058 -0.217117
v 0.067943 -0.452011 -0.213831
v 0.066185 -0.452438 -0.217117
v 0.070946 -0.456347 -0.218778
v 0.068095 -0.445763 -0.214085
v 0.077745 -0.453600 -0.220850
v 0.077745 -0.450593 -0.220662
v 0.077745 -0.449058 -0.220658
v 0.077745 -0.441233 -0.221919
v 0.077745 -0.410678 -0.229391
v 0.064112 -0.410678 -0.229802
v 0.064112 -0.434101 -0.222889
v 0.066844 -0.452123 -0.220046
v 0.064112 -0.434087 -0.224154
v 0.073089 -0.456347 -0.218778
v 0.076003 -0.453600 -0.219695
v 0.070946 -0.456347 -0.220552
v 0.075171 -0.456531 -0.224521
v 0.077745 -0.456388 -0.222686
v 0.077745 -0.410678 -0.236018
v 0.072631 -0.410678 -0.234270
v 0.064112 -0.412684 -0.230076
v 0.071266 -0.452343 -0.224214
v 0.072141 -0.455373 -0.223582
v 0.064112 -0.433665 -0.224391
v 0.064112 -0.429993 -0.225902
v 0.077745 -0.456424 -0.225606
v 0.077745 -0.456415 -0.223357
v 0.077745 -0.453605 -0.227218
v 0.076602 -0.410678 -0.235918
v 0.077745 -0.411818 -0.236077
v 0.074010 -0.410678 -0.234971
v 0.074673 -0.421797 -0.234628
v 0.064112 -0.417424 -0.229374
v 0.064112 -0.419399 -0.228963
v 0.075435 -0.425513 -0.234182
v 0.077745 -0.426528 -0.234421
v 0.077745 -0.421797 -0.235543
vn -0.0000 -0.1071 0.9943
vn -0.0000 0.1710 0.9853
vn -0.0249 0.1743 0.9844
vn -0.9859 -0.0078 0.1672
vn -0.9908 -0.0192 0.1341
vn -0.9921 -0.0244 0.1227
vn -0.9650 -0.2335 0.1194
vn -0.9530 -0.2973 0.0580
vn -0.6062 -0.7870 0.1146
vn -0.0000 -0.7520 0.6591
vn 0.5550 -0.1717 0.8140
vn 0.6012 -0.0499 0.7975
vn 0.6069 -0.0021 0.7947
vn 0.6020 0.1270 0.7883
vn 0.5635 0.1900 0.8040
vn -0.0000 0.1757 0.9844
vn -0.0000 1.0000 -0.0000
vn -0.0001 1.0000 -0.0000
vn -1.0000 -0.0000 -0.0000
vn 0.5408 0.2069 0.8153
vn -0.9953 -0.0324 0.0916
vn -0.9268 -0.2891 -0.2397
vn -0.9977 -0.0682 -0.0008
vn -0.9239 -0.2124 -0.3182
vn 0.5251 -0.2898 0.8002
vn 0.5327 -0.2647 0.8039
vn -0.7117 -0.6633 -0.2315
vn -0.6346 -0.7728 -0.0000
vn -0.0435 -0.9991 -0.0000
vn -0.0000 -0.9995 0.0320
vn 0.5606 0.1967 0.8044
vn 0.5280 -0.2940 0.7968
vn 0.5713 -0.4514 0.6855
vn 1.0000 -0.0000 -0.0000
vn 1.0000 -0.0000 -0.0001
vn -0.4611 0.1201 -0.8792
vn -0.6559 -0.3310 -0.6784
vn -0.6660 -0.5924 -0.4533
vn -0.8871 -0.2260 -0.4025
vn -0.7400 -0.2559 -0.6220
vn -0.6681 -0.2663 -0.6947
vn 0.0260 -0.9988 0.0414
vn -0.4353 -0.7928 -0.4266
vn 0.0432 -0.9991 0.0040
vn 0.0269 -0.9988 0.0402
vn -0.4072 -0.3990 -0.8216
vn -0.3263 -0.4692 -0.8206
vn -0.0870 0.0515 -0.9949
vn -0.4524 0.0611 -0.8897
vn -0.4339 -0.0536 -0.8994
vn -0.4838 -0.1282 -0.8657
vn -0.4488 -0.3049 -0.8400
vn -0.5394 -0.2337 -0.8090
vn -0.5070 -0.2298 -0.8307
vn -0.4469 -0.2497 -0.8590
vn -0.2083 -0.2514 -0.9452
vn -0.1886 -0.0525 -0.9806
vn -0.2849 -0.0616 -0.9566
vn -0.3428 -0.0494 -0.9381
vn -0.2812 -0.1710 -0.9443
vn -0.4983 -0.2033 -0.8428
vn -0.4961 -0.1769 -0.8500
vn -0.1980 -0.2262 -0.9537
s 0
f 1//1 2//1 9//1
f 1//1 9//1 3//1
f 1//2 3//2 12//2
f 1//2 12//2 4//2
f 1//3 4//3 5//3
f 1//4 5//4 6//4
f 1//5 6//5 7//5
f 1//6 7//6 8//6
f 1//7 8//7 2//7
f 2//8 8//8 10//8
f 2//9 10//9 11//9
f 2//10 11//10 22//10
f 2//10 22//10 9//10
f 3//11 9//11 13//11
f 3//12 13//12 14//12
f 3//13 14//13 15//13
f 3//14 15//14 16//14
f 3//15 16//15 12//15
f 4//16 12//16 5//16
f 5//17 17//17 27//17
f 5//17 27//17 37//17
f 5//17 37//17 39//17
f 5//18 39//18 28//18
f 5//17 28//17 18//17
f 5//19 18//19 29//19
f 5//19 29//19 41//19
f 5//19 41//19 42//19
f 5//19 42//19 33//19
f 5//19 33//19 32//19
f 5//19 32//19 21//19
f 5//19 21//19 19//19
f 5//19 19//19 7//19
f 5//19 7//19 6//19
f 5//20 12//20 17//20
f 7//21 19//21 8//21
f 8//22 20//22 10//22
f 8//23 19//23 21//23
f 8//24 21//24 20//24
f 9//25 22//25 23//25
f 9//26 23//26 13//26
f 10//27 20//27 24//27
f 10//28 24//28 11//28
f 11//29 24//29 25//29
f 11//30 25//30 22//30
f 12//31 16//31 17//31
f 13//32 23//32 22//32
f 13//33 22//33 26//33
f 13//34 26//34 35//34
f 13//34 35//34 34//34
f 13//34 34//34 36//34
f 13//34 36//34 44//34
f 13//34 44//34 45//34
f 13//34 45//34 38//34
f 13//34 38//34 27//34
f 13//34 27//34 17//34
f 13//34 17//34 16//34
f 13//34 16//34 15//34
f 13//35 15//35 14//35
f 18//36 28//36 29//36
f 20//37 30//37 31//37
f 20//38 31//38 24//38
f 20//39 21//39 32//39
f 20//40 32//40 33//40
f 20//41 33//41 30//41
f 22//42 25//42 26//42
f 24//43 31//43 25//43
f 25//44 34//44 35//44
f 25//45 35//45 26//45
f 25//46 31//46 36//46
f 25//47 36//47 34//47
f 27//48 38//48 37//48
f 28//49 39//49 29//49
f 29//50 39//50 40//50
f 29//51 40//51 41//51
f 30//52 36//52 31//52
f 30//53 33//53 42//53
f 30//54 42//54 43//54
f 30//55 43//55 36//55
f 36//56 43//56 44//56
f 37//57 38//57 45//57
f 37//58 45//58 40//58
f 37//59 40//59 39//59
f 40//60 45//60 43//60
f 40//61 43//61 42//61
f 40//62 42//62 41//62
f 43//63 45//63 44//63
