# Blender 4.1.0
# www.blender.org
mtllib convex_7.mtl
o convex_7
v 0.031063 -0.395671 -0.074888
v 0.031063 -0.400980 -0.074888
v 0.028644 -0.395072 -0.074888
v 0.031063 -0.395354 -0.071704
v 0.031063 -0.407146 -0.028074
v -0.026683 -0.426652 -0.028074
v -0.026683 -0.424017 -0.044461
v -0.026683 -0.416952 -0.074888
v 0.028644 -0.395013 -0.071704
v 0.024105 -0.394951 -0.074888
v 0.031063 -0.396673 -0.045153
v 0.031063 -0.400114 -0.028074
v -0.026683 -0.419211 -0.028074
v -0.026683 -0.410593 -0.074888
v 0.015016 -0.395295 -0.048988
v 0.010471 -0.395395 -0.053525
v 0.010471 -0.395367 -0.048988
v 0.013653 -0.395835 -0.074888
v -0.003157 -0.396332 -0.061347
v 0.017774 -0.396716 -0.036529
v 0.031063 -0.397709 -0.035356
v 0.031063 -0.399925 -0.028409
v 0.030651 -0.399975 -0.028074
v -0.023998 -0.414227 -0.028074
v -0.026683 -0.417287 -0.031043
v -0.026683 -0.409203 -0.066008
v -0.023800 -0.405715 -0.069701
v -0.025106 -0.409259 -0.074888
v 0.015016 -0.396654 -0.036620
v 0.012444 -0.396692 -0.037386
v -0.003157 -0.396332 -0.058754
v 0.010443 -0.396279 -0.074888
v -0.004519 -0.398581 -0.074888
v -0.005718 -0.396682 -0.060642
v 0.024105 -0.398004 -0.030810
v 0.031063 -0.398014 -0.033225
v 0.031063 -0.398979 -0.030613
v 0.028644 -0.398367 -0.030810
v 0.028497 -0.399506 -0.028074
v -0.023512 -0.413526 -0.028074
v -0.019159 -0.405728 -0.032890
v -0.026683 -0.409442 -0.057429
v -0.026683 -0.408881 -0.062617
v -0.023766 -0.405750 -0.067158
v -0.021330 -0.404266 -0.067158
v -0.015180 -0.401194 -0.069972
v -0.016734 -0.402420 -0.071575
v -0.011636 -0.400533 -0.074888
v -0.014502 -0.402162 -0.074888
v -0.021132 -0.404809 -0.071410
v -0.026683 -0.408881 -0.061847
v 0.019560 -0.398218 -0.030810
v -0.003061 -0.402845 -0.028074
v -0.014519 -0.401346 -0.037619
v -0.005718 -0.396682 -0.059684
v -0.007702 -0.399168 -0.074888
v -0.009075 -0.399574 -0.074888
v 0.024105 -0.399007 -0.028074
v 0.025914 -0.399152 -0.028074
v -0.021330 -0.410404 -0.028074
v -0.023625 -0.405877 -0.064821
v -0.026683 -0.409315 -0.058089
v -0.019900 -0.409275 -0.028074
v -0.016791 -0.404744 -0.031974
v -0.015180 -0.401194 -0.068950
v -0.018261 -0.408213 -0.028074
vn -0.0000 -0.0000 -1.0000
vn 0.2392 0.9662 -0.0962
vn 1.0000 -0.0000 -0.0000
vn 0.3176 -0.9401 -0.1238
vn 0.2963 -0.9430 -0.1516
vn 0.2601 -0.9405 -0.2184
vn 0.1395 0.9900 -0.0183
vn 0.0267 0.9995 -0.0185
vn 0.1394 0.9890 0.0491
vn -0.0000 -0.0000 1.0000
vn -1.0000 -0.0000 -0.0000
vn 0.0035 0.9999 0.0145
vn 0.0722 0.9958 0.0557
vn -0.0422 0.9991 -0.0062
vn -0.0158 0.9998 0.0077
vn -0.0841 0.9941 -0.0679
vn -0.0589 0.9981 -0.0169
vn 0.0649 0.9924 0.1049
vn 0.0615 0.9931 0.0997
vn 0.2815 0.8354 0.4720
vn -0.8415 0.4534 0.2938
vn -0.8124 0.5760 -0.0902
vn -0.6079 0.7186 -0.3379
vn -0.0157 0.9939 0.1092
vn 0.0187 0.9938 0.1092
vn -0.0651 0.9979 -0.0062
vn -0.0509 0.9912 0.1219
vn -0.0706 0.9975 -0.0000
vn -0.1696 0.9755 0.1402
vn -0.1358 0.9818 -0.1325
vn -0.1730 0.9743 -0.1444
vn -0.1354 0.9908 -0.0000
vn -0.1504 0.9776 -0.1472
vn 0.0567 0.9856 0.1592
vn 0.0613 0.9880 0.1414
vn 0.0152 0.9789 0.2036
vn 0.2038 0.8996 0.3861
vn 0.1966 0.9015 0.3856
vn 0.1963 0.9014 0.3859
vn -0.8087 0.5609 0.1772
vn -0.8139 0.5570 0.1652
vn -0.8152 0.5551 0.1651
vn -0.7983 0.5995 -0.0569
vn -0.5201 0.8539 0.0187
vn -0.4651 0.8837 -0.0517
vn -0.4589 0.8622 -0.2143
vn -0.4591 0.8618 -0.2156
vn -0.4746 0.8349 -0.2788
vn -0.5112 0.7645 -0.3927
vn -0.5114 0.7641 -0.3933
vn -0.7394 0.6732 -0.0000
vn -0.7152 0.6987 0.0192
vn -0.1153 0.9329 0.3413
vn -0.0450 0.9553 0.2923
vn -0.1433 0.9186 0.3683
vn -0.1696 0.9755 0.1403
vn -0.1628 0.9259 0.3408
vn -0.1817 0.9743 0.1335
vn -0.1795 0.9730 -0.1448
vn -0.2812 0.9512 -0.1268
vn -0.3370 0.9350 -0.1104
vn -0.4304 0.9026 -0.0000
vn -0.0442 0.9380 0.3439
vn 0.0749 0.9363 0.3433
vn 0.0778 0.9724 0.2200
vn 0.2047 0.9182 0.3392
vn 0.0750 0.9361 0.3435
vn 0.1252 0.9135 0.3871
vn -0.8057 0.5631 0.1836
vn -0.6528 0.7525 0.0878
vn -0.7405 0.6599 0.1270
vn -0.5580 0.7068 0.4348
vn -0.4874 0.7372 0.4680
vn -0.4649 0.8287 0.3117
vn -0.6366 0.7664 0.0855
vn -0.6576 0.7491 0.0805
vn -0.6252 0.7764 0.0800
vn -0.5199 0.8535 0.0355
vn -0.4436 0.8961 0.0137
vn -0.4469 0.8946 -0.0000
vn -0.3479 0.9290 -0.1259
vn -0.4586 0.8623 -0.2147
vn -0.6539 0.7516 0.0868
vn -0.1242 0.8792 0.4599
vn -0.2418 0.8713 0.4271
vn -0.2711 0.7677 0.5807
vn -0.4412 0.8973 0.0137
vn -0.4781 0.7380 0.4763
s 0
f 1//1 2//1 8//1
f 1//1 8//1 14//1
f 1//1 14//1 28//1
f 1//1 28//1 49//1
f 1//1 49//1 48//1
f 1//1 48//1 57//1
f 1//1 57//1 56//1
f 1//1 56//1 33//1
f 1//1 33//1 32//1
f 1//1 32//1 18//1
f 1//1 18//1 10//1
f 1//1 10//1 3//1
f 1//2 3//2 4//2
f 1//3 4//3 11//3
f 1//3 11//3 21//3
f 1//3 21//3 36//3
f 1//3 36//3 37//3
f 1//3 37//3 22//3
f 1//3 22//3 12//3
f 1//3 12//3 5//3
f 1//3 5//3 2//3
f 2//4 5//4 6//4
f 2//5 6//5 7//5
f 2//6 7//6 8//6
f 3//7 9//7 4//7
f 3//8 10//8 9//8
f 4//9 9//9 11//9
f 5//10 12//10 23//10
f 5//10 23//10 39//10
f 5//10 39//10 59//10
f 5//10 59//10 58//10
f 5//10 58//10 53//10
f 5//10 53//10 66//10
f 5//10 66//10 63//10
f 5//10 63//10 60//10
f 5//10 60//10 40//10
f 5//10 40//10 24//10
f 5//10 24//10 13//10
f 5//10 13//10 6//10
f 6//11 13//11 25//11
f 6//11 25//11 42//11
f 6//11 42//11 62//11
f 6//11 62//11 51//11
f 6//11 51//11 43//11
f 6//11 43//11 26//11
f 6//11 26//11 14//11
f 6//11 14//11 8//11
f 6//11 8//11 7//11
f 9//12 10//12 15//12
f 9//13 15//13 11//13
f 10//14 16//14 17//14
f 10//15 17//15 15//15
f 10//16 18//16 19//16
f 10//17 19//17 16//17
f 11//18 20//18 21//18
f 11//19 15//19 20//19
f 12//20 22//20 23//20
f 13//21 24//21 25//21
f 14//22 26//22 27//22
f 14//23 27//23 28//23
f 15//24 17//24 29//24
f 15//25 29//25 20//25
f 16//26 19//26 17//26
f 17//27 30//27 29//27
f 17//28 19//28 31//28
f 17//29 31//29 30//29
f 18//30 32//30 19//30
f 19//31 33//31 34//31
f 19//32 34//32 55//32
f 19//32 55//32 31//32
f 19//33 32//33 33//33
f 20//34 35//34 36//34
f 20//35 36//35 21//35
f 20//36 29//36 35//36
f 22//37 37//37 23//37
f 23//38 37//38 38//38
f 23//39 38//39 39//39
f 24//40 40//40 41//40
f 24//41 41//41 42//41
f 24//42 42//42 25//42
f 26//43 43//43 27//43
f 27//44 44//44 45//44
f 27//45 45//45 46//45
f 27//46 46//46 47//46
f 27//47 47//47 48//47
f 27//48 48//48 49//48
f 27//49 49//49 50//49
f 27//50 50//50 28//50
f 27//51 43//51 51//51
f 27//52 51//52 44//52
f 28//50 50//50 49//50
f 29//53 30//53 52//53
f 29//54 52//54 35//54
f 30//55 53//55 52//55
f 30//56 31//56 54//56
f 30//57 54//57 53//57
f 31//58 55//58 54//58
f 33//59 56//59 34//59
f 34//60 56//60 57//60
f 34//61 57//61 46//61
f 34//62 46//62 65//62
f 34//62 65//62 55//62
f 35//63 52//63 58//63
f 35//64 58//64 38//64
f 35//65 38//65 36//65
f 36//66 38//66 37//66
f 38//67 58//67 59//67
f 38//68 59//68 39//68
f 40//69 60//69 41//69
f 41//70 61//70 62//70
f 41//71 62//71 42//71
f 41//72 60//72 63//72
f 41//73 63//73 64//73
f 41//74 64//74 54//74
f 41//75 54//75 61//75
f 44//76 51//76 61//76
f 44//77 61//77 54//77
f 44//78 54//78 45//78
f 45//79 54//79 65//79
f 45//80 65//80 46//80
f 46//81 57//81 48//81
f 46//82 48//82 47//82
f 51//83 62//83 61//83
f 52//84 53//84 58//84
f 53//85 54//85 64//85
f 53//86 64//86 66//86
f 54//87 55//87 65//87
f 63//88 66//88 64//88
