# Blender 4.1.0
# www.blender.org
mtllib convex_15.mtl
o convex_15
v 0.008356 -0.402951 -0.074888
v 0.061622 -0.405728 -0.074888
v 0.008356 -0.396699 -0.074888
v 0.008356 -0.411208 -0.112825
v 0.062375 -0.405728 -0.074888
v 0.068880 -0.417005 -0.139835
v 0.008540 -0.396649 -0.074888
v 0.008356 -0.397540 -0.145305
v 0.008356 -0.411695 -0.117141
v 0.029169 -0.416828 -0.148512
v 0.063577 -0.405709 -0.074888
v 0.068880 -0.404527 -0.074888
v 0.033197 -0.416964 -0.148512
v 0.068880 -0.417088 -0.140527
v 0.009583 -0.396412 -0.074888
v 0.008356 -0.397629 -0.148512
v 0.024109 -0.394115 -0.085338
v 0.008356 -0.411621 -0.121826
v 0.021479 -0.415138 -0.142581
v 0.021479 -0.415138 -0.141622
v 0.028653 -0.416782 -0.148512
v 0.068880 -0.399327 -0.074888
v 0.033683 -0.416971 -0.148512
v 0.068880 -0.416957 -0.144404
v 0.010454 -0.396277 -0.074888
v 0.055911 -0.398631 -0.121689
v 0.055911 -0.399501 -0.126229
v 0.058488 -0.401192 -0.128672
v 0.050046 -0.405657 -0.142617
v 0.051450 -0.409178 -0.148512
v 0.008356 -0.406327 -0.148512
v 0.037741 -0.393628 -0.098973
v 0.046823 -0.394997 -0.108061
v 0.051367 -0.395477 -0.108061
v 0.013659 -0.395833 -0.074888
v 0.024109 -0.394951 -0.074888
v 0.028653 -0.393892 -0.085338
v 0.008356 -0.411350 -0.126229
v 0.016538 -0.411376 -0.148512
v 0.025466 -0.415719 -0.148512
v 0.008356 -0.410804 -0.129717
v 0.068880 -0.399228 -0.075588
v 0.045834 -0.395599 -0.077591
v 0.028653 -0.395071 -0.074888
v 0.056355 -0.416330 -0.148512
v 0.068880 -0.416897 -0.144952
v 0.060455 -0.397627 -0.112601
v 0.060183 -0.400569 -0.126085
v 0.068880 -0.399556 -0.112601
v 0.068880 -0.412441 -0.144368
v 0.068880 -0.413824 -0.146847
v 0.068880 -0.414155 -0.147424
v 0.056036 -0.410753 -0.148512
v 0.016188 -0.411171 -0.148512
v 0.033197 -0.393798 -0.089886
v 0.037741 -0.393824 -0.094426
v 0.042279 -0.393920 -0.098973
v 0.068880 -0.399143 -0.076251
v 0.063672 -0.415822 -0.148512
v 0.068880 -0.415919 -0.147424
v 0.063180 -0.401077 -0.124478
v 0.068880 -0.405209 -0.128571
v 0.068880 -0.404177 -0.126207
v 0.063672 -0.413459 -0.148512
vn -0.0000 -0.0002 1.0000
vn -0.0000 0.0001 1.0000
vn -0.0000 -0.0000 1.0000
vn -1.0000 -0.0000 -0.0000
vn -0.0509 -0.9759 0.2124
vn -0.0190 -0.9854 0.1690
vn -0.0000 -0.9853 0.1711
vn -0.2629 0.9648 -0.0115
vn -0.0759 -0.9908 0.1118
vn -0.0341 -0.9901 0.1360
vn 0.0156 -0.9849 0.1726
vn 0.2138 -0.9593 0.1843
vn -0.0334 -0.9906 0.1328
vn -0.0301 -0.9924 0.1190
vn 1.0000 -0.0000 -0.0000
vn -0.2216 0.9751 -0.0118
vn -0.1652 0.9862 -0.0129
vn -0.1111 0.9934 -0.0276
vn -0.2812 -0.9595 -0.0152
vn -0.2538 -0.9673 -0.0000
vn -0.1902 -0.9811 0.0360
vn -0.0884 -0.9907 0.1034
vn -0.0000 0.0001 -1.0000
vn -0.0000 -0.0000 -1.0000
vn -0.0000 0.0012 -1.0000
vn -0.0145 -0.9987 0.0488
vn 0.0043 -0.9994 -0.0338
vn -0.1531 0.9882 0.0043
vn 0.1258 0.9743 -0.1867
vn 0.2178 0.8948 -0.3896
vn 0.2285 0.8785 -0.4196
vn 0.2301 0.8586 -0.4580
vn -0.0729 0.9966 -0.0373
vn 0.0436 0.9934 -0.1061
vn 0.1036 0.9813 -0.1624
vn 0.1244 0.9750 -0.1842
vn -0.1372 0.9902 0.0256
vn -0.0838 0.9933 0.0795
vn -0.0489 0.9956 0.0797
vn -0.0490 0.9987 -0.0133
vn -0.3426 -0.9377 -0.0577
vn -0.4284 -0.8808 -0.2017
vn -0.3141 -0.9419 -0.1189
vn -0.2234 -0.9747 -0.0000
vn -0.4312 -0.8914 -0.1395
vn -0.4572 -0.8725 -0.1725
vn 0.1423 0.9800 0.1388
vn 0.0951 0.8984 0.4288
vn 0.0274 -0.9678 -0.2504
vn 0.0131 -0.9940 -0.1088
vn 0.1413 0.9738 -0.1782
vn 0.1575 0.9699 -0.1859
vn 0.2370 0.8977 -0.3714
vn 0.2185 0.9543 -0.2041
vn 0.2434 0.9428 -0.2278
vn 0.3100 0.8580 -0.4096
vn 0.2685 0.8583 -0.4374
vn 0.2661 0.8541 -0.4468
vn 0.2685 0.8355 -0.4794
vn 0.2442 0.7108 -0.6596
vn 0.2690 0.8411 -0.4692
vn -0.5155 -0.8335 -0.1986
vn -0.0039 0.9999 0.0167
vn 0.0487 0.9979 0.0430
vn 0.0642 0.9970 0.0430
vn 0.0640 0.9943 -0.0858
vn 0.1048 0.9924 -0.0652
vn 0.2232 0.9747 -0.0148
vn 0.1817 0.9833 0.0133
vn 0.2241 0.9745 -0.0111
vn 0.0262 0.9934 0.1121
vn 0.0481 0.9925 0.1120
vn 0.0617 0.9947 0.0823
vn -0.4968 -0.8467 -0.1904
vn 0.1436 0.9816 0.1258
vn 0.1488 0.9875 0.0528
vn 0.0851 0.9943 0.0639
vn 0.0746 0.9948 0.0690
vn 0.0639 -0.9196 -0.3876
vn 0.0624 -0.9281 -0.3672
vn 0.3487 0.8569 -0.3796
vn 0.3438 0.8538 -0.3909
vn 0.2948 0.9197 -0.2593
vn 0.3853 0.8738 -0.2968
vn 0.2045 -0.0000 -0.9789
vn 0.2367 0.6680 -0.7056
vn 0.3529 0.8575 -0.3743
s 0
f 1//1 2//1 5//1
f 1//2 5//2 11//2
f 1//3 11//3 12//3
f 1//3 12//3 22//3
f 1//3 22//3 44//3
f 1//3 44//3 36//3
f 1//3 36//3 35//3
f 1//3 35//3 25//3
f 1//3 25//3 15//3
f 1//3 15//3 7//3
f 1//3 7//3 3//3
f 1//4 3//4 8//4
f 1//4 8//4 16//4
f 1//4 16//4 31//4
f 1//4 31//4 41//4
f 1//4 41//4 38//4
f 1//4 38//4 18//4
f 1//4 18//4 9//4
f 1//4 9//4 4//4
f 1//5 4//5 2//5
f 2//6 4//6 6//6
f 2//7 6//7 5//7
f 3//8 7//8 8//8
f 4//9 9//9 10//9
f 4//10 10//10 6//10
f 5//11 6//11 11//11
f 6//12 12//12 11//12
f 6//13 10//13 13//13
f 6//14 13//14 14//14
f 6//15 14//15 24//15
f 6//15 24//15 46//15
f 6//15 46//15 60//15
f 6//15 60//15 52//15
f 6//15 52//15 51//15
f 6//15 51//15 50//15
f 6//15 50//15 62//15
f 6//15 62//15 63//15
f 6//15 63//15 49//15
f 6//15 49//15 58//15
f 6//15 58//15 42//15
f 6//15 42//15 22//15
f 6//15 22//15 12//15
f 7//16 15//16 8//16
f 8//17 15//17 17//17
f 8//18 17//18 16//18
f 9//19 18//19 19//19
f 9//20 19//20 20//20
f 9//21 20//21 21//21
f 9//22 21//22 10//22
f 10//23 21//23 40//23
f 10//24 40//24 39//24
f 10//23 39//23 54//23
f 10//24 54//24 31//24
f 10//24 31//24 16//24
f 10//24 16//24 30//24
f 10//24 30//24 53//24
f 10//24 53//24 64//24
f 10//24 64//24 59//24
f 10//24 59//24 45//24
f 10//24 45//24 23//24
f 10//25 23//25 13//25
f 13//26 23//26 14//26
f 14//27 23//27 24//27
f 15//28 25//28 17//28
f 16//29 26//29 27//29
f 16//30 27//30 28//30
f 16//31 28//31 29//31
f 16//32 29//32 30//32
f 16//33 17//33 32//33
f 16//34 32//34 33//34
f 16//35 33//35 34//35
f 16//36 34//36 26//36
f 17//37 25//37 35//37
f 17//38 35//38 36//38
f 17//39 36//39 37//39
f 17//40 37//40 32//40
f 18//41 38//41 19//41
f 19//42 39//42 40//42
f 19//43 40//43 21//43
f 19//44 21//44 20//44
f 19//45 38//45 41//45
f 19//46 41//46 39//46
f 22//47 42//47 43//47
f 22//48 43//48 44//48
f 23//49 45//49 46//49
f 23//50 46//50 24//50
f 26//51 34//51 47//51
f 26//52 47//52 27//52
f 27//53 48//53 28//53
f 27//54 47//54 49//54
f 27//55 49//55 48//55
f 28//56 48//56 50//56
f 28//57 50//57 29//57
f 29//58 50//58 30//58
f 30//59 51//59 52//59
f 30//60 52//60 53//60
f 30//61 50//61 51//61
f 31//62 54//62 41//62
f 32//63 37//63 55//63
f 32//64 55//64 56//64
f 32//65 56//65 57//65
f 32//66 57//66 33//66
f 33//67 57//67 34//67
f 34//68 49//68 47//68
f 34//69 57//69 58//69
f 34//70 58//70 49//70
f 36//71 44//71 37//71
f 37//72 44//72 43//72
f 37//73 43//73 55//73
f 39//74 41//74 54//74
f 42//75 58//75 43//75
f 43//76 58//76 57//76
f 43//77 57//77 56//77
f 43//78 56//78 55//78
f 45//79 59//79 60//79
f 45//80 60//80 46//80
f 48//81 61//81 62//81
f 48//82 62//82 50//82
f 48//83 49//83 61//83
f 49//84 63//84 61//84
f 52//85 60//85 59//85
f 52//85 59//85 64//85
f 52//86 64//86 53//86
f 61//87 63//87 62//87
