# Blender 4.1.0
# www.blender.org
mtllib convex_121.mtl
o convex_121
v 0.049031 -0.387827 -0.200491
v 0.046449 -0.387827 -0.200491
v 0.052643 -0.387827 -0.200470
v 0.052643 -0.387844 -0.200491
v 0.045878 -0.408147 -0.200491
v 0.044457 -0.405717 -0.196963
v 0.046160 -0.387827 -0.199717
v 0.062122 -0.387827 -0.170076
v 0.051600 -0.408161 -0.200491
v 0.062577 -0.399790 -0.170076
v 0.062584 -0.402236 -0.170076
v 0.046728 -0.412611 -0.200491
v 0.044457 -0.406611 -0.196963
v 0.045879 -0.387827 -0.198966
v 0.043867 -0.398697 -0.185699
v 0.044743 -0.387827 -0.194393
v 0.052099 -0.387827 -0.170076
v 0.051393 -0.409713 -0.200491
v 0.060935 -0.409688 -0.170076
v 0.047990 -0.416453 -0.200491
v 0.044457 -0.406611 -0.196034
v 0.043944 -0.402393 -0.185306
v 0.043963 -0.399204 -0.180402
v 0.044219 -0.396279 -0.180765
v 0.044784 -0.387827 -0.193899
v 0.051747 -0.387827 -0.170582
v 0.048795 -0.391380 -0.173426
v 0.051542 -0.389951 -0.170076
v 0.049883 -0.416456 -0.200491
v 0.059720 -0.411882 -0.170076
v 0.044014 -0.401897 -0.181676
v 0.053347 -0.415124 -0.177651
v 0.044652 -0.400804 -0.178645
v 0.044441 -0.397775 -0.178350
v 0.044441 -0.396590 -0.178350
v 0.045823 -0.387827 -0.187819
v 0.051058 -0.387827 -0.171574
v 0.049365 -0.388351 -0.174527
v 0.051780 -0.391747 -0.170076
v 0.053880 -0.415124 -0.178728
v 0.053880 -0.415124 -0.177651
v 0.057361 -0.412160 -0.170076
v 0.052592 -0.412922 -0.176171
v 0.056352 -0.411865 -0.170076
v 0.053246 -0.411551 -0.173187
v 0.054116 -0.408161 -0.170124
v 0.054155 -0.408161 -0.170076
v 0.052100 -0.393978 -0.170076
v 0.049449 -0.387827 -0.174810
v 0.048516 -0.387827 -0.177121
v 0.048124 -0.387827 -0.178291
v 0.047417 -0.387827 -0.180783
v 0.046816 -0.387827 -0.182924
v 0.054188 -0.408239 -0.170076
vn -0.0000 1.0000 -0.0000
vn -0.0001 1.0000 -0.0000
vn 0.0001 1.0000 -0.0000
vn 0.0037 0.7777 -0.6286
vn -0.0000 -0.0000 -1.0000
vn -0.9210 0.0259 -0.3886
vn -0.9360 0.0352 -0.3501
vn 0.8963 0.3450 -0.2787
vn 0.9541 0.0362 -0.2974
vn 0.9509 0.0029 -0.3094
vn 0.9424 -0.0484 -0.3309
vn -0.9372 -0.1785 -0.2995
vn -0.9277 -0.0000 -0.3734
vn -0.9363 0.0353 -0.3496
vn -0.9986 -0.0000 -0.0523
vn -0.9973 0.0257 -0.0683
vn -0.9693 0.0501 -0.2408
vn -0.0000 -0.0000 1.0000
vn 0.9407 -0.1255 -0.3152
vn 0.9336 -0.2066 -0.2927
vn -0.9470 -0.3112 -0.0802
vn -0.9412 -0.3379 -0.0000
vn -0.9927 -0.1208 -0.0000
vn -0.9991 -0.0245 -0.0351
vn -0.9997 -0.0191 0.0162
vn -0.9955 0.0906 0.0266
vn -0.9949 0.0984 0.0228
vn -0.9786 0.1894 0.0798
vn -0.8010 0.2198 0.5569
vn -0.7980 0.2093 0.5651
vn 0.9331 -0.2089 -0.2926
vn 0.8561 -0.4741 -0.2056
vn -0.9227 -0.3739 0.0943
vn -0.0016 -0.9983 0.0585
vn -0.8271 -0.5155 0.2240
vn -0.9662 -0.2523 0.0530
vn -0.9993 -0.0300 0.0233
vn -0.9582 -0.1370 0.2510
vn -0.9530 -0.0943 0.2878
vn -0.9739 -0.0000 0.2270
vn -0.9896 0.0997 0.1037
vn -0.9603 0.2514 0.1205
vn -0.9340 0.3197 0.1596
vn -0.8011 0.2203 0.5565
vn -0.8512 0.3132 0.4212
vn -0.7873 0.0801 0.6114
vn -0.8463 0.3153 0.4293
vn -0.7589 -0.0000 0.6513
vn -0.7098 -0.0941 0.6981
vn 0.5373 -0.8421 -0.0471
vn 0.3161 -0.9487 -0.0000
vn -0.0000 -0.9983 0.0582
vn 0.1110 -0.9417 0.3175
vn 0.4854 -0.8743 -0.0000
vn -0.8195 -0.4856 0.3044
vn -0.8170 -0.4659 0.3399
vn -0.0000 -0.9312 0.3644
vn -0.2484 -0.8501 0.4643
vn -0.5712 -0.6470 0.5050
vn -0.7453 -0.5286 0.4063
vn -0.8064 -0.4501 0.3836
vn -0.7589 -0.3184 0.5680
vn -0.7516 -0.2686 0.6024
vn -0.7135 -0.1169 0.6909
vn -0.7061 -0.1023 0.7006
vn -0.7064 -0.1015 0.7005
vn -0.8620 0.3412 0.3749
vn -0.8672 0.3542 0.3500
vn -0.8814 0.3685 0.2954
vn -0.8924 0.3734 0.2533
vn -0.8933 0.3730 0.2508
vn -0.9193 0.3465 0.1865
vn -0.8358 0.3589 0.4156
vn -0.6687 -0.3991 0.6273
vn -0.7471 -0.3297 0.5772
vn -0.7407 -0.3133 0.5942
s 0
f 1//1 2//1 7//1
f 1//1 7//1 14//1
f 1//1 14//1 16//1
f 1//2 16//2 25//2
f 1//1 25//1 36//1
f 1//1 36//1 53//1
f 1//1 53//1 52//1
f 1//1 52//1 51//1
f 1//3 51//3 50//3
f 1//1 50//1 49//1
f 1//1 49//1 37//1
f 1//1 37//1 26//1
f 1//1 26//1 17//1
f 1//1 17//1 8//1
f 1//1 8//1 3//1
f 1//4 3//4 4//4
f 1//5 4//5 9//5
f 1//5 9//5 18//5
f 1//5 18//5 29//5
f 1//5 29//5 20//5
f 1//5 20//5 12//5
f 1//5 12//5 5//5
f 1//5 5//5 2//5
f 2//6 5//6 6//6
f 2//7 6//7 7//7
f 3//8 8//8 4//8
f 4//9 8//9 10//9
f 4//10 10//10 11//10
f 4//11 11//11 9//11
f 5//12 12//12 13//12
f 5//13 13//13 6//13
f 6//14 14//14 7//14
f 6//15 13//15 15//15
f 6//16 15//16 16//16
f 6//17 16//17 14//17
f 8//18 17//18 28//18
f 8//18 28//18 39//18
f 8//18 39//18 48//18
f 8//18 48//18 47//18
f 8//18 47//18 54//18
f 8//18 54//18 44//18
f 8//18 44//18 42//18
f 8//18 42//18 30//18
f 8//18 30//18 19//18
f 8//18 19//18 11//18
f 8//18 11//18 10//18
f 9//19 11//19 18//19
f 11//20 19//20 18//20
f 12//21 20//21 13//21
f 13//22 20//22 21//22
f 13//23 21//23 22//23
f 13//24 22//24 15//24
f 15//25 22//25 23//25
f 15//26 23//26 24//26
f 15//27 24//27 16//27
f 16//28 24//28 25//28
f 17//29 26//29 27//29
f 17//30 27//30 28//30
f 18//31 19//31 29//31
f 19//32 30//32 29//32
f 20//33 31//33 21//33
f 20//34 29//34 32//34
f 20//35 32//35 31//35
f 21//36 31//36 22//36
f 22//37 31//37 23//37
f 23//38 31//38 33//38
f 23//39 33//39 34//39
f 23//40 34//40 35//40
f 23//41 35//41 24//41
f 24//42 35//42 25//42
f 25//43 35//43 36//43
f 26//44 37//44 27//44
f 27//45 38//45 35//45
f 27//46 35//46 28//46
f 27//47 37//47 38//47
f 28//48 35//48 34//48
f 28//49 34//49 39//49
f 29//50 30//50 40//50
f 29//51 40//51 41//51
f 29//52 41//52 32//52
f 30//53 42//53 41//53
f 30//54 41//54 40//54
f 31//55 32//55 43//55
f 31//56 43//56 33//56
f 32//57 41//57 42//57
f 32//58 42//58 44//58
f 32//59 44//59 45//59
f 32//60 45//60 43//60
f 33//61 43//61 45//61
f 33//62 45//62 46//62
f 33//63 46//63 47//63
f 33//64 47//64 34//64
f 34//65 47//65 48//65
f 34//66 48//66 39//66
f 35//67 38//67 49//67
f 35//68 49//68 50//68
f 35//69 50//69 51//69
f 35//70 51//70 52//70
f 35//71 52//71 53//71
f 35//72 53//72 36//72
f 37//73 49//73 38//73
f 44//74 54//74 45//74
f 45//75 54//75 46//75
f 46//76 54//76 47//76
