# Blender 4.1.0
# www.blender.org
mtllib convex_46.mtl
o convex_46
v 0.349300 -0.449027 -0.160918
v 0.349458 -0.448793 -0.157912
v 0.349431 -0.452291 -0.158040
v 0.349198 -0.451651 -0.160918
v 0.349201 -0.446689 -0.160918
v 0.349191 -0.446458 -0.160876
v 0.349191 -0.446458 -0.159339
v 0.349393 -0.450132 -0.154622
v 0.349393 -0.452330 -0.154622
v 0.347912 -0.452287 -0.160918
v 0.344659 -0.456006 -0.152104
v 0.349133 -0.446412 -0.160918
v 0.344923 -0.441816 -0.160918
v 0.345472 -0.441337 -0.158040
v 0.345681 -0.441209 -0.153497
v 0.347323 -0.444515 -0.153497
v 0.348773 -0.447103 -0.156309
v 0.345670 -0.444312 -0.148696
v 0.344889 -0.445687 -0.146017
v 0.340916 -0.457227 -0.134118
v 0.344659 -0.456006 -0.151057
v 0.341012 -0.457227 -0.134359
v 0.341235 -0.457227 -0.135322
v 0.342147 -0.457227 -0.139811
v 0.346915 -0.452669 -0.160918
v 0.342003 -0.457227 -0.149116
v 0.340433 -0.437239 -0.160918
v 0.345143 -0.441700 -0.150039
v 0.340467 -0.437239 -0.158040
v 0.340148 -0.437544 -0.155522
v 0.343298 -0.442661 -0.147012
v 0.338078 -0.451889 -0.134118
v 0.338757 -0.452703 -0.134118
v 0.340224 -0.455103 -0.134118
v 0.340878 -0.456996 -0.134118
v 0.332707 -0.457227 -0.134118
v 0.344615 -0.452684 -0.160918
v 0.338671 -0.457227 -0.147901
v 0.337906 -0.435929 -0.160918
v 0.314440 -0.432630 -0.134118
v 0.337646 -0.435847 -0.158040
v 0.337509 -0.436902 -0.153803
v 0.336566 -0.450462 -0.134118
v 0.336001 -0.457227 -0.143775
v 0.321655 -0.453719 -0.134118
v 0.317706 -0.443234 -0.160918
v 0.336172 -0.457227 -0.144260
v 0.320822 -0.451668 -0.142612
v 0.314440 -0.448290 -0.144811
v 0.321590 -0.446881 -0.155994
v 0.315972 -0.442560 -0.160918
v 0.332977 -0.434287 -0.160918
v 0.322944 -0.432869 -0.158040
v 0.319266 -0.432850 -0.160918
v 0.314961 -0.433683 -0.160918
v 0.314440 -0.433998 -0.160918
v 0.314440 -0.446094 -0.134118
v 0.319972 -0.452937 -0.134118
v 0.314440 -0.448369 -0.144412
v 0.314440 -0.441594 -0.160918
v 0.322409 -0.432936 -0.160918
v 0.323085 -0.432960 -0.160656
v 0.314440 -0.448136 -0.140010
v 0.314700 -0.446549 -0.134118
v 0.317610 -0.450936 -0.134118
v 0.314440 -0.448160 -0.140343
v 0.316548 -0.449766 -0.134118
vn 0.9986 -0.0058 -0.0520
vn 0.9953 -0.0387 -0.0892
vn -0.0000 -0.0000 -1.0000
vn -0.0000 -0.0001 -1.0000
vn 0.9976 0.0422 -0.0557
vn 0.9974 0.0520 -0.0489
vn 0.9935 0.1136 -0.0000
vn 0.9824 0.1653 0.0867
vn 0.9998 -0.0000 0.0197
vn 0.9999 -0.0081 0.0110
vn 0.4315 -0.8726 -0.2290
vn 0.6126 -0.7904 -0.0022
vn 0.4142 -0.8833 -0.2198
vn 0.6591 0.1617 -0.7345
vn 0.7106 0.6507 -0.2675
vn 0.7147 0.6549 -0.2454
vn 0.7936 0.6060 -0.0536
vn 0.8313 0.5559 -0.0000
vn 0.9306 0.3102 0.1944
vn 0.9348 0.2986 0.1925
vn 0.8872 0.4406 0.1371
vn 0.9315 0.3029 0.2015
vn 0.9124 0.2757 0.3025
vn 0.9067 0.2042 0.3691
vn 0.9033 0.1152 0.4133
vn 0.9241 -0.0000 0.3821
vn 0.6133 -0.7898 -0.0000
vn 0.9275 -0.0587 0.3692
vn 0.7855 -0.5915 0.1819
vn 0.7475 -0.6467 0.1518
vn 0.6399 -0.7661 0.0598
vn 0.3461 -0.9033 -0.2534
vn 0.4372 -0.8993 -0.0000
vn 0.4117 -0.9113 -0.0064
vn 0.0445 -0.9380 -0.3437
vn 0.6921 0.6789 -0.2450
vn 0.6476 0.7603 -0.0512
vn 0.8778 0.4360 0.1985
vn 0.6097 0.7926 -0.0072
vn 0.5015 0.8490 0.1664
vn 0.4903 0.8490 0.1968
vn 0.8961 0.3322 0.2945
vn 0.8121 0.3880 0.4359
vn 0.6443 0.5224 0.5585
vn 0.5991 0.5162 0.6120
vn 0.6074 0.5067 0.6118
vn 0.6835 0.4178 0.5986
vn 0.8001 0.2764 0.5324
vn 0.8872 0.1459 0.4378
vn -0.0000 0.0002 1.0000
vn -0.0000 -0.0000 1.0000
vn -0.0000 -1.0000 -0.0000
vn 0.0001 -1.0000 -0.0000
vn 0.0061 -0.9337 -0.3581
vn -0.1395 -0.9134 -0.3825
vn 0.4602 0.8878 -0.0054
vn 0.4056 0.8675 0.2880
vn 0.4778 0.7104 0.5168
vn 0.4425 0.8967 0.0144
vn 0.4366 0.8848 0.1625
vn 0.3719 0.8979 0.2356
vn 0.3824 0.8880 0.2555
vn 0.5364 0.5684 0.6239
vn 0.4903 0.6084 0.6241
vn -0.3009 -0.9481 -0.1027
vn -0.2986 -0.8504 -0.4332
vn -0.3533 -0.9036 -0.2425
vn -0.3635 -0.8820 -0.2998
vn -0.3633 -0.8669 -0.3415
vn -0.3577 -0.8653 -0.3512
vn -0.3342 -0.8598 -0.3860
vn 0.3160 0.9487 0.0015
vn 0.3678 0.8995 0.2359
vn 0.2509 0.9613 0.1141
vn 0.1522 0.9874 0.0443
vn 0.0102 0.9999 -0.0064
vn -0.1898 0.9809 -0.0422
vn -0.5169 0.8549 -0.0436
vn -1.0000 -0.0000 -0.0000
vn -0.3036 -0.9468 -0.1070
vn -0.4150 -0.8932 -0.1733
vn -0.4126 -0.8939 -0.1754
vn -0.3522 -0.9171 -0.1869
vn -0.4121 -0.8938 -0.1770
vn -0.5032 -0.7980 -0.3317
vn -0.3654 -0.8655 -0.3427
vn 0.1234 0.9653 -0.2300
vn 0.1322 0.9908 -0.0273
vn 0.0479 0.9983 -0.0322
vn 0.0274 0.9992 -0.0284
vn -0.8557 -0.4890 0.1695
vn -0.6464 -0.7630 0.0088
vn -0.6982 -0.7150 0.0367
vn -0.7122 -0.7001 0.0503
vn -0.7382 -0.6700 0.0787
vn -0.8545 -0.4909 0.1699
s 0
f 1//1 2//1 3//1
f 1//2 3//2 4//2
f 1//3 4//3 10//3
f 1//3 10//3 25//3
f 1//3 25//3 37//3
f 1//3 37//3 46//3
f 1//4 46//4 51//4
f 1//3 51//3 60//3
f 1//3 60//3 56//3
f 1//3 56//3 55//3
f 1//3 55//3 54//3
f 1//3 54//3 61//3
f 1//3 61//3 52//3
f 1//3 52//3 39//3
f 1//3 39//3 27//3
f 1//3 27//3 13//3
f 1//3 13//3 12//3
f 1//3 12//3 5//3
f 1//5 5//5 2//5
f 2//6 5//6 6//6
f 2//7 6//7 7//7
f 2//8 7//8 8//8
f 2//9 8//9 9//9
f 2//10 9//10 3//10
f 3//11 10//11 4//11
f 3//12 9//12 11//12
f 3//13 11//13 10//13
f 5//14 12//14 6//14
f 6//15 12//15 13//15
f 6//16 13//16 14//16
f 6//17 14//17 15//17
f 6//18 15//18 7//18
f 7//19 16//19 17//19
f 7//20 17//20 8//20
f 7//21 15//21 16//21
f 8//22 17//22 16//22
f 8//23 16//23 18//23
f 8//24 18//24 19//24
f 8//25 19//25 20//25
f 8//26 20//26 9//26
f 9//27 21//27 11//27
f 9//28 20//28 22//28
f 9//29 22//29 23//29
f 9//30 23//30 24//30
f 9//31 24//31 21//31
f 10//32 11//32 25//32
f 11//33 21//33 24//33
f 11//34 24//34 26//34
f 11//35 26//35 25//35
f 13//36 27//36 14//36
f 14//37 27//37 15//37
f 15//38 28//38 16//38
f 15//39 27//39 29//39
f 15//40 29//40 30//40
f 15//41 30//41 28//41
f 16//42 28//42 18//42
f 18//43 28//43 19//43
f 19//44 28//44 31//44
f 19//45 31//45 32//45
f 19//46 32//46 33//46
f 19//47 33//47 34//47
f 19//48 34//48 35//48
f 19//49 35//49 20//49
f 20//50 35//50 34//50
f 20//51 34//51 33//51
f 20//51 33//51 32//51
f 20//51 32//51 43//51
f 20//51 43//51 40//51
f 20//51 40//51 57//51
f 20//51 57//51 64//51
f 20//51 64//51 67//51
f 20//51 67//51 65//51
f 20//51 65//51 58//51
f 20//51 58//51 45//51
f 20//51 45//51 36//51
f 20//52 36//52 44//52
f 20//53 44//53 47//53
f 20//52 47//52 38//52
f 20//52 38//52 26//52
f 20//53 26//53 24//53
f 20//52 24//52 23//52
f 20//52 23//52 22//52
f 25//54 26//54 37//54
f 26//55 38//55 37//55
f 27//56 39//56 29//56
f 28//57 30//57 40//57
f 28//58 40//58 31//58
f 29//59 39//59 41//59
f 29//60 41//60 30//60
f 30//61 41//61 42//61
f 30//62 42//62 40//62
f 31//63 43//63 32//63
f 31//64 40//64 43//64
f 36//65 45//65 44//65
f 37//66 38//66 46//66
f 38//67 47//67 48//67
f 38//68 48//68 49//68
f 38//69 49//69 50//69
f 38//70 50//70 51//70
f 38//71 51//71 46//71
f 39//72 52//72 41//72
f 40//73 42//73 41//73
f 40//74 41//74 52//74
f 40//75 52//75 53//75
f 40//76 53//76 54//76
f 40//77 54//77 55//77
f 40//78 55//78 56//78
f 40//79 56//79 60//79
f 40//79 60//79 49//79
f 40//79 49//79 59//79
f 40//79 59//79 66//79
f 40//79 66//79 63//79
f 40//79 63//79 57//79
f 44//80 45//80 47//80
f 45//81 58//81 59//81
f 45//82 59//82 48//82
f 45//83 48//83 47//83
f 48//84 59//84 49//84
f 49//85 60//85 51//85
f 49//86 51//86 50//86
f 52//87 61//87 62//87
f 52//88 62//88 53//88
f 53//89 62//89 61//89
f 53//90 61//90 54//90
f 57//91 63//91 64//91
f 58//92 65//92 59//92
f 59//93 65//93 66//93
f 63//94 66//94 65//94
f 63//95 65//95 67//95
f 63//96 67//96 64//96
