# Blender 4.1.0
# www.blender.org
mtllib convex_3.mtl
o convex_3
v 0.150200 -0.427880 -0.083966
v 0.158389 -0.419658 -0.083966
v 0.150200 -0.416418 -0.083966
v 0.150200 -0.456599 -0.150114
v 0.151341 -0.457656 -0.151679
v 0.153014 -0.457041 -0.151679
v 0.154269 -0.456512 -0.151679
v 0.197168 -0.395860 -0.112509
v 0.197168 -0.388999 -0.099185
v 0.197168 -0.383558 -0.091675
v 0.197168 -0.375787 -0.083966
v 0.150200 -0.416487 -0.085431
v 0.160605 -0.390012 -0.083966
v 0.150200 -0.457257 -0.151679
v 0.197168 -0.413845 -0.151679
v 0.197168 -0.369151 -0.083966
v 0.150200 -0.416652 -0.088473
v 0.161897 -0.387292 -0.083966
v 0.150200 -0.424822 -0.126668
v 0.150200 -0.417241 -0.094399
v 0.150200 -0.417198 -0.094174
v 0.150200 -0.416747 -0.089885
v 0.150200 -0.448117 -0.151679
v 0.197168 -0.406438 -0.151679
v 0.197168 -0.369428 -0.085338
v 0.178601 -0.372374 -0.089885
v 0.178601 -0.371585 -0.085338
v 0.178601 -0.371655 -0.083966
v 0.162067 -0.387041 -0.083966
v 0.157929 -0.414668 -0.133397
v 0.150200 -0.426450 -0.130493
v 0.150200 -0.444505 -0.148928
v 0.161805 -0.427360 -0.151679
v 0.195977 -0.406663 -0.151679
v 0.197168 -0.405970 -0.151142
v 0.197168 -0.369766 -0.086598
v 0.175089 -0.373067 -0.089885
v 0.197168 -0.370658 -0.089315
v 0.193995 -0.373708 -0.097157
v 0.178601 -0.373647 -0.093200
v 0.174381 -0.372642 -0.085338
v 0.174560 -0.372816 -0.083966
v 0.173870 -0.373353 -0.083966
v 0.162670 -0.419485 -0.146727
v 0.152908 -0.427940 -0.138448
v 0.175079 -0.377459 -0.097681
v 0.150200 -0.437167 -0.142703
v 0.150200 -0.438770 -0.144115
v 0.166960 -0.419892 -0.151679
v 0.167378 -0.419650 -0.151679
v 0.167079 -0.419407 -0.151367
v 0.185871 -0.401491 -0.141901
v 0.195623 -0.406117 -0.150963
v 0.193071 -0.396059 -0.138335
v 0.197168 -0.396120 -0.138753
v 0.176174 -0.373942 -0.092683
v 0.197168 -0.373153 -0.094399
v 0.195319 -0.373708 -0.097157
v 0.197168 -0.393677 -0.134868
v 0.178601 -0.374791 -0.095467
vn -0.0000 -0.0000 1.0000
vn -1.0000 -0.0000 -0.0000
vn -0.2904 -0.8778 0.3811
vn 0.3183 -0.8658 0.3861
vn 0.3590 -0.8517 0.3817
vn 0.6597 -0.6771 0.3260
vn 0.6625 -0.6660 0.3430
vn 0.6615 -0.6588 0.3583
vn 0.6566 -0.6108 0.4425
vn 0.6231 -0.5508 0.5552
vn -0.9302 0.3666 -0.0173
vn -0.3068 -0.8774 0.3689
vn -0.0000 -0.0000 -1.0000
vn 0.6705 -0.6742 0.3096
vn 1.0000 -0.0000 -0.0000
vn -0.9301 0.3667 -0.0199
vn -0.8958 0.4255 -0.1286
vn -0.9182 0.3856 -0.0906
vn -0.9221 0.3802 -0.0726
vn -0.9283 0.3699 -0.0389
vn -0.9298 0.3673 -0.0247
vn -0.1065 0.9747 -0.1968
vn -0.1157 0.9787 -0.1698
vn -0.1335 0.9898 0.0505
vn -0.8043 0.5448 -0.2371
vn -0.8400 0.5004 -0.2097
vn -0.8403 0.4989 -0.2123
vn -0.7349 0.4109 -0.5395
vn -0.1411 0.7464 -0.6504
vn -0.0894 0.9620 -0.2581
vn -0.1909 0.9672 -0.1678
vn -0.0780 0.9472 -0.3109
vn -0.0765 0.9393 -0.3344
vn -0.0881 0.9299 -0.3572
vn -0.1812 0.9181 -0.3526
vn -0.2410 0.9621 -0.1274
vn -0.2427 0.9688 0.0494
vn -0.2727 0.9494 0.1560
vn -0.7561 0.6520 0.0562
vn -0.7563 0.6299 -0.1766
vn -0.7588 0.5935 -0.2682
vn -0.7714 0.4594 -0.4404
vn -0.8178 0.4472 -0.3622
vn -0.6567 0.6574 -0.3695
vn -0.5636 0.6923 -0.4506
vn -0.8361 0.4123 -0.3618
vn -0.7559 0.4209 -0.5015
vn -0.7389 0.4150 -0.5308
vn -0.6553 0.4524 -0.6049
vn -0.2774 0.6109 -0.7415
vn -0.3049 0.6748 -0.6720
vn -0.2960 0.6833 -0.6674
vn -0.1461 0.7505 -0.6446
vn -0.1457 0.7593 -0.6342
vn -0.0518 0.7817 -0.6215
vn -0.1876 0.9144 -0.3588
vn -0.4894 0.7600 -0.4276
vn 0.3613 0.8371 -0.4108
vn -0.0000 0.9320 -0.3625
vn -0.1089 0.8747 -0.4723
vn -0.1133 0.8743 -0.4720
vn -0.1116 0.8872 -0.4477
vn -0.0000 0.8837 -0.4680
vn -0.2003 0.8747 -0.4414
vn -0.6045 0.7766 0.1773
vn -0.5160 0.7106 -0.4783
vn -0.6209 0.5261 -0.5810
vn -0.7627 0.4275 -0.4853
vn -0.7712 0.4390 -0.4611
vn -0.3012 0.8096 -0.5037
vn -0.3413 0.7884 -0.5118
vn -0.4457 0.7364 -0.5090
vn -0.3281 0.5667 -0.7558
vn -0.2405 0.7350 -0.6340
vn -0.2914 0.8141 -0.5023
vn -0.0417 0.8458 -0.5319
vn 0.3769 0.8261 -0.4190
s 0
f 1//1 2//1 11//1
f 1//1 11//1 16//1
f 1//1 16//1 28//1
f 1//1 28//1 42//1
f 1//1 42//1 43//1
f 1//1 43//1 29//1
f 1//1 29//1 18//1
f 1//1 18//1 13//1
f 1//1 13//1 3//1
f 1//2 3//2 12//2
f 1//2 12//2 17//2
f 1//2 17//2 22//2
f 1//2 22//2 21//2
f 1//2 21//2 20//2
f 1//2 20//2 19//2
f 1//2 19//2 31//2
f 1//2 31//2 47//2
f 1//2 47//2 48//2
f 1//2 48//2 32//2
f 1//2 32//2 23//2
f 1//2 23//2 14//2
f 1//2 14//2 4//2
f 1//3 4//3 5//3
f 1//4 5//4 6//4
f 1//5 6//5 7//5
f 1//6 7//6 8//6
f 1//7 8//7 9//7
f 1//8 9//8 2//8
f 2//9 9//9 10//9
f 2//10 10//10 11//10
f 3//11 13//11 12//11
f 4//12 14//12 5//12
f 5//13 14//13 23//13
f 5//13 23//13 33//13
f 5//13 33//13 49//13
f 5//13 49//13 50//13
f 5//13 50//13 34//13
f 5//13 34//13 24//13
f 5//13 24//13 15//13
f 5//13 15//13 7//13
f 5//13 7//13 6//13
f 7//14 15//14 8//14
f 8//15 15//15 24//15
f 8//15 24//15 35//15
f 8//15 35//15 55//15
f 8//15 55//15 59//15
f 8//15 59//15 57//15
f 8//15 57//15 38//15
f 8//15 38//15 36//15
f 8//15 36//15 25//15
f 8//15 25//15 16//15
f 8//15 16//15 11//15
f 8//15 11//15 10//15
f 8//15 10//15 9//15
f 12//16 13//16 17//16
f 13//17 18//17 19//17
f 13//18 19//18 20//18
f 13//19 20//19 21//19
f 13//20 21//20 22//20
f 13//21 22//21 17//21
f 16//22 25//22 26//22
f 16//23 26//23 27//23
f 16//24 27//24 28//24
f 18//25 29//25 30//25
f 18//26 30//26 19//26
f 19//27 30//27 31//27
f 23//28 32//28 33//28
f 24//29 34//29 35//29
f 25//30 36//30 26//30
f 26//31 37//31 27//31
f 26//32 36//32 38//32
f 26//33 38//33 39//33
f 26//34 39//34 40//34
f 26//35 40//35 37//35
f 27//36 37//36 41//36
f 27//37 41//37 28//37
f 28//38 41//38 42//38
f 29//39 43//39 41//39
f 29//40 41//40 37//40
f 29//41 37//41 30//41
f 30//42 44//42 45//42
f 30//43 45//43 31//43
f 30//44 37//44 46//44
f 30//45 46//45 44//45
f 31//46 45//46 47//46
f 32//47 48//47 44//47
f 32//48 44//48 33//48
f 33//49 44//49 49//49
f 34//50 50//50 51//50
f 34//51 51//51 52//51
f 34//52 52//52 53//52
f 34//53 53//53 35//53
f 35//54 53//54 54//54
f 35//55 54//55 55//55
f 37//56 40//56 56//56
f 37//57 56//57 46//57
f 38//58 57//58 58//58
f 38//59 58//59 39//59
f 39//60 59//60 54//60
f 39//61 54//61 60//61
f 39//62 60//62 40//62
f 39//63 58//63 59//63
f 40//64 60//64 56//64
f 41//65 43//65 42//65
f 44//66 46//66 51//66
f 44//67 51//67 49//67
f 44//68 48//68 47//68
f 44//69 47//69 45//69
f 46//70 56//70 54//70
f 46//71 54//71 52//71
f 46//72 52//72 51//72
f 49//73 51//73 50//73
f 52//74 54//74 53//74
f 54//75 56//75 60//75
f 54//76 59//76 55//76
f 57//77 59//77 58//77
