# Blender 4.1.0
# www.blender.org
mtllib convex_69.mtl
o convex_69
v -0.033968 -0.494495 -0.177381
v -0.033709 -0.497570 -0.177605
v -0.031839 -0.494495 -0.177381
v -0.033323 -0.489950 -0.178029
v -0.036540 -0.447159 -0.194087
v -0.036540 -0.467106 -0.190513
v -0.036540 -0.470630 -0.191249
v -0.033709 -0.497570 -0.179238
v -0.032131 -0.497570 -0.177605
v -0.032216 -0.489950 -0.178029
v -0.014314 -0.487907 -0.191959
v -0.014314 -0.486387 -0.191959
v -0.014277 -0.447159 -0.195808
v -0.032848 -0.487655 -0.178465
v -0.036540 -0.447159 -0.199509
v -0.032634 -0.487655 -0.178465
v -0.036540 -0.470630 -0.191872
v -0.033044 -0.492679 -0.183408
v -0.028727 -0.493641 -0.188332
v -0.026151 -0.494939 -0.189914
v -0.024978 -0.497126 -0.188468
v -0.032131 -0.497570 -0.179238
v -0.036540 -0.470526 -0.192938
v -0.023267 -0.497126 -0.187191
v -0.014314 -0.487907 -0.192324
v -0.014277 -0.480850 -0.196413
v -0.014277 -0.480766 -0.194701
v -0.014277 -0.478318 -0.194342
v -0.014277 -0.476320 -0.194302
v -0.018444 -0.492748 -0.191475
v -0.014277 -0.447159 -0.200694
v -0.036540 -0.451749 -0.199831
v -0.029123 -0.447159 -0.201727
v -0.023710 -0.455830 -0.205773
v -0.024298 -0.493212 -0.192571
v -0.036540 -0.469633 -0.193448
v -0.032819 -0.469909 -0.196772
v -0.023267 -0.497126 -0.188468
v -0.021336 -0.493355 -0.192842
v -0.014277 -0.480850 -0.197443
v -0.018444 -0.492748 -0.192633
v -0.016071 -0.447159 -0.201996
v -0.014277 -0.449340 -0.202451
v -0.023710 -0.455948 -0.205773
v -0.032933 -0.456042 -0.201373
v -0.036540 -0.453510 -0.199633
v -0.027524 -0.447159 -0.202174
v -0.021336 -0.454922 -0.206119
v -0.015075 -0.465280 -0.205994
v -0.030453 -0.471567 -0.197483
v -0.036540 -0.457853 -0.198292
v -0.014277 -0.465280 -0.205994
v -0.016932 -0.447159 -0.202228
v -0.014277 -0.451423 -0.203603
v -0.021031 -0.457735 -0.206090
v -0.025878 -0.447159 -0.202491
v -0.018257 -0.454650 -0.206220
v -0.016762 -0.458189 -0.206288
v -0.023428 -0.447159 -0.202720
v -0.016670 -0.462374 -0.206150
v -0.014277 -0.462448 -0.206155
v -0.021402 -0.447159 -0.202811
v -0.014277 -0.453634 -0.204684
v -0.014277 -0.458189 -0.206189
v -0.014277 -0.460543 -0.206218
vn -0.0000 -0.0727 0.9974
vn -0.0000 0.1411 0.9900
vn -0.7168 0.1971 0.6688
vn -0.9531 0.0534 0.2980
vn -0.9904 -0.0282 0.1351
vn -0.9956 -0.0866 0.0357
vn -0.0000 -1.0000 -0.0000
vn -0.9945 -0.1045 -0.0000
vn 0.6607 -0.1168 0.7415
vn 0.6395 -0.0000 0.7688
vn 0.6166 0.0763 0.7836
vn 0.4711 0.1627 0.8669
vn -0.0000 0.1866 0.9824
vn -0.5296 0.2628 0.8065
vn -0.0000 1.0000 -0.0000
vn -1.0000 -0.0000 -0.0000
vn -0.0000 0.3599 0.9330
vn 0.0718 0.3650 0.9282
vn -0.7304 -0.3830 -0.5656
vn -0.6212 -0.5359 -0.5718
vn -0.5386 -0.6462 -0.5406
vn -0.0000 -0.9988 -0.0480
vn -0.9939 -0.1095 -0.0107
vn -0.7687 -0.3512 -0.5345
vn 0.0500 -0.9987 -0.0000
vn 0.6955 -0.3512 0.6268
vn 0.3412 0.2351 0.9101
vn 1.0000 -0.0052 -0.0000
vn 1.0000 -0.0051 0.0002
vn 1.0000 -0.0014 0.0098
vn 0.9999 -0.0003 0.0144
vn 0.9999 -0.0000 0.0158
vn 0.7537 -0.6217 0.2132
vn 0.7608 -0.6490 -0.0000
vn 0.9998 0.0010 0.0203
vn 1.0000 -0.0000 -0.0000
vn -0.2767 0.2590 -0.9254
vn -0.4025 0.0641 -0.9132
vn -0.7347 -0.3626 -0.5734
vn -0.6166 -0.3904 -0.6837
vn -0.6908 -0.3586 -0.6279
vn -0.6377 -0.3534 -0.6844
vn -0.6284 -0.3546 -0.6924
vn -0.3671 -0.6419 -0.6732
vn -0.0980 -0.7119 -0.6954
vn -0.0000 -0.7574 -0.6530
vn 0.6721 -0.7404 -0.0000
vn 0.6009 -0.4714 -0.6455
vn 0.4921 0.5461 -0.6779
vn -0.4201 -0.0000 -0.9075
vn -0.4300 -0.0372 -0.9021
vn -0.4871 -0.0976 -0.8679
vn -0.2591 0.2708 -0.9271
vn -0.1442 -0.0000 -0.9896
vn -0.2422 0.2791 -0.9292
vn -0.1027 -0.4031 -0.9094
vn -0.4713 -0.3205 -0.8217
vn -0.3720 -0.3048 -0.8768
vn -0.3547 -0.3073 -0.8831
vn -0.6497 -0.2891 -0.7031
vn -0.5443 -0.2682 -0.7949
vn -0.4529 -0.2841 -0.8451
vn 0.2069 -0.7843 -0.5849
vn -0.0000 -0.4242 -0.9056
vn 0.1582 -0.4512 -0.8783
vn 0.3410 -0.4525 -0.8240
vn 0.3441 0.4544 -0.8216
vn 0.2351 0.4278 -0.8727
vn -0.1337 -0.0247 -0.9907
vn -0.2530 -0.2117 -0.9440
vn -0.4107 -0.2828 -0.8668
vn -0.5555 -0.2453 -0.7945
vn -0.1787 0.3289 -0.9273
vn -0.0332 0.0051 -0.9994
vn -0.0480 -0.0155 -0.9987
vn -0.0861 0.3800 -0.9210
vn -0.0643 0.3857 -0.9204
vn -0.1662 -0.1436 -0.9756
vn -0.0038 -0.0557 -0.9984
vn -0.0000 -0.0568 -0.9984
vn 0.2336 0.4271 -0.8735
vn 0.2291 0.4259 -0.8753
vn 0.1154 0.4512 -0.8849
vn -0.0499 -0.0340 -0.9982
vn 0.2753 0.3016 -0.9128
vn 0.0398 0.0360 -0.9986
vn -0.0411 0.3995 -0.9158
vn 0.0398 0.0123 -0.9991
vn -0.0032 -0.0330 -0.9994
vn -0.0031 -0.0330 -0.9994
s 0
f 1//1 2//1 9//1
f 1//1 9//1 3//1
f 1//2 3//2 10//2
f 1//2 10//2 4//2
f 1//3 4//3 5//3
f 1//4 5//4 6//4
f 1//5 6//5 7//5
f 1//6 7//6 2//6
f 2//7 8//7 22//7
f 2//7 22//7 9//7
f 2//8 7//8 17//8
f 2//8 17//8 8//8
f 3//9 9//9 11//9
f 3//10 11//10 12//10
f 3//11 12//11 13//11
f 3//12 13//12 10//12
f 4//13 10//13 16//13
f 4//13 16//13 14//13
f 4//14 14//14 5//14
f 5//15 13//15 31//15
f 5//15 31//15 42//15
f 5//15 42//15 53//15
f 5//15 53//15 62//15
f 5//15 62//15 59//15
f 5//15 59//15 56//15
f 5//15 56//15 47//15
f 5//15 47//15 33//15
f 5//15 33//15 15//15
f 5//16 15//16 32//16
f 5//16 32//16 46//16
f 5//16 46//16 51//16
f 5//16 51//16 36//16
f 5//16 36//16 23//16
f 5//16 23//16 17//16
f 5//16 17//16 7//16
f 5//16 7//16 6//16
f 5//17 14//17 16//17
f 5//18 16//18 13//18
f 8//19 18//19 19//19
f 8//20 19//20 20//20
f 8//21 20//21 21//21
f 8//22 21//22 38//22
f 8//22 38//22 22//22
f 8//23 17//23 23//23
f 8//24 23//24 18//24
f 9//25 22//25 38//25
f 9//25 38//25 24//25
f 9//26 24//26 11//26
f 10//27 13//27 16//27
f 11//28 25//28 40//28
f 11//28 40//28 26//28
f 11//29 26//29 27//29
f 11//30 27//30 28//30
f 11//31 28//31 29//31
f 11//32 29//32 12//32
f 11//33 24//33 30//33
f 11//34 30//34 41//34
f 11//34 41//34 25//34
f 12//35 29//35 13//35
f 13//36 29//36 28//36
f 13//36 28//36 27//36
f 13//36 27//36 26//36
f 13//36 26//36 40//36
f 13//36 40//36 52//36
f 13//36 52//36 61//36
f 13//36 61//36 65//36
f 13//36 65//36 64//36
f 13//36 64//36 63//36
f 13//36 63//36 54//36
f 13//36 54//36 43//36
f 13//36 43//36 31//36
f 15//37 33//37 34//37
f 15//38 34//38 32//38
f 18//39 23//39 19//39
f 19//40 35//40 20//40
f 19//41 23//41 36//41
f 19//42 36//42 37//42
f 19//43 37//43 35//43
f 20//44 35//44 21//44
f 21//45 35//45 39//45
f 21//46 39//46 38//46
f 24//47 38//47 41//47
f 24//47 41//47 30//47
f 25//48 41//48 40//48
f 31//49 43//49 42//49
f 32//50 34//50 44//50
f 32//51 44//51 45//51
f 32//52 45//52 46//52
f 33//53 47//53 34//53
f 34//54 48//54 44//54
f 34//55 47//55 48//55
f 35//56 49//56 39//56
f 35//57 37//57 50//57
f 35//58 50//58 44//58
f 35//59 44//59 49//59
f 36//60 51//60 37//60
f 37//61 51//61 45//61
f 37//62 45//62 50//62
f 38//63 39//63 41//63
f 39//64 49//64 52//64
f 39//65 52//65 41//65
f 40//66 41//66 52//66
f 42//67 43//67 54//67
f 42//68 54//68 53//68
f 44//69 48//69 55//69
f 44//70 55//70 49//70
f 44//71 50//71 45//71
f 45//72 51//72 46//72
f 47//73 56//73 48//73
f 48//74 57//74 58//74
f 48//75 58//75 55//75
f 48//76 56//76 59//76
f 48//77 59//77 57//77
f 49//78 55//78 60//78
f 49//79 60//79 61//79
f 49//80 61//80 52//80
f 53//81 54//81 63//81
f 53//82 63//82 57//82
f 53//83 57//83 62//83
f 55//84 58//84 60//84
f 57//85 63//85 64//85
f 57//86 64//86 58//86
f 57//87 59//87 62//87
f 58//88 64//88 65//88
f 58//89 65//89 61//89
f 58//90 61//90 60//90
