# Blender 4.1.0
# www.blender.org
mtllib convex_52.mtl
o convex_52
v -0.059924 -0.462577 -0.130346
v -0.058996 -0.463705 -0.130346
v -0.065411 -0.462577 -0.130346
v -0.055935 -0.462577 -0.123182
v -0.055645 -0.468199 -0.130346
v -0.058054 -0.462577 -0.074920
v -0.065108 -0.463686 -0.130346
v -0.058476 -0.494495 -0.080788
v -0.059010 -0.494495 -0.044454
v -0.059980 -0.487783 -0.033009
v -0.061161 -0.467238 -0.030819
v -0.060462 -0.463633 -0.030819
v -0.060244 -0.463135 -0.030819
v -0.060025 -0.463135 -0.028659
v -0.060018 -0.463135 -0.028598
v -0.054860 -0.462577 -0.121051
v -0.054893 -0.468856 -0.129793
v -0.054784 -0.470018 -0.130346
v -0.052647 -0.462577 -0.074890
v -0.059877 -0.463135 -0.027694
v -0.053674 -0.494495 -0.130346
v -0.057035 -0.498339 -0.080788
v -0.056813 -0.499220 -0.039611
v -0.056567 -0.499440 -0.035301
v -0.056619 -0.498620 -0.030819
v -0.058700 -0.494495 -0.039903
v -0.056878 -0.498852 -0.076257
v -0.058382 -0.494495 -0.035361
v -0.057950 -0.494495 -0.030819
v -0.056659 -0.496683 -0.027694
v -0.057107 -0.494495 -0.027694
v -0.058852 -0.485508 -0.027694
v -0.060547 -0.469843 -0.027694
v -0.060645 -0.467200 -0.027694
v -0.060276 -0.463922 -0.027694
v -0.060244 -0.463853 -0.027694
v -0.053788 -0.462577 -0.117022
v -0.050273 -0.486708 -0.130346
v -0.051771 -0.462577 -0.074890
v -0.052407 -0.463135 -0.027694
v -0.053519 -0.494829 -0.130346
v -0.052279 -0.498050 -0.126226
v -0.055608 -0.501374 -0.037903
v -0.055608 -0.501374 -0.036768
v -0.056239 -0.497982 -0.027694
v -0.053190 -0.462577 -0.112591
v -0.049557 -0.489952 -0.130346
v -0.050875 -0.462577 -0.080788
v -0.051564 -0.476327 -0.027694
v -0.050794 -0.478363 -0.036346
v -0.050380 -0.462577 -0.085330
v -0.052000 -0.497666 -0.130346
v -0.049632 -0.498050 -0.126226
v -0.055249 -0.501374 -0.037903
v -0.055249 -0.501374 -0.036768
v -0.054142 -0.498202 -0.027694
v -0.050586 -0.462577 -0.087541
v -0.049044 -0.494495 -0.130346
v -0.050648 -0.493222 -0.027694
v -0.050428 -0.496022 -0.036657
v -0.049052 -0.494495 -0.117133
v -0.049760 -0.497666 -0.130346
v -0.049685 -0.498206 -0.121684
v -0.049924 -0.498384 -0.112591
v -0.049951 -0.498278 -0.103507
v -0.050428 -0.497465 -0.036657
v -0.053251 -0.498202 -0.027694
v -0.050903 -0.494210 -0.027694
v -0.049751 -0.498263 -0.117133
v -0.051361 -0.495585 -0.027694
vn -0.0000 0.0001 -1.0000
vn -0.0000 -0.0000 -1.0000
vn -0.0000 1.0000 -0.0000
vn -0.0001 1.0000 -0.0000
vn 0.0006 1.0000 -0.0000
vn 0.7095 0.5835 -0.3951
vn 0.7346 0.5479 -0.4002
vn -0.9641 -0.2632 -0.0346
vn -0.9723 -0.2335 -0.0143
vn -0.9864 -0.1639 0.0126
vn -0.9973 -0.0615 0.0397
vn -0.9805 0.1900 0.0508
vn -0.9150 0.4003 0.0497
vn -0.1115 0.9937 0.0114
vn -0.1306 0.9914 0.0109
vn -0.0686 0.9976 0.0091
vn 0.7581 0.5283 -0.3824
vn 0.7518 0.5332 -0.3880
vn 0.7335 0.3469 -0.5845
vn -0.0606 0.9981 0.0095
vn -0.0001 0.9999 0.0118
vn -0.9337 -0.3465 -0.0905
vn -0.9326 -0.3494 -0.0904
vn -0.9363 -0.3508 -0.0138
vn -0.9184 -0.3943 0.0321
vn -0.9319 -0.3587 0.0550
vn -0.9407 -0.3331 0.0642
vn -0.9655 -0.2518 0.0659
vn -0.9264 -0.3765 -0.0105
vn -0.9057 -0.4240 -0.0026
vn -0.9650 -0.2533 0.0674
vn -0.9611 -0.2608 0.0915
vn -0.9469 -0.2057 0.2472
vn -0.9444 -0.1936 0.2659
vn -0.9429 -0.1830 0.2784
vn -0.9629 -0.1042 0.2489
vn -0.9883 -0.0712 0.1347
vn -0.9859 -0.0364 0.1632
vn -0.9808 0.1103 0.1606
vn -0.9789 0.1897 0.0758
vn -0.9123 0.3992 0.0912
vn -0.9100 0.4041 0.0925
vn -0.9077 0.4083 0.0963
vn -0.9021 0.4180 0.1068
vn -0.8820 0.4507 0.1375
vn 0.9114 0.3327 -0.2424
vn 0.9088 0.2457 -0.3372
vn 0.9459 0.2512 -0.2054
vn -0.0000 0.9999 0.0118
vn -0.0000 0.0003 1.0000
vn -0.0000 -0.0000 1.0000
vn -0.9027 -0.4199 -0.0938
vn -0.8821 -0.4614 -0.0953
vn -0.6071 -0.7917 -0.0686
vn -0.8727 -0.4882 -0.0000
vn -0.8872 -0.4606 0.0270
vn -0.8716 -0.4902 -0.0034
vn -0.8675 -0.4910 0.0799
vn -0.9478 -0.3059 0.0903
vn -0.9416 -0.3302 0.0658
vn -0.6466 -0.7282 0.2272
vn -0.9368 -0.3027 0.1756
vn -0.9369 -0.3024 0.1754
vn -0.3686 -0.9283 -0.0488
vn 0.9682 0.2132 -0.1306
vn 0.9680 0.2137 -0.1317
vn 0.0852 0.9963 0.0129
vn 0.9953 0.0636 0.0737
vn 0.9957 0.0851 0.0358
vn 0.1301 0.9914 0.0142
vn -0.8769 -0.4695 -0.1031
vn -0.0000 -0.9957 -0.0928
vn -0.0000 -0.9993 -0.0376
vn -0.0000 -1.0000 -0.0000
vn -0.0000 -0.9440 0.3300
vn -0.0980 -0.9344 0.3425
vn 0.9755 0.1953 -0.1014
vn 0.9797 0.1789 -0.0909
vn 0.9925 0.1120 -0.0499
vn 0.9956 0.0540 0.0760
vn 0.9996 0.0204 0.0181
vn 0.9996 0.0204 0.0175
vn 0.9995 0.0251 0.0165
vn 0.9992 0.0410 0.0006
vn 0.9742 -0.2200 -0.0508
vn 0.9867 -0.1625 0.0006
vn 0.9846 -0.1746 0.0055
vn 0.0631 -0.9974 -0.0335
vn 0.4135 -0.9105 -0.0070
vn 0.4891 -0.8723 -0.0000
vn 0.6050 -0.7961 0.0111
vn 0.6296 -0.7768 0.0139
vn 0.6225 -0.7713 0.1326
vn 0.9587 -0.2472 0.1405
vn 0.9997 -0.0000 0.0245
vn 0.9999 -0.0000 0.0171
vn 0.9836 -0.1802 0.0102
vn 0.9659 -0.2587 0.0107
vn 0.5133 -0.8582 -0.0034
vn 0.7375 -0.6753 0.0101
vn 0.8689 -0.4948 0.0122
vn 0.9361 -0.3119 0.1628
vn 0.7938 -0.5734 0.2028
s 0
f 1//1 2//1 5//1
f 1//2 5//2 18//2
f 1//2 18//2 38//2
f 1//2 38//2 47//2
f 1//2 47//2 58//2
f 1//2 58//2 62//2
f 1//2 62//2 52//2
f 1//2 52//2 41//2
f 1//2 41//2 21//2
f 1//2 21//2 7//2
f 1//2 7//2 3//2
f 1//3 3//3 6//3
f 1//3 6//3 19//3
f 1//3 19//3 39//3
f 1//3 39//3 48//3
f 1//3 48//3 51//3
f 1//3 51//3 57//3
f 1//3 57//3 46//3
f 1//3 46//3 37//3
f 1//4 37//4 16//4
f 1//5 16//5 4//5
f 1//6 4//6 2//6
f 2//7 4//7 5//7
f 3//8 7//8 8//8
f 3//9 8//9 9//9
f 3//10 9//10 10//10
f 3//11 10//11 11//11
f 3//12 11//12 12//12
f 3//13 12//13 13//13
f 3//14 13//14 14//14
f 3//15 14//15 15//15
f 3//16 15//16 6//16
f 4//17 16//17 17//17
f 4//18 17//18 5//18
f 5//19 17//19 18//19
f 6//20 15//20 20//20
f 6//21 20//21 19//21
f 7//22 21//22 8//22
f 8//23 21//23 22//23
f 8//24 22//24 9//24
f 9//25 23//25 24//25
f 9//26 24//26 25//26
f 9//27 25//27 26//27
f 9//28 26//28 10//28
f 9//29 22//29 27//29
f 9//30 27//30 23//30
f 10//31 26//31 28//31
f 10//32 28//32 29//32
f 10//33 29//33 30//33
f 10//34 30//34 31//34
f 10//35 31//35 32//35
f 10//36 32//36 33//36
f 10//37 33//37 11//37
f 11//38 33//38 34//38
f 11//39 34//39 35//39
f 11//40 35//40 12//40
f 12//41 35//41 13//41
f 13//42 35//42 14//42
f 14//43 35//43 15//43
f 15//44 35//44 36//44
f 15//45 36//45 20//45
f 16//46 37//46 17//46
f 17//47 38//47 18//47
f 17//48 37//48 38//48
f 19//49 20//49 40//49
f 19//49 40//49 39//49
f 20//50 36//50 35//50
f 20//51 35//51 34//51
f 20//51 34//51 33//51
f 20//51 33//51 32//51
f 20//51 32//51 31//51
f 20//51 31//51 30//51
f 20//51 30//51 45//51
f 20//51 45//51 56//51
f 20//51 56//51 67//51
f 20//51 67//51 70//51
f 20//51 70//51 68//51
f 20//51 68//51 59//51
f 20//51 59//51 49//51
f 20//51 49//51 40//51
f 21//52 41//52 22//52
f 22//53 41//53 42//53
f 22//54 42//54 27//54
f 23//55 43//55 44//55
f 23//56 44//56 24//56
f 23//57 27//57 43//57
f 24//58 44//58 25//58
f 25//59 29//59 28//59
f 25//60 28//60 26//60
f 25//61 44//61 45//61
f 25//62 45//62 30//62
f 25//63 30//63 29//63
f 27//64 42//64 43//64
f 37//65 46//65 47//65
f 37//66 47//66 38//66
f 39//67 40//67 48//67
f 40//68 49//68 50//68
f 40//69 50//69 51//69
f 40//70 51//70 48//70
f 41//71 52//71 42//71
f 42//72 52//72 62//72
f 42//72 62//72 53//72
f 42//73 53//73 54//73
f 42//73 54//73 43//73
f 43//74 54//74 55//74
f 43//74 55//74 44//74
f 44//75 55//75 67//75
f 44//75 67//75 56//75
f 44//76 56//76 45//76
f 46//77 57//77 47//77
f 47//78 57//78 51//78
f 47//79 51//79 58//79
f 49//80 59//80 50//80
f 50//81 59//81 60//81
f 50//82 60//82 61//82
f 50//83 61//83 51//83
f 51//84 61//84 58//84
f 53//85 62//85 58//85
f 53//86 58//86 61//86
f 53//87 61//87 63//87
f 53//88 63//88 54//88
f 54//89 63//89 64//89
f 54//90 64//90 55//90
f 55//91 64//91 65//91
f 55//92 65//92 66//92
f 55//93 66//93 67//93
f 59//94 68//94 66//94
f 59//95 66//95 60//95
f 60//96 66//96 61//96
f 61//97 66//97 63//97
f 63//98 66//98 69//98
f 63//99 69//99 64//99
f 64//100 69//100 65//100
f 65//101 69//101 66//101
f 66//102 68//102 70//102
f 66//103 70//103 67//103
