# Blender 4.1.0
# www.blender.org
mtllib convex_127.mtl
o convex_127
v -0.010515 -0.461098 0.101893
v -0.010331 -0.460883 0.103667
v -0.021839 -0.456336 0.114690
v -0.019870 -0.456228 0.111797
v -0.021839 -0.453599 0.113487
v -0.011022 -0.457864 0.101893
v -0.009013 -0.461098 0.101893
v -0.009384 -0.460883 0.103667
v -0.021839 -0.456162 0.115563
v -0.021839 -0.453474 0.113533
v -0.010363 -0.455447 0.101893
v -0.010431 -0.455673 0.101893
v -0.006077 -0.458319 0.101893
v -0.010934 -0.455131 0.111652
v -0.013966 -0.456225 0.112645
v -0.019766 -0.455568 0.116260
v 0.017327 -0.428644 0.112395
v 0.003610 -0.442084 0.112170
v 0.000582 -0.443584 0.113675
v -0.009284 -0.456475 0.108623
v -0.021839 -0.454558 0.118440
v -0.021839 -0.449670 0.115026
v -0.021839 -0.439572 0.119242
v -0.021839 -0.426536 0.125179
v 0.016356 -0.425615 0.101896
v -0.008905 -0.454530 0.101893
v -0.004902 -0.456819 0.101893
v 0.017559 -0.428808 0.106483
v 0.017518 -0.428783 0.110060
v -0.019726 -0.450785 0.121142
v -0.001148 -0.441955 0.116707
v -0.000057 -0.429603 0.126959
v -0.021264 -0.453616 0.119177
v 0.018749 -0.426338 0.110060
v 0.018857 -0.425615 0.110782
v 0.017894 -0.425615 0.114215
v 0.017782 -0.425900 0.114187
v 0.017706 -0.425615 0.114610
v 0.010676 -0.425615 0.121953
v 0.008255 -0.428641 0.121454
v -0.021839 -0.452866 0.120158
v -0.021839 -0.425615 0.125725
v 0.018074 -0.425615 0.101896
v -0.008042 -0.454547 0.101893
v -0.004902 -0.455020 0.101893
v 0.018409 -0.426755 0.105187
v -0.021839 -0.450122 0.122259
v -0.003157 -0.427672 0.129969
v 0.000618 -0.425615 0.129093
v -0.001443 -0.425615 0.130432
v 0.018785 -0.425615 0.105264
v 0.018969 -0.425615 0.110060
v 0.017798 -0.425615 0.114421
v -0.021839 -0.425615 0.133211
v -0.005414 -0.454634 0.101893
v -0.012244 -0.429468 0.131585
v -0.012244 -0.426338 0.133211
v -0.015931 -0.429495 0.131739
v -0.003157 -0.425615 0.130975
v -0.012224 -0.425615 0.133399
vn -0.2436 -0.9595 0.1415
vn -0.7586 -0.3784 -0.5305
vn -0.7553 -0.1566 -0.6364
vn -0.7473 -0.1172 -0.6541
vn -0.0000 -0.0000 -1.0000
vn -0.0000 -0.9927 0.1203
vn -0.0000 -0.9295 0.3689
vn -0.1964 -0.9616 0.1916
vn -1.0000 -0.0000 -0.0000
vn -0.7977 -0.2426 -0.5521
vn -0.6656 0.2578 -0.7004
vn -0.6793 0.2040 -0.7049
vn -0.6839 0.1845 -0.7059
vn 0.6697 -0.7075 0.2260
vn 0.4378 -0.6870 0.5799
vn 0.2473 -0.8027 0.5427
vn 0.1002 -0.8844 0.4558
vn 0.6823 -0.6538 0.3270
vn 0.6155 -0.6360 0.4655
vn 0.5726 -0.6320 0.5222
vn 0.5439 -0.6324 0.5515
vn 0.5109 -0.6474 0.5655
vn 0.0862 -0.8702 0.4851
vn -0.6612 0.2741 -0.6983
vn -0.6530 0.2918 -0.6989
vn -0.6259 0.3233 -0.7098
vn -0.4779 0.4281 -0.7670
vn -0.0001 0.0002 -1.0000
vn 0.7842 -0.6139 -0.0907
vn 0.7795 -0.6263 0.0131
vn 0.7636 -0.6378 0.1007
vn 0.4358 -0.5943 0.6759
vn 0.5308 -0.6289 0.5681
vn 0.5026 -0.6088 0.6138
vn 0.4539 -0.5925 0.6656
vn 0.4376 -0.5922 0.6766
vn 0.3595 -0.6560 0.6637
vn 0.3230 -0.6976 0.6395
vn 0.3087 -0.7165 0.6255
vn 0.8888 -0.4473 0.0996
vn 0.9131 -0.3482 0.2122
vn 0.9109 -0.3241 0.2554
vn 0.8596 -0.3716 0.3506
vn 0.8095 -0.4093 0.4210
vn 0.6204 -0.5121 0.5940
vn 0.5837 -0.5634 0.5847
vn 0.5703 -0.5902 0.5713
vn 0.5743 -0.5955 0.5618
vn 0.5237 -0.5892 0.6153
vn 0.2586 -0.6882 0.6778
vn -0.4729 0.4494 -0.7579
vn -0.0000 0.0001 -1.0000
vn -0.0000 1.0000 -0.0000
vn 0.0001 1.0000 -0.0000
vn -0.0005 1.0000 -0.0000
vn 0.0001 -0.0000 -1.0000
vn 0.7665 -0.5643 -0.3067
vn 0.8236 -0.5047 -0.2588
vn 0.9166 -0.3986 -0.0297
vn 0.8932 -0.4495 0.0131
vn 0.2232 -0.5926 0.7740
vn 0.3219 -0.6516 0.6869
vn 0.3765 -0.5536 0.7428
vn 0.2727 -0.5076 0.8173
vn 0.4953 -0.5803 0.6465
vn 0.5121 -0.5221 0.6820
vn 0.5105 -0.4713 0.7192
vn 0.4792 -0.4758 0.7376
vn 0.4120 -0.5128 0.7532
vn 0.9498 -0.3102 -0.0396
vn 0.9562 -0.2905 -0.0366
vn 0.9465 -0.2876 0.1465
vn 0.8426 -0.3690 0.3922
vn 0.8325 -0.3785 0.4044
vn 0.9350 -0.2946 -0.1974
vn 0.2457 -0.4914 0.8355
vn 0.1287 -0.4572 0.8800
vn -0.0069 -0.4160 0.9094
vn -0.0404 -0.4077 0.9122
vn 0.2738 -0.4225 0.8640
vn 0.2480 -0.4256 0.8703
vn 0.2415 -0.4473 0.8611
vn -0.0297 -0.3937 0.9187
vn -0.0189 -0.2511 0.9678
vn 0.2501 -0.2501 0.9354
s 0
f 1//1 2//1 3//1
f 1//2 3//2 4//2
f 1//3 4//3 5//3
f 1//4 5//4 6//4
f 1//5 6//5 12//5
f 1//5 12//5 11//5
f 1//5 11//5 26//5
f 1//5 26//5 44//5
f 1//5 44//5 55//5
f 1//5 55//5 45//5
f 1//5 45//5 27//5
f 1//5 27//5 13//5
f 1//5 13//5 7//5
f 1//6 7//6 8//6
f 1//6 8//6 2//6
f 2//7 8//7 9//7
f 2//8 9//8 3//8
f 3//9 9//9 21//9
f 3//9 21//9 41//9
f 3//9 41//9 47//9
f 3//9 47//9 54//9
f 3//9 54//9 42//9
f 3//9 42//9 24//9
f 3//9 24//9 23//9
f 3//9 23//9 22//9
f 3//9 22//9 10//9
f 3//9 10//9 5//9
f 3//10 5//10 4//10
f 5//11 10//11 11//11
f 5//12 11//12 12//12
f 5//13 12//13 6//13
f 7//14 13//14 8//14
f 8//15 14//15 15//15
f 8//16 15//16 16//16
f 8//17 16//17 9//17
f 8//18 13//18 17//18
f 8//19 17//19 18//19
f 8//20 18//20 19//20
f 8//21 19//21 20//21
f 8//22 20//22 14//22
f 9//23 16//23 21//23
f 10//24 22//24 11//24
f 11//25 22//25 23//25
f 11//26 23//26 24//26
f 11//27 24//27 25//27
f 11//28 25//28 26//28
f 13//29 27//29 28//29
f 13//30 28//30 29//30
f 13//31 29//31 17//31
f 14//32 30//32 15//32
f 14//33 20//33 19//33
f 14//34 19//34 31//34
f 14//35 31//35 32//35
f 14//36 32//36 30//36
f 15//37 30//37 33//37
f 15//38 33//38 21//38
f 15//39 21//39 16//39
f 17//40 29//40 34//40
f 17//41 34//41 35//41
f 17//42 35//42 36//42
f 17//43 36//43 37//43
f 17//44 37//44 38//44
f 17//45 38//45 39//45
f 17//46 39//46 40//46
f 17//47 40//47 19//47
f 17//48 19//48 18//48
f 19//49 40//49 31//49
f 21//50 33//50 41//50
f 24//51 42//51 25//51
f 25//52 43//52 26//52
f 25//53 42//53 54//53
f 25//53 54//53 60//53
f 25//53 60//53 59//53
f 25//53 59//53 50//53
f 25//53 50//53 49//53
f 25//53 49//53 39//53
f 25//53 39//53 38//53
f 25//54 38//54 53//54
f 25//55 53//55 36//55
f 25//53 36//53 35//53
f 25//53 35//53 52//53
f 25//53 52//53 51//53
f 25//53 51//53 43//53
f 26//52 43//52 44//52
f 27//56 45//56 43//56
f 27//57 43//57 28//57
f 28//58 43//58 46//58
f 28//59 46//59 34//59
f 28//60 34//60 29//60
f 30//61 47//61 41//61
f 30//62 41//62 33//62
f 30//63 32//63 48//63
f 30//64 48//64 47//64
f 31//65 40//65 32//65
f 32//66 40//66 39//66
f 32//67 39//67 49//67
f 32//68 49//68 50//68
f 32//69 50//69 48//69
f 34//70 46//70 51//70
f 34//71 51//71 52//71
f 34//72 52//72 35//72
f 36//73 53//73 37//73
f 37//74 53//74 38//74
f 43//75 51//75 46//75
f 43//52 45//52 55//52
f 43//52 55//52 44//52
f 47//76 48//76 56//76
f 47//77 56//77 57//77
f 47//78 57//78 58//78
f 47//79 58//79 54//79
f 48//80 50//80 59//80
f 48//81 59//81 57//81
f 48//82 57//82 56//82
f 54//83 58//83 57//83
f 54//84 57//84 60//84
f 57//85 59//85 60//85
