# Blender 4.1.0
# www.blender.org
mtllib convex_34.mtl
o convex_34
v 0.278625 -0.486933 0.031367
v 0.290007 -0.483229 0.026079
v 0.287663 -0.480864 0.027737
v 0.278625 -0.485409 0.031191
v 0.278625 -0.486933 0.028067
v 0.300268 -0.486933 0.018050
v 0.290125 -0.480864 0.026232
v 0.278625 -0.480864 0.030598
v 0.290119 -0.478191 0.026222
v 0.290068 -0.455732 0.021537
v 0.278625 -0.486923 0.024151
v 0.278651 -0.486933 0.024146
v 0.304797 -0.471775 0.013437
v 0.300181 -0.480864 0.017819
v 0.323430 -0.486933 -0.008859
v 0.278625 -0.453601 0.024590
v 0.295232 -0.458151 0.017644
v 0.294700 -0.455620 0.017155
v 0.285447 -0.442201 0.016963
v 0.283118 -0.444517 0.019297
v 0.278625 -0.445798 0.021850
v 0.278625 -0.447708 0.022597
v 0.278983 -0.448651 0.022828
v 0.278625 -0.452976 0.024387
v 0.304403 -0.468530 0.012987
v 0.278625 -0.437011 0.002800
v 0.280048 -0.437011 0.001081
v 0.303082 -0.447664 -0.020513
v 0.321567 -0.486933 -0.024241
v 0.324612 -0.486933 -0.010375
v 0.325447 -0.486933 -0.011572
v 0.308011 -0.446961 -0.005976
v 0.303558 -0.437011 -0.007926
v 0.281399 -0.437505 0.012679
v 0.283118 -0.441751 0.017457
v 0.278983 -0.444112 0.020895
v 0.296670 -0.437011 -0.000583
v 0.278625 -0.444463 0.021219
v 0.278625 -0.448681 0.022932
v 0.317657 -0.459319 -0.013966
v 0.313164 -0.454906 -0.009167
v 0.311788 -0.453474 -0.007827
v 0.308789 -0.449990 -0.005202
v 0.278625 -0.437011 0.012866
v 0.304454 -0.437011 -0.024736
v 0.304490 -0.437295 -0.024736
v 0.304469 -0.444517 -0.022956
v 0.306475 -0.444517 -0.024736
v 0.322151 -0.486933 -0.024736
v 0.326777 -0.486933 -0.013785
v 0.314188 -0.444517 -0.017800
v 0.313389 -0.441571 -0.018695
v 0.304408 -0.437011 -0.009046
v 0.282013 -0.437011 0.010933
v 0.278625 -0.438707 0.015370
v 0.278625 -0.440984 0.018462
v 0.278625 -0.441014 0.018500
v 0.278625 -0.443989 0.020922
v 0.326854 -0.473045 -0.022682
v 0.316987 -0.448109 -0.020183
v 0.311803 -0.437011 -0.024736
v 0.305611 -0.442093 -0.024736
v 0.330907 -0.486933 -0.024736
v 0.328563 -0.486933 -0.017174
v 0.316342 -0.444600 -0.021704
v 0.317570 -0.444600 -0.024736
v 0.316731 -0.443247 -0.024736
v 0.316557 -0.442978 -0.024736
v 0.314014 -0.440872 -0.021715
v 0.310672 -0.437011 -0.021600
v 0.309659 -0.437011 -0.019469
v 0.309039 -0.437011 -0.018223
v 0.306209 -0.437011 -0.012588
v 0.328021 -0.474922 -0.024736
v 0.327161 -0.472234 -0.024736
v 0.329925 -0.486933 -0.020721
v 0.314664 -0.440295 -0.024736
v 0.328384 -0.476319 -0.024736
v 0.330825 -0.486933 -0.024357
v 0.330503 -0.486933 -0.022869
vn 0.4581 -0.1592 0.8745
vn 0.3065 0.1091 0.9456
vn -1.0000 -0.0000 -0.0000
vn -1.0000 -0.0000 -0.0001
vn -1.0000 -0.0000 0.0003
vn -1.0000 -0.0000 -0.0002
vn -1.0000 -0.0000 0.0007
vn -0.0000 -1.0000 -0.0000
vn -0.0001 -1.0000 -0.0000
vn 0.0001 -1.0000 -0.0000
vn 0.4875 -0.3669 0.7923
vn 0.5198 -0.0812 0.8504
vn 0.5957 -0.0817 0.7990
vn 0.2995 0.1235 0.9461
vn 0.5215 0.0047 0.8532
vn 0.3560 0.1916 0.9146
vn 0.2956 0.2021 0.9337
vn -0.3600 -0.9330 -0.0024
vn 0.6474 0.0382 0.7612
vn 0.6465 0.0382 0.7620
vn 0.6295 0.0046 0.7770
vn 0.7576 -0.0279 0.6521
vn 0.2879 0.2061 0.9352
vn 0.6466 0.0390 0.7619
vn 0.6063 0.1637 0.7782
vn 0.6575 0.2738 0.7020
vn 0.6140 0.4328 0.6600
vn 0.4052 0.4140 0.8151
vn 0.3661 0.3952 0.8425
vn 0.3233 0.3446 0.8813
vn 0.3188 0.3377 0.8856
vn 0.2982 0.3018 0.9055
vn 0.2973 0.2952 0.9080
vn 0.6181 0.1812 0.7650
vn 0.6563 0.2625 0.7073
vn -0.7431 -0.2632 -0.6152
vn -0.7221 -0.2732 -0.6355
vn -0.7186 -0.2777 -0.6376
vn -0.4006 -0.8449 -0.3544
vn 0.7870 0.0647 0.6136
vn 0.8081 0.1710 0.5637
vn 0.8088 0.1761 0.5611
vn 0.6635 0.2739 0.6962
vn 0.7374 0.3722 0.5637
vn 0.7056 0.4266 0.5658
vn 0.6656 0.4673 0.5818
vn 0.2716 0.7658 0.5829
vn 0.2754 0.6052 0.7469
vn 0.3591 0.4583 0.8130
vn 0.5874 0.5927 0.5510
vn 0.3947 0.7813 0.4835
vn 0.3640 0.4036 0.8394
vn 0.3648 0.3982 0.8416
vn 0.2409 0.3160 0.9177
vn 0.2416 0.3114 0.9191
vn 0.8222 0.2751 0.4983
vn 0.8168 0.2878 0.5000
vn 0.8078 0.3029 0.5057
vn 0.8038 0.3087 0.5085
vn 0.7789 0.3355 0.5298
vn -0.0000 1.0000 -0.0000
vn -0.0004 1.0000 -0.0000
vn -0.7236 -0.0917 -0.6841
vn -0.7172 -0.1647 -0.6772
vn -0.7178 -0.2012 -0.6665
vn -0.6694 -0.2486 -0.7001
vn -0.6445 -0.2378 -0.7267
vn -0.6283 -0.2322 -0.7425
vn 0.8240 0.2754 0.4952
vn 0.8061 0.3322 0.4898
vn 0.7927 0.3637 0.4893
vn 0.7536 0.4271 0.4996
vn 0.7196 0.4290 0.5460
vn 0.1870 0.9261 0.3277
vn 0.1821 0.8141 0.5514
vn 0.2208 0.7853 0.5784
vn 0.2788 0.7574 0.5904
vn 0.2620 0.7662 0.5867
vn 0.2750 0.8955 0.3500
vn 0.2729 0.6078 0.7457
vn 0.2665 0.6085 0.7475
vn 0.2400 0.5148 0.8231
vn 0.8476 0.2829 0.4489
vn 0.8507 0.2929 0.4365
vn 0.8199 0.3144 0.4785
vn 0.8174 0.3184 0.4801
vn 0.8113 0.3243 0.4865
vn 0.8085 0.3276 0.4888
vn -0.0000 -0.0000 -1.0000
vn -0.7113 -0.1662 -0.6829
vn -0.6457 -0.2302 -0.7281
vn 0.8488 0.2819 0.4474
vn 0.8247 0.3456 0.4476
vn 0.8208 0.3579 0.4452
vn 0.8187 0.4687 0.3317
vn 0.8085 0.5013 0.3082
vn 0.8011 0.5183 0.2994
vn 0.7903 0.5404 0.2886
vn 0.7270 0.6205 0.2940
vn 0.7012 0.6302 0.3334
vn 0.6964 0.6285 0.3464
vn 0.6958 0.6275 0.3495
vn 0.6972 0.6231 0.3545
vn 0.9212 0.2947 0.2541
vn 0.9119 0.3165 0.2613
vn 0.8812 0.3132 0.3542
vn 0.9042 0.2489 0.3471
vn 0.9220 0.2461 0.2990
vn 0.8793 0.3161 0.3562
vn 0.7276 0.6339 0.2624
vn 0.9520 0.2263 0.2060
vn 0.7856 0.5543 0.2749
vn 0.7307 0.6242 0.2765
vn 0.9287 0.2413 0.2815
vn 0.9393 0.2320 0.2529
s 0
f 1//1 2//1 3//1
f 1//2 3//2 4//2
f 1//3 4//3 8//3
f 1//4 8//4 16//4
f 1//5 16//5 24//5
f 1//3 24//3 39//3
f 1//6 39//6 22//6
f 1//4 22//4 21//4
f 1//3 21//3 38//3
f 1//3 38//3 58//3
f 1//3 58//3 57//3
f 1//7 57//7 56//7
f 1//3 56//3 55//3
f 1//3 55//3 44//3
f 1//3 44//3 26//3
f 1//3 26//3 11//3
f 1//3 11//3 5//3
f 1//8 5//8 12//8
f 1//8 12//8 29//8
f 1//8 29//8 49//8
f 1//8 49//8 63//8
f 1//9 63//9 79//9
f 1//8 79//8 80//8
f 1//8 80//8 76//8
f 1//8 76//8 64//8
f 1//8 64//8 50//8
f 1//9 50//9 31//9
f 1//10 31//10 30//10
f 1//9 30//9 15//9
f 1//8 15//8 6//8
f 1//11 6//11 2//11
f 2//12 7//12 3//12
f 2//13 6//13 7//13
f 3//14 8//14 4//14
f 3//15 7//15 9//15
f 3//16 9//16 10//16
f 3//17 10//17 8//17
f 5//18 11//18 12//18
f 6//19 13//19 14//19
f 6//20 14//20 9//20
f 6//21 9//21 7//21
f 6//22 15//22 13//22
f 8//23 10//23 16//23
f 9//24 14//24 13//24
f 9//25 13//25 10//25
f 10//26 17//26 18//26
f 10//27 18//27 19//27
f 10//28 19//28 20//28
f 10//29 20//29 21//29
f 10//30 21//30 22//30
f 10//31 22//31 23//31
f 10//32 23//32 24//32
f 10//33 24//33 16//33
f 10//34 13//34 25//34
f 10//35 25//35 17//35
f 11//36 26//36 27//36
f 11//37 27//37 28//37
f 11//38 28//38 29//38
f 11//39 29//39 12//39
f 13//40 15//40 30//40
f 13//41 30//41 31//41
f 13//42 31//42 25//42
f 17//43 25//43 18//43
f 18//44 25//44 32//44
f 18//45 32//45 33//45
f 18//46 33//46 19//46
f 19//47 34//47 35//47
f 19//48 35//48 36//48
f 19//49 36//49 20//49
f 19//50 33//50 37//50
f 19//51 37//51 34//51
f 20//52 36//52 38//52
f 20//53 38//53 21//53
f 22//54 39//54 23//54
f 23//55 39//55 24//55
f 25//56 31//56 40//56
f 25//57 40//57 41//57
f 25//58 41//58 42//58
f 25//59 42//59 43//59
f 25//60 43//60 32//60
f 26//61 44//61 54//61
f 26//61 54//61 37//61
f 26//61 37//61 33//61
f 26//61 33//61 53//61
f 26//61 53//61 73//61
f 26//61 73//61 72//61
f 26//61 72//61 71//61
f 26//61 71//61 70//61
f 26//61 70//61 61//61
f 26//61 61//61 45//61
f 26//62 45//62 27//62
f 27//63 45//63 46//63
f 27//64 46//64 47//64
f 27//65 47//65 28//65
f 28//66 47//66 29//66
f 29//67 47//67 48//67
f 29//68 48//68 49//68
f 31//69 50//69 40//69
f 32//70 43//70 51//70
f 32//71 51//71 52//71
f 32//72 52//72 53//72
f 32//73 53//73 33//73
f 34//74 54//74 44//74
f 34//75 44//75 55//75
f 34//76 55//76 56//76
f 34//77 56//77 57//77
f 34//78 57//78 35//78
f 34//79 37//79 54//79
f 35//80 57//80 36//80
f 36//81 57//81 58//81
f 36//82 58//82 38//82
f 40//83 50//83 59//83
f 40//84 59//84 60//84
f 40//85 60//85 41//85
f 41//86 60//86 51//86
f 41//87 51//87 42//87
f 42//88 51//88 43//88
f 45//89 61//89 77//89
f 45//89 77//89 68//89
f 45//89 68//89 67//89
f 45//89 67//89 66//89
f 45//89 66//89 75//89
f 45//89 75//89 74//89
f 45//89 74//89 78//89
f 45//89 78//89 63//89
f 45//89 63//89 49//89
f 45//89 49//89 48//89
f 45//89 48//89 62//89
f 45//89 62//89 46//89
f 46//90 62//90 47//90
f 47//91 62//91 48//91
f 50//92 64//92 59//92
f 51//93 60//93 65//93
f 51//94 65//94 52//94
f 52//95 65//95 66//95
f 52//96 66//96 67//96
f 52//97 67//97 68//97
f 52//98 68//98 69//98
f 52//99 69//99 70//99
f 52//100 70//100 71//100
f 52//101 71//101 72//101
f 52//102 72//102 73//102
f 52//103 73//103 53//103
f 59//104 74//104 75//104
f 59//105 75//105 66//105
f 59//106 66//106 60//106
f 59//107 64//107 76//107
f 59//108 76//108 74//108
f 60//109 66//109 65//109
f 61//110 70//110 77//110
f 63//111 78//111 79//111
f 68//112 77//112 69//112
f 69//113 77//113 70//113
f 74//114 76//114 78//114
f 76//115 80//115 78//115
f 78//111 80//111 79//111
