# Blender 4.1.0
# www.blender.org
mtllib convex_116.mtl
o convex_116
v -0.046652 -0.383155 0.105028
v -0.049997 -0.383155 0.073899
v -0.053304 -0.383155 0.105028
v -0.053713 -0.399059 0.105028
v -0.057687 -0.383155 0.073899
v -0.068336 -0.423452 0.105028
v -0.074324 -0.423452 0.073899
v -0.055923 -0.383155 0.096591
v -0.065174 -0.391525 0.090734
v -0.068106 -0.399000 0.096874
v -0.066136 -0.398815 0.101033
v -0.065304 -0.400156 0.104589
v -0.064641 -0.399694 0.105028
v -0.057666 -0.383155 0.078250
v -0.069488 -0.395860 0.073899
v -0.067848 -0.393904 0.082796
v -0.065531 -0.391387 0.087340
v -0.075799 -0.423452 0.105028
v -0.080299 -0.423452 0.073899
v -0.056704 -0.383155 0.093668
v -0.069192 -0.396405 0.085475
v -0.075607 -0.408392 0.091880
v -0.069519 -0.400463 0.095661
v -0.057106 -0.383155 0.091880
v -0.074819 -0.409216 0.095454
v -0.074637 -0.417050 0.105028
v -0.057608 -0.383155 0.087340
v -0.069257 -0.396176 0.082796
v -0.074266 -0.404727 0.073899
v -0.079185 -0.413669 0.082796
v -0.057401 -0.383155 0.089561
v -0.081021 -0.423452 0.087340
v -0.076215 -0.421791 0.105028
v -0.080921 -0.423452 0.078250
v -0.081313 -0.421791 0.078250
v -0.080512 -0.421791 0.073899
v -0.080942 -0.417247 0.082796
v -0.077112 -0.412703 0.091880
v -0.078333 -0.419077 0.095326
v -0.074689 -0.417149 0.105028
v -0.075827 -0.408309 0.073899
v -0.080694 -0.417247 0.078250
v -0.079161 -0.413981 0.078250
v -0.081127 -0.421791 0.087340
v -0.081770 -0.421791 0.082796
v -0.081426 -0.423452 0.084454
v -0.076136 -0.421306 0.105028
v -0.081141 -0.423452 0.079908
v -0.079192 -0.417279 0.073899
v -0.081430 -0.423452 0.082796
vn -0.0000 1.0000 -0.0000
vn -0.0000 -0.0000 1.0000
vn -0.0000 0.0002 1.0000
vn 0.9096 -0.4038 -0.0977
vn 0.8469 -0.5077 -0.1583
vn 0.8447 -0.5100 -0.1625
vn -0.0000 -0.0000 -1.0000
vn -0.7284 0.6468 0.2261
vn -0.7690 0.5579 0.3119
vn -0.7681 0.5428 0.3396
vn -0.7612 0.5276 0.3770
vn -0.6910 0.4737 0.5459
vn -0.7326 0.6805 -0.0146
vn -0.7295 0.6839 -0.0069
vn -0.7211 0.6928 0.0034
vn -0.0000 -1.0000 -0.0000
vn -0.7227 0.6637 0.1930
vn -0.8218 0.5592 0.1093
vn -0.8220 0.5589 0.1094
vn -0.8363 0.5275 0.1496
vn -0.8217 0.5236 0.2251
vn -0.7956 0.5391 0.2764
vn -0.7214 0.6732 0.1622
vn -0.7231 0.6828 0.1039
vn -0.8022 0.4773 0.3587
vn -0.8016 0.4729 0.3659
vn -0.8030 0.4537 0.3865
vn -0.6818 0.3927 0.6172
vn -0.7205 0.6935 0.0046
vn -0.8491 0.5267 0.0407
vn -0.8803 0.4744 -0.0099
vn -0.8690 0.4932 0.0400
vn -0.8480 0.5260 0.0656
vn -0.7208 0.6870 0.0919
vn -0.7189 0.6919 0.0667
vn -0.9326 -0.2336 0.2753
vn -0.9640 -0.2274 -0.1378
vn -0.9757 -0.1252 -0.1796
vn -0.8654 0.4971 0.0636
vn -0.8934 0.4386 0.0972
vn -0.9194 0.3211 0.2270
vn -0.9102 0.3179 0.2657
vn -0.9072 0.3197 0.2735
vn -0.8207 0.4901 0.2937
vn -0.8683 0.4928 0.0558
vn -0.9063 0.3193 0.2769
vn -0.8248 0.4298 0.3675
vn -0.8981 0.3913 -0.2009
vn -0.8993 0.4222 -0.1139
vn -0.8903 0.4541 -0.0359
vn -0.8971 0.4404 -0.0350
vn -0.9881 -0.0634 0.1398
vn -0.9881 -0.0659 0.1389
vn -0.9617 -0.0617 0.2671
vn -0.9519 0.1553 0.2643
vn -0.9653 -0.2277 -0.1281
vn -0.9860 0.1343 -0.0992
vn -0.9748 0.1327 -0.1794
vn -0.9751 -0.1988 -0.0981
vn -0.9105 0.2664 -0.3163
vn -0.9041 0.4244 -0.0492
vn -0.9824 0.1791 -0.0535
vn -0.9744 0.1777 0.1379
vn -0.9333 0.2722 0.2341
vn -0.9226 0.3046 0.2366
vn -0.9435 0.2046 0.2606
vn -0.9072 0.3158 0.2780
vn -0.8902 0.3340 -0.3098
vn -0.9750 -0.1998 -0.0974
vn -0.9796 -0.2008 0.0020
s 0
f 1//1 2//1 5//1
f 1//1 5//1 14//1
f 1//1 14//1 27//1
f 1//1 27//1 31//1
f 1//1 31//1 24//1
f 1//1 24//1 20//1
f 1//1 20//1 8//1
f 1//1 8//1 3//1
f 1//2 3//2 13//2
f 1//2 13//2 26//2
f 1//3 26//3 40//3
f 1//2 40//2 47//2
f 1//2 47//2 33//2
f 1//2 33//2 18//2
f 1//2 18//2 6//2
f 1//2 6//2 4//2
f 1//4 4//4 2//4
f 2//5 4//5 6//5
f 2//6 6//6 7//6
f 2//7 7//7 19//7
f 2//7 19//7 36//7
f 2//7 36//7 49//7
f 2//7 49//7 41//7
f 2//7 41//7 29//7
f 2//7 29//7 15//7
f 2//7 15//7 5//7
f 3//8 8//8 9//8
f 3//9 9//9 10//9
f 3//10 10//10 11//10
f 3//11 11//11 12//11
f 3//12 12//12 13//12
f 5//13 15//13 16//13
f 5//14 16//14 17//14
f 5//15 17//15 14//15
f 6//16 18//16 32//16
f 6//16 32//16 46//16
f 6//16 46//16 50//16
f 6//16 50//16 48//16
f 6//16 48//16 34//16
f 6//16 34//16 19//16
f 6//16 19//16 7//16
f 8//17 20//17 9//17
f 9//18 17//18 16//18
f 9//19 16//19 21//19
f 9//20 21//20 22//20
f 9//21 22//21 23//21
f 9//22 23//22 10//22
f 9//23 20//23 24//23
f 9//24 24//24 17//24
f 10//25 23//25 25//25
f 10//25 25//25 11//25
f 11//26 25//26 12//26
f 12//27 25//27 26//27
f 12//28 26//28 13//28
f 14//29 17//29 27//29
f 15//30 28//30 16//30
f 15//31 29//31 30//31
f 15//32 30//32 28//32
f 16//33 28//33 21//33
f 17//34 24//34 31//34
f 17//35 31//35 27//35
f 18//36 33//36 32//36
f 19//37 34//37 35//37
f 19//38 35//38 36//38
f 21//39 28//39 22//39
f 22//40 30//40 37//40
f 22//41 37//41 38//41
f 22//42 38//42 39//42
f 22//43 39//43 25//43
f 22//44 25//44 23//44
f 22//45 28//45 30//45
f 25//46 39//46 40//46
f 25//47 40//47 26//47
f 29//48 41//48 42//48
f 29//49 42//49 43//49
f 29//50 43//50 30//50
f 30//51 43//51 37//51
f 32//52 44//52 45//52
f 32//53 45//53 46//53
f 32//54 33//54 44//54
f 33//55 47//55 44//55
f 34//56 48//56 35//56
f 35//57 45//57 42//57
f 35//58 42//58 36//58
f 35//59 48//59 45//59
f 36//60 42//60 49//60
f 37//61 43//61 42//61
f 37//62 42//62 45//62
f 37//63 45//63 44//63
f 37//64 44//64 39//64
f 37//65 39//65 38//65
f 39//66 44//66 47//66
f 39//67 47//67 40//67
f 41//68 49//68 42//68
f 45//69 48//69 50//69
f 45//70 50//70 46//70
