# Blender 4.1.0
# www.blender.org
mtllib convex_48.mtl
o convex_48
v -0.079322 -0.383901 -0.090675
v -0.082697 -0.383210 -0.092137
v -0.079322 -0.385061 -0.090791
v -0.079322 -0.368149 -0.091394
v -0.082761 -0.369440 -0.092102
v -0.082761 -0.369632 -0.092102
v -0.080322 -0.385007 -0.091278
v -0.086714 -0.376352 -0.097010
v -0.088401 -0.376352 -0.099284
v -0.086365 -0.389984 -0.098013
v -0.084092 -0.389984 -0.095455
v -0.083432 -0.393063 -0.096029
v -0.079322 -0.386973 -0.091586
v -0.079322 -0.354180 -0.099261
v -0.079322 -0.353834 -0.099504
v -0.087290 -0.351269 -0.110259
v -0.087656 -0.359986 -0.105439
v -0.090153 -0.362720 -0.108061
v -0.091255 -0.366890 -0.108258
v -0.090086 -0.376352 -0.103519
v -0.101828 -0.390921 -0.131990
v -0.101868 -0.394523 -0.131862
v -0.092388 -0.390997 -0.108884
v -0.091227 -0.394523 -0.106883
v -0.089699 -0.389984 -0.103519
v -0.087546 -0.393171 -0.100751
v -0.086539 -0.396604 -0.101291
v -0.084748 -0.396604 -0.099324
v -0.079811 -0.396604 -0.095971
v -0.079322 -0.396604 -0.095774
v -0.079322 -0.343934 -0.109917
v -0.082804 -0.346684 -0.110132
v -0.079322 -0.329588 -0.126229
v -0.079322 -0.326800 -0.129791
v -0.079499 -0.326578 -0.130777
v -0.084920 -0.326370 -0.148952
v -0.092785 -0.345785 -0.139862
v -0.096984 -0.350570 -0.145605
v -0.104178 -0.364425 -0.149932
v -0.091760 -0.365124 -0.110358
v -0.102825 -0.389638 -0.134954
v -0.092378 -0.377826 -0.109279
v -0.092274 -0.394523 -0.109157
v -0.102950 -0.394523 -0.135320
v -0.101357 -0.396604 -0.132396
v -0.091755 -0.396604 -0.109836
v -0.089483 -0.396604 -0.105613
v -0.088802 -0.394622 -0.103246
v -0.086918 -0.396197 -0.101552
v -0.086883 -0.396604 -0.101755
v -0.079322 -0.396604 -0.104725
v -0.079322 -0.336623 -0.117998
v -0.079322 -0.326317 -0.130777
v -0.081775 -0.321179 -0.148952
v -0.084578 -0.325687 -0.149932
v -0.096849 -0.348373 -0.149932
v -0.097081 -0.349072 -0.149381
v -0.104779 -0.366698 -0.149932
v -0.091873 -0.396604 -0.110097
v -0.104316 -0.370884 -0.149932
v -0.103760 -0.375323 -0.149932
v -0.102982 -0.389984 -0.139862
v -0.101210 -0.392748 -0.147194
v -0.099137 -0.396604 -0.148877
v -0.101121 -0.396604 -0.138069
v -0.101579 -0.396604 -0.135320
v -0.101569 -0.396604 -0.133075
v -0.088404 -0.396604 -0.103965
v -0.091265 -0.396604 -0.149144
v -0.079322 -0.330694 -0.149932
v -0.079322 -0.318560 -0.147774
v -0.079502 -0.318360 -0.148952
v -0.079322 -0.318145 -0.149347
v -0.081720 -0.321133 -0.149932
v -0.083163 -0.323398 -0.149932
v -0.098855 -0.396604 -0.149932
v -0.091601 -0.396604 -0.149932
v -0.079322 -0.318168 -0.149932
v -0.079322 -0.318199 -0.148952
vn -0.4114 -0.0907 0.9069
vn 1.0000 -0.0000 -0.0000
vn -0.2174 0.0445 0.9751
vn -0.3834 -0.0000 0.9236
vn -0.3982 -0.0043 0.9173
vn -0.4397 -0.1586 0.8840
vn -0.7753 -0.0053 0.6316
vn -0.8022 -0.0470 0.5952
vn -0.8101 -0.0667 0.5826
vn -0.7369 -0.1689 0.6546
vn -0.5638 -0.2667 0.7816
vn -0.5083 -0.2833 0.8132
vn -0.4280 -0.3308 0.8411
vn -0.3948 -0.3526 0.8484
vn -0.3416 0.4611 0.8189
vn -0.8026 0.0361 0.5955
vn -0.7788 -0.0000 0.6273
vn -0.6486 0.4381 0.6224
vn -0.6718 0.4331 0.6010
vn -0.7935 0.3197 0.5178
vn -0.8230 0.2751 0.4970
vn -0.8532 0.2027 0.4805
vn -0.8544 0.1980 0.4804
vn -0.9289 0.0266 0.3695
vn -0.9285 0.0235 0.3707
vn -0.9245 0.0019 0.3811
vn -0.8964 -0.0450 0.4410
vn -0.8702 -0.0687 0.4879
vn -0.8527 -0.0792 0.5164
vn -0.9269 0.0702 0.3687
vn -0.8514 -0.0956 0.5157
vn -0.8330 -0.1490 0.5329
vn -0.7211 -0.2779 0.6347
vn -0.7191 -0.2734 0.6389
vn -0.7137 -0.3082 0.6290
vn -0.6973 -0.3320 0.6353
vn -0.4900 -0.4893 0.7215
vn -0.3740 -0.3686 0.8510
vn -0.3471 -0.3740 0.8600
vn -0.5239 0.6173 0.5869
vn -0.5932 0.5644 0.5741
vn -0.6258 0.5984 0.5002
vn -0.6720 0.5832 0.4564
vn -0.8387 0.4794 0.2585
vn -0.8403 0.4779 0.2561
vn -0.8538 0.4600 0.2437
vn -0.8549 0.4580 0.2435
vn -0.8889 0.3830 0.2514
vn -0.9111 0.2919 0.2910
vn -0.8997 0.2880 0.3282
vn -0.8270 0.2983 0.4766
vn -0.8918 0.2168 0.3971
vn -0.9423 0.1071 0.3171
vn -0.9358 0.0707 0.3454
vn -0.9338 0.0631 0.3522
vn -0.9327 0.0627 0.3552
vn -0.9324 0.0525 0.3577
vn -0.9447 0.0221 0.3273
vn -0.9195 -0.0600 0.3885
vn -0.9544 0.0020 0.2986
vn -0.9113 -0.2970 0.2852
vn -0.8758 -0.3100 0.3701
vn -0.9067 -0.0618 0.4173
vn -0.8540 -0.3410 0.3931
vn -0.8033 -0.4096 0.4323
vn -0.7854 -0.3446 0.5142
vn -0.8147 -0.2185 0.5372
vn -0.7655 -0.3084 0.5647
vn -0.7428 -0.3111 0.5929
vn -0.7544 -0.3436 0.5593
vn -0.0021 -1.0000 -0.0000
vn -0.0000 -1.0000 -0.0000
vn 0.0001 -1.0000 -0.0000
vn -0.0001 -1.0000 -0.0000
vn -0.5313 0.6282 0.5684
vn -0.5890 0.6143 0.5251
vn -0.7981 0.5411 0.2650
vn -0.7990 0.5418 0.2610
vn -0.8276 0.5014 0.2525
vn -0.8536 0.5171 0.0631
vn -0.8793 0.4756 0.0252
vn -0.8640 0.4593 0.2063
vn -0.8546 0.4595 0.2420
vn -0.8946 0.4069 0.1845
vn -0.8722 0.4466 0.1996
vn -0.9240 0.2443 0.2942
vn -0.9004 0.4111 0.1428
vn -0.0000 -0.0000 -1.0000
vn -0.9445 0.1193 0.3060
vn -0.9885 0.0140 0.1504
vn -0.8674 -0.3339 0.3689
vn -0.8581 -0.3395 0.3853
vn -0.9904 -0.1095 -0.0846
vn -0.9865 -0.1236 -0.1077
vn -0.9782 -0.1504 -0.1434
vn -0.9700 -0.1753 -0.1684
vn -0.8969 -0.3988 -0.1910
vn -0.8337 -0.5306 -0.1530
vn -0.8271 -0.5449 -0.1378
vn -0.8351 -0.5501 0.0037
vn -0.9112 -0.2978 0.2845
vn -0.7854 -0.3445 0.5142
vn -0.7724 -0.3481 0.5313
vn -0.7695 -0.3367 0.5427
vn 0.9508 -0.1753 -0.2556
vn -0.7605 0.5908 0.2696
vn -0.7595 0.6123 0.2197
vn -0.7784 0.6276 -0.0122
vn -0.7786 0.6274 -0.0141
vn -0.8432 0.5371 -0.0219
vn -0.8504 0.5259 0.0138
vn -0.8639 -0.1991 -0.4626
vn -0.9707 -0.1689 -0.1709
vn -0.8949 -0.3769 -0.2389
vn 0.9065 -0.1689 -0.3870
vn -0.6508 0.7259 0.2224
vn -0.6643 0.7406 0.1013
vn -0.7774 0.6286 -0.0247
s 0
f 1//1 2//1 3//1
f 1//2 3//2 13//2
f 1//2 13//2 30//2
f 1//2 30//2 51//2
f 1//2 51//2 70//2
f 1//2 70//2 78//2
f 1//2 78//2 73//2
f 1//2 73//2 79//2
f 1//2 79//2 71//2
f 1//2 71//2 53//2
f 1//2 53//2 34//2
f 1//2 34//2 33//2
f 1//2 33//2 52//2
f 1//2 52//2 31//2
f 1//2 31//2 15//2
f 1//2 15//2 14//2
f 1//2 14//2 4//2
f 1//3 4//3 5//3
f 1//4 5//4 6//4
f 1//5 6//5 2//5
f 2//6 7//6 3//6
f 2//7 6//7 8//7
f 2//8 8//8 9//8
f 2//9 9//9 10//9
f 2//10 10//10 11//10
f 2//11 11//11 12//11
f 2//12 12//12 7//12
f 3//13 7//13 12//13
f 3//14 12//14 13//14
f 4//15 14//15 5//15
f 5//16 9//16 8//16
f 5//17 8//17 6//17
f 5//18 14//18 15//18
f 5//19 15//19 16//19
f 5//20 16//20 17//20
f 5//21 17//21 18//21
f 5//22 18//22 19//22
f 5//23 19//23 9//23
f 9//24 20//24 21//24
f 9//25 21//25 22//25
f 9//26 22//26 23//26
f 9//27 23//27 24//27
f 9//28 24//28 25//28
f 9//29 25//29 10//29
f 9//30 19//30 20//30
f 10//31 25//31 24//31
f 10//32 24//32 26//32
f 10//33 26//33 12//33
f 10//34 12//34 11//34
f 12//35 26//35 27//35
f 12//36 27//36 28//36
f 12//37 28//37 29//37
f 12//38 29//38 13//38
f 13//39 29//39 30//39
f 15//40 31//40 32//40
f 15//41 32//41 16//41
f 16//42 32//42 33//42
f 16//43 33//43 34//43
f 16//44 34//44 35//44
f 16//45 35//45 36//45
f 16//46 36//46 37//46
f 16//47 37//47 38//47
f 16//48 38//48 39//48
f 16//49 39//49 40//49
f 16//50 40//50 18//50
f 16//51 18//51 17//51
f 18//52 40//52 19//52
f 19//53 40//53 41//53
f 19//54 41//54 21//54
f 19//55 21//55 42//55
f 19//56 42//56 20//56
f 20//57 42//57 21//57
f 21//58 41//58 22//58
f 22//59 43//59 23//59
f 22//60 41//60 44//60
f 22//61 44//61 45//61
f 22//62 45//62 43//62
f 23//63 43//63 24//63
f 24//64 43//64 46//64
f 24//65 46//65 47//65
f 24//66 47//66 48//66
f 24//67 48//67 26//67
f 26//68 48//68 49//68
f 26//69 49//69 27//69
f 27//70 49//70 50//70
f 27//71 50//71 68//71
f 27//72 68//72 47//72
f 27//73 47//73 46//73
f 27//74 46//74 59//74
f 27//73 59//73 45//73
f 27//74 45//74 67//74
f 27//72 67//72 66//72
f 27//72 66//72 65//72
f 27//72 65//72 64//72
f 27//74 64//74 76//74
f 27//72 76//72 77//72
f 27//73 77//73 69//73
f 27//72 69//72 51//72
f 27//72 51//72 30//72
f 27//73 30//73 29//73
f 27//74 29//74 28//74
f 31//75 52//75 32//75
f 32//76 52//76 33//76
f 34//77 53//77 35//77
f 35//78 53//78 54//78
f 35//79 54//79 36//79
f 36//80 54//80 55//80
f 36//81 55//81 56//81
f 36//82 56//82 38//82
f 36//83 38//83 37//83
f 38//84 57//84 39//84
f 38//85 56//85 57//85
f 39//86 58//86 40//86
f 39//87 57//87 56//87
f 39//88 56//88 55//88
f 39//88 55//88 75//88
f 39//88 75//88 74//88
f 39//88 74//88 78//88
f 39//88 78//88 70//88
f 39//88 70//88 77//88
f 39//88 77//88 76//88
f 39//88 76//88 61//88
f 39//88 61//88 60//88
f 39//88 60//88 58//88
f 40//89 58//89 41//89
f 41//90 58//90 44//90
f 43//91 45//91 59//91
f 43//92 59//92 46//92
f 44//93 58//93 60//93
f 44//94 60//94 61//94
f 44//95 61//95 62//95
f 44//96 62//96 63//96
f 44//97 63//97 64//97
f 44//98 64//98 65//98
f 44//99 65//99 66//99
f 44//100 66//100 67//100
f 44//101 67//101 45//101
f 47//102 68//102 48//102
f 48//103 68//103 50//103
f 48//104 50//104 49//104
f 51//105 69//105 70//105
f 53//106 71//106 54//106
f 54//107 71//107 72//107
f 54//108 72//108 73//108
f 54//109 73//109 74//109
f 54//110 74//110 75//110
f 54//111 75//111 55//111
f 61//112 76//112 63//112
f 61//113 63//113 62//113
f 63//114 76//114 64//114
f 69//115 77//115 70//115
f 71//116 79//116 72//116
f 72//117 79//117 73//117
f 73//118 78//118 74//118
