# Blender 4.1.0
# www.blender.org
mtllib convex_17.mtl
o convex_17
v 0.146845 -0.434421 -0.030821
v 0.145791 -0.430888 -0.030821
v 0.144896 -0.432331 -0.028098
v 0.146517 -0.434421 -0.030213
v 0.134957 -0.434421 -0.030821
v 0.145701 -0.430746 -0.030821
v 0.144896 -0.433631 -0.028098
v 0.143808 -0.429299 -0.029462
v 0.139728 -0.429090 -0.024367
v 0.140295 -0.432119 -0.023749
v 0.146109 -0.434421 -0.029685
v 0.115452 -0.434421 -0.024624
v 0.078630 -0.421952 -0.030821
v 0.144295 -0.428917 -0.030821
v 0.140295 -0.433478 -0.023749
v 0.140771 -0.428315 -0.027399
v 0.136702 -0.428120 -0.023041
v 0.131749 -0.428131 -0.019044
v 0.111440 -0.434421 -0.004796
v 0.139841 -0.434421 -0.024186
v 0.112822 -0.434421 -0.023706
v 0.035030 -0.433312 0.003055
v 0.039767 -0.428673 -0.005913
v 0.049786 -0.419379 -0.023816
v 0.051373 -0.415721 -0.029471
v 0.056031 -0.415666 -0.030821
v 0.142233 -0.427946 -0.030821
v 0.138719 -0.434421 -0.023331
v 0.138005 -0.427724 -0.026035
v 0.121526 -0.424160 -0.019681
v 0.133223 -0.427505 -0.021606
v 0.128610 -0.427488 -0.018531
v 0.110726 -0.430725 -0.007748
v 0.112652 -0.433193 -0.005837
v 0.082177 -0.434421 0.007256
v 0.047429 -0.434421 0.000389
v 0.039076 -0.434421 0.003592
v 0.031063 -0.434421 0.007936
v 0.031063 -0.432449 0.004462
v 0.036730 -0.428214 -0.005167
v 0.048494 -0.415293 -0.028853
v 0.051135 -0.414205 -0.030821
v 0.142187 -0.427933 -0.030821
v 0.122694 -0.423767 -0.022713
v 0.081270 -0.423851 -0.005542
v 0.108799 -0.428412 -0.009663
v 0.112754 -0.419508 -0.028492
v 0.040413 -0.401010 -0.030821
v 0.033908 -0.399504 -0.030821
v 0.033568 -0.399608 -0.030407
v 0.031063 -0.399925 -0.028402
v 0.058626 -0.414626 -0.009886
v 0.109626 -0.432404 -0.005500
v 0.037886 -0.434421 0.017731
v 0.031063 -0.434421 0.016918
v 0.031063 -0.426570 -0.003651
v 0.031063 -0.425217 -0.005390
v 0.031063 -0.423746 -0.007277
v 0.031063 -0.410537 -0.024134
v 0.031063 -0.405217 -0.030821
v 0.124065 -0.422515 -0.030821
v 0.110442 -0.418618 -0.030821
v 0.043587 -0.401796 -0.030821
v 0.031063 -0.398899 -0.030821
v 0.031063 -0.398979 -0.030612
v 0.031063 -0.410085 -0.009957
v 0.031698 -0.410085 -0.009957
v 0.033194 -0.433454 0.016585
v 0.033228 -0.434421 0.017640
v 0.031063 -0.433750 0.016424
v 0.031063 -0.431385 0.014038
vn 0.8684 0.2591 0.4227
vn 0.8627 0.1984 0.4652
vn -0.0000 -1.0000 -0.0000
vn -0.0000 -0.0000 -1.0000
vn -0.0000 -0.0001 -1.0000
vn 0.7366 0.4668 0.4893
vn 0.7937 -0.0000 0.6083
vn 0.7234 0.4820 0.4944
vn 0.6910 0.4879 0.5334
vn 0.6685 0.2667 0.6943
vn 0.6869 -0.0000 0.7268
vn 0.7909 -0.0148 0.6118
vn -0.1787 -0.8073 -0.5625
vn 0.7215 0.5547 0.4144
vn 0.6236 -0.3963 0.6738
vn 0.5390 0.7406 0.4013
vn 0.4945 0.7860 0.3710
vn 0.4237 0.8319 0.3584
vn 0.4681 0.6649 0.5820
vn 0.5570 0.2648 0.7872
vn 0.5327 0.1616 0.8307
vn 0.5490 -0.0000 0.8358
vn 0.5489 -0.5543 0.6257
vn -0.1877 -0.8217 -0.5381
vn -0.1927 -0.8285 -0.5258
vn -0.1976 -0.8242 -0.5307
vn -0.2037 -0.8176 -0.5385
vn -0.2096 -0.7931 -0.5718
vn -0.1929 -0.6936 -0.6941
vn 0.4103 0.8713 0.2693
vn 0.5059 -0.5512 0.6635
vn 0.4878 -0.4968 0.7178
vn 0.3115 0.9214 0.2325
vn 0.3230 0.9097 0.2609
vn 0.2960 0.9217 0.2507
vn 0.3117 0.8696 0.3829
vn 0.3147 0.8644 0.3923
vn 0.3120 0.8659 0.3911
vn 0.2535 0.7506 0.6102
vn 0.2533 0.7269 0.6383
vn 0.2630 0.7105 0.6527
vn 0.5252 0.1856 0.8305
vn 0.3526 0.3776 0.8562
vn -0.1825 -0.8494 -0.4952
vn -0.1999 -0.9078 -0.3687
vn -0.3423 -0.8171 -0.4638
vn -0.3581 -0.7586 -0.5444
vn -0.2549 -0.7973 -0.5471
vn -0.1770 -0.8693 -0.4616
vn -0.2558 -0.7920 -0.5543
vn -0.2751 -0.7800 -0.5621
vn -0.2396 -0.7832 -0.5738
vn -0.2499 -0.6655 -0.7034
vn -0.1996 -0.6689 -0.7161
vn 0.2693 0.9502 0.1572
vn 0.2871 0.9345 0.2103
vn 0.2903 0.9283 0.2321
vn 0.2174 0.7682 0.6022
vn 0.2459 0.7398 0.6263
vn 0.2701 0.9361 0.2254
vn 0.2309 0.9363 0.2645
vn 0.2107 0.9100 0.3572
vn 0.2026 0.8972 0.3923
vn 0.2022 0.8965 0.3942
vn 0.1988 0.8899 0.4106
vn 0.2096 0.7875 0.5796
vn 0.2494 0.7324 0.6335
vn 0.2413 0.7303 0.6391
vn 0.2522 0.7121 0.6553
vn 0.2581 0.7092 0.6560
vn 0.2571 0.7019 0.6642
vn 0.2176 0.7601 0.6123
vn 0.1926 0.7633 0.6167
vn 0.1535 0.7449 0.6492
vn -1.0000 -0.0000 -0.0000
vn -0.3649 -0.7539 -0.5463
vn -0.3660 -0.7346 -0.5714
vn -0.3656 -0.7340 -0.5723
vn -0.3641 -0.7331 -0.5744
vn -0.3567 -0.7342 -0.5777
vn -0.3569 -0.7310 -0.5816
vn -0.2814 -0.6284 -0.7252
vn 0.2831 0.9469 0.1524
vn 0.2843 0.9373 0.2018
vn 0.2738 0.9572 0.0940
vn 0.2420 0.9619 0.1273
vn 0.2337 0.9435 0.2348
vn 0.1948 0.9161 0.3506
vn 0.1948 0.9017 0.3860
vn 0.1974 0.9000 0.3886
vn -0.0000 0.8759 0.4825
vn 0.1452 0.8687 0.4735
vn 0.1263 0.7589 0.6388
vn -0.0000 0.7511 0.6602
vn -0.0068 0.7503 0.6611
vn -0.0131 0.7369 0.6758
vn -0.2595 0.5727 0.7776
vn -0.0673 0.7462 0.6623
vn -0.0949 0.7324 0.6743
vn -0.1729 0.6995 0.6934
s 0
f 1//1 2//1 3//1
f 1//2 3//2 4//2
f 1//3 4//3 11//3
f 1//3 11//3 20//3
f 1//3 20//3 28//3
f 1//3 28//3 19//3
f 1//3 19//3 35//3
f 1//3 35//3 54//3
f 1//3 54//3 69//3
f 1//3 69//3 55//3
f 1//3 55//3 38//3
f 1//3 38//3 37//3
f 1//3 37//3 36//3
f 1//3 36//3 21//3
f 1//3 21//3 12//3
f 1//3 12//3 5//3
f 1//4 5//4 13//4
f 1//4 13//4 26//4
f 1//4 26//4 42//4
f 1//4 42//4 60//4
f 1//4 60//4 64//4
f 1//4 64//4 49//4
f 1//4 49//4 48//4
f 1//4 48//4 63//4
f 1//4 63//4 62//4
f 1//4 62//4 61//4
f 1//4 61//4 43//4
f 1//5 43//5 27//5
f 1//4 27//4 14//4
f 1//4 14//4 6//4
f 1//4 6//4 2//4
f 2//6 6//6 3//6
f 3//7 7//7 4//7
f 3//8 6//8 8//8
f 3//9 8//9 9//9
f 3//10 9//10 10//10
f 3//11 10//11 15//11
f 3//11 15//11 7//11
f 4//12 7//12 11//12
f 5//13 12//13 13//13
f 6//14 14//14 8//14
f 7//15 15//15 11//15
f 8//16 14//16 9//16
f 9//17 14//17 16//17
f 9//18 16//18 17//18
f 9//19 17//19 18//19
f 9//20 18//20 10//20
f 10//21 18//21 19//21
f 10//22 19//22 15//22
f 11//23 15//23 20//23
f 12//24 21//24 13//24
f 13//25 21//25 22//25
f 13//26 22//26 23//26
f 13//27 23//27 24//27
f 13//28 24//28 25//28
f 13//29 25//29 26//29
f 14//30 27//30 16//30
f 15//31 28//31 20//31
f 15//32 19//32 28//32
f 16//33 27//33 29//33
f 16//34 29//34 17//34
f 17//35 29//35 30//35
f 17//36 30//36 31//36
f 17//37 31//37 18//37
f 18//38 31//38 30//38
f 18//39 30//39 32//39
f 18//40 32//40 33//40
f 18//41 33//41 34//41
f 18//42 34//42 19//42
f 19//43 34//43 35//43
f 21//44 36//44 22//44
f 22//45 37//45 38//45
f 22//46 38//46 39//46
f 22//47 39//47 40//47
f 22//48 40//48 23//48
f 22//49 36//49 37//49
f 23//50 40//50 24//50
f 24//51 40//51 41//51
f 24//52 41//52 25//52
f 25//53 41//53 42//53
f 25//54 42//54 26//54
f 27//55 43//55 44//55
f 27//56 44//56 29//56
f 29//57 44//57 30//57
f 30//58 45//58 46//58
f 30//59 46//59 32//59
f 30//60 44//60 47//60
f 30//61 47//61 48//61
f 30//62 48//62 49//62
f 30//63 49//63 50//63
f 30//64 50//64 51//64
f 30//65 51//65 52//65
f 30//66 52//66 45//66
f 32//67 46//67 33//67
f 33//68 46//68 35//68
f 33//69 35//69 53//69
f 33//70 53//70 34//70
f 34//71 53//71 35//71
f 35//72 46//72 45//72
f 35//73 45//73 52//73
f 35//74 52//74 54//74
f 38//75 55//75 70//75
f 38//75 70//75 71//75
f 38//75 71//75 66//75
f 38//75 66//75 51//75
f 38//75 51//75 65//75
f 38//75 65//75 64//75
f 38//75 64//75 60//75
f 38//75 60//75 59//75
f 38//75 59//75 58//75
f 38//75 58//75 57//75
f 38//75 57//75 56//75
f 38//75 56//75 39//75
f 39//76 56//76 40//76
f 40//77 56//77 57//77
f 40//78 57//78 58//78
f 40//79 58//79 59//79
f 40//80 59//80 41//80
f 41//81 59//81 60//81
f 41//82 60//82 42//82
f 43//83 61//83 47//83
f 43//84 47//84 44//84
f 47//85 61//85 62//85
f 47//86 62//86 63//86
f 47//87 63//87 48//87
f 49//88 64//88 65//88
f 49//89 65//89 51//89
f 49//90 51//90 50//90
f 51//91 66//91 67//91
f 51//92 67//92 52//92
f 52//93 67//93 54//93
f 54//94 67//94 66//94
f 54//95 66//95 68//95
f 54//96 68//96 69//96
f 55//97 69//97 70//97
f 66//98 71//98 68//98
f 68//99 71//99 69//99
f 69//100 71//100 70//100
