# Blender 4.1.0
# www.blender.org
mtllib convex_64.mtl
o convex_64
v -0.045540 -0.305111 -0.185013
v -0.045540 -0.305142 -0.185415
v -0.065152 -0.310561 -0.185013
v -0.045540 -0.314490 -0.185013
v -0.045540 -0.305508 -0.186893
v -0.046440 -0.305869 -0.187634
v -0.067496 -0.311474 -0.185013
v -0.069169 -0.314945 -0.192200
v -0.075328 -0.350160 -0.185013
v -0.045540 -0.350160 -0.193470
v -0.045540 -0.306716 -0.188382
v -0.046147 -0.305869 -0.187634
v -0.045540 -0.310579 -0.192005
v -0.053144 -0.313375 -0.193879
v -0.070219 -0.313185 -0.185013
v -0.078751 -0.323632 -0.192718
v -0.074811 -0.318181 -0.188867
v -0.057691 -0.316197 -0.195672
v -0.060837 -0.318781 -0.197038
v -0.060426 -0.336358 -0.205995
v -0.086644 -0.350160 -0.185013
v -0.045540 -0.350160 -0.200106
v -0.045540 -0.312577 -0.193743
v -0.048601 -0.313044 -0.193944
v -0.048601 -0.323244 -0.202643
v -0.075515 -0.317656 -0.185307
v -0.075540 -0.317617 -0.185013
v -0.078381 -0.332839 -0.196790
v -0.080322 -0.326762 -0.193129
v -0.082728 -0.328535 -0.192191
v -0.083253 -0.327935 -0.189851
v -0.084918 -0.327512 -0.185013
v -0.079232 -0.322851 -0.189851
v -0.048601 -0.326370 -0.204811
v -0.053144 -0.326370 -0.203393
v -0.053144 -0.340468 -0.206643
v -0.057519 -0.339687 -0.206380
v -0.060552 -0.340000 -0.206020
v -0.048601 -0.330912 -0.205421
v -0.086729 -0.349684 -0.185013
v -0.082073 -0.349084 -0.191478
v -0.083933 -0.350160 -0.188553
v -0.048630 -0.350160 -0.200409
v -0.055330 -0.346840 -0.205783
v -0.050343 -0.343052 -0.206249
v -0.045540 -0.346372 -0.202220
v -0.045540 -0.323446 -0.202438
v -0.077786 -0.319936 -0.185307
v -0.077795 -0.319936 -0.185013
v -0.082870 -0.330912 -0.192441
v -0.069385 -0.341949 -0.201536
v -0.078381 -0.333474 -0.196790
v -0.083029 -0.335454 -0.192695
v -0.086603 -0.329990 -0.185013
v -0.086986 -0.330912 -0.185013
v -0.045540 -0.326370 -0.203496
v -0.050343 -0.341142 -0.206249
v -0.053547 -0.344556 -0.206482
v -0.057756 -0.344877 -0.206253
v -0.060283 -0.343585 -0.205868
v -0.061973 -0.344877 -0.205023
v -0.069385 -0.343330 -0.201536
v -0.045540 -0.330824 -0.203939
v -0.045540 -0.333968 -0.204242
v -0.086835 -0.349084 -0.185013
v -0.079651 -0.350160 -0.192998
v -0.081959 -0.350160 -0.191122
v -0.082936 -0.338153 -0.192530
v -0.062233 -0.350160 -0.200136
v -0.056282 -0.346840 -0.205783
v -0.045540 -0.344366 -0.202609
v -0.045540 -0.335454 -0.204060
v -0.045540 -0.340181 -0.203388
v -0.087120 -0.335454 -0.185013
v -0.059310 -0.346615 -0.205656
v -0.065803 -0.347775 -0.202097
v -0.067097 -0.344723 -0.202550
v -0.068827 -0.346359 -0.200983
v -0.067028 -0.350160 -0.199609
v -0.066055 -0.350160 -0.199725
vn -0.2670 0.9608 -0.0741
vn -0.0000 0.0001 1.0000
vn -0.0000 -0.0000 1.0000
vn 1.0000 -0.0000 -0.0000
vn -0.1883 0.9533 -0.2361
vn -0.2647 0.9430 -0.2017
vn -0.2748 0.8815 -0.3841
vn -0.3408 0.8752 -0.3433
vn 0.2663 -0.2224 0.9379
vn 0.2939 0.7423 -0.6022
vn -0.0000 0.8990 -0.4380
vn -0.0000 0.6802 -0.7330
vn -0.0653 0.6721 -0.7376
vn -0.1419 0.7049 -0.6950
vn -0.5116 0.8143 -0.2742
vn -0.6154 0.7003 -0.3617
vn -0.5947 0.7565 -0.2722
vn -0.1420 0.6836 -0.7159
vn -0.1670 0.6120 -0.7730
vn -0.2985 0.4278 -0.8532
vn -0.3285 0.4130 -0.8494
vn -0.0000 -1.0000 -0.0000
vn 0.0557 0.6830 -0.7283
vn -0.0505 0.6555 -0.7535
vn -0.0589 0.6613 -0.7478
vn -0.0581 0.6478 -0.7596
vn -0.0934 0.6367 -0.7654
vn -0.6197 0.7494 -0.2331
vn -0.6325 0.7592 -0.1535
vn -0.4675 0.3417 -0.8152
vn -0.5655 0.3800 -0.7320
vn -0.7530 0.5767 -0.3168
vn -0.7526 0.5810 -0.3098
vn -0.7419 0.6050 -0.2891
vn -0.6610 0.6885 -0.2983
vn -0.3675 0.3638 -0.8559
vn -0.6802 0.6937 -0.2368
vn -0.1452 0.5948 -0.7906
vn -0.1662 0.5620 -0.8103
vn -0.2668 0.4453 -0.8547
vn -0.2837 0.4301 -0.8570
vn -0.0466 0.0745 -0.9961
vn -0.1190 0.0109 -0.9928
vn -0.4527 0.0218 -0.8914
vn -0.2701 0.4223 -0.8653
vn -0.0132 0.1331 -0.9910
vn -0.0131 0.1330 -0.9910
vn -0.7968 -0.1430 -0.5871
vn -0.7645 -0.2699 -0.5855
vn 0.0564 -0.8164 -0.5747
vn 0.3024 -0.4980 -0.8127
vn 0.3679 -0.4531 -0.8120
vn 0.0931 0.6220 -0.7775
vn -0.0490 0.6481 -0.7600
vn 0.0923 0.5675 -0.8182
vn -0.6908 0.6882 -0.2218
vn -0.7003 0.6977 -0.1509
vn -0.7168 0.6970 -0.0198
vn -0.6645 0.1175 -0.7380
vn -0.5328 0.3053 -0.7893
vn -0.4551 0.0144 -0.8903
vn -0.4666 -0.0000 -0.8845
vn -0.6610 -0.0000 -0.7503
vn -0.6799 0.0646 -0.7305
vn -0.7847 0.5336 -0.3155
vn -0.7745 0.5488 -0.3145
vn -0.8701 0.1029 -0.4820
vn -0.8513 0.3533 -0.3880
vn -0.7284 0.6849 -0.0201
vn -0.7173 0.6674 -0.2001
vn 0.3746 0.3155 -0.8719
vn 0.3917 0.1225 -0.9119
vn 0.1393 -0.0000 -0.9902
vn 0.0951 -0.0485 -0.9943
vn -0.0517 -0.0342 -0.9981
vn -0.0638 -0.0215 -0.9977
vn 0.1519 0.0540 -0.9869
vn -0.1159 -0.0190 -0.9931
vn -0.1777 -0.0550 -0.9825
vn -0.4037 -0.0689 -0.9123
vn -0.4347 -0.0571 -0.8988
vn -0.4527 -0.0000 -0.8917
vn 0.4319 0.0893 -0.8975
vn 0.4321 0.0865 -0.8977
vn 0.3700 0.0122 -0.9290
vn -0.7971 -0.1407 -0.5872
vn -0.6001 -0.3079 -0.7383
vn -0.7624 -0.2746 -0.5859
vn -0.7993 -0.1198 -0.5888
vn -0.6072 -0.1235 -0.7849
vn -0.5761 -0.1379 -0.8056
vn -0.5722 -0.1484 -0.8066
vn -0.0103 -0.8572 -0.5149
vn -0.0000 -0.8507 -0.5256
vn -0.0000 -0.2927 -0.9562
vn 0.2842 -0.4765 -0.8320
vn 0.5690 -0.1566 -0.8073
vn 0.3856 -0.0000 -0.9227
vn 0.5418 -0.1022 -0.8342
vn 0.5588 -0.1167 -0.8210
vn 0.5707 -0.1503 -0.8073
vn -0.8733 0.0576 -0.4838
vn -0.6428 -0.0689 -0.7630
vn -0.8824 0.0261 -0.4699
vn -0.8465 -0.0617 -0.5288
vn -0.8825 -0.0184 -0.4699
vn -0.0330 -0.2561 -0.9661
vn -0.0607 -0.2753 -0.9594
vn -0.2174 -0.1374 -0.9664
vn -0.3326 -0.1717 -0.9273
vn -0.4112 -0.3188 -0.8540
vn -0.4213 -0.3054 -0.8540
vn -0.4353 -0.0610 -0.8982
vn -0.5135 -0.2447 -0.8224
vn -0.5184 -0.2450 -0.8193
vn -0.4671 -0.3634 -0.8061
vn -0.3826 -0.5655 -0.7306
vn -0.0593 -0.8320 -0.5517
vn -0.0668 -0.8256 -0.5603
vn -0.0845 -0.8088 -0.5820
vn -0.2919 -0.6145 -0.7329
vn -0.4548 -0.3165 -0.8325
s 0
f 1//1 2//1 3//1
f 1//2 3//2 7//2
f 1//3 7//3 15//3
f 1//3 15//3 27//3
f 1//3 27//3 49//3
f 1//3 49//3 32//3
f 1//3 32//3 54//3
f 1//3 54//3 55//3
f 1//3 55//3 74//3
f 1//3 74//3 65//3
f 1//3 65//3 40//3
f 1//3 40//3 21//3
f 1//3 21//3 9//3
f 1//3 9//3 4//3
f 1//4 4//4 10//4
f 1//4 10//4 22//4
f 1//4 22//4 46//4
f 1//4 46//4 71//4
f 1//4 71//4 73//4
f 1//4 73//4 72//4
f 1//4 72//4 64//4
f 1//4 64//4 63//4
f 1//4 63//4 56//4
f 1//4 56//4 47//4
f 1//4 47//4 23//4
f 1//4 23//4 13//4
f 1//4 13//4 11//4
f 1//4 11//4 5//4
f 1//4 5//4 2//4
f 2//5 5//5 6//5
f 2//6 6//6 3//6
f 3//7 6//7 8//7
f 3//8 8//8 7//8
f 4//9 9//9 10//9
f 5//10 11//10 12//10
f 5//11 12//11 6//11
f 6//12 12//12 13//12
f 6//13 13//13 14//13
f 6//14 14//14 8//14
f 7//15 8//15 15//15
f 8//16 16//16 17//16
f 8//17 17//17 15//17
f 8//18 14//18 18//18
f 8//19 18//19 19//19
f 8//20 19//20 20//20
f 8//21 20//21 16//21
f 9//22 21//22 42//22
f 9//22 42//22 67//22
f 9//22 67//22 66//22
f 9//22 66//22 79//22
f 9//22 79//22 80//22
f 9//22 80//22 69//22
f 9//22 69//22 43//22
f 9//22 43//22 22//22
f 9//22 22//22 10//22
f 11//23 13//23 12//23
f 13//24 23//24 24//24
f 13//25 24//25 14//25
f 14//26 24//26 25//26
f 14//27 25//27 18//27
f 15//28 17//28 26//28
f 15//29 26//29 27//29
f 16//30 28//30 29//30
f 16//31 29//31 30//31
f 16//32 30//32 31//32
f 16//33 31//33 32//33
f 16//34 32//34 33//34
f 16//35 33//35 17//35
f 16//36 20//36 28//36
f 17//37 33//37 26//37
f 18//38 25//38 19//38
f 19//39 25//39 34//39
f 19//40 34//40 35//40
f 19//41 35//41 20//41
f 20//42 36//42 37//42
f 20//43 37//43 38//43
f 20//44 38//44 28//44
f 20//45 35//45 34//45
f 20//46 34//46 39//46
f 20//47 39//47 36//47
f 21//48 40//48 41//48
f 21//49 41//49 42//49
f 22//50 43//50 44//50
f 22//51 44//51 45//51
f 22//52 45//52 46//52
f 23//53 47//53 25//53
f 23//54 25//54 24//54
f 25//55 47//55 34//55
f 26//56 33//56 48//56
f 26//57 48//57 27//57
f 27//58 48//58 49//58
f 28//59 50//59 30//59
f 28//60 30//60 29//60
f 28//61 38//61 51//61
f 28//62 51//62 62//62
f 28//62 62//62 52//62
f 28//63 52//63 53//63
f 28//64 53//64 50//64
f 30//65 54//65 32//65
f 30//66 32//66 31//66
f 30//67 50//67 55//67
f 30//68 55//68 54//68
f 32//69 49//69 48//69
f 32//70 48//70 33//70
f 34//71 47//71 56//71
f 34//72 56//72 39//72
f 36//73 57//73 45//73
f 36//74 45//74 58//74
f 36//75 58//75 59//75
f 36//76 59//76 37//76
f 36//77 39//77 57//77
f 37//78 59//78 38//78
f 38//79 59//79 60//79
f 38//80 60//80 61//80
f 38//81 61//81 62//81
f 38//82 62//82 51//82
f 39//83 56//83 63//83
f 39//84 63//84 64//84
f 39//85 64//85 57//85
f 40//86 65//86 41//86
f 41//87 66//87 67//87
f 41//88 67//88 42//88
f 41//89 65//89 68//89
f 41//90 68//90 52//90
f 41//91 52//91 62//91
f 41//92 62//92 66//92
f 43//93 69//93 70//93
f 43//94 70//94 44//94
f 44//95 70//95 58//95
f 44//96 58//96 45//96
f 45//97 71//97 46//97
f 45//98 57//98 64//98
f 45//99 64//99 72//99
f 45//100 72//100 73//100
f 45//101 73//101 71//101
f 50//102 53//102 55//102
f 52//103 68//103 53//103
f 53//104 74//104 55//104
f 53//105 68//105 65//105
f 53//106 65//106 74//106
f 58//107 70//107 59//107
f 59//108 70//108 75//108
f 59//109 75//109 60//109
f 60//110 75//110 61//110
f 61//111 75//111 76//111
f 61//112 76//112 77//112
f 61//113 77//113 62//113
f 62//114 77//114 78//114
f 62//115 78//115 66//115
f 66//116 78//116 76//116
f 66//117 76//117 79//117
f 69//118 80//118 70//118
f 70//119 80//119 79//119
f 70//120 79//120 75//120
f 75//121 79//121 76//121
f 76//122 78//122 77//122
