# Blender 4.1.0
# www.blender.org
mtllib convex_98.mtl
o convex_98
v 0.008354 -0.447158 -0.199907
v 0.008104 -0.447158 -0.200083
v 0.008354 -0.447158 -0.192725
v 0.008354 -0.456231 -0.199361
v 0.007315 -0.447158 -0.200635
v -0.012246 -0.447158 -0.195413
v 0.008354 -0.450176 -0.191560
v 0.004741 -0.449062 -0.201734
v 0.005997 -0.447158 -0.201402
v 0.008354 -0.458147 -0.199115
v 0.005928 -0.471778 -0.198502
v -0.014277 -0.447158 -0.195808
v 0.007650 -0.487004 -0.187459
v 0.008354 -0.486628 -0.187365
v -0.006893 -0.458147 -0.205331
v 0.005044 -0.447158 -0.201731
v 0.008354 -0.467237 -0.197872
v 0.008354 -0.471778 -0.197216
v 0.008330 -0.474255 -0.196741
v 0.008354 -0.488109 -0.193027
v -0.000550 -0.488033 -0.196852
v 0.001061 -0.471453 -0.200321
v -0.000667 -0.469723 -0.201265
v -0.014277 -0.447158 -0.200694
v -0.014277 -0.476319 -0.194303
v 0.007650 -0.488295 -0.187459
v 0.008354 -0.488514 -0.187348
v -0.009487 -0.460869 -0.205844
v -0.009164 -0.458147 -0.205926
v -0.009381 -0.455636 -0.205892
v 0.001384 -0.447158 -0.202296
v 0.008354 -0.474082 -0.196762
v 0.008354 -0.474285 -0.196721
v 0.008354 -0.489574 -0.192506
v -0.003158 -0.488278 -0.197000
v -0.013690 -0.465279 -0.205994
v -0.003116 -0.447158 -0.202107
v -0.014277 -0.449340 -0.202453
v -0.014277 -0.478319 -0.194344
v -0.002276 -0.488392 -0.191745
v -0.014277 -0.480766 -0.194704
v 0.001384 -0.489025 -0.190974
v 0.008354 -0.490266 -0.189570
v -0.012203 -0.462507 -0.206160
v -0.012026 -0.458185 -0.206099
v -0.014277 -0.458185 -0.206188
v -0.010365 -0.455636 -0.205892
v 0.008354 -0.490249 -0.190921
v -0.005869 -0.488122 -0.196926
v -0.014277 -0.465279 -0.205994
v -0.014277 -0.451421 -0.203604
v -0.005869 -0.488122 -0.195315
v -0.003536 -0.488586 -0.194039
v -0.014277 -0.480851 -0.196414
v -0.014277 -0.462447 -0.206157
v -0.014277 -0.460544 -0.206219
v -0.014277 -0.453632 -0.204686
v -0.014277 -0.480851 -0.197443
vn -0.0000 1.0000 -0.0000
vn -0.0004 1.0000 -0.0000
vn 1.0000 -0.0000 -0.0000
vn 0.5744 -0.0492 -0.8171
vn 0.5727 -0.0493 -0.8183
vn -0.1208 0.3575 0.9261
vn 0.3962 -0.1023 -0.9124
vn 0.5019 -0.0636 -0.8626
vn 0.4216 -0.1155 -0.8994
vn 0.3831 -0.1105 -0.9171
vn -0.1899 0.1001 0.9767
vn -0.1852 0.1026 0.9773
vn -0.1667 0.1127 0.9795
vn 0.3721 -0.1116 -0.9215
vn 0.3356 -0.0575 -0.9403
vn 0.3261 -0.0449 -0.9443
vn 0.4550 -0.1206 -0.8823
vn 0.4646 -0.1266 -0.8764
vn 0.4614 -0.1715 -0.8705
vn 0.4043 -0.2362 -0.8836
vn 0.3812 -0.2425 -0.8921
vn 0.3280 -0.2239 -0.9178
vn 0.3348 -0.1711 -0.9266
vn 0.3450 -0.1404 -0.9280
vn -1.0000 -0.0000 -0.0000
vn -0.2755 0.0495 0.9600
vn -0.1557 -0.0000 0.9878
vn -0.1369 0.0089 0.9905
vn -0.2980 -0.0000 0.9546
vn 0.2530 -0.0591 -0.9657
vn 0.2533 0.0350 -0.9668
vn 0.2562 0.0381 -0.9659
vn 0.3367 -0.1456 -0.9303
vn 0.1488 0.2200 -0.9641
vn 0.4662 -0.1710 -0.8680
vn 0.4891 -0.1727 -0.8550
vn 0.4288 -0.2332 -0.8728
vn 0.3729 -0.3109 -0.8742
vn 0.1091 -0.8452 -0.5232
vn 0.0843 -0.3292 -0.9405
vn 0.2641 -0.2244 -0.9380
vn 0.2861 -0.2228 -0.9320
vn 0.2654 -0.2210 -0.9385
vn -0.0981 0.6246 -0.7748
vn -0.3076 -0.0195 0.9513
vn -0.3065 -0.6187 0.7234
vn -0.3527 -0.1362 0.9258
vn -0.3812 -0.2551 0.8886
vn -0.2575 -0.7562 0.6015
vn -0.2557 -0.7591 0.5986
vn 0.1432 -0.0468 -0.9886
vn 0.2165 -0.1736 -0.9607
vn 0.0602 0.0116 -0.9981
vn 0.0601 0.0187 -0.9980
vn 0.0395 0.0401 -0.9984
vn -0.0000 0.1153 -0.9933
vn -0.0000 0.3905 -0.9206
vn -0.0378 0.4341 -0.9000
vn 0.0493 -0.9189 -0.3914
vn -0.0617 -0.9778 -0.2002
vn -0.0472 -0.3835 -0.9223
vn -0.0000 -0.3642 -0.9313
vn -0.0000 -0.0598 -0.9982
vn -0.0484 0.4414 -0.8960
vn -0.0673 0.4829 -0.8731
vn -0.3200 -0.9130 0.2531
vn -0.2090 -0.9581 0.1959
vn -0.2458 -0.8480 0.4695
vn -0.5487 -0.6688 0.5017
vn -0.6565 -0.7534 0.0374
vn -0.1353 -0.9907 -0.0125
vn -0.0024 -0.0326 -0.9995
vn 0.0402 0.0125 -0.9991
vn -0.0031 -0.0575 -0.9983
vn 0.0395 0.0131 -0.9991
vn -0.1311 0.3106 -0.9415
vn -0.0517 0.4390 -0.8970
vn -0.1228 -0.9906 -0.0600
vn -0.1951 -0.9808 -0.0000
vn -0.6541 -0.7564 -0.0000
vn -0.3407 -0.4525 -0.8241
s 0
f 1//1 2//1 5//1
f 1//2 5//2 9//2
f 1//1 9//1 16//1
f 1//1 16//1 31//1
f 1//1 31//1 37//1
f 1//1 37//1 24//1
f 1//1 24//1 12//1
f 1//1 12//1 6//1
f 1//1 6//1 3//1
f 1//3 3//3 7//3
f 1//3 7//3 14//3
f 1//3 14//3 27//3
f 1//3 27//3 43//3
f 1//3 43//3 48//3
f 1//3 48//3 34//3
f 1//3 34//3 20//3
f 1//3 20//3 33//3
f 1//3 33//3 32//3
f 1//3 32//3 18//3
f 1//3 18//3 17//3
f 1//3 17//3 10//3
f 1//3 10//3 4//3
f 1//4 4//4 2//4
f 2//5 4//5 5//5
f 3//6 6//6 7//6
f 4//7 8//7 9//7
f 4//8 9//8 5//8
f 4//9 10//9 11//9
f 4//10 11//10 8//10
f 6//11 12//11 13//11
f 6//12 13//12 14//12
f 6//13 14//13 7//13
f 8//14 11//14 15//14
f 8//15 15//15 9//15
f 9//16 15//16 16//16
f 10//17 17//17 11//17
f 11//18 17//18 18//18
f 11//19 18//19 19//19
f 11//20 19//20 20//20
f 11//21 20//21 21//21
f 11//22 21//22 22//22
f 11//23 22//23 23//23
f 11//24 23//24 15//24
f 12//25 24//25 38//25
f 12//25 38//25 51//25
f 12//25 51//25 57//25
f 12//25 57//25 46//25
f 12//25 46//25 56//25
f 12//25 56//25 55//25
f 12//25 55//25 50//25
f 12//25 50//25 58//25
f 12//25 58//25 54//25
f 12//25 54//25 41//25
f 12//25 41//25 39//25
f 12//25 39//25 25//25
f 12//26 25//26 13//26
f 13//27 26//27 27//27
f 13//28 27//28 14//28
f 13//29 25//29 26//29
f 15//30 28//30 29//30
f 15//31 29//31 30//31
f 15//32 30//32 16//32
f 15//33 23//33 28//33
f 16//34 30//34 31//34
f 18//35 32//35 19//35
f 19//36 32//36 33//36
f 19//37 33//37 20//37
f 20//38 34//38 21//38
f 21//39 34//39 35//39
f 21//40 35//40 36//40
f 21//41 36//41 23//41
f 21//42 23//42 22//42
f 23//43 36//43 28//43
f 24//44 37//44 38//44
f 25//45 39//45 26//45
f 26//46 40//46 27//46
f 26//47 39//47 41//47
f 26//48 41//48 40//48
f 27//49 40//49 42//49
f 27//50 42//50 43//50
f 28//51 44//51 29//51
f 28//52 36//52 44//52
f 29//53 44//53 45//53
f 29//54 45//54 30//54
f 30//55 45//55 46//55
f 30//56 46//56 47//56
f 30//57 47//57 31//57
f 31//58 47//58 37//58
f 34//59 48//59 35//59
f 35//60 48//60 49//60
f 35//61 49//61 50//61
f 35//62 50//62 36//62
f 36//63 50//63 44//63
f 37//64 47//64 51//64
f 37//65 51//65 38//65
f 40//66 52//66 53//66
f 40//67 53//67 43//67
f 40//68 43//68 42//68
f 40//69 41//69 52//69
f 41//70 54//70 52//70
f 43//71 53//71 48//71
f 44//72 55//72 56//72
f 44//73 56//73 45//73
f 44//74 50//74 55//74
f 45//75 56//75 46//75
f 46//76 57//76 47//76
f 47//77 57//77 51//77
f 48//78 53//78 49//78
f 49//79 53//79 52//79
f 49//80 52//80 54//80
f 49//80 54//80 58//80
f 49//81 58//81 50//81
