# Blender 4.1.0
# www.blender.org
mtllib convex_117.mtl
o convex_117
v -0.007704 -0.353197 0.087334
v -0.016791 -0.355029 0.078245
v -0.019304 -0.355691 0.080912
v -0.007704 -0.353281 0.088187
v -0.002780 -0.354607 0.088187
v -0.002771 -0.354575 0.087421
v -0.004260 -0.354830 0.073701
v -0.007704 -0.354397 0.073701
v -0.012245 -0.354697 0.064613
v -0.019417 -0.355671 0.070566
v -0.019351 -0.355623 0.078245
v -0.019438 -0.355607 0.073701
v -0.021839 -0.357520 0.082609
v -0.021839 -0.357813 0.087334
v -0.021839 -0.357965 0.088187
v -0.021424 -0.357807 0.088187
v -0.021398 -0.357797 0.088187
v -0.016890 -0.356187 0.088187
v -0.001829 -0.355191 0.088187
v 0.001018 -0.359187 0.060073
v -0.005317 -0.355839 0.062034
v -0.007704 -0.355529 0.061565
v -0.003545 -0.356862 0.060342
v -0.012245 -0.355184 0.061317
v -0.015070 -0.355381 0.061697
v -0.015638 -0.355297 0.064613
v -0.021839 -0.357558 0.078245
v -0.021839 -0.359639 0.056870
v -0.021839 -0.359281 0.060073
v -0.021839 -0.365996 0.088187
v 0.000382 -0.357126 0.088187
v -0.000996 -0.356020 0.085964
v 0.002113 -0.358803 0.086115
v 0.002113 -0.360303 0.060073
v 0.000443 -0.359571 0.056675
v -0.003076 -0.358903 0.055310
v -0.007704 -0.356484 0.059293
v -0.007704 -0.358145 0.055529
v -0.007704 -0.359839 0.052570
v -0.011378 -0.360068 0.052877
v -0.014407 -0.360497 0.053321
v -0.014522 -0.369537 0.044169
v -0.021839 -0.377369 0.043174
v -0.021700 -0.366025 0.088187
v -0.021839 -0.386145 0.044486
v -0.020946 -0.386145 0.045095
v 0.000788 -0.357552 0.088187
v 0.002113 -0.358800 0.087100
v 0.002113 -0.362567 0.057177
v -0.004534 -0.360016 0.052721
v 0.002113 -0.363232 0.056519
v 0.001728 -0.362916 0.056231
v 0.002113 -0.380904 0.046275
v 0.001388 -0.380907 0.045671
v -0.000124 -0.382426 0.043628
v -0.014515 -0.369537 0.044169
v -0.021839 -0.386145 0.038381
v -0.021839 -0.384897 0.038884
v -0.021839 -0.381481 0.040576
v -0.021588 -0.366048 0.088187
v -0.008384 -0.386145 0.049956
v 0.002113 -0.358997 0.088187
v 0.002113 -0.385439 0.044344
v 0.000549 -0.385439 0.042779
v -0.008749 -0.376353 0.043355
v -0.012245 -0.376353 0.042482
v -0.003350 -0.386145 0.041790
v 0.002113 -0.366215 0.088187
v 0.002113 -0.386145 0.053218
v 0.002113 -0.386145 0.044232
v 0.000589 -0.386145 0.042706
vn -0.2255 0.9738 0.0292
vn -0.2590 0.9612 0.0946
vn 0.2589 0.9613 0.0946
vn 0.2681 0.9624 0.0435
vn 0.2695 0.9618 -0.0471
vn 0.1242 0.9884 -0.0870
vn 0.1090 0.9902 -0.0872
vn -0.1613 0.9864 -0.0329
vn -0.1764 0.9841 -0.0219
vn -0.2259 0.9737 0.0288
vn -0.1783 0.9837 -0.0213
vn -0.2260 0.9741 0.0077
vn -0.5712 0.8202 0.0310
vn -0.5617 0.8258 0.0512
vn -0.3551 0.9203 0.1639
vn -0.3509 0.9216 0.1658
vn -0.3561 0.9200 0.1636
vn -0.3312 0.9275 0.1732
vn -0.2976 0.9407 0.1629
vn -0.0000 -0.0000 1.0000
vn -0.0000 0.0106 0.9999
vn -0.0000 -0.0002 1.0000
vn -0.0000 -0.0001 1.0000
vn -0.0000 0.0001 1.0000
vn 0.5225 0.8516 0.0420
vn 0.5783 0.8138 -0.0571
vn 0.5178 0.8525 -0.0720
vn 0.1472 0.9842 -0.0984
vn 0.1242 0.9880 -0.0922
vn 0.4460 0.8881 -0.1112
vn 0.4115 0.9040 -0.1155
vn 0.1192 0.9886 -0.0922
vn 0.0829 0.9859 -0.1457
vn -0.0883 0.9854 -0.1456
vn -0.1738 0.9828 -0.0621
vn -0.1740 0.9835 -0.0486
vn -0.6529 0.7572 -0.0198
vn -0.2033 0.9768 -0.0677
vn -0.4281 0.8855 -0.1808
vn -0.7072 0.7026 -0.0785
vn -0.7322 0.6781 -0.0643
vn -0.5906 0.8069 0.0141
vn -0.6383 0.7698 -0.0067
vn -1.0000 -0.0000 -0.0000
vn 0.6582 0.7521 -0.0340
vn 0.6447 0.7632 -0.0432
vn 0.6635 0.7471 -0.0398
vn 0.6709 0.7405 -0.0391
vn 0.7132 0.6998 -0.0403
vn 0.7000 0.6867 -0.1959
vn 0.4390 0.8815 -0.1738
vn 0.1909 0.9157 -0.3536
vn 0.1885 0.9159 -0.3545
vn 0.1467 0.9119 -0.3833
vn 0.0909 0.9181 -0.3859
vn 0.2994 0.8936 -0.3345
vn 0.0817 0.9118 -0.4024
vn -0.0670 0.8659 -0.4956
vn -0.0957 0.8572 -0.5059
vn -0.1277 0.8527 -0.5066
vn -0.1621 0.8416 -0.5151
vn -0.1977 0.7743 -0.6012
vn -0.2449 0.6913 -0.6798
vn -0.4797 0.5364 -0.6944
vn -0.2747 -0.8732 0.4026
vn -0.1867 -0.8914 0.4129
vn 0.7213 0.6867 0.0905
vn 0.6946 0.7194 -0.0022
vn 1.0000 -0.0000 -0.0000
vn 0.8479 0.4177 -0.3265
vn 0.3520 0.7715 -0.5299
vn 0.8280 0.3945 -0.3985
vn 0.7298 0.3576 -0.5827
vn 0.7086 0.3532 -0.6108
vn 0.5888 0.3910 -0.7075
vn 0.5726 0.3957 -0.7180
vn 0.5463 0.4050 -0.7332
vn 0.1296 0.9072 -0.4003
vn 0.1235 0.8845 -0.4498
vn 0.0720 0.8656 -0.4955
vn 0.0719 0.6237 -0.7783
vn -0.0000 0.6549 -0.7557
vn -0.1029 0.6916 -0.7149
vn -0.1996 0.6984 -0.6873
vn -0.0000 0.3291 -0.9443
vn -0.1128 0.3709 -0.9218
vn -0.2736 0.4269 -0.8619
vn -0.4156 0.4859 -0.7689
vn -0.1830 -0.8920 0.4133
vn -0.0000 -1.0000 -0.0000
vn 0.0001 -1.0000 -0.0000
vn -0.1607 -0.8954 0.4152
vn 0.7317 0.6707 0.1215
vn 0.3354 0.4101 -0.8481
vn 0.7272 0.3443 -0.5939
vn 0.6774 0.2882 -0.6768
vn 0.6142 0.3380 -0.7132
vn 0.5947 0.3688 -0.7144
vn 0.2499 0.3137 -0.9160
vn 0.2599 0.3283 -0.9081
vn 0.2307 0.3055 -0.9238
vn 0.1243 0.2772 -0.9527
vn 0.1765 0.2280 -0.9575
vn -0.1321 -0.8955 0.4251
vn -0.0061 -0.8688 0.4952
vn 0.7032 0.1115 -0.7022
vn 0.7029 0.1124 -0.7023
vn 0.2314 0.2955 -0.9269
vn 0.2252 0.1129 -0.9677
vn 0.1965 0.2456 -0.9492
s 0
f 1//1 2//1 3//1
f 1//2 3//2 4//2
f 1//3 4//3 5//3
f 1//4 5//4 6//4
f 1//5 6//5 7//5
f 1//6 7//6 8//6
f 1//7 8//7 9//7
f 1//8 9//8 10//8
f 1//9 10//9 2//9
f 2//10 11//10 3//10
f 2//11 10//11 12//11
f 2//12 12//12 11//12
f 3//13 11//13 13//13
f 3//14 13//14 14//14
f 3//15 14//15 15//15
f 3//16 15//16 16//16
f 3//17 16//17 17//17
f 3//18 17//18 18//18
f 3//19 18//19 4//19
f 4//20 18//20 17//20
f 4//21 17//21 16//21
f 4//22 16//22 15//22
f 4//20 15//20 30//20
f 4//20 30//20 44//20
f 4//20 44//20 60//20
f 4//20 60//20 68//20
f 4//20 68//20 62//20
f 4//20 62//20 47//20
f 4//23 47//23 31//23
f 4//20 31//20 19//20
f 4//24 19//24 5//24
f 5//25 19//25 6//25
f 6//26 19//26 20//26
f 6//27 20//27 7//27
f 7//28 21//28 22//28
f 7//29 22//29 8//29
f 7//30 20//30 23//30
f 7//31 23//31 21//31
f 8//32 22//32 9//32
f 9//33 22//33 24//33
f 9//34 24//34 25//34
f 9//35 25//35 26//35
f 9//36 26//36 10//36
f 10//37 27//37 12//37
f 10//38 26//38 25//38
f 10//39 25//39 28//39
f 10//40 28//40 29//40
f 10//41 29//41 27//41
f 11//42 12//42 13//42
f 12//43 27//43 13//43
f 13//44 27//44 29//44
f 13//44 29//44 28//44
f 13//44 28//44 43//44
f 13//44 43//44 59//44
f 13//44 59//44 58//44
f 13//44 58//44 57//44
f 13//44 57//44 45//44
f 13//44 45//44 30//44
f 13//44 30//44 15//44
f 13//44 15//44 14//44
f 19//45 31//45 32//45
f 19//46 32//46 20//46
f 20//47 32//47 31//47
f 20//48 31//48 33//48
f 20//49 33//49 34//49
f 20//50 34//50 35//50
f 20//51 35//51 23//51
f 21//52 23//52 36//52
f 21//53 36//53 22//53
f 22//54 36//54 37//54
f 22//55 37//55 24//55
f 23//56 35//56 36//56
f 24//57 37//57 38//57
f 24//58 38//58 39//58
f 24//59 39//59 40//59
f 24//60 40//60 25//60
f 25//61 40//61 28//61
f 28//62 40//62 41//62
f 28//63 41//63 42//63
f 28//64 42//64 43//64
f 30//65 45//65 46//65
f 30//66 46//66 44//66
f 31//67 47//67 48//67
f 31//68 48//68 33//68
f 33//69 48//69 62//69
f 33//69 62//69 68//69
f 33//69 68//69 69//69
f 33//69 69//69 70//69
f 33//69 70//69 63//69
f 33//69 63//69 53//69
f 33//69 53//69 51//69
f 33//69 51//69 49//69
f 33//69 49//69 34//69
f 34//70 49//70 35//70
f 35//71 50//71 36//71
f 35//72 49//72 51//72
f 35//73 51//73 52//73
f 35//74 52//74 53//74
f 35//75 53//75 54//75
f 35//76 54//76 55//76
f 35//77 55//77 50//77
f 36//78 38//78 37//78
f 36//79 50//79 38//79
f 38//80 50//80 39//80
f 39//81 50//81 56//81
f 39//82 56//82 42//82
f 39//83 42//83 40//83
f 40//84 42//84 41//84
f 42//85 56//85 57//85
f 42//86 57//86 58//86
f 42//87 58//87 59//87
f 42//88 59//88 43//88
f 44//89 46//89 60//89
f 45//90 57//90 67//90
f 45//90 67//90 71//90
f 45//90 71//90 70//90
f 45//90 70//90 69//90
f 45//90 69//90 61//90
f 45//91 61//91 46//91
f 46//92 61//92 60//92
f 47//93 62//93 48//93
f 50//94 55//94 56//94
f 51//95 53//95 52//95
f 53//96 63//96 64//96
f 53//97 64//97 55//97
f 53//98 55//98 54//98
f 55//99 64//99 65//99
f 55//100 65//100 56//100
f 56//101 65//101 66//101
f 56//102 66//102 57//102
f 57//103 66//103 67//103
f 60//104 61//104 69//104
f 60//105 69//105 68//105
f 63//106 70//106 71//106
f 63//107 71//107 64//107
f 64//108 66//108 65//108
f 64//109 71//109 67//109
f 64//110 67//110 66//110
