# Blender 4.1.0
# www.blender.org
mtllib convex_24.mtl
o convex_24
v 0.314436 -0.431811 -0.176216
v 0.314436 -0.432361 -0.166616
v 0.314436 -0.432131 -0.179855
v 0.290523 -0.414506 -0.155690
v 0.314436 -0.432621 -0.163613
v 0.314436 -0.432225 -0.180398
v 0.289350 -0.413854 -0.155690
v 0.295855 -0.418885 -0.155690
v 0.314436 -0.434982 -0.155690
v 0.314436 -0.434077 -0.184148
v 0.278576 -0.413337 -0.168901
v 0.285647 -0.414834 -0.165112
v 0.286556 -0.414393 -0.162588
v 0.289719 -0.415125 -0.159916
v 0.287679 -0.413024 -0.155690
v 0.314436 -0.442503 -0.155690
v 0.305720 -0.431946 -0.184148
v 0.278576 -0.415098 -0.171723
v 0.314436 -0.441466 -0.184148
v 0.278576 -0.412737 -0.167187
v 0.278973 -0.413012 -0.167524
v 0.283119 -0.414170 -0.166109
v 0.283119 -0.412956 -0.162588
v 0.278576 -0.411232 -0.162805
v 0.278576 -0.409871 -0.155690
v 0.305161 -0.444970 -0.155690
v 0.304351 -0.447418 -0.158832
v 0.304477 -0.447478 -0.162588
v 0.314436 -0.442447 -0.157562
v 0.301293 -0.431041 -0.184148
v 0.278576 -0.417063 -0.173439
v 0.303996 -0.447074 -0.165410
v 0.309016 -0.442473 -0.183716
v 0.308093 -0.442541 -0.184148
v 0.278576 -0.411281 -0.162953
v 0.278576 -0.416177 -0.155690
v 0.302220 -0.444962 -0.155690
v 0.301293 -0.447489 -0.158818
v 0.301293 -0.448078 -0.162588
v 0.296715 -0.431237 -0.184148
v 0.292208 -0.431761 -0.184148
v 0.288799 -0.432735 -0.184148
v 0.278625 -0.436880 -0.184148
v 0.278576 -0.436906 -0.184148
v 0.287665 -0.448289 -0.171673
v 0.305762 -0.442703 -0.184148
v 0.281501 -0.446969 -0.178760
v 0.278576 -0.443933 -0.172907
v 0.284527 -0.447293 -0.168566
v 0.286268 -0.444514 -0.165507
v 0.289392 -0.447041 -0.164619
v 0.301233 -0.444951 -0.155690
v 0.298228 -0.447090 -0.159802
v 0.292208 -0.447508 -0.163839
v 0.287791 -0.447795 -0.167084
v 0.292208 -0.448398 -0.167132
v 0.278576 -0.444457 -0.184148
v 0.283056 -0.447546 -0.171745
v 0.278576 -0.447037 -0.176829
v 0.278576 -0.446939 -0.178782
v 0.278576 -0.444095 -0.173046
v 0.278576 -0.445962 -0.174659
v 0.280507 -0.447041 -0.173305
vn 1.0000 -0.0000 -0.0000
vn 0.5424 0.8369 -0.0736
vn 0.6109 0.7904 0.0453
vn 0.6166 0.7843 0.0679
vn 0.4845 0.8620 -0.1492
vn -0.0000 -0.0000 1.0000
vn -0.0000 -0.0001 1.0000
vn 0.6278 0.7644 0.1470
vn 0.4800 0.8635 -0.1548
vn 0.6388 0.7373 0.2197
vn 0.3136 0.8514 -0.4205
vn 0.3582 0.8763 -0.3223
vn 0.3775 0.8795 -0.2896
vn 0.4083 0.8802 -0.2422
vn 0.4104 0.8799 -0.2393
vn 0.4350 0.8757 -0.2095
vn 0.1856 0.7591 -0.6239
vn 0.2567 0.8199 -0.5117
vn -0.0000 -0.0000 -1.0000
vn -0.0000 0.0011 -1.0000
vn -0.0000 0.0002 -1.0000
vn 0.3498 0.8842 -0.3095
vn 0.3524 0.8830 -0.3100
vn 0.3559 0.8793 -0.3166
vn -1.0000 -0.0000 -0.0000
vn -1.0000 -0.0000 -0.0018
vn 0.3527 0.8846 -0.3050
vn 0.3694 0.8837 -0.2875
vn 0.3746 0.8959 -0.2388
vn 0.4076 0.8808 -0.2411
vn 0.3550 0.9072 -0.2258
vn 0.3221 0.9299 -0.1779
vn 0.2119 -0.7967 0.5661
vn 0.4306 -0.9021 0.0289
vn 0.4614 -0.8868 -0.0265
vn 0.1495 0.7315 -0.6652
vn 0.0496 0.6570 -0.7523
vn 0.4637 -0.8854 -0.0327
vn 0.2066 -0.9630 -0.1731
vn 0.1638 -0.9664 -0.1980
vn 0.1638 -0.9665 -0.1978
vn 0.3509 0.8855 -0.3045
vn 0.3516 0.8850 -0.3051
vn 0.3518 0.8843 -0.3071
vn 0.3514 0.8888 -0.2943
vn -0.0021 -0.7776 0.6288
vn 0.0212 -0.7913 0.6110
vn 0.0236 -0.9877 0.1543
vn 0.1851 -0.9825 0.0219
vn 0.1825 -0.9684 -0.1697
vn -0.0249 0.5821 -0.8127
vn -0.0638 0.5484 -0.8338
vn -0.1412 0.4941 -0.8579
vn -0.1900 0.4664 -0.8639
vn -0.2440 0.4601 -0.8537
vn 0.1493 -0.9681 -0.2014
vn 0.1493 -0.9680 -0.2015
vn 0.1639 -0.9664 -0.1979
vn 0.1048 -0.9573 -0.2695
vn 0.0626 -0.9002 -0.4310
vn -0.6761 -0.3884 0.6262
vn -0.5888 -0.4026 0.7009
vn -0.5365 -0.4026 0.7417
vn -0.5063 -0.3986 0.7647
vn -0.0087 -0.7766 0.6300
vn -0.2896 -0.7460 0.5997
vn -0.2627 -0.8379 0.4785
vn -0.1757 -0.9305 0.3215
vn -0.1285 -0.9608 0.2455
vn -0.0424 -0.9871 0.1542
vn 0.0935 -0.9887 -0.1172
vn -0.1333 -0.9850 0.1097
vn -0.1599 -0.9810 0.1100
vn -0.1596 -0.9863 0.0419
vn -0.1085 -0.9928 -0.0498
vn -0.0088 -0.9844 -0.1757
vn 0.0576 -0.8925 -0.4474
vn -0.0062 -0.9076 -0.4198
vn -0.6776 -0.4789 0.5582
vn -0.6774 -0.4809 0.5566
vn -0.6660 -0.5174 0.5374
vn -0.3176 -0.9223 0.2203
vn -0.2299 -0.9560 0.1824
vn -0.3385 -0.8155 0.4693
vn -0.5536 -0.4349 0.7102
vn -0.2632 -0.8614 0.4344
vn -0.2736 -0.8256 0.4935
vn -0.3406 -0.7088 0.6177
vn -0.2814 -0.9473 0.1531
vn -0.6303 -0.6957 0.3446
s 0
f 1//1 2//1 5//1
f 1//1 5//1 9//1
f 1//1 9//1 16//1
f 1//1 16//1 29//1
f 1//1 29//1 19//1
f 1//1 19//1 10//1
f 1//1 10//1 6//1
f 1//1 6//1 3//1
f 1//2 3//2 4//2
f 1//3 4//3 2//3
f 2//4 4//4 5//4
f 3//5 6//5 4//5
f 4//6 7//6 15//6
f 4//7 15//7 25//7
f 4//6 25//6 36//6
f 4//6 36//6 52//6
f 4//6 52//6 37//6
f 4//6 37//6 26//6
f 4//6 26//6 16//6
f 4//6 16//6 9//6
f 4//7 9//7 8//7
f 4//8 8//8 5//8
f 4//9 6//9 7//9
f 5//10 8//10 9//10
f 6//11 10//11 11//11
f 6//12 11//12 12//12
f 6//13 12//13 13//13
f 6//14 13//14 14//14
f 6//15 14//15 15//15
f 6//16 15//16 7//16
f 10//17 17//17 18//17
f 10//18 18//18 11//18
f 10//19 19//19 34//19
f 10//19 34//19 46//19
f 10//19 46//19 57//19
f 10//19 57//19 44//19
f 10//20 44//20 43//20
f 10//19 43//19 42//19
f 10//19 42//19 41//19
f 10//19 41//19 40//19
f 10//19 40//19 30//19
f 10//21 30//21 17//21
f 11//22 20//22 21//22
f 11//23 21//23 22//23
f 11//24 22//24 12//24
f 11//25 18//25 31//25
f 11//25 31//25 44//25
f 11//25 44//25 57//25
f 11//25 57//25 60//25
f 11//25 60//25 59//25
f 11//25 59//25 62//25
f 11//25 62//25 61//25
f 11//25 61//25 48//25
f 11//25 48//25 36//25
f 11//25 36//25 25//25
f 11//25 25//25 24//25
f 11//26 24//26 35//26
f 11//25 35//25 20//25
f 12//27 22//27 23//27
f 12//28 23//28 13//28
f 13//29 23//29 15//29
f 13//30 15//30 14//30
f 15//31 23//31 24//31
f 15//32 24//32 25//32
f 16//33 26//33 27//33
f 16//34 27//34 28//34
f 16//35 28//35 29//35
f 17//36 30//36 18//36
f 18//37 30//37 31//37
f 19//38 29//38 28//38
f 19//39 28//39 32//39
f 19//40 32//40 33//40
f 19//41 33//41 34//41
f 20//42 35//42 23//42
f 20//43 23//43 22//43
f 20//44 22//44 21//44
f 23//45 35//45 24//45
f 26//46 37//46 38//46
f 26//47 38//47 27//47
f 27//48 38//48 39//48
f 27//49 39//49 28//49
f 28//50 39//50 32//50
f 30//51 40//51 31//51
f 31//52 40//52 41//52
f 31//53 41//53 42//53
f 31//54 42//54 43//54
f 31//55 43//55 44//55
f 32//56 39//56 45//56
f 32//57 45//57 34//57
f 32//58 34//58 33//58
f 34//59 45//59 47//59
f 34//60 47//60 46//60
f 36//61 48//61 49//61
f 36//62 49//62 50//62
f 36//63 50//63 51//63
f 36//64 51//64 52//64
f 37//65 52//65 38//65
f 38//66 52//66 53//66
f 38//67 53//67 54//67
f 38//68 54//68 55//68
f 38//69 55//69 56//69
f 38//70 56//70 39//70
f 39//71 56//71 45//71
f 45//72 56//72 55//72
f 45//73 55//73 58//73
f 45//74 58//74 59//74
f 45//75 59//75 60//75
f 45//76 60//76 47//76
f 46//77 47//77 57//77
f 47//78 60//78 57//78
f 48//79 61//79 49//79
f 49//80 61//80 62//80
f 49//81 62//81 63//81
f 49//82 63//82 58//82
f 49//83 58//83 55//83
f 49//84 55//84 51//84
f 49//85 51//85 50//85
f 51//86 55//86 54//86
f 51//87 54//87 53//87
f 51//88 53//88 52//88
f 58//89 63//89 59//89
f 59//90 63//90 62//90
