# Blender 4.1.0
# www.blender.org
mtllib convex_99.mtl
o convex_99
v -0.098857 -0.396599 -0.149943
v -0.100560 -0.382133 -0.167133
v -0.096443 -0.392462 -0.169827
v -0.098008 -0.396599 -0.153580
v -0.091598 -0.396599 -0.149943
v -0.103758 -0.375323 -0.149943
v -0.105619 -0.369963 -0.155010
v -0.105619 -0.369963 -0.156199
v -0.101005 -0.379133 -0.169783
v -0.096912 -0.389876 -0.171476
v -0.095851 -0.391321 -0.172850
v -0.092360 -0.396599 -0.174815
v -0.093610 -0.396599 -0.171358
v -0.074437 -0.396599 -0.179935
v -0.089579 -0.385438 -0.149943
v -0.104313 -0.370886 -0.149943
v -0.105829 -0.365945 -0.150811
v -0.105968 -0.367381 -0.153496
v -0.105786 -0.367267 -0.157002
v -0.101005 -0.378124 -0.169783
v -0.097511 -0.380897 -0.175465
v -0.099804 -0.380747 -0.171450
v -0.096551 -0.388293 -0.174271
v -0.098354 -0.385438 -0.171678
v -0.091622 -0.396599 -0.175688
v -0.074437 -0.396599 -0.186451
v -0.074437 -0.396072 -0.179900
v -0.074437 -0.394526 -0.179804
v -0.089968 -0.350160 -0.149943
v -0.104776 -0.366699 -0.149943
v -0.105829 -0.364535 -0.150811
v -0.105943 -0.364413 -0.153501
v -0.105696 -0.364681 -0.156985
v -0.096989 -0.358180 -0.174771
v -0.095511 -0.380897 -0.177737
v -0.096986 -0.385438 -0.174745
v -0.092641 -0.353634 -0.179659
v -0.091419 -0.391248 -0.178163
v -0.087135 -0.396599 -0.180207
v -0.090406 -0.396599 -0.176930
v -0.094690 -0.385438 -0.177018
v -0.075817 -0.396599 -0.186433
v -0.074437 -0.369945 -0.192532
v -0.074437 -0.350160 -0.186806
v -0.074814 -0.350160 -0.185775
v -0.097233 -0.350160 -0.149943
v -0.104178 -0.364435 -0.149943
v -0.097076 -0.350160 -0.151167
v -0.097351 -0.354952 -0.171678
v -0.096761 -0.355357 -0.174517
v -0.093240 -0.380897 -0.179527
v -0.082082 -0.396599 -0.184946
v -0.083437 -0.396599 -0.183867
v -0.090625 -0.353634 -0.181932
v -0.081962 -0.350160 -0.191119
v -0.079653 -0.350160 -0.192997
v -0.092153 -0.350656 -0.179185
v -0.088638 -0.350160 -0.183287
v -0.080444 -0.396599 -0.185718
v -0.075218 -0.367267 -0.192861
v -0.074437 -0.367267 -0.193032
v -0.074437 -0.350160 -0.194642
v -0.093048 -0.350160 -0.176101
v -0.092286 -0.350160 -0.178194
v -0.087573 -0.383970 -0.183314
v -0.078487 -0.361808 -0.192396
v -0.078876 -0.350160 -0.193300
v -0.075866 -0.353634 -0.194239
v -0.075866 -0.358180 -0.193918
v -0.079166 -0.353634 -0.192936
v -0.091561 -0.350160 -0.179681
v -0.076280 -0.363085 -0.193155
v -0.074437 -0.358162 -0.194462
v -0.074437 -0.353634 -0.194756
v -0.074437 -0.354984 -0.194686
vn -0.9290 -0.3233 -0.1800
vn -0.8626 -0.4642 -0.2013
vn 0.0010 -1.0000 -0.0000
vn -0.0001 -1.0000 -0.0000
vn -0.0000 -1.0000 -0.0000
vn -0.0000 -0.0000 1.0000
vn -0.9675 -0.2229 0.1196
vn -0.9693 -0.2461 -0.0000
vn -0.9522 -0.2737 -0.1360
vn -0.9267 -0.3165 -0.2027
vn -0.9529 -0.2676 -0.1430
vn -0.8824 -0.3561 -0.3074
vn -0.8395 -0.4331 -0.3280
vn -0.8350 -0.4601 -0.3019
vn -0.8412 -0.4991 -0.2081
vn -0.9208 -0.3144 -0.2310
vn 0.8575 -0.1551 0.4906
vn -0.6924 -0.0866 0.7163
vn -0.9674 -0.1991 0.1566
vn -0.9686 -0.2095 0.1341
vn -0.9910 -0.1339 -0.0000
vn -0.9955 -0.0778 -0.0542
vn -0.9623 -0.1307 -0.2386
vn -0.8518 -0.0000 -0.5238
vn -0.8622 -0.1382 -0.4873
vn -0.8805 -0.2233 -0.4181
vn -0.9052 -0.2863 -0.3140
vn -0.9166 -0.3092 -0.2536
vn -0.9366 -0.0000 -0.3504
vn -0.8826 -0.3510 -0.3128
vn -0.9059 -0.3075 -0.2912
vn -0.8212 -0.3869 -0.4195
vn -0.7225 -0.3246 -0.6104
vn 1.0000 -0.0000 -0.0000
vn 0.8877 -0.0305 0.4595
vn 0.8880 -0.0285 0.4590
vn 0.8931 0.0098 0.4498
vn -0.6652 -0.0736 0.7430
vn -0.6361 -0.0000 0.7716
vn -0.9987 -0.0000 0.0517
vn -0.9991 0.0085 0.0427
vn -0.9986 0.0083 -0.0516
vn -0.9967 0.0352 -0.0734
vn -0.9260 0.0347 -0.3759
vn -0.9064 0.0787 -0.4149
vn -0.8434 0.0357 -0.5361
vn -0.7372 -0.1881 -0.6490
vn -0.8577 -0.1757 -0.4833
vn -0.7635 0.0372 -0.6447
vn -0.7502 0.0324 -0.6604
vn -0.8694 -0.2070 -0.4487
vn -0.6777 -0.2833 -0.6786
vn -0.6783 -0.2850 -0.6772
vn -0.6835 -0.2914 -0.6692
vn -0.7008 -0.2195 -0.6787
vn -0.6754 -0.2329 -0.6997
vn -0.6703 -0.2390 -0.7025
vn -0.0127 -0.2224 -0.9749
vn 0.9379 0.0541 0.3426
vn 0.9194 0.0601 0.3888
vn -0.0004 1.0000 -0.0000
vn -0.0000 1.0000 -0.0000
vn -0.4676 0.1235 0.8752
vn -0.4640 0.2257 0.8566
vn -0.8583 0.5096 0.0595
vn -0.8376 0.5370 -0.1007
vn -0.8354 0.5390 -0.1074
vn -0.8332 0.5408 -0.1152
vn -0.8859 0.3967 -0.2405
vn -0.9080 0.1098 -0.4043
vn -0.7938 0.1179 -0.5966
vn -0.6103 -0.1664 -0.7745
vn -0.6138 -0.1711 -0.7707
vn -0.6635 -0.2326 -0.7111
vn -0.7479 0.0320 -0.6631
vn -0.7323 0.0265 -0.6805
vn -0.6299 -0.0595 -0.7744
vn -0.6174 -0.0705 -0.7835
vn -0.7959 0.2201 -0.5640
vn -0.7535 0.2219 -0.6189
vn -0.7463 0.1956 -0.6362
vn -0.7436 0.1108 -0.6594
vn -0.6753 -0.2801 -0.6823
vn -0.6643 -0.2342 -0.7098
vn -0.1492 -0.2132 -0.9655
vn -0.2444 -0.1881 -0.9513
vn -0.2104 -0.1794 -0.9610
vn -0.7939 0.5944 -0.1282
vn -0.8227 0.5134 -0.2441
vn -0.8174 0.4932 -0.2977
vn -0.8180 0.4629 -0.3413
vn -0.6081 -0.1640 -0.7768
vn -0.5875 -0.0926 -0.8039
vn -0.5338 -0.1240 -0.8365
vn -0.4215 -0.1480 -0.8947
vn -0.3623 -0.0624 -0.9300
vn -0.3648 -0.0656 -0.9288
vn -0.3697 -0.0682 -0.9266
vn -0.5804 -0.0957 -0.8087
vn -0.7587 0.5362 -0.3700
vn -0.7445 0.2859 -0.6033
vn -0.3986 -0.1512 -0.9046
vn -0.3675 -0.1577 -0.9165
vn -0.2938 -0.1410 -0.9454
vn -0.2114 -0.1516 -0.9656
vn -0.2893 0.0314 -0.9567
vn -0.5690 -0.1012 -0.8161
vn -0.4001 -0.0935 -0.9117
vn -0.3800 -0.1108 -0.9183
vn -0.3399 -0.0405 -0.9396
vn -0.3398 -0.0487 -0.9392
vn -0.3539 -0.0658 -0.9330
vn -0.3543 -0.0659 -0.9328
vn -0.3522 -0.1148 -0.9289
s 0
f 1//1 2//1 3//1
f 1//2 3//2 4//2
f 1//3 4//3 13//3
f 1//4 13//4 12//4
f 1//4 12//4 25//4
f 1//5 25//5 40//5
f 1//5 40//5 39//5
f 1//5 39//5 53//5
f 1//5 53//5 52//5
f 1//5 52//5 59//5
f 1//5 59//5 42//5
f 1//5 42//5 26//5
f 1//5 26//5 14//5
f 1//5 14//5 5//5
f 1//6 5//6 15//6
f 1//6 15//6 29//6
f 1//6 29//6 46//6
f 1//6 46//6 47//6
f 1//6 47//6 30//6
f 1//6 30//6 16//6
f 1//6 16//6 6//6
f 1//7 6//7 7//7
f 1//8 7//8 8//8
f 1//9 8//9 2//9
f 2//10 9//10 3//10
f 2//11 8//11 9//11
f 3//12 10//12 11//12
f 3//13 11//13 12//13
f 3//14 12//14 13//14
f 3//15 13//15 4//15
f 3//16 9//16 10//16
f 5//17 14//17 15//17
f 6//18 16//18 17//18
f 6//19 17//19 18//19
f 6//20 18//20 7//20
f 7//21 18//21 8//21
f 8//22 18//22 19//22
f 8//23 19//23 9//23
f 9//24 20//24 21//24
f 9//25 21//25 22//25
f 9//26 22//26 23//26
f 9//27 23//27 24//27
f 9//28 24//28 10//28
f 9//29 19//29 20//29
f 10//30 23//30 11//30
f 10//31 24//31 23//31
f 11//32 23//32 12//32
f 12//33 23//33 25//33
f 14//34 26//34 43//34
f 14//34 43//34 61//34
f 14//34 61//34 73//34
f 14//34 73//34 75//34
f 14//34 75//34 74//34
f 14//34 74//34 62//34
f 14//34 62//34 44//34
f 14//34 44//34 28//34
f 14//34 28//34 27//34
f 14//35 27//35 15//35
f 15//36 27//36 28//36
f 15//37 28//37 29//37
f 16//38 30//38 17//38
f 17//39 30//39 31//39
f 17//40 31//40 18//40
f 18//41 31//41 32//41
f 18//42 32//42 19//42
f 19//43 32//43 33//43
f 19//44 33//44 20//44
f 20//45 33//45 34//45
f 20//46 34//46 21//46
f 21//47 35//47 36//47
f 21//48 36//48 22//48
f 21//49 34//49 37//49
f 21//50 37//50 35//50
f 22//51 36//51 23//51
f 23//52 38//52 39//52
f 23//53 39//53 40//53
f 23//54 40//54 25//54
f 23//55 36//55 35//55
f 23//56 35//56 41//56
f 23//57 41//57 38//57
f 26//58 42//58 43//58
f 28//59 44//59 45//59
f 28//60 45//60 29//60
f 29//61 45//61 44//61
f 29//62 44//62 62//62
f 29//62 62//62 67//62
f 29//62 67//62 56//62
f 29//62 56//62 55//62
f 29//62 55//62 58//62
f 29//62 58//62 71//62
f 29//62 71//62 64//62
f 29//62 64//62 63//62
f 29//62 63//62 48//62
f 29//62 48//62 46//62
f 30//63 47//63 31//63
f 31//64 47//64 46//64
f 31//65 46//65 32//65
f 32//66 46//66 33//66
f 33//67 46//67 48//67
f 33//68 48//68 49//68
f 33//69 49//69 50//69
f 33//70 50//70 34//70
f 34//71 50//71 37//71
f 35//72 51//72 52//72
f 35//73 52//73 53//73
f 35//74 53//74 41//74
f 35//75 37//75 54//75
f 35//76 54//76 55//76
f 35//77 55//77 56//77
f 35//78 56//78 51//78
f 37//79 50//79 57//79
f 37//80 57//80 58//80
f 37//81 58//81 55//81
f 37//82 55//82 54//82
f 38//83 53//83 39//83
f 38//84 41//84 53//84
f 42//85 59//85 43//85
f 43//86 59//86 60//86
f 43//87 60//87 61//87
f 48//88 63//88 49//88
f 49//89 63//89 50//89
f 50//90 63//90 64//90
f 50//91 64//91 57//91
f 51//92 65//92 52//92
f 51//93 56//93 65//93
f 52//94 65//94 66//94
f 52//95 66//95 59//95
f 56//96 67//96 68//96
f 56//97 68//97 69//97
f 56//98 69//98 70//98
f 56//99 70//99 65//99
f 57//100 64//100 71//100
f 57//101 71//101 58//101
f 59//102 66//102 72//102
f 59//103 72//103 60//103
f 60//104 72//104 73//104
f 60//105 73//105 61//105
f 62//106 74//106 67//106
f 65//107 70//107 66//107
f 66//108 70//108 69//108
f 66//109 69//109 72//109
f 67//110 74//110 68//110
f 68//111 74//111 75//111
f 68//112 75//112 73//112
f 68//113 73//113 69//113
f 69//114 73//114 72//114
