# Blender 4.1.0
# www.blender.org
mtllib convex_88.mtl
o convex_88
v -0.036542 -0.434394 -0.093586
v -0.036542 -0.434394 -0.093866
v -0.035963 -0.434065 -0.093586
v -0.036542 -0.421884 -0.093586
v -0.036542 -0.432752 -0.096037
v -0.009922 -0.411042 -0.111664
v -0.009922 -0.412710 -0.108060
v -0.009922 -0.415107 -0.101934
v -0.009922 -0.415148 -0.101789
v -0.009922 -0.415177 -0.099847
v -0.010029 -0.414944 -0.096915
v -0.010417 -0.413657 -0.093586
v -0.010123 -0.404820 -0.093586
v -0.036542 -0.400222 -0.096083
v -0.009922 -0.409177 -0.113980
v -0.036542 -0.430344 -0.097386
v -0.009922 -0.396604 -0.126542
v -0.009922 -0.397151 -0.126152
v -0.009922 -0.407128 -0.116174
v -0.009922 -0.414855 -0.096986
v -0.009922 -0.413128 -0.093586
v -0.009922 -0.404712 -0.093586
v -0.036542 -0.396604 -0.097612
v -0.036542 -0.412706 -0.104102
v -0.019837 -0.397684 -0.120013
v -0.019889 -0.396604 -0.120138
v -0.009922 -0.396604 -0.114219
v -0.019196 -0.396604 -0.107825
v -0.022857 -0.396604 -0.105302
v -0.028553 -0.396604 -0.101509
v -0.032711 -0.396604 -0.099289
v -0.036542 -0.396604 -0.104589
vn 0.4944 -0.8692 -0.0000
vn -0.0000 -0.0000 1.0000
vn -1.0000 -0.0000 -0.0000
vn 0.2841 -0.7647 -0.5784
vn 0.4581 -0.8067 -0.3734
vn 0.4914 -0.8110 -0.3173
vn 0.5237 -0.8198 -0.2317
vn 0.5461 -0.8219 -0.1620
vn 0.5852 -0.8108 -0.0121
vn 0.5983 -0.7967 0.0851
vn 0.5844 -0.7316 0.3510
vn -0.0738 0.1142 0.9907
vn 0.2580 -0.7525 -0.6060
vn -0.3188 -0.4631 -0.8270
vn -0.1432 -0.5746 -0.8058
vn 0.1443 -0.6997 -0.6997
vn 0.1840 -0.7184 -0.6709
vn 1.0000 -0.0000 -0.0000
vn 0.6696 -0.7381 0.0831
vn 0.7218 -0.6171 0.3134
vn 0.6894 -0.6450 0.3297
vn -0.0706 0.1311 0.9889
vn -0.0207 0.3892 0.9209
vn -0.4969 -0.3088 -0.8110
vn -0.5365 -0.1225 -0.8350
vn -0.0000 1.0000 -0.0000
vn -0.5012 -0.3017 -0.8110
vn 0.2445 0.9025 0.3546
vn 0.2444 0.9025 0.3547
vn 0.2395 0.9018 0.3597
vn 0.2154 0.8893 0.4035
vn 0.1972 0.8709 0.4502
vn -0.6823 -0.0221 -0.7307
vn -0.6264 -0.1194 -0.7703
s 0
f 1//1 2//1 3//1
f 1//2 3//2 12//2
f 1//2 12//2 21//2
f 1//2 21//2 22//2
f 1//2 22//2 13//2
f 1//2 13//2 4//2
f 1//3 4//3 14//3
f 1//3 14//3 23//3
f 1//3 23//3 32//3
f 1//3 32//3 24//3
f 1//3 24//3 16//3
f 1//3 16//3 5//3
f 1//3 5//3 2//3
f 2//4 5//4 6//4
f 2//5 6//5 7//5
f 2//6 7//6 8//6
f 2//7 8//7 9//7
f 2//8 9//8 3//8
f 3//9 9//9 10//9
f 3//10 10//10 11//10
f 3//11 11//11 12//11
f 4//12 13//12 14//12
f 5//13 15//13 6//13
f 5//14 16//14 17//14
f 5//15 17//15 18//15
f 5//16 18//16 19//16
f 5//17 19//17 15//17
f 6//18 15//18 19//18
f 6//18 19//18 18//18
f 6//18 18//18 17//18
f 6//18 17//18 27//18
f 6//18 27//18 22//18
f 6//18 22//18 21//18
f 6//18 21//18 20//18
f 6//18 20//18 10//18
f 6//18 10//18 9//18
f 6//18 9//18 8//18
f 6//18 8//18 7//18
f 10//19 20//19 11//19
f 11//20 20//20 21//20
f 11//21 21//21 12//21
f 13//22 22//22 14//22
f 14//23 22//23 23//23
f 16//24 24//24 17//24
f 17//25 25//25 26//25
f 17//26 26//26 32//26
f 17//26 32//26 23//26
f 17//26 23//26 31//26
f 17//26 31//26 30//26
f 17//26 30//26 29//26
f 17//26 29//26 28//26
f 17//26 28//26 27//26
f 17//27 24//27 25//27
f 22//28 27//28 28//28
f 22//29 28//29 29//29
f 22//30 29//30 30//30
f 22//31 30//31 31//31
f 22//32 31//32 23//32
f 24//33 32//33 26//33
f 24//34 26//34 25//34
