# Blender 4.1.0
# www.blender.org
mtllib convex_51.mtl
o convex_51
v -0.059877 -0.463131 -0.027694
v -0.060018 -0.463131 -0.028590
v -0.052403 -0.463131 -0.027694
v -0.057117 -0.456769 -0.027694
v -0.055668 -0.450901 -0.032582
v -0.060024 -0.463131 -0.028650
v -0.051808 -0.463131 -0.067211
v -0.026686 -0.426818 -0.027694
v -0.051608 -0.445224 -0.027694
v -0.051815 -0.444289 -0.030960
v -0.050987 -0.442101 -0.032577
v -0.050885 -0.437656 -0.051231
v -0.055754 -0.450747 -0.035353
v -0.060241 -0.463131 -0.030812
v -0.051933 -0.463131 -0.071701
v -0.026686 -0.424024 -0.044463
v -0.026686 -0.419446 -0.027694
v -0.051936 -0.463131 -0.071802
v -0.050573 -0.460805 -0.074888
v -0.051118 -0.444327 -0.027694
v -0.050596 -0.442627 -0.029546
v -0.046361 -0.437667 -0.028466
v -0.032800 -0.419431 -0.032928
v -0.045455 -0.430238 -0.053527
v -0.050951 -0.437550 -0.053527
v -0.042143 -0.423525 -0.068352
v -0.051003 -0.437508 -0.058068
v -0.051900 -0.439967 -0.058068
v -0.059124 -0.463131 -0.063002
v -0.053211 -0.444512 -0.062614
v -0.026686 -0.416956 -0.074888
v -0.026686 -0.417290 -0.031043
v -0.026696 -0.419420 -0.027694
v -0.052081 -0.463131 -0.074888
v -0.050350 -0.443041 -0.027694
v -0.046890 -0.438639 -0.027694
v -0.032859 -0.423881 -0.027694
v -0.032816 -0.423838 -0.027694
v -0.030612 -0.422086 -0.027694
v -0.026686 -0.409441 -0.057431
v -0.028040 -0.410535 -0.056146
v -0.028401 -0.410180 -0.059172
v -0.037616 -0.419192 -0.063399
v -0.043188 -0.427561 -0.053527
v -0.037968 -0.418931 -0.067160
v -0.040363 -0.421241 -0.071701
v -0.042140 -0.423509 -0.071701
v -0.050954 -0.437603 -0.061043
v -0.051608 -0.439690 -0.062582
v -0.058852 -0.463131 -0.066725
v -0.056854 -0.458846 -0.074888
v -0.058093 -0.462685 -0.074888
v -0.026686 -0.410594 -0.074888
v -0.058218 -0.463131 -0.074888
v -0.026686 -0.409314 -0.058087
v -0.026686 -0.408878 -0.061843
v -0.028401 -0.410180 -0.061505
v -0.034068 -0.414991 -0.074888
v -0.036479 -0.417046 -0.074888
v -0.038089 -0.418772 -0.071701
v -0.038697 -0.419377 -0.074888
v -0.041903 -0.423870 -0.074588
v -0.046539 -0.432819 -0.074888
v -0.050757 -0.437996 -0.064074
v -0.056460 -0.457704 -0.074888
v -0.027425 -0.411003 -0.074888
v -0.026686 -0.409202 -0.066005
v -0.026686 -0.408878 -0.062614
v -0.033388 -0.414455 -0.074888
v -0.038017 -0.418639 -0.074888
v -0.041608 -0.423541 -0.074888
v -0.041857 -0.423923 -0.074888
v -0.047823 -0.435426 -0.074888
v -0.049840 -0.440221 -0.074888
v -0.051509 -0.444401 -0.074888
v -0.031220 -0.413196 -0.074888
vn -0.0082 -1.0000 -0.0000
vn -0.0000 -1.0000 -0.0000
vn 0.0001 -1.0000 -0.0000
vn -0.0003 -1.0000 -0.0000
vn -0.0001 -1.0000 -0.0000
vn -0.0000 -0.0000 1.0000
vn -0.0000 -0.0001 1.0000
vn -0.8986 0.3898 0.2016
vn -0.9165 0.3731 0.1445
vn -0.9266 0.3623 0.1002
vn 0.8160 -0.5779 0.0123
vn -0.8757 0.4179 0.2421
vn -0.8680 0.4601 0.1867
vn -0.8684 0.4619 0.1804
vn -0.8779 0.4669 0.1065
vn -0.9145 0.4014 0.0505
vn -0.9332 0.3560 0.0486
vn -0.9281 0.3605 0.0931
vn 0.8338 -0.5516 -0.0232
vn 1.0000 -0.0000 -0.0000
vn 0.8358 -0.5484 -0.0272
vn 0.8405 -0.5406 -0.0361
vn 0.8655 -0.4940 -0.0823
vn -0.8616 0.4702 0.1912
vn -0.8644 0.4662 0.1882
vn -0.7660 0.6094 0.2046
vn -0.7635 0.6156 0.1951
vn -0.7703 0.6203 0.1478
vn -0.7773 0.6129 0.1418
vn -0.8589 0.4743 0.1931
vn -0.9175 0.3952 0.0445
vn -0.7881 0.6076 0.0991
vn -0.8213 0.5683 0.0497
vn -0.9332 0.3591 0.0141
vn -0.9395 0.3426 0.0032
vn -0.9399 0.3415 0.0026
vn -0.9516 0.3058 -0.0313
vn -0.9524 0.3032 -0.0330
vn 0.8728 -0.4754 -0.1105
vn 0.9125 0.3440 0.2214
vn 0.8385 -0.5435 -0.0393
vn -0.0000 -0.0000 -1.0000
vn -0.8367 0.5002 0.2231
vn -0.7640 0.6013 0.2338
vn -0.7641 0.6005 0.2358
vn -0.7402 0.6163 0.2690
vn -0.6114 0.6063 0.5085
vn -0.5200 0.6542 0.5492
vn -0.4709 0.6916 0.5477
vn -0.4185 0.7669 0.4865
vn -0.3900 0.8826 0.2625
vn -0.4704 0.8519 0.2300
vn -0.6252 0.7630 0.1642
vn -0.7216 0.6819 0.1194
vn -0.7523 0.6471 0.1240
vn -0.7568 0.6408 0.1287
vn -0.6276 0.5967 0.5002
vn -0.7575 0.6414 0.1212
vn -0.8397 0.5429 0.0147
vn -0.7531 0.6463 0.1229
vn -0.7498 0.6516 0.1153
vn -0.7460 0.6636 0.0559
vn -0.7871 0.6168 0.0022
vn -0.8441 0.5361 0.0017
vn -0.9391 0.3425 -0.0265
vn -0.8577 0.5133 -0.0306
vn -0.9444 0.3262 -0.0412
vn -0.9480 0.3155 -0.0421
vn -0.9504 0.3033 -0.0696
vn -0.9451 0.3148 -0.0871
vn -0.9490 0.3061 -0.0758
vn -0.9501 0.3037 -0.0717
vn -0.5229 0.8369 0.1620
vn -0.5241 0.8364 0.1607
vn -0.4982 0.8613 0.1000
vn -0.6048 0.7964 -0.0000
vn -0.6047 0.7965 -0.0000
vn -0.6472 0.7623 -0.0000
vn -0.6486 0.7611 0.0009
vn -0.6920 0.7208 0.0408
vn -0.6939 0.7187 0.0437
vn -0.7210 0.6834 0.1148
vn -0.7350 0.6767 0.0434
vn -0.7356 0.6773 0.0117
vn -0.7861 0.6160 -0.0505
vn -0.8106 0.5693 -0.1376
vn -0.8787 0.4595 -0.1295
vn -0.8801 0.4583 -0.1239
vn -0.8794 0.4615 -0.1170
vn -0.9233 0.3687 -0.1079
vn -0.9285 0.3446 -0.1383
vn -0.9401 0.3245 -0.1043
vn -0.9603 0.2689 -0.0746
vn -0.4797 0.8668 -0.1358
vn -0.6140 0.7889 -0.0232
vn -0.6189 0.7852 -0.0202
vn -0.7195 0.6944 0.0127
vn -0.7353 0.6777 0.0116
vn -0.8068 0.5639 -0.1763
vn -0.8647 0.4550 -0.2128
vn -0.8167 0.5337 -0.2193
vn -0.8886 0.4378 -0.1370
vn -0.9178 0.3664 -0.1532
vn -0.9280 0.3454 -0.1400
vn -0.9105 0.3830 -0.1560
vn -0.4960 0.8581 -0.1327
vn -0.4978 0.8573 -0.1314
vn -0.5474 0.8331 -0.0796
s 0
f 1//1 2//1 6//1
f 1//2 6//2 14//2
f 1//3 14//3 29//3
f 1//4 29//4 50//4
f 1//3 50//3 54//3
f 1//2 54//2 34//2
f 1//2 34//2 18//2
f 1//5 18//5 15//5
f 1//2 15//2 7//2
f 1//2 7//2 3//2
f 1//6 3//6 8//6
f 1//6 8//6 17//6
f 1//6 17//6 33//6
f 1//6 33//6 39//6
f 1//6 39//6 38//6
f 1//7 38//7 37//7
f 1//6 37//6 36//6
f 1//6 36//6 35//6
f 1//6 35//6 20//6
f 1//6 20//6 9//6
f 1//6 9//6 4//6
f 1//8 4//8 5//8
f 1//9 5//9 2//9
f 2//10 5//10 6//10
f 3//11 7//11 8//11
f 4//12 9//12 5//12
f 5//13 9//13 10//13
f 5//14 10//14 11//14
f 5//15 11//15 12//15
f 5//16 12//16 13//16
f 5//17 13//17 14//17
f 5//18 14//18 6//18
f 7//19 15//19 8//19
f 8//20 16//20 31//20
f 8//20 31//20 53//20
f 8//20 53//20 67//20
f 8//20 67//20 68//20
f 8//20 68//20 56//20
f 8//20 56//20 55//20
f 8//20 55//20 40//20
f 8//20 40//20 32//20
f 8//20 32//20 17//20
f 8//21 15//21 18//21
f 8//22 18//22 19//22
f 8//23 19//23 16//23
f 9//24 20//24 11//24
f 9//25 11//25 10//25
f 11//26 21//26 22//26
f 11//27 22//27 23//27
f 11//28 23//28 24//28
f 11//29 24//29 12//29
f 11//30 20//30 21//30
f 12//31 25//31 13//31
f 12//32 24//32 26//32
f 12//33 26//33 25//33
f 13//34 25//34 27//34
f 13//35 27//35 28//35
f 13//36 28//36 14//36
f 14//37 28//37 30//37
f 14//38 30//38 29//38
f 16//39 19//39 31//39
f 17//40 32//40 33//40
f 18//41 34//41 19//41
f 19//42 34//42 54//42
f 19//42 54//42 52//42
f 19//42 52//42 51//42
f 19//42 51//42 65//42
f 19//42 65//42 75//42
f 19//42 75//42 74//42
f 19//42 74//42 73//42
f 19//42 73//42 63//42
f 19//42 63//42 72//42
f 19//42 72//42 71//42
f 19//42 71//42 61//42
f 19//42 61//42 70//42
f 19//42 70//42 59//42
f 19//42 59//42 58//42
f 19//42 58//42 69//42
f 19//42 69//42 76//42
f 19//42 76//42 66//42
f 19//42 66//42 53//42
f 19//42 53//42 31//42
f 20//43 35//43 21//43
f 21//44 36//44 22//44
f 21//45 35//45 36//45
f 22//46 36//46 23//46
f 23//47 37//47 38//47
f 23//48 38//48 39//48
f 23//49 39//49 33//49
f 23//50 33//50 32//50
f 23//51 32//51 40//51
f 23//52 40//52 41//52
f 23//53 41//53 42//53
f 23//54 42//54 43//54
f 23//55 43//55 44//55
f 23//56 44//56 24//56
f 23//57 36//57 37//57
f 24//58 44//58 26//58
f 25//59 26//59 27//59
f 26//60 44//60 43//60
f 26//61 43//61 45//61
f 26//62 45//62 46//62
f 26//63 46//63 47//63
f 26//64 47//64 27//64
f 27//65 48//65 28//65
f 27//66 47//66 48//66
f 28//67 48//67 49//67
f 28//68 49//68 30//68
f 29//69 30//69 50//69
f 30//70 49//70 51//70
f 30//71 51//71 52//71
f 30//72 52//72 50//72
f 40//73 55//73 41//73
f 41//74 55//74 42//74
f 42//75 55//75 56//75
f 42//76 56//76 68//76
f 42//77 68//77 57//77
f 42//78 57//78 58//78
f 42//79 58//79 59//79
f 42//80 59//80 60//80
f 42//81 60//81 45//81
f 42//82 45//82 43//82
f 45//83 60//83 46//83
f 46//84 60//84 61//84
f 46//85 61//85 47//85
f 47//86 61//86 62//86
f 47//87 62//87 63//87
f 47//88 63//88 64//88
f 47//89 64//89 48//89
f 48//90 64//90 49//90
f 49//91 64//91 65//91
f 49//92 65//92 51//92
f 50//93 52//93 54//93
f 53//94 66//94 67//94
f 57//95 68//95 69//95
f 57//96 69//96 58//96
f 59//97 70//97 60//97
f 60//98 70//98 61//98
f 61//99 71//99 62//99
f 62//100 72//100 63//100
f 62//101 71//101 72//101
f 63//102 73//102 64//102
f 64//103 74//103 75//103
f 64//104 75//104 65//104
f 64//105 73//105 74//105
f 66//106 76//106 67//106
f 67//107 76//107 69//107
f 67//108 69//108 68//108
