# Blender 4.1.0
# www.blender.org
mtllib convex_31.mtl
o convex_31
v 0.197171 -0.392291 -0.106772
v 0.214958 -0.395625 -0.106772
v 0.197171 -0.384543 -0.106772
v 0.197171 -0.393257 -0.108112
v 0.216418 -0.395890 -0.106772
v 0.199417 -0.384077 -0.106772
v 0.203549 -0.383156 -0.110306
v 0.203549 -0.383156 -0.110385
v 0.201751 -0.384137 -0.112183
v 0.197171 -0.386171 -0.112526
v 0.197171 -0.395860 -0.112508
v 0.220473 -0.396549 -0.106772
v 0.201569 -0.384170 -0.106772
v 0.203699 -0.383156 -0.110306
v 0.224045 -0.383111 -0.114183
v 0.224045 -0.383111 -0.114992
v 0.221620 -0.383123 -0.114961
v 0.210415 -0.385852 -0.121691
v 0.206815 -0.387390 -0.124517
v 0.198715 -0.392065 -0.133287
v 0.197171 -0.392646 -0.131907
v 0.197171 -0.413849 -0.151679
v 0.221030 -0.396549 -0.106772
v 0.203677 -0.384294 -0.106772
v 0.224045 -0.383578 -0.111910
v 0.226458 -0.383141 -0.114346
v 0.226458 -0.383141 -0.114948
v 0.217798 -0.387648 -0.128671
v 0.216476 -0.387648 -0.128671
v 0.213451 -0.387880 -0.128263
v 0.219498 -0.391740 -0.138826
v 0.219498 -0.392760 -0.141098
v 0.214958 -0.395195 -0.144188
v 0.210415 -0.395727 -0.143665
v 0.197171 -0.396118 -0.138751
v 0.197171 -0.393675 -0.134869
v 0.197171 -0.406429 -0.151679
v 0.234358 -0.404176 -0.151679
v 0.233076 -0.394545 -0.106772
v 0.223204 -0.396266 -0.106772
v 0.205624 -0.384462 -0.106772
v 0.234358 -0.386944 -0.108785
v 0.228220 -0.384092 -0.112741
v 0.234358 -0.385599 -0.117247
v 0.234358 -0.385690 -0.112605
v 0.233131 -0.385271 -0.117150
v 0.234358 -0.385951 -0.118724
v 0.234358 -0.387098 -0.122882
v 0.234358 -0.391100 -0.136069
v 0.234358 -0.391909 -0.138408
v 0.233131 -0.391867 -0.138518
v 0.219498 -0.390311 -0.135318
v 0.223036 -0.391716 -0.138681
v 0.228588 -0.395884 -0.148285
v 0.224045 -0.396100 -0.147784
v 0.224045 -0.398423 -0.151679
v 0.222163 -0.398781 -0.151679
v 0.219268 -0.399356 -0.151679
v 0.217521 -0.399705 -0.151679
v 0.210415 -0.397403 -0.145938
v 0.212381 -0.401236 -0.151679
v 0.197171 -0.405969 -0.151147
v 0.234358 -0.394193 -0.106772
v 0.233462 -0.394439 -0.106772
v 0.234358 -0.398146 -0.151679
v 0.234358 -0.388325 -0.106772
v 0.234358 -0.396112 -0.148079
v 0.233131 -0.396076 -0.148175
v 0.233131 -0.397358 -0.150448
v 0.234358 -0.397899 -0.151270
v 0.233131 -0.398107 -0.151679
v 0.230317 -0.398068 -0.151679
v 0.228588 -0.398065 -0.151679
vn -0.0000 -0.0015 1.0000
vn -0.0000 0.0001 1.0000
vn -0.0000 -0.0000 1.0000
vn -1.0000 -0.0000 -0.0000
vn -1.0000 -0.0000 0.0002
vn -0.1503 -0.8020 0.5781
vn -0.1509 -0.8319 0.5341
vn -0.2031 0.9790 0.0176
vn -0.2124 0.9772 -0.0000
vn -0.3125 0.9297 -0.1948
vn -0.3769 0.8913 -0.2522
vn -0.1514 -0.8505 0.5036
vn -0.1415 -0.8710 0.4704
vn 0.0412 0.9535 0.2984
vn -0.0000 0.9677 0.2522
vn -0.0000 0.9999 0.0116
vn -0.0022 1.0000 -0.0000
vn -0.0023 1.0000 -0.0000
vn -0.0051 0.9999 -0.0130
vn -0.0706 0.9598 -0.2717
vn -0.1522 0.9365 -0.3158
vn -0.1856 0.9287 -0.3211
vn -0.1874 0.9281 -0.3217
vn -0.3723 0.8852 -0.2790
vn -0.5391 0.7988 -0.2669
vn -0.1285 -0.9012 0.4139
vn -0.0000 -0.9332 0.3595
vn 0.0550 0.9357 0.3486
vn 0.0434 0.9531 0.2996
vn 0.0370 0.9766 0.2118
vn 0.0203 0.9928 0.1182
vn 0.0124 0.9999 -0.0000
vn 0.0125 0.9999 -0.0000
vn 0.0177 0.9466 -0.3220
vn -0.0000 0.9492 -0.3148
vn -0.0087 0.9505 -0.3105
vn -0.0558 0.9542 -0.2940
vn -0.1177 0.9323 -0.3420
vn -0.1262 0.9300 -0.3453
vn -0.1375 0.9212 -0.3641
vn -0.1225 0.9054 -0.4065
vn -0.1473 0.8705 -0.4695
vn -0.1564 0.8628 -0.4808
vn -0.2240 0.8120 -0.5390
vn -0.3192 0.8021 -0.5048
vn -0.5443 0.7925 -0.2753
vn -0.1233 0.9098 -0.3964
vn -0.1213 0.9076 -0.4018
vn -0.0000 -0.0000 -1.0000
vn 0.2461 -0.9462 0.2100
vn 0.1651 -0.9471 0.2751
vn 0.1232 -0.9462 0.2991
vn 0.0775 0.8983 0.4325
vn 0.1099 0.8359 0.5378
vn 0.1855 0.9108 0.3688
vn 0.1821 0.9206 0.3455
vn 0.2971 0.9548 -0.0000
vn 0.2350 0.9273 0.2915
vn 0.3033 0.9527 0.0187
vn 0.2387 0.9510 -0.1967
vn 0.2250 0.9460 -0.2333
vn 0.2109 0.9423 -0.2599
vn 0.1844 0.9405 -0.2854
vn 0.0779 0.9422 -0.3259
vn 0.0619 0.9416 -0.3311
vn 0.0430 0.9408 -0.3361
vn 0.0199 0.9298 -0.3674
vn -0.0000 0.9283 -0.3719
vn -0.0137 0.9260 -0.3772
vn 0.0092 0.9261 -0.3772
vn 0.0099 0.9194 -0.3933
vn -0.0103 0.9122 -0.4095
vn -0.0957 0.8629 -0.4962
vn -0.1148 0.8553 -0.5053
vn -0.1164 0.8530 -0.5087
vn -0.1567 0.8237 -0.5450
vn -0.1592 0.8221 -0.5467
vn -0.1627 0.8189 -0.5505
vn -0.1634 0.8183 -0.5511
vn -0.2137 0.7863 -0.5798
vn -0.2370 0.7819 -0.5765
vn -0.2489 0.7640 -0.5953
vn -0.2565 0.7567 -0.6013
vn -0.2501 0.7324 -0.6333
vn 0.2588 -0.9429 0.2096
vn 0.2590 -0.9429 0.2096
vn 1.0000 -0.0000 -0.0000
vn 0.1102 0.8196 0.5623
vn 0.2338 0.9238 0.3032
vn 0.2349 0.9455 -0.2254
vn 0.0669 0.9151 -0.3977
vn 0.0581 0.9152 -0.3989
vn 0.0484 0.9156 -0.3991
vn 0.0200 0.9213 -0.3883
vn 0.0198 0.9298 -0.3676
vn 0.0486 0.8700 -0.4907
vn 0.0329 0.8567 -0.5148
vn 0.0315 0.8556 -0.5167
vn 0.0271 0.8525 -0.5221
vn 0.0117 0.8436 -0.5369
vn 0.0014 0.8413 -0.5406
vn -0.0661 0.8394 -0.5394
vn -0.0969 0.8548 -0.5098
vn -0.2297 0.7713 -0.5936
vn 0.0637 0.8707 -0.4876
vn 0.0548 0.8697 -0.4905
s 0
f 1//1 2//1 5//1
f 1//2 5//2 12//2
f 1//3 12//3 23//3
f 1//3 23//3 40//3
f 1//3 40//3 39//3
f 1//3 39//3 64//3
f 1//3 64//3 63//3
f 1//3 63//3 66//3
f 1//3 66//3 41//3
f 1//3 41//3 24//3
f 1//3 24//3 13//3
f 1//3 13//3 6//3
f 1//3 6//3 3//3
f 1//4 3//4 10//4
f 1//4 10//4 21//4
f 1//4 21//4 36//4
f 1//4 36//4 35//4
f 1//4 35//4 62//4
f 1//4 62//4 37//4
f 1//4 37//4 22//4
f 1//4 22//4 11//4
f 1//5 11//5 4//5
f 1//6 4//6 2//6
f 2//7 4//7 5//7
f 3//8 6//8 7//8
f 3//9 7//9 8//9
f 3//10 8//10 9//10
f 3//11 9//11 10//11
f 4//12 11//12 5//12
f 5//13 11//13 12//13
f 6//14 13//14 14//14
f 6//15 14//15 7//15
f 7//16 14//16 15//16
f 7//17 15//17 16//17
f 7//18 16//18 8//18
f 8//19 16//19 17//19
f 8//20 17//20 18//20
f 8//21 18//21 19//21
f 8//22 19//22 9//22
f 9//23 19//23 20//23
f 9//24 20//24 10//24
f 10//25 20//25 21//25
f 11//26 22//26 12//26
f 12//27 22//27 23//27
f 13//28 24//28 25//28
f 13//29 25//29 14//29
f 14//30 25//30 26//30
f 14//31 26//31 15//31
f 15//32 26//32 27//32
f 15//33 27//33 16//33
f 16//34 27//34 28//34
f 16//35 28//35 29//35
f 16//36 29//36 17//36
f 17//37 29//37 18//37
f 18//38 29//38 30//38
f 18//39 30//39 19//39
f 19//40 30//40 20//40
f 20//41 31//41 32//41
f 20//42 32//42 33//42
f 20//43 33//43 34//43
f 20//44 34//44 35//44
f 20//45 35//45 36//45
f 20//46 36//46 21//46
f 20//47 30//47 29//47
f 20//48 29//48 31//48
f 22//49 37//49 61//49
f 22//49 61//49 59//49
f 22//49 59//49 58//49
f 22//49 58//49 57//49
f 22//49 57//49 56//49
f 22//49 56//49 73//49
f 22//49 73//49 72//49
f 22//49 72//49 71//49
f 22//49 71//49 65//49
f 22//49 65//49 38//49
f 22//50 38//50 39//50
f 22//51 39//51 40//51
f 22//52 40//52 23//52
f 24//53 41//53 25//53
f 25//54 41//54 42//54
f 25//55 42//55 43//55
f 25//56 43//56 26//56
f 26//57 44//57 27//57
f 26//58 43//58 45//58
f 26//59 45//59 44//59
f 27//60 44//60 46//60
f 27//61 46//61 47//61
f 27//62 47//62 48//62
f 27//63 48//63 49//63
f 27//64 49//64 50//64
f 27//65 50//65 51//65
f 27//66 51//66 28//66
f 28//67 51//67 52//67
f 28//68 52//68 29//68
f 29//69 52//69 31//69
f 31//70 52//70 53//70
f 31//71 53//71 54//71
f 31//72 54//72 32//72
f 32//73 54//73 55//73
f 32//74 55//74 33//74
f 33//75 55//75 56//75
f 33//76 56//76 57//76
f 33//77 57//77 34//77
f 34//78 57//78 58//78
f 34//79 58//79 59//79
f 34//80 59//80 60//80
f 34//81 60//81 35//81
f 35//82 60//82 61//82
f 35//83 61//83 62//83
f 37//84 62//84 61//84
f 38//85 63//85 64//85
f 38//86 64//86 39//86
f 38//87 65//87 70//87
f 38//87 70//87 67//87
f 38//87 67//87 50//87
f 38//87 50//87 49//87
f 38//87 49//87 48//87
f 38//87 48//87 47//87
f 38//87 47//87 44//87
f 38//87 44//87 45//87
f 38//87 45//87 42//87
f 38//87 42//87 66//87
f 38//87 66//87 63//87
f 41//88 66//88 42//88
f 42//89 45//89 43//89
f 44//90 47//90 46//90
f 50//91 67//91 51//91
f 51//92 67//92 68//92
f 51//93 68//93 54//93
f 51//94 54//94 53//94
f 51//95 53//95 52//95
f 54//96 68//96 69//96
f 54//97 69//97 70//97
f 54//98 70//98 65//98
f 54//99 65//99 71//99
f 54//100 71//100 72//100
f 54//101 72//101 73//101
f 54//102 73//102 56//102
f 54//103 56//103 55//103
f 59//104 61//104 60//104
f 67//105 70//105 68//105
f 68//106 70//106 69//106
