# Blender 4.1.0
# www.blender.org
mtllib convex_134.mtl
o convex_134
v -0.079320 -0.396604 -0.095769
v -0.079320 -0.386977 -0.091586
v -0.079320 -0.396604 -0.104719
v -0.071768 -0.396604 -0.091933
v -0.074228 -0.383574 -0.087322
v -0.079320 -0.385060 -0.090792
v -0.079320 -0.376509 -0.103013
v -0.045543 -0.386986 -0.105966
v -0.045543 -0.388100 -0.105945
v -0.045543 -0.388943 -0.105496
v -0.045543 -0.396604 -0.100235
v -0.070534 -0.396604 -0.091415
v -0.068375 -0.396604 -0.090817
v -0.066775 -0.396604 -0.090462
v -0.064305 -0.396604 -0.089984
v -0.071318 -0.384068 -0.086977
v -0.071318 -0.380899 -0.086274
v -0.074330 -0.380899 -0.087158
v -0.079320 -0.383906 -0.090676
v -0.079320 -0.372546 -0.102213
v -0.045543 -0.372546 -0.097928
v -0.045543 -0.396604 -0.093072
v -0.059765 -0.396604 -0.089634
v -0.057688 -0.394529 -0.088945
v -0.066775 -0.380899 -0.086285
v -0.066775 -0.376353 -0.086551
v -0.071196 -0.376365 -0.086939
v -0.073940 -0.377887 -0.087295
v -0.079320 -0.381254 -0.090994
v -0.079320 -0.372546 -0.092999
v -0.045543 -0.372546 -0.091742
v -0.045543 -0.393889 -0.092452
v -0.046152 -0.393418 -0.092070
v -0.053225 -0.396604 -0.090838
v -0.057688 -0.396604 -0.089585
v -0.053145 -0.389984 -0.089223
v -0.055139 -0.383614 -0.087488
v -0.057688 -0.383993 -0.087168
v -0.062235 -0.380899 -0.086499
v -0.066775 -0.373071 -0.087247
v -0.069602 -0.373165 -0.087428
v -0.062235 -0.376353 -0.086815
v -0.062235 -0.373563 -0.087363
v -0.071196 -0.372546 -0.087850
v -0.070283 -0.372546 -0.087692
v -0.071576 -0.372546 -0.088036
v -0.075941 -0.372546 -0.090356
v -0.045543 -0.380899 -0.091093
v -0.048589 -0.372546 -0.090780
v -0.055139 -0.382305 -0.087488
v -0.048602 -0.380899 -0.089946
v -0.045543 -0.384111 -0.091366
v -0.057391 -0.380835 -0.087000
v -0.059338 -0.372546 -0.088024
v -0.065436 -0.372546 -0.087581
v -0.066775 -0.372546 -0.087511
v -0.058955 -0.376353 -0.087270
v -0.059874 -0.373822 -0.087582
v -0.058548 -0.372546 -0.088122
v -0.053717 -0.372546 -0.089383
vn -1.0000 -0.0000 -0.0001
vn -1.0000 -0.0000 -0.0000
vn -0.0000 -1.0000 -0.0000
vn -0.0001 -1.0000 -0.0000
vn -0.4203 -0.3722 0.8275
vn -0.4484 -0.3562 0.8198
vn -0.4598 -0.3399 0.8204
vn -0.0608 0.0844 -0.9946
vn -0.0315 -0.0188 -0.9993
vn 0.0860 -0.4684 -0.8793
vn 0.1088 -0.5627 -0.8194
vn -0.3599 -0.3709 0.8561
vn -0.2495 -0.3538 0.9014
vn -0.2037 -0.3379 0.9189
vn -0.1796 -0.3264 0.9280
vn -0.1645 -0.3161 0.9343
vn -0.1508 -0.2142 0.9651
vn -0.2811 -0.0694 0.9572
vn -0.5454 -0.0721 0.8351
vn -0.5443 -0.0837 0.8347
vn -0.0243 0.1978 -0.9799
vn 1.0000 -0.0000 -0.0000
vn 0.1102 0.4834 -0.8684
vn -0.0741 -0.2716 0.9595
vn -0.0601 -0.2596 0.9639
vn -0.0254 -0.2166 0.9759
vn 0.0025 0.0584 0.9983
vn -0.0868 0.1469 0.9853
vn -0.2074 0.1474 0.9671
vn -0.2809 0.0799 0.9564
vn 0.0025 -0.1900 0.9818
vn -0.6106 0.1147 0.7836
vn -0.6110 0.0943 0.7860
vn -0.0000 1.0000 -0.0000
vn 0.0001 1.0000 -0.0000
vn 0.4019 -0.2041 0.8927
vn 0.2753 -0.2403 0.9309
vn 0.2693 -0.2653 0.9258
vn -0.0222 -0.2947 0.9553
vn 0.2591 -0.2847 0.9230
vn 0.2746 -0.2173 0.9367
vn 0.2420 -0.1837 0.9527
vn 0.1468 -0.1645 0.9754
vn 0.0391 -0.1662 0.9853
vn 0.0466 -0.1452 0.9883
vn 0.0470 0.0583 0.9972
vn -0.0694 0.2069 0.9759
vn -0.0862 0.1925 0.9775
vn 0.0579 0.0692 0.9959
vn 0.0570 0.1922 0.9797
vn 0.0473 0.2072 0.9772
vn -0.2472 0.2250 0.9425
vn -0.1643 0.2286 0.9596
vn -0.1661 0.2290 0.9592
vn -0.4170 0.3033 0.8568
vn -0.4458 0.3135 0.8384
vn -0.6016 0.2155 0.7692
vn -0.6296 0.1743 0.7571
vn 0.2991 0.1187 0.9468
vn 0.3359 0.0789 0.9386
vn 0.3502 0.0726 0.9339
vn 0.4738 -0.0971 0.8753
vn 0.3689 -0.0940 0.9247
vn 0.3034 -0.1608 0.9392
vn 0.2116 -0.0000 0.9773
vn 0.1338 -0.0651 0.9889
vn 0.3701 -0.0789 0.9257
vn 0.3517 -0.0000 0.9361
vn 0.1035 -0.0625 0.9927
vn 0.1018 0.0690 0.9924
vn 0.0669 0.4029 0.9128
vn 0.0662 0.4093 0.9100
vn 0.0462 0.4489 0.8924
vn -0.0461 0.4489 0.8924
vn -0.0712 0.3241 0.9433
vn 0.1366 0.1069 0.9848
vn 0.1354 0.1696 0.9762
vn 0.1118 0.1913 0.9751
vn 0.1193 0.2790 0.9528
vn 0.1184 0.2818 0.9522
vn 0.3511 0.0041 0.9363
vn 0.2590 0.1712 0.9506
vn 0.2671 0.1505 0.9519
vn 0.2882 0.1267 0.9491
vn 0.2050 0.1929 0.9596
vn 0.2481 0.1863 0.9507
s 0
f 1//1 2//1 6//1
f 1//2 6//2 19//2
f 1//2 19//2 29//2
f 1//2 29//2 30//2
f 1//2 30//2 20//2
f 1//2 20//2 7//2
f 1//2 7//2 3//2
f 1//3 3//3 11//3
f 1//3 11//3 22//3
f 1//3 22//3 34//3
f 1//3 34//3 35//3
f 1//3 35//3 23//3
f 1//3 23//3 15//3
f 1//3 15//3 14//3
f 1//3 14//3 13//3
f 1//3 13//3 12//3
f 1//4 12//4 4//4
f 1//5 4//5 5//5
f 1//6 5//6 2//6
f 2//7 5//7 6//7
f 3//8 7//8 8//8
f 3//9 8//9 9//9
f 3//10 9//10 10//10
f 3//11 10//11 11//11
f 4//12 12//12 5//12
f 5//13 12//13 13//13
f 5//14 13//14 14//14
f 5//15 14//15 15//15
f 5//16 15//16 16//16
f 5//17 16//17 17//17
f 5//18 17//18 18//18
f 5//19 18//19 19//19
f 5//20 19//20 6//20
f 7//21 20//21 8//21
f 8//22 21//22 31//22
f 8//22 31//22 48//22
f 8//22 48//22 52//22
f 8//22 52//22 32//22
f 8//22 32//22 22//22
f 8//22 22//22 11//22
f 8//22 11//22 10//22
f 8//22 10//22 9//22
f 8//23 20//23 21//23
f 15//24 23//24 16//24
f 16//25 23//25 24//25
f 16//26 24//26 17//26
f 17//27 25//27 26//27
f 17//28 26//28 27//28
f 17//29 27//29 28//29
f 17//30 28//30 18//30
f 17//31 24//31 25//31
f 18//32 28//32 29//32
f 18//33 29//33 19//33
f 20//34 30//34 47//34
f 20//34 47//34 46//34
f 20//35 46//35 44//35
f 20//34 44//34 45//34
f 20//34 45//34 56//34
f 20//34 56//34 55//34
f 20//34 55//34 54//34
f 20//34 54//34 59//34
f 20//34 59//34 60//34
f 20//34 60//34 49//34
f 20//34 49//34 31//34
f 20//34 31//34 21//34
f 22//36 32//36 33//36
f 22//37 33//37 24//37
f 22//38 24//38 34//38
f 23//39 35//39 24//39
f 24//40 35//40 34//40
f 24//41 33//41 36//41
f 24//42 36//42 37//42
f 24//43 37//43 38//43
f 24//44 38//44 25//44
f 25//45 38//45 39//45
f 25//46 39//46 26//46
f 26//47 40//47 41//47
f 26//48 41//48 27//48
f 26//49 39//49 42//49
f 26//50 42//50 43//50
f 26//51 43//51 40//51
f 27//52 44//52 28//52
f 27//53 41//53 45//53
f 27//54 45//54 44//54
f 28//55 44//55 46//55
f 28//56 46//56 47//56
f 28//57 47//57 30//57
f 28//58 30//58 29//58
f 31//59 49//59 50//59
f 31//60 50//60 51//60
f 31//61 51//61 48//61
f 32//62 52//62 33//62
f 33//63 52//63 37//63
f 33//64 37//64 36//64
f 37//65 50//65 53//65
f 37//66 53//66 38//66
f 37//67 52//67 48//67
f 37//68 48//68 50//68
f 38//69 53//69 39//69
f 39//70 53//70 42//70
f 40//71 43//71 54//71
f 40//72 54//72 55//72
f 40//73 55//73 56//73
f 40//74 56//74 45//74
f 40//75 45//75 41//75
f 42//76 53//76 57//76
f 42//77 57//77 58//77
f 42//78 58//78 43//78
f 43//79 58//79 59//79
f 43//80 59//80 54//80
f 48//81 51//81 50//81
f 49//82 60//82 57//82
f 49//83 57//83 53//83
f 49//84 53//84 50//84
f 57//85 59//85 58//85
f 57//86 60//86 59//86
