# Blender 4.1.0
# www.blender.org
mtllib convex_43.mtl
o convex_43
v 0.113223 -0.444588 0.074693
v 0.113223 -0.437374 0.074693
v 0.092793 -0.443255 0.074693
v 0.103086 -0.474203 0.035187
v 0.104018 -0.474203 0.035187
v 0.105484 -0.475557 0.033273
v 0.113223 -0.460962 0.050243
v 0.113223 -0.437291 0.073703
v 0.110441 -0.436287 0.073703
v 0.110341 -0.436483 0.074693
v 0.092793 -0.436995 0.074693
v 0.092793 -0.461428 0.050612
v 0.092793 -0.469246 0.033273
v 0.102682 -0.474353 0.033273
v 0.105722 -0.471979 0.033273
v 0.113223 -0.458075 0.046768
v 0.113223 -0.460616 0.047550
v 0.113223 -0.461003 0.047708
v 0.113223 -0.461066 0.048937
v 0.113223 -0.437345 0.069158
v 0.110441 -0.436278 0.069158
v 0.099522 -0.433009 0.055526
v 0.099460 -0.433080 0.057971
v 0.105898 -0.435745 0.073703
v 0.105988 -0.435991 0.074693
v 0.095824 -0.436433 0.074693
v 0.098950 -0.433080 0.057971
v 0.098730 -0.433009 0.055526
v 0.098744 -0.433038 0.053045
v 0.092793 -0.437066 0.073375
v 0.092793 -0.466726 0.033273
v 0.113223 -0.454022 0.047656
v 0.092999 -0.466810 0.033273
v 0.105484 -0.449095 0.043256
v 0.108713 -0.450632 0.043633
v 0.113223 -0.437582 0.066668
v 0.099292 -0.433038 0.053045
v 0.100368 -0.436029 0.074693
v 0.105050 -0.435979 0.074693
v 0.094083 -0.441393 0.048321
v 0.094348 -0.437316 0.052740
v 0.103300 -0.446758 0.044132
v 0.092793 -0.437170 0.072491
v 0.103692 -0.446758 0.044132
v 0.092793 -0.442755 0.049472
v 0.113223 -0.449116 0.049736
v 0.113223 -0.445579 0.051816
v 0.113223 -0.437811 0.064917
v 0.113223 -0.439911 0.060096
v 0.113223 -0.442660 0.056004
v 0.092793 -0.441193 0.051098
v 0.093447 -0.439915 0.051131
v 0.092793 -0.439690 0.055798
v 0.092793 -0.439656 0.055968
v 0.092793 -0.440577 0.052059
vn -0.0000 -0.0000 1.0000
vn -0.0517 -0.7927 0.6075
vn -0.0000 -0.8001 0.5998
vn 0.0339 -0.8035 0.5944
vn 0.3277 -0.7850 0.5257
vn 1.0000 -0.0000 -0.0000
vn 0.3384 0.9377 0.0787
vn 0.2885 0.9332 0.2140
vn -1.0000 -0.0000 -0.0000
vn -0.0877 -0.7951 0.6001
vn -0.4526 -0.8765 0.1642
vn -0.3901 -0.9079 0.1535
vn -0.0000 -0.8164 0.5775
vn -0.4582 -0.8103 0.3654
vn -0.0000 -0.0000 -1.0000
vn 0.8973 -0.0597 -0.4373
vn 0.9190 -0.1160 -0.3767
vn 0.9252 -0.1435 -0.3513
vn 0.8920 -0.4514 -0.0231
vn 0.8627 -0.5041 0.0402
vn 0.3581 0.9336 -0.0111
vn 0.3395 0.9406 0.0019
vn 0.2846 0.9586 0.0019
vn 0.2348 0.9715 0.0342
vn 0.1176 0.9859 0.1189
vn 0.1159 0.9720 0.2043
vn 0.1093 0.9669 0.2305
vn -0.1799 0.9704 0.1610
vn -0.4077 0.9109 0.0631
vn -0.5854 0.8106 -0.0128
vn -0.6519 0.7572 -0.0408
vn 0.8058 0.1267 -0.5785
vn 0.1609 0.3960 -0.9040
vn 0.2860 0.3856 -0.8772
vn 0.7340 0.2105 -0.6457
vn 0.3852 0.9187 -0.0875
vn 0.3575 0.9320 -0.0599
vn 0.3343 0.9415 -0.0420
vn -0.0000 0.9999 -0.0117
vn -0.0000 0.9996 0.0290
vn -0.0000 0.9860 0.1670
vn -0.0192 0.9843 0.1752
vn -0.0104 0.9751 0.2217
vn 0.0124 0.9706 0.2402
vn -0.0871 0.9798 0.1802
vn -0.5678 0.6218 -0.5394
vn -0.6940 0.7174 -0.0610
vn -0.0000 0.5448 -0.8386
vn -0.0000 0.5447 -0.8386
vn -0.0802 0.5241 -0.8479
vn -0.8116 0.5801 -0.0683
vn -0.0000 0.4777 -0.8785
vn 0.1156 0.4251 -0.8977
vn 0.1614 0.3957 -0.9041
vn -0.7995 0.3363 -0.4977
vn -0.0902 0.5120 -0.8542
vn 0.7443 0.2607 -0.6148
vn 0.3513 0.5527 -0.7558
vn 0.3815 0.5865 -0.7145
vn 0.4839 0.5999 -0.6372
vn 0.7057 0.3592 -0.6108
vn 0.4105 0.9042 -0.1182
vn 0.5476 0.7671 -0.3341
vn 0.5689 0.6826 -0.4587
vn 0.5669 0.6759 -0.4710
vn -0.8097 0.4232 -0.4065
vn -0.8092 0.4243 -0.4063
vn -0.7274 0.5257 -0.4411
vn -0.8831 0.4601 -0.0918
vn -0.8737 0.4811 -0.0724
vn -0.8465 0.4599 -0.2682
vn -0.8887 0.4461 -0.1058
vn -0.8507 0.4425 -0.2836
s 0
f 1//1 2//1 10//1
f 1//1 10//1 25//1
f 1//1 25//1 39//1
f 1//1 39//1 38//1
f 1//1 38//1 26//1
f 1//1 26//1 11//1
f 1//1 11//1 3//1
f 1//2 3//2 4//2
f 1//3 4//3 5//3
f 1//4 5//4 6//4
f 1//5 6//5 7//5
f 1//6 7//6 19//6
f 1//6 19//6 18//6
f 1//6 18//6 17//6
f 1//6 17//6 16//6
f 1//6 16//6 32//6
f 1//6 32//6 46//6
f 1//6 46//6 47//6
f 1//6 47//6 50//6
f 1//6 50//6 49//6
f 1//6 49//6 48//6
f 1//6 48//6 36//6
f 1//6 36//6 20//6
f 1//6 20//6 8//6
f 1//6 8//6 2//6
f 2//7 8//7 9//7
f 2//8 9//8 10//8
f 3//9 11//9 30//9
f 3//9 30//9 43//9
f 3//9 43//9 54//9
f 3//9 54//9 53//9
f 3//9 53//9 55//9
f 3//9 55//9 51//9
f 3//9 51//9 45//9
f 3//9 45//9 31//9
f 3//9 31//9 13//9
f 3//9 13//9 12//9
f 3//10 12//10 4//10
f 4//11 13//11 14//11
f 4//12 14//12 6//12
f 4//13 6//13 5//13
f 4//14 12//14 13//14
f 6//15 14//15 13//15
f 6//15 13//15 31//15
f 6//15 31//15 33//15
f 6//15 33//15 15//15
f 6//16 15//16 16//16
f 6//17 16//17 17//17
f 6//18 17//18 18//18
f 6//19 18//19 19//19
f 6//20 19//20 7//20
f 8//21 20//21 21//21
f 8//22 21//22 9//22
f 9//23 21//23 22//23
f 9//24 22//24 23//24
f 9//25 23//25 24//25
f 9//26 24//26 10//26
f 10//27 24//27 25//27
f 11//28 26//28 27//28
f 11//29 27//29 28//29
f 11//30 28//30 29//30
f 11//31 29//31 30//31
f 15//32 32//32 16//32
f 15//33 33//33 34//33
f 15//34 34//34 35//34
f 15//35 35//35 32//35
f 20//36 36//36 37//36
f 20//37 37//37 21//37
f 21//38 37//38 22//38
f 22//39 37//39 29//39
f 22//39 29//39 28//39
f 22//40 28//40 27//40
f 22//40 27//40 23//40
f 23//41 27//41 24//41
f 24//42 27//42 38//42
f 24//43 38//43 39//43
f 24//44 39//44 25//44
f 26//45 38//45 27//45
f 29//46 40//46 41//46
f 29//47 41//47 30//47
f 29//48 37//48 44//48
f 29//49 44//49 42//49
f 29//50 42//50 40//50
f 30//51 41//51 43//51
f 31//52 42//52 44//52
f 31//53 44//53 34//53
f 31//54 34//54 33//54
f 31//55 45//55 40//55
f 31//56 40//56 42//56
f 32//57 35//57 46//57
f 34//58 44//58 35//58
f 35//59 44//59 37//59
f 35//60 37//60 47//60
f 35//61 47//61 46//61
f 36//62 48//62 37//62
f 37//63 48//63 49//63
f 37//64 49//64 50//64
f 37//65 50//65 47//65
f 40//66 45//66 51//66
f 40//67 51//67 52//67
f 40//68 52//68 41//68
f 41//69 53//69 54//69
f 41//70 54//70 43//70
f 41//71 52//71 55//71
f 41//72 55//72 53//72
f 51//73 55//73 52//73
