# Blender 4.1.0
# www.blender.org
mtllib convex_8.mtl
o convex_8
v 0.203181 -0.404112 -0.012162
v 0.201869 -0.404153 -0.012162
v 0.203181 -0.405462 -0.010376
v 0.203181 -0.421387 -0.012162
v 0.192231 -0.408774 -0.012162
v 0.203181 -0.443377 0.020366
v 0.203181 -0.464087 0.022678
v 0.203077 -0.464087 0.022596
v 0.194928 -0.464087 0.016607
v 0.159449 -0.456612 -0.011045
v 0.160554 -0.454134 -0.012162
v 0.163225 -0.447229 -0.001650
v 0.171177 -0.446318 0.003778
v 0.176691 -0.456406 0.016681
v 0.189933 -0.446765 0.016925
v 0.154646 -0.444463 -0.012162
v 0.150196 -0.450728 -0.009781
v 0.150196 -0.455420 -0.005296
v 0.150196 -0.457939 -0.002962
v 0.150969 -0.457868 -0.002362
v 0.203181 -0.445132 0.021753
v 0.203181 -0.464087 0.032231
v 0.151435 -0.464087 -0.007816
v 0.157878 -0.455825 -0.012162
v 0.151150 -0.464087 -0.007934
v 0.150196 -0.464087 -0.008325
v 0.150196 -0.459272 -0.012162
v 0.150196 -0.459090 -0.001928
v 0.150196 -0.461644 -0.000520
v 0.150196 -0.464087 0.000593
v 0.179772 -0.464087 0.022153
v 0.179912 -0.463740 0.022087
v 0.202958 -0.459507 0.031044
v 0.203181 -0.450928 0.025668
v 0.150196 -0.448949 -0.012162
v 0.150196 -0.449501 -0.011362
v 0.203181 -0.462689 0.032000
v 0.202019 -0.462689 0.031574
v 0.201640 -0.464087 0.031666
v 0.203181 -0.459454 0.031079
vn -0.0249 0.7975 0.6028
vn 1.0000 -0.0000 -0.0000
vn 1.0000 -0.0000 -0.0004
vn -0.0000 -0.0000 -1.0000
vn -0.3090 0.6445 0.6994
vn -0.3024 0.6003 0.7404
vn 0.5235 -0.5386 -0.6601
vn 0.4948 -0.5493 -0.6733
vn 0.4328 -0.5598 -0.7066
vn 0.3984 -0.5186 -0.7565
vn -0.5092 0.5622 0.6516
vn -0.5055 0.5616 0.6551
vn -0.4253 0.5663 0.7060
vn -0.3408 0.5844 0.7364
vn -0.5850 0.6160 0.5276
vn -0.5442 0.5797 0.6065
vn -0.5357 0.5739 0.6195
vn -0.5345 0.5732 0.6211
vn -0.5331 0.5724 0.6230
vn -0.3407 0.5828 0.7377
vn -0.0000 -1.0000 -0.0000
vn -0.0005 -1.0000 -0.0000
vn 0.0001 -1.0000 -0.0000
vn -0.0094 -1.0000 -0.0000
vn 0.3637 -0.6696 -0.6476
vn 0.3184 -0.5039 -0.8029
vn 0.2962 -0.6283 -0.7194
vn 0.2953 -0.6277 -0.7203
vn 0.2639 -0.6012 -0.7543
vn 0.2597 -0.5787 -0.7731
vn -0.5231 0.5595 0.6429
vn -0.5161 0.5516 0.6553
vn -0.5106 0.5578 0.6543
vn -0.5531 0.4022 0.7296
vn -0.5582 0.3439 0.7551
vn -0.5578 0.3213 0.7652
vn -0.5108 0.3534 0.7837
vn -0.3946 0.4266 0.8138
vn -0.3724 0.4916 0.7872
vn -0.3610 0.5019 0.7860
vn -0.3478 0.5248 0.7769
vn -0.6385 0.6334 0.4373
vn -0.6172 0.6217 0.4822
vn -1.0000 -0.0000 0.0004
vn -1.0000 -0.0000 -0.0000
vn -1.0000 -0.0000 0.0001
vn -1.0000 -0.0000 0.0002
vn -0.5382 0.5634 0.6269
vn -0.3401 0.1529 0.9279
vn -0.3402 0.1528 0.9279
vn -0.3934 0.1657 0.9043
vn -0.3903 0.2622 0.8826
vn -0.3937 0.3207 0.8615
vn -0.3332 0.2498 0.9092
vn -0.2104 0.2678 0.9402
vn -0.2509 0.5187 0.8173
s 0
f 1//1 2//1 3//1
f 1//2 3//2 6//2
f 1//3 6//3 21//3
f 1//2 21//2 34//2
f 1//2 34//2 40//2
f 1//2 40//2 37//2
f 1//2 37//2 22//2
f 1//2 22//2 7//2
f 1//2 7//2 4//2
f 1//4 4//4 11//4
f 1//4 11//4 24//4
f 1//4 24//4 27//4
f 1//4 27//4 35//4
f 1//4 35//4 16//4
f 1//4 16//4 5//4
f 1//4 5//4 2//4
f 2//5 5//5 3//5
f 3//6 5//6 6//6
f 4//7 7//7 8//7
f 4//8 8//8 9//8
f 4//9 9//9 10//9
f 4//10 10//10 11//10
f 5//11 12//11 13//11
f 5//12 13//12 14//12
f 5//13 14//13 15//13
f 5//14 15//14 6//14
f 5//15 16//15 17//15
f 5//16 17//16 18//16
f 5//17 18//17 19//17
f 5//18 19//18 20//18
f 5//19 20//19 12//19
f 6//20 15//20 21//20
f 7//21 22//21 39//21
f 7//21 39//21 31//21
f 7//21 31//21 30//21
f 7//21 30//21 26//21
f 7//21 26//21 25//21
f 7//22 25//22 23//22
f 7//23 23//23 9//23
f 7//24 9//24 8//24
f 9//25 23//25 10//25
f 10//26 24//26 11//26
f 10//27 23//27 25//27
f 10//28 25//28 26//28
f 10//29 26//29 27//29
f 10//30 27//30 24//30
f 12//31 20//31 28//31
f 12//32 28//32 14//32
f 12//33 14//33 13//33
f 14//34 28//34 29//34
f 14//35 29//35 30//35
f 14//36 30//36 31//36
f 14//37 31//37 32//37
f 14//38 32//38 33//38
f 14//39 33//39 15//39
f 15//40 33//40 34//40
f 15//41 34//41 21//41
f 16//42 35//42 36//42
f 16//43 36//43 17//43
f 17//44 36//44 35//44
f 17//45 35//45 27//45
f 17//45 27//45 26//45
f 17//45 26//45 30//45
f 17//45 30//45 29//45
f 17//45 29//45 28//45
f 17//46 28//46 19//46
f 17//47 19//47 18//47
f 19//48 28//48 20//48
f 22//49 37//49 38//49
f 22//50 38//50 39//50
f 31//51 39//51 38//51
f 31//52 38//52 33//52
f 31//53 33//53 32//53
f 33//54 38//54 37//54
f 33//55 37//55 40//55
f 33//56 40//56 34//56
