# Blender 4.1.0
# www.blender.org
mtllib convex_20.mtl
o convex_20
v 0.251514 -0.439749 0.022320
v 0.237676 -0.436912 0.022320
v 0.251514 -0.440616 0.023239
v 0.251514 -0.453918 0.022320
v 0.251514 -0.442712 0.025405
v 0.210415 -0.443187 0.022320
v 0.214957 -0.452075 0.030255
v 0.224046 -0.456311 0.034900
v 0.242218 -0.447106 0.030430
v 0.246764 -0.446947 0.030419
v 0.203186 -0.462376 0.022320
v 0.251514 -0.490208 0.029719
v 0.203186 -0.494114 0.028734
v 0.251514 -0.445042 0.027284
v 0.206328 -0.444193 0.022320
v 0.212596 -0.460369 0.035122
v 0.219504 -0.459458 0.035468
v 0.224046 -0.458584 0.035603
v 0.246764 -0.453608 0.033130
v 0.246764 -0.449220 0.031660
v 0.249693 -0.449904 0.031140
v 0.203186 -0.446055 0.022320
v 0.251514 -0.490537 0.029791
v 0.251514 -0.494494 0.031087
v 0.251514 -0.498065 0.032992
v 0.244758 -0.501376 0.035002
v 0.203186 -0.494722 0.029182
v 0.251514 -0.448403 0.029114
v 0.206072 -0.444333 0.022320
v 0.203503 -0.451265 0.026048
v 0.219504 -0.462693 0.036017
v 0.203186 -0.459458 0.031079
v 0.203186 -0.462693 0.032001
v 0.203186 -0.485466 0.036075
v 0.205869 -0.485409 0.036796
v 0.210415 -0.485409 0.037956
v 0.224046 -0.471778 0.037591
v 0.224046 -0.462693 0.036326
v 0.242218 -0.471778 0.037728
v 0.246764 -0.467239 0.036585
v 0.249807 -0.464472 0.035383
v 0.251245 -0.453785 0.031604
v 0.251514 -0.453943 0.031529
v 0.203186 -0.450930 0.025669
v 0.251514 -0.498318 0.036299
v 0.244758 -0.501376 0.035362
v 0.214957 -0.501591 0.034764
v 0.203186 -0.498882 0.032395
v 0.203186 -0.496571 0.030553
v 0.203186 -0.497178 0.036848
v 0.210415 -0.489955 0.038045
v 0.221316 -0.496716 0.039631
v 0.224046 -0.495925 0.039716
v 0.227419 -0.495697 0.039742
v 0.251306 -0.494494 0.037886
v 0.250502 -0.467239 0.035773
v 0.251514 -0.494494 0.037845
v 0.251514 -0.466067 0.034946
v 0.226392 -0.501319 0.039632
v 0.214957 -0.501591 0.035724
v 0.203186 -0.501560 0.034754
v 0.203186 -0.499793 0.033139
v 0.203186 -0.499040 0.036754
v 0.221316 -0.496830 0.039631
v 0.214957 -0.494494 0.038691
v 0.224457 -0.498622 0.039702
v 0.227201 -0.499040 0.039718
v 0.251514 -0.467239 0.035260
v 0.226250 -0.501319 0.039632
v 0.203186 -0.501560 0.035562
v 0.203186 -0.500566 0.036121
vn 0.1475 0.7195 0.6787
vn 1.0000 -0.0000 -0.0000
vn 1.0000 -0.0000 -0.0001
vn 1.0000 -0.0000 -0.0003
vn -0.0000 -0.0000 -1.0000
vn 0.1446 0.7110 0.6881
vn -0.1422 0.6178 0.7734
vn -0.1243 0.5999 0.7903
vn -0.1025 0.5909 0.8002
vn -0.0195 0.6171 0.7866
vn 0.1319 0.6921 0.7096
vn 0.0361 -0.1997 -0.9792
vn 0.0346 -0.1980 -0.9796
vn 0.2533 0.6073 0.7530
vn -0.1512 0.6142 0.7745
vn -0.2448 0.5416 0.8042
vn -0.1735 0.5347 0.8270
vn -0.0868 0.2969 0.9510
vn -0.0849 0.2943 0.9520
vn 0.0393 0.2951 0.9547
vn 0.0361 0.3174 0.9476
vn -0.0206 0.4693 0.8828
vn -0.0145 0.4793 0.8775
vn 0.2587 0.4630 0.8478
vn 0.3206 0.5120 0.7970
vn -1.0000 -0.0000 -0.0000
vn 0.0371 -0.2125 -0.9765
vn 0.0438 -0.3110 -0.9494
vn 0.0392 -0.4703 -0.8816
vn 0.0273 -0.5590 -0.8287
vn 0.0177 -0.5935 -0.8046
vn 0.5037 0.4131 0.7587
vn -0.2925 0.5347 0.7928
vn -0.2697 0.5311 0.8032
vn -0.0713 0.1669 0.9834
vn -0.2981 0.5078 0.8082
vn -0.3606 0.2558 0.8969
vn -0.3470 0.1652 0.9232
vn -0.2599 0.1338 0.9563
vn -0.2451 0.1301 0.9607
vn -0.0936 0.1200 0.9884
vn -0.0847 0.1288 0.9880
vn -0.0668 0.1670 0.9837
vn -0.0624 0.1730 0.9829
vn 0.0107 0.1733 0.9848
vn 0.0372 0.2087 0.9773
vn 0.0516 0.2454 0.9681
vn 0.2357 0.3087 0.9215
vn 0.1576 0.2426 0.9572
vn 0.2835 0.2702 0.9201
vn 0.3874 0.2606 0.8843
vn 0.4002 0.2649 0.8773
vn 0.5682 0.3288 0.7543
vn -0.3600 0.5283 0.7689
vn -0.3211 0.5381 0.7793
vn 0.4224 -0.9038 -0.0691
vn 0.0072 -1.0000 -0.0000
vn 0.0108 -0.6313 -0.7755
vn 0.0117 -0.6232 -0.7820
vn 0.0171 -0.5956 -0.8031
vn 0.4124 -0.9110 -0.0000
vn -0.4047 0.4898 0.7722
vn -0.0671 0.1376 0.9882
vn -0.2604 0.0635 0.9634
vn -0.2467 0.0605 0.9672
vn -0.1820 0.0192 0.9831
vn -0.1322 0.0193 0.9910
vn -0.0614 0.0880 0.9942
vn -0.0564 0.0875 0.9946
vn -0.0135 0.0876 0.9961
vn -0.0075 0.0885 0.9960
vn -0.0074 0.1379 0.9904
vn 0.0755 0.0372 0.9965
vn 0.1715 0.0755 0.9823
vn 0.2085 0.1878 0.9598
vn 0.1924 0.0787 0.9782
vn 0.2115 0.0819 0.9739
vn 0.4394 0.2328 0.8676
vn 0.4470 0.2427 0.8610
vn 0.3972 0.2580 0.8807
vn 0.1756 -0.6216 0.7634
vn 0.1793 -0.3689 0.9120
vn 0.1655 -0.3705 0.9140
vn 0.0078 -0.9989 0.0468
vn -0.0026 -1.0000 -0.0000
vn -0.0011 -0.6746 -0.7382
vn 0.0104 -0.6323 -0.7747
vn -0.1506 -0.0497 0.9873
vn -0.1514 -0.0147 0.9884
vn -0.1521 -0.0115 0.9883
vn -0.1493 -0.0086 0.9888
vn -0.1440 -0.0000 0.9896
vn -0.0312 -0.0000 0.9995
vn -0.0281 -0.0093 0.9996
vn -0.0072 -0.0061 1.0000
vn -0.0066 -0.0067 1.0000
vn 0.0780 -0.0122 0.9969
vn 0.0884 -0.0685 0.9937
vn 0.4507 0.0843 0.8887
vn 0.4400 0.2323 0.8675
vn -0.0000 -0.0373 0.9993
vn -0.0000 -0.9976 0.0694
vn -0.0037 -0.9968 0.0802
vn -0.1514 -0.3786 0.9131
vn -0.1370 -0.1503 0.9791
vn -0.0603 -0.0659 0.9960
vn -0.0106 -0.0329 0.9994
vn -0.1471 -0.4851 0.8620
s 0
f 1//1 2//1 3//1
f 1//2 3//2 5//2
f 1//2 5//2 14//2
f 1//2 14//2 28//2
f 1//2 28//2 43//2
f 1//2 43//2 58//2
f 1//3 58//3 68//3
f 1//2 68//2 57//2
f 1//2 57//2 45//2
f 1//2 45//2 25//2
f 1//2 25//2 24//2
f 1//2 24//2 23//2
f 1//4 23//4 12//4
f 1//2 12//2 4//2
f 1//5 4//5 11//5
f 1//5 11//5 22//5
f 1//5 22//5 29//5
f 1//5 29//5 15//5
f 1//5 15//5 6//5
f 1//5 6//5 2//5
f 2//6 5//6 3//6
f 2//7 6//7 7//7
f 2//8 7//8 8//8
f 2//9 8//9 9//9
f 2//10 9//10 10//10
f 2//11 10//11 5//11
f 4//12 12//12 13//12
f 4//13 13//13 11//13
f 5//14 10//14 14//14
f 6//15 15//15 7//15
f 7//16 15//16 16//16
f 7//17 16//17 8//17
f 8//18 16//18 17//18
f 8//19 17//19 18//19
f 8//20 18//20 19//20
f 8//21 19//21 20//21
f 8//22 20//22 9//22
f 9//23 20//23 10//23
f 10//24 20//24 21//24
f 10//25 21//25 14//25
f 11//26 13//26 27//26
f 11//26 27//26 49//26
f 11//26 49//26 48//26
f 11//26 48//26 62//26
f 11//26 62//26 61//26
f 11//26 61//26 70//26
f 11//26 70//26 71//26
f 11//26 71//26 63//26
f 11//26 63//26 50//26
f 11//26 50//26 34//26
f 11//26 34//26 33//26
f 11//26 33//26 32//26
f 11//26 32//26 44//26
f 11//26 44//26 22//26
f 12//27 23//27 13//27
f 13//28 23//28 24//28
f 13//29 24//29 25//29
f 13//30 25//30 26//30
f 13//31 26//31 27//31
f 14//32 21//32 28//32
f 15//33 29//33 30//33
f 15//34 30//34 16//34
f 16//35 31//35 17//35
f 16//36 30//36 32//36
f 16//37 32//37 33//37
f 16//38 33//38 34//38
f 16//39 34//39 35//39
f 16//40 35//40 36//40
f 16//41 36//41 37//41
f 16//42 37//42 31//42
f 17//43 31//43 38//43
f 17//44 38//44 18//44
f 18//45 38//45 39//45
f 18//46 39//46 40//46
f 18//47 40//47 19//47
f 19//48 21//48 20//48
f 19//49 40//49 41//49
f 19//50 41//50 21//50
f 21//51 41//51 42//51
f 21//52 42//52 43//52
f 21//53 43//53 28//53
f 22//54 44//54 30//54
f 22//55 30//55 29//55
f 25//56 45//56 26//56
f 26//57 46//57 60//57
f 26//57 60//57 47//57
f 26//58 47//58 48//58
f 26//59 48//59 49//59
f 26//60 49//60 27//60
f 26//61 45//61 46//61
f 30//62 44//62 32//62
f 31//63 37//63 38//63
f 34//64 50//64 35//64
f 35//65 50//65 36//65
f 36//66 50//66 51//66
f 36//67 51//67 52//67
f 36//68 52//68 37//68
f 37//69 52//69 53//69
f 37//70 53//70 54//70
f 37//71 54//71 39//71
f 37//72 39//72 38//72
f 39//73 54//73 55//73
f 39//74 55//74 40//74
f 40//75 56//75 41//75
f 40//76 55//76 57//76
f 40//77 57//77 56//77
f 41//78 56//78 58//78
f 41//79 58//79 43//79
f 41//80 43//80 42//80
f 45//81 59//81 46//81
f 45//82 57//82 55//82
f 45//83 55//83 59//83
f 46//84 59//84 60//84
f 47//85 60//85 70//85
f 47//85 70//85 61//85
f 47//86 61//86 62//86
f 47//87 62//87 48//87
f 50//88 63//88 64//88
f 50//89 64//89 65//89
f 50//90 65//90 51//90
f 51//91 65//91 64//91
f 51//92 64//92 52//92
f 52//93 64//93 53//93
f 53//94 64//94 66//94
f 53//95 66//95 54//95
f 54//96 66//96 67//96
f 54//97 67//97 55//97
f 55//98 67//98 59//98
f 56//99 57//99 68//99
f 56//100 68//100 58//100
f 59//101 67//101 69//101
f 59//102 69//102 60//102
f 60//103 69//103 70//103
f 63//104 71//104 69//104
f 63//105 69//105 64//105
f 64//106 69//106 66//106
f 66//107 69//107 67//107
f 69//108 71//108 70//108
